<?xml version="1.0" standalone="no"?>
<!DOCTYPE svg PUBLIC "-//W3C//DTD SVG 1.1//EN" "http://www.w3.org/Graphics/SVG/1.1/DTD/svg11.dtd" >
<svg xmlns="http://www.w3.org/2000/svg" xmlns:xlink="http://www.w3.org/1999/xlink" version="1.1">
<metadata>
Created by FontForge 20150824 at Thu Dec 24 02:29:05 2015
 By Everything Fonts
Copyright (c) 2001-2006. Nokia Corporation.  All rights reserved. 
</metadata>
<defs>
<font id="NokiaStandardMulti" horiz-adv-x="1451" >
  <font-face 
    font-family="NokiaStandardMulti"
    font-weight="400"
    font-stretch="normal"
    units-per-em="2048"
    panose-1="2 11 5 6 3 4 4 3 2 4"
    ascent="1638"
    descent="-410"
    x-height="1163"
    cap-height="1491"
    bbox="-1167 -1141 2437 2490"
    underline-thickness="133"
    underline-position="-352"
    unicode-range="U+0020-FFFC"
  />
<missing-glyph horiz-adv-x="1024" 
d="M51 0v1536h922v-1536h-922zM179 128h666v1280h-666v-1280z" />
    <glyph glyph-name="Agrave" unicode="A&#x300;" horiz-adv-x="1157" 
d="M1135 0h-226l-98 344h-496l-98 -344h-197l443 1491h237zM772 489l-207 779l-211 -779h418zM727 1559h-176l-250 327h207z" />
    <glyph glyph-name="Aacute" unicode="A&#x301;" horiz-adv-x="1157" 
d="M1135 0h-226l-98 344h-496l-98 -344h-197l443 1491h237zM772 489l-207 779l-211 -779h418zM867 1886l-250 -327h-176l219 327h207z" />
    <glyph glyph-name="Atilde" unicode="A&#x303;" horiz-adv-x="1157" 
d="M1135 0h-226l-98 344h-496l-98 -344h-197l443 1491h237zM772 489l-207 779l-211 -779h418zM803 1812h110v-28q0 -88 -54 -154t-140 -66q-89 0 -164 62q-44 38 -62 48.5t-42 10.5q-86 0 -86 -98v-25h-111v54q0 97 54 153t147 56q44 0 77 -14t74 -48q47 -41 69.5 -51
t45.5 -10q82 0 82 90v20z" />
    <glyph glyph-name="Egrave" unicode="E&#x300;" horiz-adv-x="963" 
d="M903 0h-735v1491h729v-150h-514v-460h418v-150h-418v-581h520v-150zM674 1559h-176l-250 327h207z" />
    <glyph glyph-name="Eacute" unicode="E&#x301;" horiz-adv-x="963" 
d="M903 0h-735v1491h729v-150h-514v-460h418v-150h-418v-581h520v-150zM789 1886l-250 -327h-176l219 327h207z" />
    <glyph glyph-name="Igrave" unicode="I&#x300;" horiz-adv-x="635" 
d="M549 0h-463v150h123v1191h-123v150h463v-150h-125v-1191h125v-150zM462 1559h-176l-250 327h207z" />
    <glyph glyph-name="Iacute" unicode="I&#x301;" horiz-adv-x="635" 
d="M549 0h-463v150h123v1191h-123v150h463v-150h-125v-1191h125v-150zM600 1886l-250 -327h-176l219 327h207z" />
    <glyph glyph-name="Ograve" unicode="O&#x300;" horiz-adv-x="1253" 
d="M627 -16q-255 0 -383.5 189t-128.5 593q0 379 128 560t384 181t384 -182.5t128 -558.5q0 -409 -128.5 -595.5t-383.5 -186.5zM627 1358q-134 0 -209.5 -127.5t-75.5 -464.5q0 -633 285 -633q136 0 210 137.5t74 489.5q0 320 -73 459t-211 139zM770 1559h-176l-250 327
h207z" />
    <glyph glyph-name="Oacute" unicode="O&#x301;" horiz-adv-x="1253" 
d="M627 -16q-255 0 -383.5 189t-128.5 593q0 379 128 560t384 181t384 -182.5t128 -558.5q0 -409 -128.5 -595.5t-383.5 -186.5zM627 1358q-134 0 -209.5 -127.5t-75.5 -464.5q0 -633 285 -633q136 0 210 137.5t74 489.5q0 320 -73 459t-211 139zM910 1886l-250 -327h-176
l219 327h207z" />
    <glyph glyph-name="Otilde" unicode="O&#x303;" horiz-adv-x="1253" 
d="M627 -16q-255 0 -383.5 189t-128.5 593q0 379 128 560t384 181t384 -182.5t128 -558.5q0 -409 -128.5 -595.5t-383.5 -186.5zM627 1358q-134 0 -209.5 -127.5t-75.5 -464.5q0 -633 285 -633q136 0 210 137.5t74 489.5q0 320 -73 459t-211 139zM846 1812h110v-28
q0 -88 -54 -154t-140 -66q-89 0 -164 62q-44 38 -62 48.5t-42 10.5q-86 0 -86 -98v-25h-111v54q0 97 54 153t147 56q44 0 77 -14t74 -48q47 -41 69.5 -51t45.5 -10q82 0 82 90v20z" />
    <glyph glyph-name="Ugrave" unicode="U&#x300;" horiz-adv-x="1239" 
d="M1075 449q0 -229 -115.5 -347t-336.5 -118q-235 0 -347 116t-112 355v1036h215v-1059q0 -160 57.5 -231.5t184.5 -71.5q126 0 182.5 71t56.5 242v1049h215v-1042zM762 1559h-176l-250 327h207z" />
    <glyph glyph-name="Uacute" unicode="U&#x301;" horiz-adv-x="1239" 
d="M1075 449q0 -229 -115.5 -347t-336.5 -118q-235 0 -347 116t-112 355v1036h215v-1059q0 -160 57.5 -231.5t184.5 -71.5q126 0 182.5 71t56.5 242v1049h215v-1042zM903 1886l-250 -327h-176l219 327h207z" />
    <glyph glyph-name="agrave" unicode="a&#x300;" horiz-adv-x="1069" 
d="M758 168q-108 -184 -336 -184q-158 0 -247 89.5t-89 250.5q0 103 38.5 176.5t118.5 119t190 60t272 14.5v109q0 87 -21 133.5t-70 72t-127 25.5q-127 0 -305 -53v149q182 50 344 50q182 0 287 -89.5t105 -281.5v-809h-117zM606 567q-173 0 -240 -64.5t-67 -176.5
q0 -95 44 -147t130 -52q109 0 170.5 70.5t61.5 191.5v178h-99zM678 1272h-176l-250 327h207z" />
    <glyph glyph-name="aacute" unicode="a&#x301;" horiz-adv-x="1069" 
d="M758 168q-108 -184 -336 -184q-158 0 -247 89.5t-89 250.5q0 103 38.5 176.5t118.5 119t190 60t272 14.5v109q0 87 -21 133.5t-70 72t-127 25.5q-127 0 -305 -53v149q182 50 344 50q182 0 287 -89.5t105 -281.5v-809h-117zM606 567q-173 0 -240 -64.5t-67 -176.5
q0 -95 44 -147t130 -52q109 0 170.5 70.5t61.5 191.5v178h-99zM817 1599l-250 -327h-176l219 327h207z" />
    <glyph glyph-name="atilde" unicode="a&#x303;" horiz-adv-x="1069" 
d="M758 168q-108 -184 -336 -184q-158 0 -247 89.5t-89 250.5q0 103 38.5 176.5t118.5 119t190 60t272 14.5v109q0 87 -21 133.5t-70 72t-127 25.5q-127 0 -305 -53v149q182 50 344 50q182 0 287 -89.5t105 -281.5v-809h-117zM606 567q-173 0 -240 -64.5t-67 -176.5
q0 -95 44 -147t130 -52q109 0 170.5 70.5t61.5 191.5v178h-99zM754 1546h110v-28q0 -88 -54 -154t-140 -66q-89 0 -164 62q-44 38 -62 48.5t-42 10.5q-86 0 -86 -98v-25h-111v54q0 97 54 153t147 56q44 0 77 -14t74 -48q47 -41 69.5 -51t45.5 -10q82 0 82 90v20z" />
    <glyph glyph-name="egrave" unicode="e&#x300;" horiz-adv-x="1063" 
d="M918 33q-155 -49 -326 -49q-244 0 -365 147.5t-121 452.5q0 269 117 432.5t334 163.5q113 0 193 -42t129 -127t65.5 -201t16.5 -275h-629q0 -406 289 -406q114 0 297 49v-145zM752 666q0 197 -50 283.5t-145 86.5q-205 0 -225 -370h420zM676 1272h-176l-250 327h207z" />
    <glyph glyph-name="eacute" unicode="e&#x301;" horiz-adv-x="1063" 
d="M918 33q-155 -49 -326 -49q-244 0 -365 147.5t-121 452.5q0 269 117 432.5t334 163.5q113 0 193 -42t129 -127t65.5 -201t16.5 -275h-629q0 -406 289 -406q114 0 297 49v-145zM752 666q0 197 -50 283.5t-145 86.5q-205 0 -225 -370h420zM815 1599l-250 -327h-176l219 327
h207z" />
    <glyph glyph-name="igrave" unicode="i&#x300;" horiz-adv-x="567" 
d="M399 0h-213v1020h-133v143h346v-1163zM427 1272h-176l-250 327h207z" />
    <glyph glyph-name="iacute" unicode="i&#x301;" horiz-adv-x="567" 
d="M399 0h-213v1020h-133v143h346v-1163zM567 1599l-250 -327h-176l219 327h207z" />
    <glyph glyph-name="ograve" unicode="o&#x300;" horiz-adv-x="1151" 
d="M575 -16q-234 0 -351.5 156.5t-117.5 459.5q0 269 122 424.5t347 155.5q229 0 349 -154.5t120 -429.5q0 -299 -118.5 -455.5t-350.5 -156.5zM575 1036q-121 0 -184 -110t-63 -320q0 -235 63 -357t184 -122q122 0 185 108.5t63 370.5q0 183 -64 306.5t-184 123.5z
M719 1272h-176l-250 327h207z" />
    <glyph glyph-name="oacute" unicode="o&#x301;" horiz-adv-x="1151" 
d="M575 -16q-234 0 -351.5 156.5t-117.5 459.5q0 269 122 424.5t347 155.5q229 0 349 -154.5t120 -429.5q0 -299 -118.5 -455.5t-350.5 -156.5zM575 1036q-121 0 -184 -110t-63 -320q0 -235 63 -357t184 -122q122 0 185 108.5t63 370.5q0 183 -64 306.5t-184 123.5z
M858 1599l-250 -327h-176l219 327h207z" />
    <glyph glyph-name="otilde" unicode="o&#x303;" horiz-adv-x="1151" 
d="M575 -16q-234 0 -351.5 156.5t-117.5 459.5q0 269 122 424.5t347 155.5q229 0 349 -154.5t120 -429.5q0 -299 -118.5 -455.5t-350.5 -156.5zM575 1036q-121 0 -184 -110t-63 -320q0 -235 63 -357t184 -122q122 0 185 108.5t63 370.5q0 183 -64 306.5t-184 123.5z
M795 1546h110v-28q0 -88 -54 -154t-140 -66q-89 0 -164 62q-44 38 -62 48.5t-42 10.5q-86 0 -86 -98v-25h-111v54q0 97 54 153t147 56q44 0 77 -14t74 -48q47 -41 69.5 -51t45.5 -10q82 0 82 90v20z" />
    <glyph glyph-name="ugrave" unicode="u&#x300;" horiz-adv-x="1161" 
d="M844 172q-111 -188 -338 -188q-354 0 -354 370v809h213v-774q0 -135 45.5 -198.5t138.5 -63.5q117 0 180.5 88t63.5 229v719h213v-1163h-119zM725 1272h-176l-250 327h207z" />
    <glyph glyph-name="uacute" unicode="u&#x301;" horiz-adv-x="1161" 
d="M844 172q-111 -188 -338 -188q-354 0 -354 370v809h213v-774q0 -135 45.5 -198.5t138.5 -63.5q117 0 180.5 88t63.5 229v719h213v-1163h-119zM865 1599l-250 -327h-176l219 327h207z" />
    <glyph glyph-name="Itilde" unicode="I&#x303;" horiz-adv-x="635" 
d="M549 0h-463v150h123v1191h-123v150h463v-150h-125v-1191h125v-150zM538 1813h110v-28q0 -88 -54 -154t-140 -66q-89 0 -164 62q-44 38 -62 48.5t-42 10.5q-86 0 -86 -98v-25h-111v54q0 97 54 153t147 56q44 0 77 -14t74 -48q47 -41 69.5 -51t45.5 -10q82 0 82 90v20z" />
    <glyph glyph-name="itilde" unicode="i&#x303;" horiz-adv-x="567" 
d="M399 0h-213v1020h-133v143h346v-1163zM503 1546h110v-28q0 -88 -54 -154t-140 -66q-89 0 -164 62q-44 38 -62 48.5t-42 10.5q-86 0 -86 -98v-25h-111v54q0 97 54 153t147 56q44 0 77 -14t74 -48q47 -41 69.5 -51t45.5 -10q82 0 82 90v20z" />
    <glyph glyph-name="Utilde" unicode="U&#x303;" horiz-adv-x="1239" 
d="M1075 449q0 -229 -115.5 -347t-336.5 -118q-235 0 -347 116t-112 355v1036h215v-1059q0 -160 57.5 -231.5t184.5 -71.5q126 0 182.5 71t56.5 242v1049h215v-1042zM830 1813h110v-28q0 -88 -54 -154t-140 -66q-89 0 -164 62q-44 38 -62 48.5t-42 10.5q-86 0 -86 -98v-25
h-111v54q0 97 54 153t147 56q44 0 77 -14t74 -48q47 -41 69.5 -51t45.5 -10q82 0 82 90v20z" />
    <glyph glyph-name="utilde" unicode="u&#x303;" horiz-adv-x="1161" 
d="M844 172q-111 -188 -338 -188q-354 0 -354 370v809h213v-774q0 -135 45.5 -198.5t138.5 -63.5q117 0 180.5 88t63.5 229v719h213v-1163h-119zM789 1546h110v-28q0 -88 -54 -154t-140 -66q-89 0 -164 62q-44 38 -62 48.5t-42 10.5q-86 0 -86 -98v-25h-111v54q0 97 54 153
t147 56q44 0 77 -14t74 -48q47 -41 69.5 -51t45.5 -10q82 0 82 90v20z" />
    <glyph glyph-name="uni1EA0" unicode="A&#x323;" horiz-adv-x="1157" 
d="M1135 0h-226l-98 344h-496l-98 -344h-197l443 1491h237zM772 489l-207 779l-211 -779h418zM565 -334q-51 0 -86 35t-35 86t35 86t86 35q49 0 84.5 -36t35.5 -85q0 -51 -35 -86t-85 -35z" />
    <glyph glyph-name="uni1EA1" unicode="a&#x323;" horiz-adv-x="1069" 
d="M758 168q-108 -184 -336 -184q-158 0 -247 89.5t-89 250.5q0 103 38.5 176.5t118.5 119t190 60t272 14.5v109q0 87 -21 133.5t-70 72t-127 25.5q-127 0 -305 -53v149q182 50 344 50q182 0 287 -89.5t105 -281.5v-809h-117zM606 567q-173 0 -240 -64.5t-67 -176.5
q0 -95 44 -147t130 -52q109 0 170.5 70.5t61.5 191.5v178h-99zM503 -334q-51 0 -86 35t-35 86t35 86t86 35q49 0 84.5 -36t35.5 -85q0 -51 -35 -86t-85 -35z" />
    <glyph glyph-name="uni1EA2" unicode="A&#x309;" horiz-adv-x="1157" 
d="M1135 0h-226l-98 344h-496l-98 -344h-197l443 1491h237zM772 489l-207 779l-211 -779h418zM635 1612v-53h-116v123q121 6 121 65q0 64 -105 64q-46 0 -84 -8v102q52 10 105 10q225 0 225 -155q0 -114 -146 -148zM1116 1466z" />
    <glyph glyph-name="uni1EA3" unicode="a&#x309;" horiz-adv-x="1069" 
d="M758 168q-108 -184 -336 -184q-158 0 -247 89.5t-89 250.5q0 103 38.5 176.5t118.5 119t190 60t272 14.5v109q0 87 -21 133.5t-70 72t-127 25.5q-127 0 -305 -53v149q182 50 344 50q182 0 287 -89.5t105 -281.5v-809h-117zM606 567q-173 0 -240 -64.5t-67 -176.5
q0 -95 44 -147t130 -52q109 0 170.5 70.5t61.5 191.5v178h-99zM566 1325v-53h-116v123q121 6 121 65q0 64 -105 64q-46 0 -84 -8v102q52 10 105 10q225 0 225 -155q0 -114 -146 -148zM1047 1179z" />
    <glyph glyph-name="uni1EA4" unicode="&#xc2;&#x301;" horiz-adv-x="1157" 
d="M1135 0h-226l-98 344h-496l-98 -344h-197l443 1491h237zM772 489l-207 779l-211 -779h418zM687 1870l221 -311h-162l-164 208l-164 -208h-161l221 311h209zM1174 1974l-211 -235h-155l159 235h207zM1157 1507z" />
    <glyph glyph-name="uni1EA5" unicode="&#xe2;&#x301;" horiz-adv-x="1069" 
d="M758 168q-108 -184 -336 -184q-158 0 -247 89.5t-89 250.5q0 103 38.5 176.5t118.5 119t190 60t272 14.5v109q0 87 -21 133.5t-70 72t-127 25.5q-127 0 -305 -53v149q182 50 344 50q182 0 287 -89.5t105 -281.5v-809h-117zM606 567q-173 0 -240 -64.5t-67 -176.5
q0 -95 44 -147t130 -52q109 0 170.5 70.5t61.5 191.5v178h-99zM624 1583l221 -311h-162l-164 209l-164 -209h-161l221 311h209zM1111 1688l-211 -236h-155l159 236h207zM1053 1179z" />
    <glyph glyph-name="uni1EA6" unicode="&#xc2;&#x300;" horiz-adv-x="1157" 
d="M1135 0h-226l-98 344h-496l-98 -344h-197l443 1491h237zM772 489l-207 779l-211 -779h418zM687 1870l221 -311h-162l-164 208l-164 -208h-161l221 311h209zM357 1739h-156l-211 235h207zM1157 1507z" />
    <glyph glyph-name="uni1EA7" unicode="&#xe2;&#x300;" horiz-adv-x="1069" 
d="M758 168q-108 -184 -336 -184q-158 0 -247 89.5t-89 250.5q0 103 38.5 176.5t118.5 119t190 60t272 14.5v109q0 87 -21 133.5t-70 72t-127 25.5q-127 0 -305 -53v149q182 50 344 50q182 0 287 -89.5t105 -281.5v-809h-117zM606 567q-173 0 -240 -64.5t-67 -176.5
q0 -95 44 -147t130 -52q109 0 170.5 70.5t61.5 191.5v178h-99zM624 1583l221 -311h-162l-164 209l-164 -209h-161l221 311h209zM294 1452h-156l-211 236h207zM1053 1179z" />
    <glyph glyph-name="uni1EA8" unicode="&#xc2;&#x309;" horiz-adv-x="1157" 
d="M1135 0h-226l-98 344h-496l-98 -344h-197l443 1491h237zM772 489l-207 779l-211 -779h418zM687 1870l221 -311h-162l-164 208l-164 -208h-161l221 311h209zM937 1776v-54h-117v123q121 7 121 66q0 63 -105 63q-46 0 -84 -8v102q52 11 105 11q225 0 225 -156
q0 -114 -145 -147zM1157 1507z" />
    <glyph glyph-name="uni1EA9" unicode="&#xe2;&#x309;" horiz-adv-x="1069" 
d="M758 168q-108 -184 -336 -184q-158 0 -247 89.5t-89 250.5q0 103 38.5 176.5t118.5 119t190 60t272 14.5v109q0 87 -21 133.5t-70 72t-127 25.5q-127 0 -305 -53v149q182 50 344 50q182 0 287 -89.5t105 -281.5v-809h-117zM606 567q-173 0 -240 -64.5t-67 -176.5
q0 -95 44 -147t130 -52q109 0 170.5 70.5t61.5 191.5v178h-99zM624 1583l221 -311h-162l-164 209l-164 -209h-161l221 311h209zM874 1489v-53h-117v123q121 6 121 65q0 64 -105 64q-46 0 -84 -9v103q52 10 105 10q225 0 225 -156q0 -114 -145 -147zM1053 1179z" />
    <glyph glyph-name="uni1EAA" unicode="&#xc2;&#x303;" horiz-adv-x="1157" 
d="M1135 0h-226l-98 344h-496l-98 -344h-197l443 1491h237zM772 489l-207 779l-211 -779h418zM687 1808l209 -249h-162l-152 151l-151 -151h-162l209 249h209zM930 2079q-4 -100 -57.5 -160.5t-142.5 -60.5q-62 0 -143 45q-82 45 -124 45q-72 0 -79 -90h-117
q5 100 58.5 160.5t142.5 60.5q61 0 143 -45q81 -45 123 -45q72 0 80 90h116zM1157 1507z" />
    <glyph glyph-name="uni1EAB" unicode="&#xe2;&#x303;" horiz-adv-x="1069" 
d="M758 168q-108 -184 -336 -184q-158 0 -247 89.5t-89 250.5q0 103 38.5 176.5t118.5 119t190 60t272 14.5v109q0 87 -21 133.5t-70 72t-127 25.5q-127 0 -305 -53v149q182 50 344 50q182 0 287 -89.5t105 -281.5v-809h-117zM606 567q-173 0 -240 -64.5t-67 -176.5
q0 -95 44 -147t130 -52q109 0 170.5 70.5t61.5 191.5v178h-99zM624 1583l221 -311h-162l-164 209l-164 -209h-161l221 311h209zM882 1845q0 -88 -55.5 -153.5t-139.5 -65.5q-94 0 -164 62q-67 59 -104 59q-86 0 -86 -98v-25h-111v53q0 98 55 153.5t146 55.5q78 0 152 -61
q73 -62 114 -62q82 0 82 90v21h111v-29zM1053 1179z" />
    <glyph glyph-name="uni1EAC" unicode="&#xc2;&#x323;" horiz-adv-x="1157" 
d="M1135 0h-226l-98 344h-496l-98 -344h-197l443 1491h237zM772 489l-207 779l-211 -779h418zM907 1559h-162l-164 209l-164 -209h-161l221 311h209zM566 -334q-51 0 -86 35t-35 86t35 86t86 35q49 0 84.5 -36t35.5 -85q0 -51 -35 -86t-85 -35z" />
    <glyph glyph-name="uni1EAD" unicode="&#xe2;&#x323;" horiz-adv-x="1069" 
d="M758 168q-108 -184 -336 -184q-158 0 -247 89.5t-89 250.5q0 103 38.5 176.5t118.5 119t190 60t272 14.5v109q0 87 -21 133.5t-70 72t-127 25.5q-127 0 -305 -53v149q182 50 344 50q182 0 287 -89.5t105 -281.5v-809h-117zM606 567q-173 0 -240 -64.5t-67 -176.5
q0 -95 44 -147t130 -52q109 0 170.5 70.5t61.5 191.5v178h-99zM844 1272h-162l-164 209l-164 -209h-161l221 311h209zM503 -334q-51 0 -86 35t-35 86t35 86t86 35q49 0 84.5 -36t35.5 -85q0 -51 -35 -86t-85 -35z" />
    <glyph glyph-name="uni1EAE" unicode="&#x102;&#x301;" horiz-adv-x="1157" 
d="M1135 0h-226l-98 344h-496l-98 -344h-197l443 1491h237zM772 489l-207 779l-211 -779h418zM754 1872h148q-43 -156 -126 -233.5t-206 -77.5q-251 0 -332 311h148q40 -178 184 -178q73 0 119 44.5t65 133.5zM836 2079l-211 -236h-155l159 236h207zM1159 1507z" />
    <glyph glyph-name="uni1EAF" unicode="&#x103;&#x301;" horiz-adv-x="1069" 
d="M758 168q-108 -184 -336 -184q-158 0 -247 89.5t-89 250.5q0 103 38.5 176.5t118.5 119t190 60t272 14.5v109q0 87 -21 133.5t-70 72t-127 25.5q-127 0 -305 -53v149q182 50 344 50q182 0 287 -89.5t105 -281.5v-809h-117zM606 567q-173 0 -240 -64.5t-67 -176.5
q0 -95 44 -147t130 -52q109 0 170.5 70.5t61.5 191.5v178h-99zM714 1583h147q-43 -156 -126 -233.5t-206 -77.5q-250 0 -331 311h147q41 -178 184 -178q73 0 119.5 44.5t65.5 133.5zM849 1886l-250 -327h-176l219 327h207zM1057 1179z" />
    <glyph glyph-name="uni1EB0" unicode="&#x102;&#x300;" horiz-adv-x="1157" 
d="M1135 0h-226l-98 344h-496l-98 -344h-197l443 1491h237zM772 489l-207 779l-211 -779h418zM754 1872h148q-43 -156 -126 -233.5t-206 -77.5q-251 0 -332 311h148q40 -178 184 -178q73 0 119 44.5t65 133.5zM670 1843h-155l-211 236h207zM1159 1507z" />
    <glyph glyph-name="uni1EB1" unicode="&#x103;&#x300;" horiz-adv-x="1069" 
d="M758 168q-108 -184 -336 -184q-158 0 -247 89.5t-89 250.5q0 103 38.5 176.5t118.5 119t190 60t272 14.5v109q0 87 -21 133.5t-70 72t-127 25.5q-127 0 -305 -53v149q182 50 344 50q182 0 287 -89.5t105 -281.5v-809h-117zM606 567q-173 0 -240 -64.5t-67 -176.5
q0 -95 44 -147t130 -52q109 0 170.5 70.5t61.5 191.5v178h-99zM714 1583h147q-43 -156 -126 -233.5t-206 -77.5q-250 0 -331 311h147q41 -178 184 -178q73 0 119.5 44.5t65.5 133.5zM636 1559h-176l-250 327h207zM1057 1179z" />
    <glyph glyph-name="uni1EB2" unicode="&#x102;&#x309;" horiz-adv-x="1157" 
d="M1135 0h-226l-98 344h-496l-98 -344h-197l443 1491h237zM772 489l-207 779l-211 -779h418zM891 1817q-19 -118 -104 -188t-217 -70t-217 70t-105 188h138q13 -67 59 -100.5t125 -33.5q80 0 126 33.5t58 100.5h137zM609 1796v-53h-117v119q119 4 119 61q0 55 -98 55
q-47 0 -84 -8v98q52 11 104 11q215 0 215 -144q0 -110 -139 -139zM1159 1507z" />
    <glyph glyph-name="uni1EB3" unicode="&#x103;&#x309;" horiz-adv-x="1069" 
d="M758 168q-108 -184 -336 -184q-158 0 -247 89.5t-89 250.5q0 103 38.5 176.5t118.5 119t190 60t272 14.5v109q0 87 -21 133.5t-70 72t-127 25.5q-127 0 -305 -53v149q182 50 344 50q182 0 287 -89.5t105 -281.5v-809h-117zM606 567q-173 0 -240 -64.5t-67 -176.5
q0 -95 44 -147t130 -52q109 0 170.5 70.5t61.5 191.5v178h-99zM714 1583h147q-43 -156 -126 -233.5t-206 -77.5q-250 0 -331 311h147q41 -178 184 -178q73 0 119.5 44.5t65.5 133.5zM574 1612v-53h-116v122q121 7 121 66q0 63 -105 63q-46 0 -84 -8v103q52 10 105 10
q225 0 225 -156q0 -114 -146 -147zM1057 1179z" />
    <glyph glyph-name="uni1EB4" unicode="&#x102;&#x303;" horiz-adv-x="1157" 
d="M1135 0h-226l-98 344h-496l-98 -344h-197l443 1491h237zM772 489l-207 779l-211 -779h418zM891 1817q-19 -118 -104 -188t-217 -70t-217 70t-105 188h138q13 -67 59 -100.5t125 -33.5q80 0 126 33.5t58 100.5h137zM932 2079q-4 -100 -57.5 -160.5t-142.5 -60.5
q-62 0 -143 45q-82 45 -124 45q-72 0 -79 -90h-117q5 100 58.5 160.5t142.5 60.5q61 0 143 -45q81 -45 123 -45q72 0 80 90h116zM1159 1507z" />
    <glyph glyph-name="uni1EB5" unicode="&#x103;&#x303;" horiz-adv-x="1069" 
d="M758 168q-108 -184 -336 -184q-158 0 -247 89.5t-89 250.5q0 103 38.5 176.5t118.5 119t190 60t272 14.5v109q0 87 -21 133.5t-70 72t-127 25.5q-127 0 -305 -53v149q182 50 344 50q182 0 287 -89.5t105 -281.5v-809h-117zM606 567q-173 0 -240 -64.5t-67 -176.5
q0 -95 44 -147t130 -52q109 0 170.5 70.5t61.5 191.5v178h-99zM714 1583h147q-43 -156 -126 -233.5t-206 -77.5q-250 0 -331 311h147q41 -178 184 -178q73 0 119.5 44.5t65.5 133.5zM894 1858q0 -88 -55 -154t-140 -66q-94 0 -163 62q-68 59 -105 59q-86 0 -86 -98v-25h-111
v54q0 95 54 151.5t147 56.5q78 0 152 -61q73 -61 114 -61q82 0 82 90v20h111v-28zM1057 1179z" />
    <glyph glyph-name="uni1EB6" unicode="&#x102;&#x323;" horiz-adv-x="1157" 
d="M1135 0h-226l-98 344h-496l-98 -344h-197l443 1491h237zM772 489l-207 779l-211 -779h418zM901 1872q-43 -161 -123.5 -236t-208.5 -75q-254 0 -332 311h148q19 -84 66.5 -131t117.5 -47q68 0 117 47t68 131h147zM566 -334q-51 0 -86 35t-35 86t35 86t86 35
q49 0 84.5 -36t35.5 -85q0 -51 -35 -86t-85 -35z" />
    <glyph glyph-name="uni1EB7" unicode="&#x103;&#x323;" horiz-adv-x="1069" 
d="M758 168q-108 -184 -336 -184q-158 0 -247 89.5t-89 250.5q0 103 38.5 176.5t118.5 119t190 60t272 14.5v109q0 87 -21 133.5t-70 72t-127 25.5q-127 0 -305 -53v149q182 50 344 50q182 0 287 -89.5t105 -281.5v-809h-117zM606 567q-173 0 -240 -64.5t-67 -176.5
q0 -95 44 -147t130 -52q109 0 170.5 70.5t61.5 191.5v178h-99zM860 1583q-43 -161 -123.5 -236t-208.5 -75q-254 0 -332 311h148q19 -84 66.5 -131t117.5 -47q68 0 117 47t68 131h147zM503 -334q-51 0 -86 35t-35 86t35 86t86 35q49 0 84.5 -36t35.5 -85q0 -51 -35 -86
t-85 -35z" />
    <glyph glyph-name="uni1EB8" unicode="E&#x323;" horiz-adv-x="963" 
d="M903 0h-735v1491h729v-150h-514v-460h418v-150h-418v-581h520v-150zM538 -334q-51 0 -86 35t-35 86t35 86t86 35q49 0 84.5 -36t35.5 -85q0 -51 -35 -86t-85 -35z" />
    <glyph glyph-name="uni1EB9" unicode="e&#x323;" horiz-adv-x="1063" 
d="M918 33q-155 -49 -326 -49q-244 0 -365 147.5t-121 452.5q0 269 117 432.5t334 163.5q113 0 193 -42t129 -127t65.5 -201t16.5 -275h-629q0 -406 289 -406q114 0 297 49v-145zM752 666q0 197 -50 283.5t-145 86.5q-205 0 -225 -370h420zM579 -334q-51 0 -86 35t-35 86
t35 86t86 35q49 0 84.5 -36t35.5 -85q0 -51 -35 -86t-85 -35z" />
    <glyph glyph-name="uni1EBA" unicode="E&#x309;" horiz-adv-x="963" 
d="M903 0h-735v1491h729v-150h-514v-460h418v-150h-418v-581h520v-150zM568 1612v-53h-116v123q121 6 121 65q0 64 -105 64q-46 0 -84 -8v102q52 10 105 10q225 0 225 -155q0 -114 -146 -148zM1049 1466z" />
    <glyph glyph-name="uni1EBB" unicode="e&#x309;" horiz-adv-x="1063" 
d="M918 33q-155 -49 -326 -49q-244 0 -365 147.5t-121 452.5q0 269 117 432.5t334 163.5q113 0 193 -42t129 -127t65.5 -201t16.5 -275h-629q0 -406 289 -406q114 0 297 49v-145zM752 666q0 197 -50 283.5t-145 86.5q-205 0 -225 -370h420zM596 1325v-53h-116v123
q121 6 121 65q0 64 -105 64q-46 0 -84 -8v102q52 10 105 10q225 0 225 -155q0 -114 -146 -148zM1077 1179z" />
    <glyph glyph-name="uni1EBC" unicode="E&#x303;" horiz-adv-x="963" 
d="M903 0h-735v1491h729v-150h-514v-460h418v-150h-418v-581h520v-150zM754 1812h110v-28q0 -88 -54 -154t-140 -66q-89 0 -164 62q-44 38 -62 48.5t-42 10.5q-86 0 -86 -98v-25h-111v54q0 97 54 153t147 56q44 0 77 -14t74 -48q47 -41 69.5 -51t45.5 -10q82 0 82 90v20z
" />
    <glyph glyph-name="uni1EBD" unicode="e&#x303;" horiz-adv-x="1063" 
d="M918 33q-155 -49 -326 -49q-244 0 -365 147.5t-121 452.5q0 269 117 432.5t334 163.5q113 0 193 -42t129 -127t65.5 -201t16.5 -275h-629q0 -406 289 -406q114 0 297 49v-145zM752 666q0 197 -50 283.5t-145 86.5q-205 0 -225 -370h420zM778 1546h110v-28q0 -88 -54 -154
t-140 -66q-89 0 -164 62q-44 38 -62 48.5t-42 10.5q-86 0 -86 -98v-25h-111v54q0 97 54 153t147 56q44 0 77 -14t74 -48q47 -41 69.5 -51t45.5 -10q82 0 82 90v20z" />
    <glyph glyph-name="uni1EBE" unicode="&#xca;&#x301;" horiz-adv-x="963" 
d="M903 0h-735v1491h729v-150h-514v-460h418v-150h-418v-581h520v-150zM638 1870l221 -311h-162l-164 208l-164 -208h-161l221 311h209zM1125 1974l-211 -235h-155l159 235h207zM1108 1507z" />
    <glyph glyph-name="uni1EBF" unicode="&#xea;&#x301;" horiz-adv-x="1063" 
d="M918 33q-155 -49 -326 -49q-244 0 -365 147.5t-121 452.5q0 269 117 432.5t334 163.5q113 0 193 -42t129 -127t65.5 -201t16.5 -275h-629q0 -406 289 -406q114 0 297 49v-145zM752 666q0 197 -50 283.5t-145 86.5q-205 0 -225 -370h420zM636 1583l221 -311h-162l-164 209
l-164 -209h-161l221 311h209zM1123 1688l-211 -236h-155l159 236h207zM1065 1179z" />
    <glyph glyph-name="uni1EC0" unicode="&#xca;&#x300;" horiz-adv-x="963" 
d="M903 0h-735v1491h729v-150h-514v-460h418v-150h-418v-581h520v-150zM638 1870l221 -311h-162l-164 208l-164 -208h-161l221 311h209zM308 1739h-156l-211 235h207zM1108 1507z" />
    <glyph glyph-name="uni1EC1" unicode="&#xea;&#x300;" horiz-adv-x="1063" 
d="M918 33q-155 -49 -326 -49q-244 0 -365 147.5t-121 452.5q0 269 117 432.5t334 163.5q113 0 193 -42t129 -127t65.5 -201t16.5 -275h-629q0 -406 289 -406q114 0 297 49v-145zM752 666q0 197 -50 283.5t-145 86.5q-205 0 -225 -370h420zM636 1583l221 -311h-162l-164 209
l-164 -209h-161l221 311h209zM306 1452h-156l-211 236h207zM1065 1179z" />
    <glyph glyph-name="uni1EC2" unicode="&#xca;&#x309;" horiz-adv-x="963" 
d="M903 0h-735v1491h729v-150h-514v-460h418v-150h-418v-581h520v-150zM638 1870l221 -311h-162l-164 208l-164 -208h-161l221 311h209zM888 1776v-54h-117v123q121 7 121 66q0 63 -105 63q-46 0 -84 -8v102q52 11 105 11q225 0 225 -156q0 -114 -145 -147zM1108 1507z" />
    <glyph glyph-name="uni1EC3" unicode="&#xea;&#x309;" horiz-adv-x="1063" 
d="M918 33q-155 -49 -326 -49q-244 0 -365 147.5t-121 452.5q0 269 117 432.5t334 163.5q113 0 193 -42t129 -127t65.5 -201t16.5 -275h-629q0 -406 289 -406q114 0 297 49v-145zM752 666q0 197 -50 283.5t-145 86.5q-205 0 -225 -370h420zM636 1583l221 -311h-162l-164 209
l-164 -209h-161l221 311h209zM886 1489v-53h-117v123q121 6 121 65q0 64 -105 64q-46 0 -84 -9v103q52 10 105 10q225 0 225 -156q0 -114 -145 -147zM1065 1179z" />
    <glyph glyph-name="uni1EC4" unicode="&#xca;&#x303;" horiz-adv-x="963" 
d="M903 0h-735v1491h729v-150h-514v-460h418v-150h-418v-581h520v-150zM638 1808l209 -249h-162l-152 151l-151 -151h-162l209 249h209zM881 2079q-4 -100 -57.5 -160.5t-142.5 -60.5q-62 0 -143 45q-82 45 -124 45q-72 0 -79 -90h-117q5 100 58.5 160.5t142.5 60.5
q61 0 143 -45q81 -45 123 -45q72 0 80 90h116zM1108 1507z" />
    <glyph glyph-name="uni1EC5" unicode="&#xea;&#x303;" horiz-adv-x="1063" 
d="M918 33q-155 -49 -326 -49q-244 0 -365 147.5t-121 452.5q0 269 117 432.5t334 163.5q113 0 193 -42t129 -127t65.5 -201t16.5 -275h-629q0 -406 289 -406q114 0 297 49v-145zM752 666q0 197 -50 283.5t-145 86.5q-205 0 -225 -370h420zM636 1583l221 -311h-162l-164 209
l-164 -209h-161l221 311h209zM894 1845q0 -88 -55.5 -153.5t-139.5 -65.5q-94 0 -164 62q-67 59 -104 59q-86 0 -86 -98v-25h-111v53q0 98 55 153.5t146 55.5q78 0 152 -61q73 -62 114 -62q82 0 82 90v21h111v-29zM1065 1179z" />
    <glyph glyph-name="uni1EC6" unicode="&#xca;&#x323;" horiz-adv-x="963" 
d="M903 0h-735v1491h729v-150h-514v-460h418v-150h-418v-581h520v-150zM846 1559h-162l-164 209l-164 -209h-161l221 311h209zM538 -334q-51 0 -86 35t-35 86t35 86t86 35q49 0 84.5 -36t35.5 -85q0 -51 -35 -86t-85 -35z" />
    <glyph glyph-name="uni1EC7" unicode="&#xea;&#x323;" horiz-adv-x="1063" 
d="M918 33q-155 -49 -326 -49q-244 0 -365 147.5t-121 452.5q0 269 117 432.5t334 163.5q113 0 193 -42t129 -127t65.5 -201t16.5 -275h-629q0 -406 289 -406q114 0 297 49v-145zM752 666q0 197 -50 283.5t-145 86.5q-205 0 -225 -370h420zM856 1272h-162l-164 209
l-164 -209h-161l221 311h209zM579 -334q-51 0 -86 35t-35 86t35 86t86 35q49 0 84.5 -36t35.5 -85q0 -51 -35 -86t-85 -35z" />
    <glyph glyph-name="uni1EC8" unicode="I&#x309;" horiz-adv-x="635" 
d="M549 0h-463v150h123v1191h-123v150h463v-150h-125v-1191h125v-150zM355 1612v-53h-116v123q121 6 121 65q0 64 -105 64q-46 0 -84 -8v102q52 10 105 10q225 0 225 -155q0 -114 -146 -148zM836 1466z" />
    <glyph glyph-name="uni1EC9" unicode="i&#x309;" horiz-adv-x="567" 
d="M399 0h-213v1020h-133v143h346v-1163zM303 1325v-53h-116v123q121 6 121 65q0 64 -105 64q-46 0 -84 -8v102q52 10 105 10q225 0 225 -155q0 -114 -146 -148zM784 1179z" />
    <glyph glyph-name="uni1ECA" unicode="I&#x323;" horiz-adv-x="635" 
d="M549 0h-463v150h123v1191h-123v150h463v-150h-125v-1191h125v-150zM319 -334q-51 0 -86 35t-35 86t35 86t86 35q49 0 84.5 -36t35.5 -85q0 -51 -35 -86t-85 -35z" />
    <glyph glyph-name="uni1ECB" unicode="i&#x323;" horiz-adv-x="567" 
d="M293 1329q-51 0 -86 35t-35 86t35 86t86 35q49 0 85 -36t36 -85q0 -50 -35.5 -85.5t-85.5 -35.5zM399 0h-213v1020h-133v143h346v-1163zM294 -334q-51 0 -86 35t-35 86t35 86t86 35q49 0 84.5 -36t35.5 -85q0 -51 -35 -86t-85 -35z" />
    <glyph glyph-name="uni1ECC" unicode="O&#x323;" horiz-adv-x="1253" 
d="M627 -16q-255 0 -383.5 189t-128.5 593q0 379 128 560t384 181t384 -182.5t128 -558.5q0 -409 -128.5 -595.5t-383.5 -186.5zM627 1358q-134 0 -209.5 -127.5t-75.5 -464.5q0 -633 285 -633q136 0 210 137.5t74 489.5q0 320 -73 459t-211 139zM628 -334q-51 0 -86 35
t-35 86t35 86t86 35q49 0 84.5 -36t35.5 -85q0 -51 -35 -86t-85 -35z" />
    <glyph glyph-name="uni1ECD" unicode="o&#x323;" horiz-adv-x="1151" 
d="M575 -16q-234 0 -351.5 156.5t-117.5 459.5q0 269 122 424.5t347 155.5q229 0 349 -154.5t120 -429.5q0 -299 -118.5 -455.5t-350.5 -156.5zM575 1036q-121 0 -184 -110t-63 -320q0 -235 63 -357t184 -122q122 0 185 108.5t63 370.5q0 183 -64 306.5t-184 123.5z
M577 -334q-51 0 -86 35t-35 86t35 86t86 35q49 0 84.5 -36t35.5 -85q0 -51 -35 -86t-85 -35z" />
    <glyph glyph-name="uni1ECE" unicode="O&#x309;" horiz-adv-x="1253" 
d="M627 -16q-255 0 -383.5 189t-128.5 593q0 379 128 560t384 181t384 -182.5t128 -558.5q0 -409 -128.5 -595.5t-383.5 -186.5zM627 1358q-134 0 -209.5 -127.5t-75.5 -464.5q0 -633 285 -633q136 0 210 137.5t74 489.5q0 320 -73 459t-211 139zM678 1612v-53h-116v123
q121 6 121 65q0 64 -105 64q-46 0 -84 -8v102q52 10 105 10q225 0 225 -155q0 -114 -146 -148zM1159 1466z" />
    <glyph glyph-name="uni1ECF" unicode="o&#x309;" horiz-adv-x="1151" 
d="M575 -16q-234 0 -351.5 156.5t-117.5 459.5q0 269 122 424.5t347 155.5q229 0 349 -154.5t120 -429.5q0 -299 -118.5 -455.5t-350.5 -156.5zM575 1036q-121 0 -184 -110t-63 -320q0 -235 63 -357t184 -122q122 0 185 108.5t63 370.5q0 183 -64 306.5t-184 123.5z
M623 1325v-53h-116v123q121 6 121 65q0 64 -105 64q-46 0 -84 -8v102q52 10 105 10q225 0 225 -155q0 -114 -146 -148zM1104 1179z" />
    <glyph glyph-name="uni1ED0" unicode="&#xd4;&#x301;" horiz-adv-x="1253" 
d="M627 -16q-255 0 -383.5 189t-128.5 593q0 379 128 560t384 181t384 -182.5t128 -558.5q0 -409 -128.5 -595.5t-383.5 -186.5zM627 1358q-134 0 -209.5 -127.5t-75.5 -464.5q0 -633 285 -633q136 0 210 137.5t74 489.5q0 320 -73 459t-211 139zM732 1870l221 -311h-162
l-164 208l-164 -208h-161l221 311h209zM1219 1974l-211 -235h-155l159 235h207zM1202 1507z" />
    <glyph glyph-name="uni1ED1" unicode="&#xf4;&#x301;" horiz-adv-x="1151" 
d="M575 -16q-234 0 -351.5 156.5t-117.5 459.5q0 269 122 424.5t347 155.5q229 0 349 -154.5t120 -429.5q0 -299 -118.5 -455.5t-350.5 -156.5zM575 1036q-121 0 -184 -110t-63 -320q0 -235 63 -357t184 -122q122 0 185 108.5t63 370.5q0 183 -64 306.5t-184 123.5z
M681 1583l221 -311h-162l-164 209l-164 -209h-161l221 311h209zM1168 1688l-211 -236h-155l159 236h207zM1110 1179z" />
    <glyph glyph-name="uni1ED2" unicode="&#xd4;&#x300;" horiz-adv-x="1253" 
d="M627 -16q-255 0 -383.5 189t-128.5 593q0 379 128 560t384 181t384 -182.5t128 -558.5q0 -409 -128.5 -595.5t-383.5 -186.5zM627 1358q-134 0 -209.5 -127.5t-75.5 -464.5q0 -633 285 -633q136 0 210 137.5t74 489.5q0 320 -73 459t-211 139zM732 1870l221 -311h-162
l-164 208l-164 -208h-161l221 311h209zM402 1739h-156l-211 235h207zM1202 1507z" />
    <glyph glyph-name="uni1ED3" unicode="&#xf4;&#x300;" horiz-adv-x="1151" 
d="M575 -16q-234 0 -351.5 156.5t-117.5 459.5q0 269 122 424.5t347 155.5q229 0 349 -154.5t120 -429.5q0 -299 -118.5 -455.5t-350.5 -156.5zM575 1036q-121 0 -184 -110t-63 -320q0 -235 63 -357t184 -122q122 0 185 108.5t63 370.5q0 183 -64 306.5t-184 123.5z
M681 1583l221 -311h-162l-164 209l-164 -209h-161l221 311h209zM351 1452h-156l-211 236h207zM1110 1179z" />
    <glyph glyph-name="uni1ED4" unicode="&#xd4;&#x309;" horiz-adv-x="1253" 
d="M627 -16q-255 0 -383.5 189t-128.5 593q0 379 128 560t384 181t384 -182.5t128 -558.5q0 -409 -128.5 -595.5t-383.5 -186.5zM627 1358q-134 0 -209.5 -127.5t-75.5 -464.5q0 -633 285 -633q136 0 210 137.5t74 489.5q0 320 -73 459t-211 139zM732 1870l221 -311h-162
l-164 208l-164 -208h-161l221 311h209zM982 1776v-54h-117v123q121 7 121 66q0 63 -105 63q-46 0 -84 -8v102q52 11 105 11q225 0 225 -156q0 -114 -145 -147zM1202 1507z" />
    <glyph glyph-name="uni1ED5" unicode="&#xf4;&#x309;" horiz-adv-x="1151" 
d="M575 -16q-234 0 -351.5 156.5t-117.5 459.5q0 269 122 424.5t347 155.5q229 0 349 -154.5t120 -429.5q0 -299 -118.5 -455.5t-350.5 -156.5zM575 1036q-121 0 -184 -110t-63 -320q0 -235 63 -357t184 -122q122 0 185 108.5t63 370.5q0 183 -64 306.5t-184 123.5z
M681 1583l221 -311h-162l-164 209l-164 -209h-161l221 311h209zM931 1489v-53h-117v123q121 6 121 65q0 64 -105 64q-46 0 -84 -9v103q52 10 105 10q225 0 225 -156q0 -114 -145 -147zM1110 1179z" />
    <glyph glyph-name="uni1ED6" unicode="&#xd4;&#x303;" horiz-adv-x="1253" 
d="M627 -16q-255 0 -383.5 189t-128.5 593q0 379 128 560t384 181t384 -182.5t128 -558.5q0 -409 -128.5 -595.5t-383.5 -186.5zM627 1358q-134 0 -209.5 -127.5t-75.5 -464.5q0 -633 285 -633q136 0 210 137.5t74 489.5q0 320 -73 459t-211 139zM732 1808l209 -249h-162
l-152 151l-151 -151h-162l209 249h209zM975 2079q-4 -100 -57.5 -160.5t-142.5 -60.5q-62 0 -143 45q-82 45 -124 45q-72 0 -79 -90h-117q5 100 58.5 160.5t142.5 60.5q61 0 143 -45q81 -45 123 -45q72 0 80 90h116zM1202 1507z" />
    <glyph glyph-name="uni1ED7" unicode="&#xf4;&#x303;" horiz-adv-x="1151" 
d="M575 -16q-234 0 -351.5 156.5t-117.5 459.5q0 269 122 424.5t347 155.5q229 0 349 -154.5t120 -429.5q0 -299 -118.5 -455.5t-350.5 -156.5zM575 1036q-121 0 -184 -110t-63 -320q0 -235 63 -357t184 -122q122 0 185 108.5t63 370.5q0 183 -64 306.5t-184 123.5z
M681 1583l221 -311h-162l-164 209l-164 -209h-161l221 311h209zM939 1845q0 -88 -55.5 -153.5t-139.5 -65.5q-94 0 -164 62q-67 59 -104 59q-86 0 -86 -98v-25h-111v53q0 98 55 153.5t146 55.5q78 0 152 -61q73 -62 114 -62q82 0 82 90v21h111v-29zM1110 1179z" />
    <glyph glyph-name="uni1ED8" unicode="&#xd4;&#x323;" horiz-adv-x="1253" 
d="M627 -16q-255 0 -383.5 189t-128.5 593q0 379 128 560t384 181t384 -182.5t128 -558.5q0 -409 -128.5 -595.5t-383.5 -186.5zM627 1358q-134 0 -209.5 -127.5t-75.5 -464.5q0 -633 285 -633q136 0 210 137.5t74 489.5q0 320 -73 459t-211 139zM954 1559h-162l-164 209
l-164 -209h-161l221 311h209zM628 -334q-51 0 -86 35t-35 86t35 86t86 35q49 0 84.5 -36t35.5 -85q0 -51 -35 -86t-85 -35z" />
    <glyph glyph-name="uni1ED9" unicode="&#xf4;&#x323;" horiz-adv-x="1151" 
d="M575 -16q-234 0 -351.5 156.5t-117.5 459.5q0 269 122 424.5t347 155.5q229 0 349 -154.5t120 -429.5q0 -299 -118.5 -455.5t-350.5 -156.5zM575 1036q-121 0 -184 -110t-63 -320q0 -235 63 -357t184 -122q122 0 185 108.5t63 370.5q0 183 -64 306.5t-184 123.5z
M901 1272h-162l-164 209l-164 -209h-161l221 311h209zM577 -334q-51 0 -86 35t-35 86t35 86t86 35q49 0 84.5 -36t35.5 -85q0 -51 -35 -86t-85 -35z" />
    <glyph glyph-name="uni1EDA" unicode="&#x1a0;&#x301;" horiz-adv-x="1253" 
d="M1062 1235q77 -175 77 -469q0 -409 -128.5 -595.5t-383.5 -186.5q-254 0 -383 189t-129 593q0 741 512 741q248 0 375 -170q115 26 115 146v94h145v-61q0 -224 -200 -281zM343 766q0 -633 284 -633q138 0 211.5 139.5t73.5 493.5q0 592 -285 592q-138 0 -211 -131
t-73 -461zM939 1886l-250 -327h-176l219 327h207z" />
    <glyph glyph-name="uni1EDB" unicode="&#x1a1;&#x301;" horiz-adv-x="1241" 
d="M963 967q56 0 89 44t33 103v135h146v-102q0 -268 -221 -295q34 -115 34 -256q0 -299 -118.5 -455.5t-350.5 -156.5q-234 0 -351.5 156.5t-117.5 459.5q0 269 122 424.5t347 155.5q268 0 388 -213zM575 1036q-121 0 -184 -110t-63 -320q0 -235 63 -357t184 -122
q122 0 185 108.5t63 370.5q0 183 -64 306.5t-184 123.5zM839 1599l-250 -327h-176l219 327h207z" />
    <glyph glyph-name="uni1EDC" unicode="&#x1a0;&#x300;" horiz-adv-x="1253" 
d="M1062 1235q77 -175 77 -469q0 -409 -128.5 -595.5t-383.5 -186.5q-254 0 -383 189t-129 593q0 741 512 741q248 0 375 -170q115 26 115 146v94h145v-61q0 -224 -200 -281zM343 766q0 -633 284 -633q138 0 211.5 139.5t73.5 493.5q0 592 -285 592q-138 0 -211 -131
t-73 -461zM768 1559h-176l-250 327h207z" />
    <glyph glyph-name="uni1EDD" unicode="&#x1a1;&#x300;" horiz-adv-x="1241" 
d="M963 967q56 0 89 44t33 103v135h146v-102q0 -268 -221 -295q34 -115 34 -256q0 -299 -118.5 -455.5t-350.5 -156.5q-234 0 -351.5 156.5t-117.5 459.5q0 269 122 424.5t347 155.5q268 0 388 -213zM575 1036q-121 0 -184 -110t-63 -320q0 -235 63 -357t184 -122
q122 0 185 108.5t63 370.5q0 183 -64 306.5t-184 123.5zM734 1272h-176l-250 327h207z" />
    <glyph glyph-name="uni1EDE" unicode="&#x1a0;&#x309;" horiz-adv-x="1253" 
d="M1062 1235q77 -175 77 -469q0 -409 -128.5 -595.5t-383.5 -186.5q-254 0 -383 189t-129 593q0 741 512 741q248 0 375 -170q115 26 115 146v94h145v-61q0 -224 -200 -281zM343 766q0 -633 284 -633q138 0 211.5 139.5t73.5 493.5q0 592 -285 592q-138 0 -211 -131
t-73 -461zM678 1612v-53h-116v123q121 6 121 65q0 64 -105 64q-46 0 -84 -8v102q52 10 105 10q225 0 225 -155q0 -114 -146 -148zM1159 1466z" />
    <glyph glyph-name="uni1EDF" unicode="&#x1a1;&#x309;" horiz-adv-x="1241" 
d="M963 967q56 0 89 44t33 103v135h146v-102q0 -268 -221 -295q34 -115 34 -256q0 -299 -118.5 -455.5t-350.5 -156.5q-234 0 -351.5 156.5t-117.5 459.5q0 269 122 424.5t347 155.5q268 0 388 -213zM575 1036q-121 0 -184 -110t-63 -320q0 -235 63 -357t184 -122
q122 0 185 108.5t63 370.5q0 183 -64 306.5t-184 123.5zM622 1325v-53h-116v123q121 6 121 65q0 64 -105 64q-46 0 -84 -8v102q52 10 105 10q225 0 225 -155q0 -114 -146 -148zM1103 1179z" />
    <glyph glyph-name="uni1EE0" unicode="&#x1a0;&#x303;" horiz-adv-x="1253" 
d="M1062 1235q77 -175 77 -469q0 -409 -128.5 -595.5t-383.5 -186.5q-254 0 -383 189t-129 593q0 741 512 741q248 0 375 -170q115 26 115 146v94h145v-61q0 -224 -200 -281zM343 766q0 -633 284 -633q138 0 211.5 139.5t73.5 493.5q0 592 -285 592q-138 0 -211 -131
t-73 -461zM834 1812h110v-28q0 -88 -54 -154t-140 -66q-89 0 -164 62q-44 38 -62 48.5t-42 10.5q-86 0 -86 -98v-25h-111v54q0 97 54 153t147 56q44 0 77 -14t74 -48q47 -41 69.5 -51t45.5 -10q82 0 82 90v20z" />
    <glyph glyph-name="uni1EE1" unicode="&#x1a1;&#x303;" horiz-adv-x="1241" 
d="M963 967q56 0 89 44t33 103v135h146v-102q0 -268 -221 -295q34 -115 34 -256q0 -299 -118.5 -455.5t-350.5 -156.5q-234 0 -351.5 156.5t-117.5 459.5q0 269 122 424.5t347 155.5q268 0 388 -213zM575 1036q-121 0 -184 -110t-63 -320q0 -235 63 -357t184 -122
q122 0 185 108.5t63 370.5q0 183 -64 306.5t-184 123.5zM763 1546h110v-28q0 -88 -54 -154t-140 -66q-89 0 -164 62q-44 38 -62 48.5t-42 10.5q-86 0 -86 -98v-25h-111v54q0 97 54 153t147 56q44 0 77 -14t74 -48q47 -41 69.5 -51t45.5 -10q82 0 82 90v20z" />
    <glyph glyph-name="uni1EE2" unicode="&#x1a0;&#x323;" horiz-adv-x="1253" 
d="M1062 1235q77 -175 77 -469q0 -409 -128.5 -595.5t-383.5 -186.5q-254 0 -383 189t-129 593q0 741 512 741q248 0 375 -170q115 26 115 146v94h145v-61q0 -224 -200 -281zM343 766q0 -633 284 -633q138 0 211.5 139.5t73.5 493.5q0 592 -285 592q-138 0 -211 -131
t-73 -461zM628 -334q-51 0 -86 35t-35 86t35 86t86 35q49 0 84.5 -36t35.5 -85q0 -51 -35 -86t-85 -35z" />
    <glyph glyph-name="uni1EE3" unicode="&#x1a1;&#x323;" horiz-adv-x="1241" 
d="M963 967q56 0 89 44t33 103v135h146v-102q0 -268 -221 -295q34 -115 34 -256q0 -299 -118.5 -455.5t-350.5 -156.5q-234 0 -351.5 156.5t-117.5 459.5q0 269 122 424.5t347 155.5q268 0 388 -213zM575 1036q-121 0 -184 -110t-63 -320q0 -235 63 -357t184 -122
q122 0 185 108.5t63 370.5q0 183 -64 306.5t-184 123.5zM576 -334q-51 0 -86 35t-35 86t35 86t86 35q49 0 84.5 -36t35.5 -85q0 -51 -35 -86t-85 -35z" />
    <glyph glyph-name="uni1EE4" unicode="U&#x323;" horiz-adv-x="1239" 
d="M1075 449q0 -229 -115.5 -347t-336.5 -118q-235 0 -347 116t-112 355v1036h215v-1059q0 -160 57.5 -231.5t184.5 -71.5q126 0 182.5 71t56.5 242v1049h215v-1042zM622 -334q-51 0 -86 35t-35 86t35 86t86 35q49 0 84.5 -36t35.5 -85q0 -51 -35 -86t-85 -35z" />
    <glyph glyph-name="uni1EE5" unicode="u&#x323;" horiz-adv-x="1161" 
d="M844 172q-111 -188 -338 -188q-354 0 -354 370v809h213v-774q0 -135 45.5 -198.5t138.5 -63.5q117 0 180.5 88t63.5 229v719h213v-1163h-119zM569 -334q-51 0 -86 35t-35 86t35 86t86 35q49 0 84.5 -36t35.5 -85q0 -51 -35 -86t-85 -35z" />
    <glyph glyph-name="uni1EE6" unicode="U&#x309;" horiz-adv-x="1239" 
d="M1075 449q0 -229 -115.5 -347t-336.5 -118q-235 0 -347 116t-112 355v1036h215v-1059q0 -160 57.5 -231.5t184.5 -71.5q126 0 182.5 71t56.5 242v1049h215v-1042zM658 1612v-53h-116v123q121 6 121 65q0 64 -105 64q-46 0 -84 -8v102q52 10 105 10q225 0 225 -155
q0 -114 -146 -148zM1139 1466z" />
    <glyph glyph-name="uni1EE7" unicode="u&#x309;" horiz-adv-x="1161" 
d="M844 172q-111 -188 -338 -188q-354 0 -354 370v809h213v-774q0 -135 45.5 -198.5t138.5 -63.5q117 0 180.5 88t63.5 229v719h213v-1163h-119zM617 1325v-53h-116v123q121 6 121 65q0 64 -105 64q-46 0 -84 -8v102q52 10 105 10q225 0 225 -155q0 -114 -146 -148z
M1098 1179z" />
    <glyph glyph-name="uni1EE8" unicode="&#x1af;&#x301;" horiz-adv-x="1353" 
d="M164 1491h215v-1059q0 -160 57.5 -231.5t183.5 -71.5t183 70t57 233v1059h215v-197q56 0 89.5 43.5t33.5 104.5v135h145v-102q0 -297 -268 -297v-729q0 -465 -453 -465q-458 0 -458 471v1036zM934 1886l-250 -327h-176l219 327h207z" />
    <glyph glyph-name="uni1EE9" unicode="&#x1b0;&#x301;" horiz-adv-x="1284" 
d="M844 172q-111 -188 -338 -188q-354 0 -354 370v809h213v-774q0 -135 45.5 -198.5t138.5 -63.5q117 0 180.5 88t63.5 229v719h213v-196q54 0 88 43t34 104v135h146v-102q0 -297 -268 -297v-850h-119zM868 1599l-250 -327h-176l219 327h207z" />
    <glyph glyph-name="uni1EEA" unicode="&#x1af;&#x300;" horiz-adv-x="1353" 
d="M164 1491h215v-1059q0 -160 57.5 -231.5t183.5 -71.5t183 70t57 233v1059h215v-197q56 0 89.5 43.5t33.5 104.5v135h145v-102q0 -297 -268 -297v-729q0 -465 -453 -465q-458 0 -458 471v1036zM741 1559h-176l-250 327h207z" />
    <glyph glyph-name="uni1EEB" unicode="&#x1b0;&#x300;" horiz-adv-x="1284" 
d="M844 172q-111 -188 -338 -188q-354 0 -354 370v809h213v-774q0 -135 45.5 -198.5t138.5 -63.5q117 0 180.5 88t63.5 229v719h213v-196q54 0 88 43t34 104v135h146v-102q0 -297 -268 -297v-850h-119zM704 1272h-176l-250 327h207z" />
    <glyph glyph-name="uni1EEC" unicode="&#x1af;&#x309;" horiz-adv-x="1353" 
d="M164 1491h215v-1059q0 -160 57.5 -231.5t183.5 -71.5t183 70t57 233v1059h215v-197q56 0 89.5 43.5t33.5 104.5v135h145v-102q0 -297 -268 -297v-729q0 -465 -453 -465q-458 0 -458 471v1036zM657 1612v-53h-116v123q121 6 121 65q0 64 -105 64q-46 0 -84 -8v102
q52 10 105 10q225 0 225 -155q0 -114 -146 -148zM1138 1466z" />
    <glyph glyph-name="uni1EED" unicode="&#x1b0;&#x309;" horiz-adv-x="1284" 
d="M844 172q-111 -188 -338 -188q-354 0 -354 370v809h213v-774q0 -135 45.5 -198.5t138.5 -63.5q117 0 180.5 88t63.5 229v719h213v-196q54 0 88 43t34 104v135h146v-102q0 -297 -268 -297v-850h-119zM616 1325v-53h-116v123q121 6 121 65q0 64 -105 64q-46 0 -84 -8v102
q52 10 105 10q225 0 225 -155q0 -114 -146 -148zM1097 1179z" />
    <glyph glyph-name="uni1EEE" unicode="&#x1af;&#x303;" horiz-adv-x="1353" 
d="M164 1491h215v-1059q0 -160 57.5 -231.5t183.5 -71.5t183 70t57 233v1059h215v-197q56 0 89.5 43.5t33.5 104.5v135h145v-102q0 -297 -268 -297v-729q0 -465 -453 -465q-458 0 -458 471v1036zM874 1812h110v-28q0 -88 -54 -154t-140 -66q-89 0 -164 62q-44 38 -62 48.5
t-42 10.5q-86 0 -86 -98v-25h-111v54q0 97 54 153t147 56q44 0 77 -14t74 -48q47 -41 69.5 -51t45.5 -10q82 0 82 90v20z" />
    <glyph glyph-name="uni1EEF" unicode="&#x1b0;&#x303;" horiz-adv-x="1284" 
d="M844 172q-111 -188 -338 -188q-354 0 -354 370v809h213v-774q0 -135 45.5 -198.5t138.5 -63.5q117 0 180.5 88t63.5 229v719h213v-196q54 0 88 43t34 104v135h146v-102q0 -297 -268 -297v-850h-119zM783 1546h110v-28q0 -88 -54 -154t-140 -66q-89 0 -164 62
q-44 38 -62 48.5t-42 10.5q-86 0 -86 -98v-25h-111v54q0 97 54 153t147 56q44 0 77 -14t74 -48q47 -41 69.5 -51t45.5 -10q82 0 82 90v20z" />
    <glyph glyph-name="uni1EF0" unicode="&#x1af;&#x323;" horiz-adv-x="1353" 
d="M164 1491h215v-1059q0 -160 57.5 -231.5t183.5 -71.5t183 70t57 233v1059h215v-197q56 0 89.5 43.5t33.5 104.5v135h145v-102q0 -297 -268 -297v-729q0 -465 -453 -465q-458 0 -458 471v1036zM621 -334q-51 0 -86 35t-35 86t35 86t86 35q49 0 84.5 -36t35.5 -85
q0 -51 -35 -86t-85 -35z" />
    <glyph glyph-name="uni1EF1" unicode="&#x1b0;&#x323;" horiz-adv-x="1284" 
d="M844 172q-111 -188 -338 -188q-354 0 -354 370v809h213v-774q0 -135 45.5 -198.5t138.5 -63.5q117 0 180.5 88t63.5 229v719h213v-196q54 0 88 43t34 104v135h146v-102q0 -297 -268 -297v-850h-119zM568 -334q-51 0 -86 35t-35 86t35 86t86 35q49 0 84.5 -36t35.5 -85
q0 -51 -35 -86t-85 -35z" />
    <glyph glyph-name="Ygrave" unicode="Y&#x300;" horiz-adv-x="1006" 
d="M987 1491l-391 -959v-532h-215v530l-363 961h238l252 -735l276 735h203zM639 1559h-176l-250 327h207z" />
    <glyph glyph-name="ygrave" unicode="y&#x300;" horiz-adv-x="979" 
d="M954 1163l-364 -1233q-39 -133 -115 -201.5t-201 -68.5q-87 0 -186 21v147q92 -18 168 -18q71 0 113.5 45.5t72.5 144.5h-88l-329 1163h219l254 -964l264 964h192zM635 1272h-176l-250 327h207z" />
    <glyph glyph-name="uni1EF4" unicode="Y&#x323;" horiz-adv-x="1006" 
d="M987 1491l-391 -959v-532h-215v530l-363 961h238l252 -735l276 735h203zM489 -334q-51 0 -86 35t-35 86t35 86t86 35q49 0 84.5 -36t35.5 -85q0 -51 -35 -86t-85 -35z" />
    <glyph glyph-name="uni1EF5" unicode="y&#x323;" horiz-adv-x="979" 
d="M954 1163l-364 -1233q-39 -133 -115 -201.5t-201 -68.5q-87 0 -186 21v147q92 -18 168 -18q71 0 113.5 45.5t72.5 144.5h-88l-329 1163h219l254 -964l264 964h192zM796 -334q-51 0 -86 35t-35 86t35 86t86 35q49 0 84.5 -36t35.5 -85q0 -51 -35 -86t-85 -35z" />
    <glyph glyph-name="uni1EF6" unicode="Y&#x309;" horiz-adv-x="1006" 
d="M987 1491l-391 -959v-532h-215v530l-363 961h238l252 -735l276 735h203zM559 1612v-53h-116v123q121 6 121 65q0 64 -105 64q-46 0 -84 -8v102q52 10 105 10q225 0 225 -155q0 -114 -146 -148zM1040 1466z" />
    <glyph glyph-name="uni1EF7" unicode="y&#x309;" horiz-adv-x="979" 
d="M954 1163l-364 -1233q-39 -133 -115 -201.5t-201 -68.5q-87 0 -186 21v147q92 -18 168 -18q71 0 113.5 45.5t72.5 144.5h-88l-329 1163h219l254 -964l264 964h192zM537 1325v-53h-116v123q121 6 121 65q0 64 -105 64q-46 0 -84 -8v102q52 10 105 10q225 0 225 -155
q0 -114 -146 -148zM1018 1179z" />
    <glyph glyph-name="uni1EF8" unicode="Y&#x303;" horiz-adv-x="1006" 
d="M987 1491l-391 -959v-532h-215v530l-363 961h238l252 -735l276 735h203zM739 1812h110v-28q0 -88 -54 -154t-140 -66q-89 0 -164 62q-44 38 -62 48.5t-42 10.5q-86 0 -86 -98v-25h-111v54q0 97 54 153t147 56q44 0 77 -14t74 -48q47 -41 69.5 -51t45.5 -10q82 0 82 90v20
z" />
    <glyph glyph-name="uni1EF9" unicode="y&#x303;" horiz-adv-x="979" 
d="M954 1163l-364 -1233q-39 -133 -115 -201.5t-201 -68.5q-87 0 -186 21v147q92 -18 168 -18q71 0 113.5 45.5t72.5 144.5h-88l-329 1163h219l254 -964l264 964h192zM723 1546h110v-28q0 -88 -54 -154t-140 -66q-89 0 -164 62q-44 38 -62 48.5t-42 10.5q-86 0 -86 -98v-25
h-111v54q0 97 54 153t147 56q44 0 77 -14t74 -48q47 -41 69.5 -51t45.5 -10q82 0 82 90v20z" />
    <glyph glyph-name="uniFC5E" unicode="&#x64c;&#x651;" horiz-adv-x="0" arabic-form="isolated" 
d="M325 1493q-21 -41 -41 -67.5t-40.5 -41.5t-41.5 -21t-43 -6q-66 0 -102 38t-36 127q0 42 5 80.5t19 77.5h65q-3 -17 -5 -30t-3 -24t-1.5 -22.5t-0.5 -25.5q0 -23 11.5 -41.5t38.5 -18.5q26 0 46.5 11t36 37.5t25.5 71t15 112.5l63 2q0 -86 19.5 -119t53.5 -33
q24 0 40.5 8.5t27 33t15.5 68t5 114.5l63 1q4 -28 7 -50t5.5 -42t3.5 -40t1 -43q0 -50 -11 -90.5t-31 -69.5t-48.5 -44.5t-63.5 -15.5q-26 0 -53.5 15.5t-44.5 47.5zM396 2143q7 9 13 19t11 24t8 32t3 43q0 26 -6 43t-16 27t-22 14t-25 4q-31 0 -48 -23.5t-17 -57.5
q0 -29 8.5 -50t23 -35.5t32 -24t35.5 -15.5zM490 2107q15 -7 26.5 -10.5t23.5 -5.5t25.5 -3.5t32.5 -4.5l-44 -132q-21 2 -37.5 4.5t-33 7t-35.5 12t-44 19.5q-62 -83 -125.5 -135.5t-124 -82t-117 -40.5t-105.5 -11l-10 77q25 0 39.5 3t31.5 11q19 33 31 69.5t12 76.5
q0 34 -17.5 57.5t-44.5 23.5q-30 0 -53 -11t-40 -40l-33 19q12 37 31 63t42.5 42t50.5 23t54 7q45 0 76 -27.5t31 -75.5q0 -54 -15 -101t-48 -100q72 34 130 79.5t107 111.5q-54 30 -83.5 68t-29.5 89q0 46 10.5 94.5t50.5 99.5t84.5 71t82.5 20q24 0 46 -13.5t38.5 -36
t26 -52t9.5 -60.5q0 -55 -10 -107.5t-42 -98.5z" />
    <glyph glyph-name="uniFC60" unicode="&#x64e;&#x651;" horiz-adv-x="0" arabic-form="isolated" 
d="M325 1493q-21 -41 -41 -67.5t-40.5 -41.5t-41.5 -21t-43 -6q-66 0 -102 38t-36 127q0 42 5 80.5t19 77.5h65q-3 -17 -5 -30t-3 -24t-1.5 -22.5t-0.5 -25.5q0 -23 11.5 -41.5t38.5 -18.5q26 0 46.5 11t36 37.5t25.5 71t15 112.5l63 2q0 -86 19.5 -119t53.5 -33
q24 0 40.5 8.5t27 33t15.5 68t5 114.5l63 1q4 -28 7 -50t5.5 -42t3.5 -40t1 -43q0 -50 -11 -90.5t-31 -69.5t-48.5 -44.5t-63.5 -15.5q-26 0 -53.5 15.5t-44.5 47.5zM45 1799l25 130l463 156l-17 -127z" />
    <glyph glyph-name="uniFC61" unicode="&#x64f;&#x651;" horiz-adv-x="0" arabic-form="isolated" 
d="M325 1493q-21 -41 -41 -67.5t-40.5 -41.5t-41.5 -21t-43 -6q-66 0 -102 38t-36 127q0 42 5 80.5t19 77.5h65q-3 -17 -5 -30t-3 -24t-1.5 -22.5t-0.5 -25.5q0 -23 11.5 -41.5t38.5 -18.5q26 0 46.5 11t36 37.5t25.5 71t15 112.5l63 2q0 -86 19.5 -119t53.5 -33
q24 0 40.5 8.5t27 33t15.5 68t5 114.5l63 1q4 -28 7 -50t5.5 -42t3.5 -40t1 -43q0 -50 -11 -90.5t-31 -69.5t-48.5 -44.5t-63.5 -15.5q-26 0 -53.5 15.5t-44.5 47.5zM398 2158q14 17 22.5 43t8.5 75q0 26 -6 43.5t-16 27.5t-22 14t-25 4q-31 0 -48 -24t-17 -57
q0 -30 9.5 -51t24 -35.5t33 -24t36.5 -15.5zM494 2126q14 -6 25.5 -9.5t23 -6t25 -3.5t31.5 -2l-44 -129q-22 1 -39.5 3.5t-34 6.5t-33.5 10.5t-38 15.5q-62 -84 -127.5 -136.5t-128.5 -82t-121.5 -40.5t-106.5 -11l-6 76q121 13 216.5 75t168.5 156q-54 30 -83.5 68
t-29.5 89q0 46 10.5 94.5t50.5 99.5t84.5 70.5t82.5 19.5q25 0 48 -14t40.5 -37t28 -53t10.5 -61q0 -54 -10.5 -102.5t-42.5 -96.5z" />
    <glyph glyph-name="uniFEF5" unicode="&#xfedf;&#xfe82;" horiz-adv-x="1211" arabic-form="isolated" 
d="M970 279q0 13 -3.5 31t-14 44.5t-29.5 62.5t-51 87q-6 -16 -19.5 -39.5t-31.5 -50.5t-38 -55.5t-39.5 -53.5t-36.5 -45.5t-28 -31.5q85 -13 131 -14t47 -1q113 0 113 66zM515 228q96 80 161.5 175.5t115.5 206.5q-60 95 -117.5 166.5t-116.5 126t-123 95t-138 73.5
l-15 -136l-240 205l60 272q79 -31 169.5 -82t186.5 -129.5t193.5 -187.5t191.5 -254q25 67 43 146t29.5 154.5t17 141t5.5 105.5q0 19 -0.5 50.5t-1 68.5t-2 75t-3.5 71l181 122q0 -84 -2.5 -160t-8.5 -157q-5 -94 -14.5 -182.5t-26.5 -179t-44.5 -186.5t-68.5 -204
q44 -75 76 -135.5t52 -113t28.5 -102t6.5 -102.5q-7 -192 -240 -192q-12 0 -48 5.5t-80.5 12.5t-90.5 12t-80 4q-7 0 -30 -1t-49.5 -3t-51 -4t-34.5 -4l35 227h74v0zM859 1791q-37 -74 -75 -118.5t-81 -69.5t-93.5 -33t-112.5 -8q-47 0 -96.5 15t-97.5 33t-91 33t-76 15
q-70 0 -126.5 -29.5t-108.5 -105.5l-48 31q20 46 48 90.5t65.5 79.5t86 56.5t110.5 21.5q45 0 84.5 -16.5t81 -36t87.5 -36t104 -16.5q55 0 98.5 3.5t80 15t68 32.5t64.5 57l28 -14v0z" />
    <glyph glyph-name="uniFEF6" unicode="&#xfee0;&#xfe82;" horiz-adv-x="1520" arabic-form="final" 
d="M1495 1q-146 0 -222 50t-100 149q-28 83 -28 317q-74 -159 -143.5 -269.5t-135.5 -186.5q-198 -222 -457 -256q-63 -9 -134.5 -6.5t-159.5 14.5q154 78 278 150.5t225.5 144t184 143.5t153.5 150q-13 63 -46 127t-80 126t-106 119.5t-124.5 108t-135 92t-137.5 70.5
l-11 -106l-203 133l39 273q95 -32 192 -82t187.5 -114t172 -140t147 -159.5t110.5 -173t63 -180.5q35 66 53.5 145t18.5 173q0 139 -16.5 311.5t-48.5 393.5l119 174q28 -215 46 -350.5t26 -205.5q16 -153 25.5 -287.5t14.5 -267.5q7 -331 178 -331h180v-249h-125v0z
M1000 1726q-37 -74 -75 -118.5t-81 -69.5t-93.5 -33t-112.5 -8q-47 0 -96.5 15t-97.5 33t-91 33t-76 15q-70 0 -126.5 -29.5t-108.5 -105.5l-48 31q20 46 48 90.5t65.5 79.5t86 56.5t110.5 21.5q45 0 84.5 -16.5t81 -36t87.5 -36t104 -16.5q55 0 98.5 3.5t80 15t68 32.5
t64.5 57l28 -14v0z" />
    <glyph glyph-name="uniFEF7" unicode="&#xfedf;&#xfe84;" horiz-adv-x="1230" arabic-form="isolated" 
d="M970 279q0 13 -3.5 31t-14 44.5t-29.5 62.5t-51 87q-6 -16 -19.5 -39.5t-31.5 -50.5t-38 -55.5t-39.5 -53.5t-36.5 -45.5t-28 -31.5q85 -13 131 -14t47 -1q113 0 113 66zM515 228q96 80 161.5 175.5t115.5 206.5q-60 95 -117.5 166.5t-116.5 126t-123 95t-138 73.5
l-15 -136l-240 205l60 272q79 -31 169.5 -82t186.5 -129.5t193.5 -187.5t191.5 -254q25 67 43 146t29.5 154.5t17 141t5.5 105.5q0 19 -0.5 50.5t-1 68.5t-2 75t-3.5 71l181 122q0 -84 -2.5 -160t-8.5 -157q-5 -94 -14.5 -182.5t-26.5 -179t-44.5 -186.5t-68.5 -204
q44 -75 76 -135.5t52 -113t28.5 -102t6.5 -102.5q-7 -192 -240 -192q-12 0 -48 5.5t-80.5 12.5t-90.5 12t-80 4q-7 0 -30 -1t-49.5 -3t-51 -4t-34.5 -4l35 227h74v0zM482 1918q-11 3 -24 3h-21q-26 0 -49 -7t-41 -18q-31 -17 -46.5 -36.5t-15.5 -47.5q0 -17 12 -32t29 -25.5
t36.5 -16t33.5 -3.5q37 5 85 18t111 33l-7 -125q-42 -14 -98.5 -29t-113.5 -33t-107.5 -40t-79.5 -50l-39 45q29 80 138 119q-81 35 -107 62q-31 34 -31 99q0 30 25.5 64.5t65.5 63.5t89.5 48.5t98.5 19.5q36 0 63 -4t40 -9l-47 -99v0z" />
    <glyph glyph-name="uniFEF8" unicode="&#xfee0;&#xfe84;" horiz-adv-x="1520" arabic-form="final" 
d="M1506 1q-146 0 -222 50t-100 149q-28 83 -28 317q-74 -159 -143.5 -269.5t-135.5 -186.5q-198 -222 -457 -256q-63 -9 -134.5 -6.5t-159.5 14.5q154 78 278 150.5t225.5 144t184 143.5t153.5 150q-13 63 -46 127t-80 126t-106 119.5t-124.5 108t-135 92t-137.5 70.5
l-11 -106l-203 133l39 273q95 -32 192 -82t187.5 -114t172 -140t147 -159.5t110.5 -173t63 -180.5q35 66 53.5 145t18.5 173q0 139 -16.5 311.5t-48.5 393.5l119 174q28 -215 46 -350.5t26 -205.5q16 -153 25.5 -287.5t14.5 -267.5q7 -331 178 -331h180v-249h-125v0z
M583 1811q-11 3 -24 3h-21q-26 0 -49 -7t-41 -18q-31 -17 -46.5 -36.5t-15.5 -47.5q0 -17 12 -32t29 -25.5t36.5 -16t33.5 -3.5q37 5 85 18t111 33l-7 -125q-42 -14 -98.5 -29t-113.5 -33t-107.5 -40t-79.5 -50l-39 45q29 80 138 119q-81 35 -107 62q-31 34 -31 99
q0 30 25.5 64.5t65.5 63.5t89.5 48.5t98.5 19.5q36 0 63 -4t40 -9l-47 -99v0z" />
    <glyph glyph-name="uniFEF9" unicode="&#xfedf;&#xfe88;" horiz-adv-x="1180" arabic-form="isolated" 
d="M924 279q0 75 -97 229q-6 -16 -19.5 -40t-31.5 -51.5t-39 -56t-40.5 -54.5t-36.5 -46.5t-28 -31.5q85 -13 131.5 -14t47.5 -1q113 0 113 66zM469 228q49 36 90.5 83t76.5 100.5t65 112.5t58 120q-42 88 -99 171t-120.5 157.5t-130.5 137.5t-130 111l-31 -153l-185 237
l70 302q101 -58 200 -149t188.5 -199t165 -225.5t130.5 -228.5q38 173 56.5 298t18.5 203q0 19 -0.5 50.5t-1.5 68.5t-2.5 75t-3.5 71l182 122q0 -84 -2.5 -160t-8.5 -157q-5 -94 -14 -177t-25.5 -167t-43.5 -174.5t-68 -198.5q44 -75 74.5 -135.5t49.5 -116.5t27.5 -112.5
t8.5 -123.5q0 -97 -61 -144.5t-179 -47.5q-12 0 -48 5.5t-80.5 12.5t-90.5 12t-80 4q-7 0 -30 -1t-49.5 -3t-51 -4t-34.5 -4l35 227h74v0zM645 -244q-11 3 -24 3h-21q-26 0 -49 -7t-41 -18q-31 -17 -46.5 -36.5t-15.5 -47.5q0 -17 12 -32t29 -25.5t36.5 -16t33.5 -3.5
q37 5 85 18t111 33l-7 -125q-42 -14 -98.5 -29t-113.5 -33t-107.5 -40t-79.5 -50l-39 45q29 80 138 119q-81 35 -107 62q-31 34 -31 99q0 30 25.5 64.5t65.5 63.5t89.5 48.5t98.5 19.5q36 0 63 -4t40 -9l-47 -99v0z" />
    <glyph glyph-name="uniFEFA" unicode="&#xfee0;&#xfe88;" horiz-adv-x="1520" arabic-form="final" 
d="M1506 1q-146 0 -222 50t-100 149q-28 83 -28 317q-74 -159 -143.5 -269.5t-135.5 -186.5q-198 -222 -457 -256q-63 -9 -134.5 -6.5t-159.5 14.5q154 78 278 150.5t225.5 144t184 143.5t153.5 150q-13 63 -46 127t-80 126t-106 119.5t-124.5 108t-135 92t-137.5 70.5
l-11 -106l-203 133l39 273q95 -32 192 -82t187.5 -114t172 -140t147 -159.5t110.5 -173t63 -180.5q35 66 53.5 145t18.5 173q0 139 -16.5 311.5t-48.5 393.5l119 174q28 -215 46 -350.5t26 -205.5q16 -153 25.5 -287.5t14.5 -267.5q7 -331 178 -331h180v-249h-125v0z
M550 -427q-11 3 -24 3h-21q-26 0 -49 -7t-41 -18q-31 -17 -46.5 -36.5t-15.5 -47.5q0 -17 12 -32t29 -25.5t36.5 -16t33.5 -3.5q37 5 85 18t111 33l-7 -125q-42 -14 -98.5 -29t-113.5 -33t-107.5 -40t-79.5 -50l-39 45q29 80 138 119q-81 35 -107 62q-31 34 -31 99
q0 30 25.5 64.5t65.5 63.5t89.5 48.5t98.5 19.5q36 0 63 -4t40 -9l-47 -99v0z" />
    <glyph glyph-name="uniFEFB" unicode="&#xfedf;&#xfe8e;" horiz-adv-x="1180" arabic-form="isolated" 
d="M924 279q0 75 -97 229q-6 -16 -19.5 -40t-31.5 -51.5t-39 -56t-40.5 -54.5t-36.5 -46.5t-28 -31.5q85 -13 131.5 -14t47.5 -1q113 0 113 66zM469 228q49 36 90.5 83t76.5 100.5t65 112.5t58 120q-42 88 -99 171t-120.5 157.5t-130.5 137.5t-130 111l-31 -153l-185 237
l70 302q101 -58 200 -149t188.5 -199t165 -225.5t130.5 -228.5q38 173 56.5 298t18.5 203q0 19 -0.5 50.5t-1.5 68.5t-2.5 75t-3.5 71l182 122q0 -84 -2.5 -160t-8.5 -157q-5 -94 -14 -177t-25.5 -167t-43.5 -174.5t-68 -198.5q44 -75 74.5 -135.5t49.5 -116.5t27.5 -112.5
t8.5 -123.5q0 -97 -61 -144.5t-179 -47.5q-12 0 -48 5.5t-80.5 12.5t-90.5 12t-80 4q-7 0 -30 -1t-49.5 -3t-51 -4t-34.5 -4l35 227h74v0z" />
    <glyph glyph-name="uniFEFC" unicode="&#xfee0;&#xfe8e;" horiz-adv-x="1520" arabic-form="final" 
d="M1506 1q-146 0 -222 50t-100 149q-28 83 -28 317q-74 -159 -143.5 -269.5t-135.5 -186.5q-198 -222 -457 -256q-63 -9 -134.5 -6.5t-159.5 14.5q154 78 278 150.5t225.5 144t184 143.5t153.5 150q-13 63 -46 127t-80 126t-106 119.5t-124.5 108t-135 92t-137.5 70.5
l-11 -106l-203 133l39 273q95 -32 192 -82t187.5 -114t172 -140t147 -159.5t110.5 -173t63 -180.5q35 66 53.5 145t18.5 173q0 139 -16.5 311.5t-48.5 393.5l119 174q28 -215 46 -350.5t26 -205.5q16 -153 25.5 -287.5t14.5 -267.5q7 -331 178 -331h180v-249h-125v0z" />
    <glyph glyph-name="uni064B0651" unicode="&#x64b;&#x651;" horiz-adv-x="0" 
d="M325 1493q-21 -41 -41 -67.5t-40.5 -41.5t-41.5 -21t-43 -6q-66 0 -102 38t-36 127q0 42 5 80.5t19 77.5h65q-3 -17 -5 -30t-3 -24t-1.5 -22.5t-0.5 -25.5q0 -23 11.5 -41.5t38.5 -18.5q26 0 46.5 11t36 37.5t25.5 71t15 112.5l63 2q0 -86 19.5 -119t53.5 -33
q24 0 40.5 8.5t27 33t15.5 68t5 114.5l63 1q4 -28 7 -50t5.5 -42t3.5 -40t1 -43q0 -50 -11 -90.5t-31 -69.5t-48.5 -44.5t-63.5 -15.5q-26 0 -53.5 15.5t-44.5 47.5zM45 2008l25 130l463 156l-17 -127zM45 1774l25 130l463 156l-17 -127z" />
    <glyph glyph-name="uniFB50" unicode="&#x671;" horiz-adv-x="664" arabic-form="isolated" 
d="M465 1439q-3 -46 -4 -83.5t-1.5 -74t-0.5 -76.5v-89q0 -81 7.5 -165t16.5 -163t16.5 -149t7.5 -122q0 -60 -2 -115.5t-6.5 -110t-13 -108.5t-21.5 -111l-144 -94q6 44 9.5 79t5.5 69.5t3 73t1 89.5q0 52 -6 120.5t-14.5 145t-18.5 155t-18.5 150.5t-14.5 132.5t-6 100.5
v42v40q0 21 0.5 43.5t2.5 49.5l201 171v0zM396 1765q22 -7 42 -9.5t37 -2.5q204 0 204 73q0 85 -89 85q-99 0 -194 -146zM297 1765q43 70 85.5 119t86 79t88.5 43.5t93 13.5q54 0 86 -23.5t32 -86.5q0 -80 -23 -134t-69 -86.5t-115 -46t-161 -13.5h-224q-47 0 -69 -34.5
t-29 -90.5l-10.5 2.5t-24 6t-24.5 7l-11 3.5q0 48 7 92t26 77t51.5 52.5t82.5 19.5h122v0z" />
    <glyph glyph-name="uniFB51" unicode="&#x671;" horiz-adv-x="664" arabic-form="final" 
d="M538 0q-70 2 -119 18t-82 42.5t-51.5 61.5t-28 75.5t-12 84.5t-2.5 88q0 37 1.5 84t3 95.5t3 95t1.5 83.5q0 89 -1.5 161t-5.5 135t-9.5 122.5t-13.5 124.5l192 172q12 -97 16.5 -192.5t4.5 -180.5q0 -61 -3 -129t-6.5 -137t-6.5 -137t-3 -129q0 -84 4.5 -139.5t22 -88.5
t52.5 -47t96 -14h189v-249h-242v0zM396 1765q22 -7 42 -9.5t37 -2.5q204 0 204 73q0 85 -89 85q-99 0 -194 -146zM297 1765q43 70 85.5 119t86 79t88.5 43.5t93 13.5q54 0 86 -23.5t32 -86.5q0 -80 -23 -134t-69 -86.5t-115 -46t-161 -13.5h-224q-47 0 -69 -34.5t-29 -90.5
l-10.5 2.5t-24 6t-24.5 7l-11 3.5q0 48 7 92t26 77t51.5 52.5t82.5 19.5h122v0z" />
    <glyph glyph-name="uniFB56" unicode="&#x67e;" horiz-adv-x="2023" arabic-form="isolated" 
d="M1813 858q42 -86 66 -201t24 -272q0 -151 -62.5 -239t-198.5 -117q-77 -17 -186 -24t-265 -6q-159 0 -284.5 2.5t-223 7.5t-170 13t-126 20t-91 28t-64.5 36q-36 27 -58 55.5t-34 60t-16 67t-4 77.5q0 94 16.5 182.5t58.5 185.5l124 61q-47 -114 -47 -209q0 -35 4 -70.5
t14 -68.5t27.5 -62t45.5 -51q21 -17 47 -30t65.5 -22.5t96 -16.5t139 -11t194.5 -6t262 -2q75 0 156 2t153.5 6t129 9.5t80.5 12.5q82 21 82 95q0 88 -97 281l142 206v0zM1326 -284l-150 -176l-151 127l-137 -158l-168 143l145 173l153 -124l134 158zM1203 -640l-150 -174
l-170 144l149 174z" />
    <glyph glyph-name="uniFB57" unicode="&#x67e;" horiz-adv-x="2023" arabic-form="final" 
d="M1813 858q42 -86 66 -201t24 -272q0 -151 -62.5 -239t-198.5 -117q-77 -17 -186 -24t-265 -6q-159 0 -284.5 2.5t-223 7.5t-170 13t-126 20t-91 28t-64.5 36q-36 27 -58 55.5t-34 60t-16 67t-4 77.5q0 94 16.5 182.5t58.5 185.5l124 61q-47 -114 -47 -209q0 -35 4 -70.5
t14 -68.5t27.5 -62t45.5 -51q21 -17 47 -30t65.5 -22.5t96 -16.5t139 -11t194.5 -6t262 -2q75 0 156 2t153.5 6t129 9.5t80.5 12.5q82 21 82 95q0 88 -97 281l142 206v0zM1326 -284l-150 -176l-151 127l-137 -158l-168 143l145 173l153 -124l134 158zM1203 -640l-150 -174
l-170 144l149 174z" />
    <glyph glyph-name="uniFB58" unicode="&#x67e;" horiz-adv-x="849" arabic-form="initial" 
d="M632 845q43 -107 70.5 -233.5t27.5 -286.5q0 -97 -34.5 -162.5t-91.5 -102.5q-93 -60 -295 -60h-213q-41 0 -88.5 23.5t-89.5 59.5t-72 80t-36 86h346q103 0 174 2.5t117.5 7t72 10.5t37.5 14q17 12 25 27.5t8 47.5q0 45 -25.5 117t-76.5 160l144 210v0zM687 -254
l-150 -176l-151 127l-137 -158l-168 143l145 173l153 -124l134 158zM564 -610l-150 -174l-170 144l149 174z" />
    <glyph glyph-name="uniFB59" unicode="&#x67e;" horiz-adv-x="966" arabic-form="medial" 
d="M1019 0q-74 0 -131.5 31.5t-98 79t-64 104.5t-30.5 108q0 -124 -59 -216q-74 -107 -198 -107h-340q-44 0 -91 23.5t-87.5 59.5t-70 80t-39.5 86h585q191 0 191 119q0 122 -51 235l150 166q24 -85 39.5 -158.5t15.5 -134.5q0 -86 27.5 -134t80.5 -71q21 -11 69.5 -16
t124.5 -5h14v-250h-37v0zM886 -249l-150 -176l-151 127l-137 -158l-168 143l145 173l153 -124l134 158zM763 -605l-150 -174l-170 144l149 174z" />
    <glyph glyph-name="uniFB66" unicode="&#x679;" horiz-adv-x="2023" arabic-form="isolated" 
d="M1813 858q42 -86 66 -201t24 -272q0 -151 -62.5 -239t-198.5 -117q-77 -17 -186 -24t-265 -6q-159 0 -284.5 2.5t-223 7.5t-170 13t-126 20t-91 28t-64.5 36q-36 27 -58 55.5t-34 60t-16 67t-4 77.5q0 94 16.5 182.5t58.5 185.5l124 61q-47 -114 -47 -209q0 -35 4 -70.5
t14 -68.5t27.5 -62t45.5 -51q21 -17 47 -30t65.5 -22.5t96 -16.5t139 -11t194.5 -6t262 -2q75 0 156 2t153.5 6t129 9.5t80.5 12.5q82 21 82 95q0 88 -97 281l142 206v0zM1194 1050q0 36 -29 66q-14 14 -29.5 22.5t-30.5 8.5q-22 0 -44 -10t-44 -28q-24 -21 -68 -74
q24 -3 121 -3q65 0 70 1q54 3 54 17zM1293 1050q0 -71 -55 -97q-16 -7 -44.5 -11t-63.5 -5q-18 -1 -42.5 -1.5t-47.5 -0.5q-43 0 -75.5 0.5t-58 1t-44.5 1.5t-34 3q-13 1 -27 10t-26.5 22.5t-21.5 30t-11 32.5q33 0 51 1t22 2q13 2 23 7.5t14 13.5q5 13 6.5 35t1.5 39v24
q0 49 -1.5 90t-6 75t-13 63t-21.5 55q13 5 27 11t23 11q11 5 24 11.5t30 15.5q8 -41 13 -74.5t7.5 -63.5t3.5 -58t1 -57v-26t-0.5 -28t-1.5 -27t-2 -23q25 30 52 55t53 43t50 28.5t42 10.5q56 0 102 -52q51 -61 51 -168z" />
    <glyph glyph-name="uniFB67" unicode="&#x679;" horiz-adv-x="2023" arabic-form="final" 
d="M1813 858q42 -86 66 -201t24 -272q0 -151 -62.5 -239t-198.5 -117q-77 -17 -186 -24t-265 -6q-159 0 -284.5 2.5t-223 7.5t-170 13t-126 20t-91 28t-64.5 36q-36 27 -58 55.5t-34 60t-16 67t-4 77.5q0 94 16.5 182.5t58.5 185.5l124 61q-47 -114 -47 -209q0 -35 4 -70.5
t14 -68.5t27.5 -62t45.5 -51q21 -17 47 -30t65.5 -22.5t96 -16.5t139 -11t194.5 -6t262 -2q75 0 156 2t153.5 6t129 9.5t80.5 12.5q82 21 82 95q0 88 -97 281l142 206v0zM1194 1050q0 36 -29 66q-14 14 -29.5 22.5t-30.5 8.5q-22 0 -44 -10t-44 -28q-24 -21 -68 -74
q24 -3 121 -3q65 0 70 1q54 3 54 17zM1293 1050q0 -71 -55 -97q-16 -7 -44.5 -11t-63.5 -5q-18 -1 -42.5 -1.5t-47.5 -0.5q-43 0 -75.5 0.5t-58 1t-44.5 1.5t-34 3q-13 1 -27 10t-26.5 22.5t-21.5 30t-11 32.5q33 0 51 1t22 2q13 2 23 7.5t14 13.5q5 13 6.5 35t1.5 39v24
q0 49 -1.5 90t-6 75t-13 63t-21.5 55q13 5 27 11t23 11q11 5 24 11.5t30 15.5q8 -41 13 -74.5t7.5 -63.5t3.5 -58t1 -57v-26t-0.5 -28t-1.5 -27t-2 -23q25 30 52 55t53 43t50 28.5t42 10.5q56 0 102 -52q51 -61 51 -168z" />
    <glyph glyph-name="uniFB68" unicode="&#x679;" horiz-adv-x="849" arabic-form="initial" 
d="M632 845q43 -107 70.5 -233.5t27.5 -286.5q0 -97 -34.5 -162.5t-91.5 -102.5q-93 -60 -295 -60h-213q-41 0 -88.5 23.5t-89.5 59.5t-72 80t-36 86h346q103 0 174 2.5t117.5 7t72 10.5t37.5 14q17 12 25 27.5t8 47.5q0 45 -25.5 117t-76.5 160l144 210v0zM529 1066
q0 36 -29 66q-14 14 -29.5 22.5t-30.5 8.5q-22 0 -44 -10t-44 -28q-24 -21 -68 -74q24 -3 121 -3q65 0 70 1q54 3 54 17zM628 1066q0 -71 -55 -97q-16 -7 -44.5 -11t-63.5 -5q-18 -1 -42.5 -1.5t-47.5 -0.5q-43 0 -75.5 0.5t-58 1t-44.5 1.5t-34 3q-13 1 -27 10t-26.5 22.5
t-21.5 30t-11 32.5q33 0 51 1t22 2q13 2 23 7.5t14 13.5q5 13 6.5 35t1.5 39v24q0 49 -1.5 90t-6 75t-13 63t-21.5 55q13 5 27 11t23 11q11 5 24 11.5t30 15.5q8 -41 13 -74.5t7.5 -63.5t3.5 -58t1 -57v-26t-0.5 -28t-1.5 -27t-2 -23q25 30 52 55t53 43t50 28.5t42 10.5
q56 0 102 -52q51 -61 51 -168z" />
    <glyph glyph-name="uniFB69" unicode="&#x679;" horiz-adv-x="966" arabic-form="medial" 
d="M1019 0q-74 0 -131.5 31.5t-98 79t-64 104.5t-30.5 108q0 -124 -59 -216q-74 -107 -198 -107h-340q-44 0 -91 23.5t-87.5 59.5t-70 80t-39.5 86h585q191 0 191 119q0 122 -51 235l150 166q24 -85 39.5 -158.5t15.5 -134.5q0 -86 27.5 -134t80.5 -71q21 -11 69.5 -16
t124.5 -5h14v-250h-37v0zM600 1003q0 36 -29 66q-14 14 -29.5 22.5t-30.5 8.5q-22 0 -44 -10t-44 -28q-24 -21 -68 -74q24 -3 121 -3q65 0 70 1q54 3 54 17zM699 1003q0 -71 -55 -97q-16 -7 -44.5 -11t-63.5 -5q-18 -1 -42.5 -1.5t-47.5 -0.5q-43 0 -75.5 0.5t-58 1
t-44.5 1.5t-34 3q-13 1 -27 10t-26.5 22.5t-21.5 30t-11 32.5q33 0 51 1t22 2q13 2 23 7.5t14 13.5q5 13 6.5 35t1.5 39v24q0 49 -1.5 90t-6 75t-13 63t-21.5 55q13 5 27 11t23 11q11 5 24 11.5t30 15.5q8 -41 13 -74.5t7.5 -63.5t3.5 -58t1 -57v-26t-0.5 -28t-1.5 -27
t-2 -23q25 30 52 55t53 43t50 28.5t42 10.5q56 0 102 -52q51 -61 51 -168z" />
    <glyph glyph-name="uniFB7A" unicode="&#x686;" horiz-adv-x="1640" arabic-form="isolated" 
d="M1547 461q-70 0 -133.5 -2.5t-124.5 -8t-122 -14.5t-126 -22q-81 -15 -159 -48.5t-147.5 -82t-128.5 -108.5t-102 -128t-67 -141.5t-24 -147.5q0 -114 27.5 -202.5t75 -154t111 -110.5t135 -73t147 -40t147.5 -12t140 7t139 25t148.5 48t169.5 75l-50 -188
q-73 -57 -147.5 -96t-154 -63t-164.5 -34.5t-178 -10.5q-153 0 -289 48t-238 143t-161 236t-59 327q0 94 25.5 186t71.5 178t111 163.5t143 142t167.5 114t185.5 78.5q-33 10 -79 19t-96 16.5t-98.5 12t-85.5 4.5q-34 0 -77 -6t-91.5 -23.5t-99.5 -48t-101 -79.5l-47 193
q60 66 116 105.5t108.5 60.5t101 27t91.5 6q62 0 113.5 -8.5t103 -21t108.5 -27t129 -27t164.5 -21t216.5 -8.5q52 0 105 2t108 5l-59 -265v0zM1368 -34l-150 -176l-151 127l-137 -158l-168 143l145 173l153 -124l134 158zM1245 -390l-150 -174l-170 144l149 174z" />
    <glyph glyph-name="uniFB7B" unicode="&#x686;" horiz-adv-x="1671" arabic-form="final" 
d="M1546 463q-51 0 -97 -1.5t-91 -3.5q0 -68 5.5 -109t21 -62.5t43.5 -28.5t74 -7h318v-249h-321q-83 0 -135 27.5t-81.5 82.5t-40.5 138t-11 194q-96 -2 -193.5 -27t-188.5 -70t-170.5 -108t-138.5 -138.5t-93 -162.5t-34 -180q0 -107 24.5 -192t68.5 -151t104.5 -113
t132 -77.5t151 -44.5t161.5 -14q66 0 133 7t140 25t153 48t172 75l-50 -188q-76 -58 -151.5 -97t-154 -63t-162.5 -34t-177 -10q-153 0 -289 48t-237.5 143t-160.5 236t-59 327q0 99 27.5 193.5t76.5 181.5t115.5 163.5t144.5 139.5t164.5 110.5t174.5 75.5q-33 10 -79 19
t-96 16.5t-98.5 12t-85.5 4.5q-39 0 -82 -7t-90 -24.5t-96 -48.5t-100 -79l-47 193q59 60 110 98.5t100 61.5t99 32t107 9q62 0 113.5 -8.5t103 -21.5t108.5 -27.5t129 -27.5t164.5 -21.5t216.5 -8.5q52 0 105 2t108 5l-59 -263v0zM1216 -34l-150 -176l-151 127l-137 -158
l-168 143l145 173l153 -124l134 158zM1093 -390l-150 -174l-170 144l149 174z" />
    <glyph glyph-name="uniFB7C" unicode="&#x686;" horiz-adv-x="1766" arabic-form="initial" 
d="M199 752q30 25 67 47t79.5 38.5t89 26t95.5 9.5q84 0 151.5 -15t130 -37.5t125 -49t137 -49t165.5 -37.5t211 -15q60 0 110 1t96 5l-63 -243q-75 0 -131.5 -0.5t-102.5 -3.5t-86.5 -8t-83.5 -14q-23 -5 -50 -14t-54.5 -20t-53 -23t-45.5 -23q-55 -30 -105.5 -66l-101 -72
t-104.5 -70.5t-116 -60.5t-135.5 -42t-162.5 -16h-160q-45 0 -91.5 23.5t-87 59.5t-70.5 80t-42 86h530q67 0 128 13.5t118.5 36t114 50.5t115 57t121.5 56t134 47q-52 18 -122.5 44.5t-148 51.5t-156 42.5t-146.5 17.5q-88 2 -165 -25.5t-138 -75.5l4 188v0zM1196 -183
l-150 -176l-151 127l-137 -158l-168 143l145 173l153 -124l134 158zM1073 -539l-150 -174l-170 144l149 174z" />
    <glyph glyph-name="uniFB7D" unicode="&#x686;" horiz-adv-x="1696" arabic-form="medial" 
d="M1466 0q-72 0 -118 33.5t-72.5 90.5t-36 132.5t-9.5 158.5q-29 -4 -61 -13t-64.5 -21t-63 -26t-55.5 -28q-55 -30 -105.5 -66l-101 -72t-104.5 -70.5t-116 -60.5t-135.5 -42t-162.5 -16h-160q-45 0 -91.5 23.5t-87 59.5t-70.5 80t-42 86h530q67 0 128 13.5t118.5 36
t114 50.5t115 57t121.5 56t134 47q-52 18 -122.5 44.5t-148 51.5t-156 42.5t-146.5 17.5q-88 2 -165 -25.5t-138 -75.5l4 188q30 25 67 47t79.5 38.5t89 26t95.5 9.5q84 0 151.5 -15t130 -37.5t125 -49t137 -49t165.5 -37.5t211 -15q60 0 110 1t96 5l-63 -243
q-76 0 -131.5 -1t-103.5 -3q-1 -31 2 -60.5t11 -52.5q19 -67 104 -67h346v-249h-355v0zM1196 -183l-150 -176l-151 127l-137 -158l-168 143l145 173l153 -124l134 158zM1073 -539l-150 -174l-170 144l149 174z" />
    <glyph glyph-name="uniFB88" unicode="&#x688;" horiz-adv-x="1233" arabic-form="isolated" 
d="M893 1145q220 -379 220 -929q0 -61 -51 -118q-50 -57 -115 -78q-132 -45 -364 -45q-138 0 -216 6t-107 19q-140 63 -140 223q0 111 37 192l97 66q-3 -21 -5 -36t-2 -26q0 -196 229 -196q425 0 511 99q-39 337 -253 566l159 257v0zM812 1383q0 36 -29 66
q-14 14 -29.5 22.5t-30.5 8.5q-22 0 -44 -10t-44 -28q-24 -21 -68 -74q24 -3 121 -3q65 0 70 1q54 3 54 17zM911 1383q0 -71 -55 -97q-16 -7 -44.5 -11t-63.5 -5q-18 -1 -42.5 -1.5t-47.5 -0.5q-43 0 -75.5 0.5t-58 1t-44.5 1.5t-34 3q-13 1 -27 10t-26.5 22.5t-21.5 30
t-11 32.5q33 0 51 1t22 2q13 2 23 7.5t14 13.5q5 13 6.5 35t1.5 39v24q0 49 -1.5 90t-6 75t-13 63t-21.5 55q13 5 27 11t23 11q11 5 24 11.5t30 15.5q8 -41 13 -74.5t7.5 -63.5t3.5 -58t1 -57v-26t-0.5 -28t-1.5 -27t-2 -23q25 30 52 55t53 43t50 28.5t42 10.5q56 0 102 -52
q51 -61 51 -168z" />
    <glyph glyph-name="uniFB89" unicode="&#x688;" horiz-adv-x="1233" arabic-form="final" 
d="M893 1145q220 -379 220 -929q0 -61 -51 -118q-50 -57 -115 -78q-132 -45 -364 -45q-138 0 -216 6t-107 19q-140 63 -140 223q0 111 37 192l97 66q-3 -21 -5 -36t-2 -26q0 -196 229 -196q425 0 511 99q-39 337 -253 566l159 257v0zM812 1383q0 36 -29 66
q-14 14 -29.5 22.5t-30.5 8.5q-22 0 -44 -10t-44 -28q-24 -21 -68 -74q24 -3 121 -3q65 0 70 1q54 3 54 17zM911 1383q0 -71 -55 -97q-16 -7 -44.5 -11t-63.5 -5q-18 -1 -42.5 -1.5t-47.5 -0.5q-43 0 -75.5 0.5t-58 1t-44.5 1.5t-34 3q-13 1 -27 10t-26.5 22.5t-21.5 30
t-11 32.5q33 0 51 1t22 2q13 2 23 7.5t14 13.5q5 13 6.5 35t1.5 39v24q0 49 -1.5 90t-6 75t-13 63t-21.5 55q13 5 27 11t23 11q11 5 24 11.5t30 15.5q8 -41 13 -74.5t7.5 -63.5t3.5 -58t1 -57v-26t-0.5 -28t-1.5 -27t-2 -23q25 30 52 55t53 43t50 28.5t42 10.5q56 0 102 -52
q51 -61 51 -168z" />
    <glyph glyph-name="uniFB8A" unicode="&#x698;" horiz-adv-x="841" arabic-form="isolated" 
d="M608 716q36 -61 61 -123.5t40 -129t22 -137.5t7 -147q0 -114 -23.5 -221.5t-68 -202.5t-109 -174t-147.5 -136.5t-183.5 -90t-215.5 -33.5l-228 103q102 22 203 51.5t193 70t171.5 93.5t138 122.5t91.5 157t33 196.5q0 46 -14.5 104.5t-39 117.5t-56 113.5t-65.5 92.5
l190 173v0zM703 1014l-135 -158l-136 114l-123 -142l-151 129l130 155l138 -111l121 142zM550 1298l-135 -157l-154 130l135 156z" />
    <glyph glyph-name="uniFB8B" unicode="&#x698;" horiz-adv-x="841" arabic-form="final" 
d="M608 716q36 -61 61 -123.5t40 -129t22 -137.5t7 -147q0 -114 -23.5 -221.5t-68 -202.5t-109 -174t-147.5 -136.5t-183.5 -90t-215.5 -33.5l-228 103q102 22 203 51.5t193 70t171.5 93.5t138 122.5t91.5 157t33 196.5q0 46 -14.5 104.5t-39 117.5t-56 113.5t-65.5 92.5
l190 173v0zM703 1014l-135 -158l-136 114l-123 -142l-151 129l130 155l138 -111l121 142zM550 1298l-135 -157l-154 130l135 156z" />
    <glyph glyph-name="uniFB8C" unicode="&#x691;" horiz-adv-x="841" arabic-form="isolated" 
d="M608 716q36 -61 61 -123.5t40 -129t22 -137.5t7 -147q0 -114 -23.5 -221.5t-68 -202.5t-109 -174t-147.5 -136.5t-183.5 -90t-215.5 -33.5l-228 103q102 22 203 51.5t193 70t171.5 93.5t138 122.5t91.5 157t33 196.5q0 46 -14.5 104.5t-39 117.5t-56 113.5t-65.5 92.5
l190 173v0zM511 955q0 36 -29 66q-14 14 -29.5 22.5t-30.5 8.5q-22 0 -44 -10t-44 -28q-24 -21 -68 -74q24 -3 121 -3q65 0 70 1q54 3 54 17zM610 955q0 -71 -55 -97q-16 -7 -44.5 -11t-63.5 -5q-18 -1 -42.5 -1.5t-47.5 -0.5q-43 0 -75.5 0.5t-58 1t-44.5 1.5t-34 3
q-13 1 -27 10t-26.5 22.5t-21.5 30t-11 32.5q33 0 51 1t22 2q13 2 23 7.5t14 13.5q5 13 6.5 35t1.5 39v24q0 49 -1.5 90t-6 75t-13 63t-21.5 55q13 5 27 11t23 11q11 5 24 11.5t30 15.5q8 -41 13 -74.5t7.5 -63.5t3.5 -58t1 -57v-26t-0.5 -28t-1.5 -27t-2 -23q25 30 52 55
t53 43t50 28.5t42 10.5q56 0 102 -52q51 -61 51 -168z" />
    <glyph glyph-name="uniFB8D" unicode="&#x691;" horiz-adv-x="841" arabic-form="final" 
d="M608 716q36 -61 61 -123.5t40 -129t22 -137.5t7 -147q0 -114 -23.5 -221.5t-68 -202.5t-109 -174t-147.5 -136.5t-183.5 -90t-215.5 -33.5l-228 103q102 22 203 51.5t193 70t171.5 93.5t138 122.5t91.5 157t33 196.5q0 46 -14.5 104.5t-39 117.5t-56 113.5t-65.5 92.5
l190 173v0zM511 955q0 36 -29 66q-14 14 -29.5 22.5t-30.5 8.5q-22 0 -44 -10t-44 -28q-24 -21 -68 -74q24 -3 121 -3q65 0 70 1q54 3 54 17zM610 955q0 -71 -55 -97q-16 -7 -44.5 -11t-63.5 -5q-18 -1 -42.5 -1.5t-47.5 -0.5q-43 0 -75.5 0.5t-58 1t-44.5 1.5t-34 3
q-13 1 -27 10t-26.5 22.5t-21.5 30t-11 32.5q33 0 51 1t22 2q13 2 23 7.5t14 13.5q5 13 6.5 35t1.5 39v24q0 49 -1.5 90t-6 75t-13 63t-21.5 55q13 5 27 11t23 11q11 5 24 11.5t30 15.5q8 -41 13 -74.5t7.5 -63.5t3.5 -58t1 -57v-26t-0.5 -28t-1.5 -27t-2 -23q25 30 52 55
t53 43t50 28.5t42 10.5q56 0 102 -52q51 -61 51 -168z" />
    <glyph glyph-name="uniFB8E" unicode="&#x6a9;" horiz-adv-x="2087" arabic-form="isolated" 
d="M305 679q-23 -51 -33 -99t-10 -96q0 -63 29.5 -115.5t98.5 -86.5q29 -15 84 -24t144 -14t216 -6.5t301 -1.5h202q138 0 232.5 3.5t163.5 11.5q27 3 43 7.5t24.5 10.5t11.5 13.5t3 16.5q0 29 -16.5 62.5t-62.5 79.5q-31 31 -66 59.5t-76 57.5t-90 61t-108 70
q-116 70 -181.5 112.5t-91.5 76.5q-9 12 -13.5 30t-4.5 59q0 25 1.5 45.5t4.5 38.5t9 36t15 39q7 17 16.5 34.5t18.5 30.5q27 39 109 95.5t209.5 123.5t295 142t365.5 151l-89 -240q-43 -14 -105 -39.5t-132 -57t-142 -67t-135 -69.5q-252 -138 -252 -182q0 -38 35 -61
q91 -62 164 -111.5t130 -91t99.5 -77t71.5 -68.5q55 -66 90.5 -125t56 -115.5t29 -111.5t10.5 -112q1 -29 -8 -57t-32.5 -51.5t-62.5 -40.5t-98 -24q-25 -2 -90.5 -4.5t-158.5 -4t-206.5 -2.5t-234.5 0q-126 1 -230 3t-188.5 5.5t-151.5 10t-119 16.5q-59 11 -110 28.5
t-88.5 50.5t-59 85t-21.5 132q0 46 3 84.5t11 74t21 71t33 77.5l116 50v0z" />
    <glyph glyph-name="uniFB8F" unicode="&#x6a9;" horiz-adv-x="2087" arabic-form="final" 
d="M305 679q-23 -51 -33 -99t-10 -96q0 -63 29.5 -115.5t98.5 -86.5q29 -15 84 -24t144 -14t216 -6.5t301 -1.5h202q138 0 232.5 3.5t163.5 11.5q27 3 43 7.5t24.5 10.5t11.5 13.5t3 16.5q0 29 -16.5 62.5t-62.5 79.5q-31 31 -66 59.5t-76 57.5t-90 61t-108 70
q-116 70 -181.5 112.5t-91.5 76.5q-9 12 -13.5 30t-4.5 59q0 25 1.5 45.5t4.5 38.5t9 36t15 39q7 17 16.5 34.5t18.5 30.5q27 39 109 95.5t209.5 123.5t295 142t365.5 151l-89 -240q-43 -14 -105 -39.5t-132 -57t-142 -67t-135 -69.5q-252 -138 -252 -182q0 -38 35 -61
q91 -62 164 -111.5t130 -91t99.5 -77t71.5 -68.5q55 -66 90.5 -125t56 -115.5t29 -111.5t10.5 -112q1 -29 -8 -57t-32.5 -51.5t-62.5 -40.5t-98 -24q-25 -2 -90.5 -4.5t-158.5 -4t-206.5 -2.5t-234.5 0q-126 1 -230 3t-188.5 5.5t-151.5 10t-119 16.5q-59 11 -110 28.5
t-88.5 50.5t-59 85t-21.5 132q0 46 3 84.5t11 74t21 71t33 77.5l116 50v0z" />
    <glyph glyph-name="uniFB90" unicode="&#x6a9;" horiz-adv-x="1160" arabic-form="initial" 
d="M786 249q94 0 94 48q0 23 -18.5 58.5t-60.5 83.5q-28 31 -62.5 59.5t-76.5 57.5t-92 61t-109 70q-116 70 -181.5 112.5t-91.5 76.5q-9 12 -13 30t-4 59q0 66 14 118.5t51 105.5q27 39 109 95.5t209 123.5t294.5 142t365.5 151l-89 -240q-43 -14 -105 -39.5t-131.5 -57
t-141.5 -67t-135 -69.5q-252 -137 -252 -182q0 -35 34 -59q79 -56 145.5 -99.5t120 -79.5t94.5 -67.5t71 -64.5q220 -241 220 -503q0 -48 -20.5 -81t-53.5 -53.5t-75.5 -29.5t-85.5 -9h-713q-43 0 -88.5 23.5t-85.5 59.5t-70.5 80t-43.5 86h977v0z" />
    <glyph glyph-name="uniFB91" unicode="&#x6a9;" horiz-adv-x="1160" arabic-form="medial" 
d="M786 249q94 0 94 48q0 23 -18.5 58.5t-60.5 83.5q-28 31 -62.5 59.5t-76.5 57.5t-92 61t-109 70q-116 70 -181.5 112.5t-91.5 76.5q-9 12 -13 30t-4 59q0 66 14 118.5t51 105.5q27 39 109 95.5t209 123.5t294.5 142t365.5 151l-89 -240q-43 -14 -105 -39.5t-131.5 -57
t-141.5 -67t-135 -69.5q-252 -137 -252 -182q0 -35 34 -59q79 -56 145.5 -99.5t120 -79.5t94.5 -67.5t71 -64.5q220 -241 220 -503q0 -48 -20.5 -81t-53.5 -53.5t-75.5 -29.5t-85.5 -9h-713q-43 0 -88.5 23.5t-85.5 59.5t-70.5 80t-43.5 86h977v0z" />
    <glyph glyph-name="uniFB92" unicode="&#x6af;" horiz-adv-x="1990" arabic-form="isolated" 
d="M228 679q-29 -60 -38 -108t-7 -95q2 -59 30.5 -109.5t96.5 -84.5q29 -15 84 -24t144 -14t216 -6.5t301 -1.5h202q138 0 232.5 3.5t163.5 11.5q27 3 43 7.5t24.5 10.5t11.5 13.5t3 16.5q0 29 -26.5 64.5t-90.5 80.5q-36 24 -67.5 43t-66.5 39t-77.5 44t-100.5 58
q-116 70 -182 113t-91 76q-9 13 -13.5 31t-4.5 58q0 21 1.5 38.5t4.5 34.5t7.5 34.5t10.5 40.5q7 22 19.5 42.5t21.5 34.5q27 39 109 95t209.5 123t295 142t365.5 151l-89 -239q-43 -15 -105 -40.5t-132 -57t-142 -67t-135 -69.5q-252 -137 -252 -181q0 -36 35 -62
q91 -62 172.5 -116t148 -100.5t116.5 -86t79 -72.5q45 -54 73.5 -96.5t44.5 -84t21.5 -88t5.5 -107.5q0 -29 -9.5 -57t-32.5 -51.5t-62 -40.5t-98 -24q-25 -2 -90 -4.5t-158 -4t-206.5 -2.5t-234.5 0q-126 1 -230 3t-188.5 5.5t-151.5 10t-119 16.5q-59 11 -110 29.5
t-88.5 51t-59 83.5t-21.5 126q0 45 2.5 84t10 76t21.5 74t37 79l116 50v0zM2024 1947q-8 -26 -14.5 -47t-11.5 -40q-5 -16 -10 -31.5t-8.5 -27.5t-5.5 -19l-2 -7q-171 -66 -309.5 -124t-256.5 -118q-109 -55 -199.5 -113.5t-174.5 -131.5l10 174q46 48 125.5 98.5
t197.5 110.5q63 31 134 64.5t152 68.5t173.5 71t199.5 72z" />
    <glyph glyph-name="uniFB93" unicode="&#x6af;" horiz-adv-x="1990" arabic-form="final" 
d="M228 679q-29 -60 -38 -108t-7 -95q2 -59 30.5 -109.5t96.5 -84.5q29 -15 84 -24t144 -14t216 -6.5t301 -1.5h202q138 0 232.5 3.5t163.5 11.5q27 3 43 7.5t24.5 10.5t11.5 13.5t3 16.5q0 29 -26.5 64.5t-90.5 80.5q-36 24 -67.5 43t-66.5 39t-77.5 44t-100.5 58
q-116 70 -182 113t-91 76q-9 13 -13.5 31t-4.5 58q0 21 1.5 38.5t4.5 34.5t7.5 34.5t10.5 40.5q7 22 19.5 42.5t21.5 34.5q27 39 109 95t209.5 123t295 142t365.5 151l-89 -239q-43 -15 -105 -40.5t-132 -57t-142 -67t-135 -69.5q-252 -137 -252 -181q0 -36 35 -62
q91 -62 172.5 -116t148 -100.5t116.5 -86t79 -72.5q45 -54 73.5 -96.5t44.5 -84t21.5 -88t5.5 -107.5q0 -29 -9.5 -57t-32.5 -51.5t-62 -40.5t-98 -24q-25 -2 -90 -4.5t-158 -4t-206.5 -2.5t-234.5 0q-126 1 -230 3t-188.5 5.5t-151.5 10t-119 16.5q-59 11 -110 29.5
t-88.5 51t-59 83.5t-21.5 126q0 45 2.5 84t10 76t21.5 74t37 79l116 50v0zM2024 1947q-8 -26 -14.5 -47t-11.5 -40q-5 -16 -10 -31.5t-8.5 -27.5t-5.5 -19l-2 -7q-171 -66 -309.5 -124t-256.5 -118q-109 -55 -199.5 -113.5t-174.5 -131.5l10 174q46 48 125.5 98.5
t197.5 110.5q63 31 134 64.5t152 68.5t173.5 71t199.5 72z" />
    <glyph glyph-name="uniFB94" unicode="&#x6af;" horiz-adv-x="1170" arabic-form="initial" 
d="M795 251q35 0 54.5 4.5t29.5 12t12 17t2 18.5q0 29 -26.5 64.5t-90.5 80.5q-36 24 -67.5 43t-66.5 38.5t-77.5 43.5t-100.5 58q-116 70 -182 113.5t-91 76.5q-9 12 -13.5 30t-4.5 59q0 21 1.5 38.5t4.5 34t7.5 34.5t10.5 40q7 23 19.5 43t21.5 34q27 39 109 95
t209.5 123.5t295 142.5t365.5 151l-89 -240q-43 -15 -105 -40.5t-132 -57t-142 -66.5t-135 -69q-252 -138 -252 -182q0 -38 35 -61q91 -62 172.5 -116t148 -100.5t116.5 -86.5t79 -73q45 -54 73.5 -96.5t44.5 -84t21.5 -88t5.5 -107.5q0 -60 -24.5 -95t-64.5 -53t-89.5 -23
t-98.5 -5h-665q-48 0 -93.5 23.5t-84.5 59.5t-68 80t-44 86h969v0zM1182 1950q-8 -26 -14.5 -46.5t-11.5 -40.5q-5 -16 -9.5 -31t-8.5 -27q-2 -7 -4 -13.5t-4 -12.5q-171 -66 -309.5 -124.5t-256.5 -117.5q-108 -56 -199.5 -114.5t-174.5 -131.5l10 174q46 48 125.5 98.5
t197.5 110.5q63 31 134 64.5t152 68.5t173.5 71t199.5 72z" />
    <glyph glyph-name="uniFB95" unicode="&#x6af;" horiz-adv-x="1159" arabic-form="medial" 
d="M796 251q35 0 54.5 4.5t29.5 12t12 17t2 18.5q0 29 -26.5 64.5t-90.5 80.5q-36 24 -67.5 43t-66.5 38.5t-77.5 43.5t-100.5 58q-116 70 -182 113.5t-91 76.5q-9 12 -13.5 30t-4.5 59q0 21 1.5 38.5t4.5 34t7.5 34.5t10.5 40q7 23 19.5 43t21.5 34q27 39 109 95
t209.5 123.5t295 142.5t365.5 151l-89 -240q-43 -15 -105 -40.5t-132 -57t-142 -66.5t-135 -69q-252 -138 -252 -182q0 -38 35 -61q91 -62 172.5 -116t148 -100.5t116.5 -86.5t79 -73q45 -54 73.5 -96.5t44.5 -84t21.5 -88t5.5 -107.5q0 -60 -24.5 -95t-64.5 -53t-89.5 -23
t-98.5 -5h-665q-48 0 -93.5 23.5t-84.5 59.5t-68 80t-44 86h969v0zM1183 1950q-8 -26 -14.5 -46.5t-11.5 -40.5q-5 -16 -9.5 -31t-8.5 -27q-2 -7 -4 -13.5t-4 -12.5q-171 -66 -309.5 -124.5t-256.5 -117.5q-108 -56 -199.5 -114.5t-174.5 -131.5l10 174q46 48 125.5 98.5
t197.5 110.5q63 31 134 64.5t152 68.5t173.5 71t199.5 72z" />
    <glyph glyph-name="uniFB9E" unicode="&#x6ba;" horiz-adv-x="1512" arabic-form="isolated" 
d="M1310 587q82 -171 82 -500q0 -306 -166 -508q-179 -215 -478 -215q-290 0 -456 151q-172 157 -172 445q0 94 22 185.5t65 188.5l154 69q-89 -253 -89 -360q0 -216 151 -322q131 -92 364 -92q184 0 312 92q154 103 154 281q0 195 -102 401l159 184v0z" />
    <glyph glyph-name="uniFB9F" unicode="&#x6ba;" horiz-adv-x="1512" arabic-form="final" 
d="M1310 587q82 -171 82 -500q0 -306 -166 -508q-179 -215 -478 -215q-290 0 -456 151q-172 157 -172 445q0 94 22 185.5t65 188.5l154 69q-89 -253 -89 -360q0 -216 151 -322q131 -92 364 -92q184 0 312 92q154 103 154 281q0 195 -102 401l159 184v0z" />
    <glyph glyph-name="uniFBA4" unicode="&#x6c0;" horiz-adv-x="1066" arabic-form="isolated" 
d="M586 912q93 -56 152.5 -97.5t91.5 -71.5q115 -108 115 -239q0 -156 -134 -314q-132 -153 -289 -153q-145 0 -263 85q-130 94 -130 231q0 117 53 218q16 29 46.5 75t84.5 110q-40 22 -68 44.5t-44 47.5l165 229q53 -59 220 -165zM790 364q-14 120 -159 216
q-64 35 -126.5 69t-125.5 68q-29 -66 -43 -112.5t-14 -77.5q0 -62 20 -109t56 -79t87 -48.5t114 -16.5q120 0 191 90zM650 1756q-11 3 -24 3h-21q-26 0 -49 -7t-41 -18q-31 -17 -46.5 -36.5t-15.5 -47.5q0 -17 12 -32t29 -25.5t36.5 -16t33.5 -3.5q37 5 85 18t111 33
l-7 -125q-42 -14 -98.5 -29t-113.5 -33t-107.5 -40t-79.5 -50l-39 45q29 80 138 119q-81 35 -107 62q-31 34 -31 99q0 30 25.5 64.5t65.5 63.5t89.5 48.5t98.5 19.5q36 0 63 -4t40 -9l-47 -99v0z" />
    <glyph glyph-name="uniFBA5" unicode="&#x6c0;" horiz-adv-x="1099" arabic-form="final" 
d="M664 437q-9 57 -13 125.5t-4 159.5q-71 -71 -203 -123q-129 -41 -129 -83q0 -39 116 -66q48 -12 84.5 -17.5t66.5 -5.5q19 0 39.5 2.5t42.5 7.5zM1028 0q-169 0 -247 80q-60 60 -110 240q-127 -160 -210 -160q-80 0 -198 61q-134 72 -134 137q0 97 104 234
q88 121 141 150q57 19 120.5 47t144.5 67q-1 26 -4.5 60t-7.5 85l149 167q0 -177 4.5 -309.5t14.5 -235.5q35 -359 231 -374h150v-249h-148v0zM665 1584q-11 3 -24 3h-21q-26 0 -49 -7t-41 -18q-31 -17 -46.5 -36.5t-15.5 -47.5q0 -17 12 -32t29 -25.5t36.5 -16t33.5 -3.5
q37 5 85 18t111 33l-7 -125q-42 -14 -98.5 -29t-113.5 -33t-107.5 -40t-79.5 -50l-39 45q29 80 138 119q-81 35 -107 62q-31 34 -31 99q0 30 25.5 64.5t65.5 63.5t89.5 48.5t98.5 19.5q36 0 63 -4t40 -9l-47 -99v0z" />
    <glyph glyph-name="uniFBA6" unicode="&#x6c1;" horiz-adv-x="991" arabic-form="isolated" 
d="M546 912q93 -56 152.5 -97.5t91.5 -71.5q115 -108 115 -239q0 -156 -134 -314q-132 -153 -289 -153q-145 0 -263 85q-130 94 -130 231q0 117 53 218q16 29 46.5 75t84.5 110q-40 22 -68 44.5t-44 47.5l165 229q53 -59 220 -165zM750 364q-14 120 -159 216
q-64 35 -126.5 69t-125.5 68q-29 -66 -43 -112.5t-14 -77.5q0 -62 20 -109t56 -79t87 -48.5t114 -16.5q120 0 191 90z" />
    <glyph glyph-name="uniFBA7" unicode="&#x6c1;" horiz-adv-x="1287" arabic-form="final" 
d="M1330 0h-123q-103 0 -178 21.5t-129.5 53t-99.5 69t-82.5 69t-71.5 53t-76 21.5q-70 0 -132 -41.5t-115 -109.5t-96 -154.5t-74 -176.5l-48 145q15 58 40 121t58 124t74 115.5t89.5 96.5t103 67.5t114.5 27.5q61 2 103 -16t79.5 -46t77.5 -61.5t90.5 -62t123 -48
t179.5 -19.5h92z" />
    <glyph glyph-name="uniFBA8" unicode="&#x6c1;" horiz-adv-x="849" arabic-form="initial" 
d="M401 -869q-95 161 -95 322q0 92 31.5 180t95.5 170h104q-20 -55 -35 -122t-15 -141q0 -60 15.5 -119.5t53.5 -107.5zM632 845q43 -107 70.5 -233.5t27.5 -286.5q0 -97 -34.5 -162.5t-91.5 -102.5q-93 -60 -295 -60h-213q-41 0 -88.5 23.5t-89.5 59.5t-72 80t-36 86h346
q103 0 174 2.5t117.5 7t72 10.5t37.5 14q17 12 25 27.5t8 47.5q0 45 -25.5 117t-76.5 160z" />
    <glyph glyph-name="uniFBA9" unicode="&#x6c1;" horiz-adv-x="1271" arabic-form="medial" 
d="M1361 0h-256q-118 0 -223.5 -40t-184.5 -109.5t-124 -164.5t-43 -204q1 -42 13 -82.5t32 -78.5l-160 -188q-61 112 -83 235t-22 259q0 81 9.5 156t24.5 144t34.5 131.5t40.5 119.5q-61 -85 -144 -131.5t-190 -46.5q-40 0 -86 23.5t-86.5 59.5t-69 80t-34.5 86h279
q77 0 141 19.5t115 53t88.5 79.5t63.5 99l128 24q-41 -114 -67 -212.5t-40.5 -193.5t-19.5 -192t-3 -208q29 129 93 228.5t147 166.5t180 101.5t202 34.5h245v-249z" />
    <glyph glyph-name="uniFBAA" unicode="&#x6be;" horiz-adv-x="1330" arabic-form="isolated" 
d="M829 581q0 30 -32 61.5t-108 77.5q-45 -21 -109 -106q-64 -82 -64 -129q0 -50 62 -103q23 -25 43.5 -35.5t49.5 -18.5q45 18 102 111q56 89 56 142zM1101 207q0 97 -41.5 186.5t-138.5 185.5q-4 -95 -29 -170.5t-85 -147.5q76 -47 131.5 -65t102.5 -18q60 0 60 29zM94 0
q-50 0 -97 24t-85.5 60.5t-65.5 80.5t-36 84h285q49 0 99 0.5t91.5 2.5t70.5 5t38 8q-7 10 -14 24.5t-12 31.5t-8.5 34.5t-3.5 34.5q0 184 240 397q-29 20 -51.5 34t-49.5 25q5 8 9 16t10 17q9 16 19 34.5t23 39.5q13 23 28 49.5t32 56.5q70 -23 132 -53t116 -68.5
t101.5 -86.5t89.5 -108q82 -120 116.5 -249.5t34.5 -277.5q0 -32 -13 -75t-34.5 -83.5t-51 -72t-62.5 -40.5q-30 0 -136.5 43t-299.5 119q-66 -51 -153.5 -79t-181.5 -28h-180v0z" />
    <glyph glyph-name="uniFBAB" unicode="&#x6be;" horiz-adv-x="1210" arabic-form="final" 
d="M933 -474q3 9 4.5 22.5t1.5 25.5q0 148 -122 249q-27 24 -54.5 44t-58.5 35t-67 23t-80 8q5 -91 33 -161.5t79 -127.5q101 -119 264 -118zM983 689q0 88 -61 88q-133 0 -242 -172q-95 -132 -120 -289q69 14 137 45.5t137 83.5q149 119 149 244zM1318 0q-121 0 -178 -1.5
t-104.5 -4t-83 -6t-54.5 -8.5q66 -88 110 -169.5t44 -157.5q0 -45 -4.5 -78.5t-12 -58.5t-18 -43.5t-23.5 -34.5q-59 -74 -179 -74q-87 0 -150 45t-117 136q-42 73 -65.5 146.5t-25.5 163.5q0 16 2.5 31t4.5 31l-154 -39l34 153q-26 -8 -58 -14t-55 -9.5t-55 -5.5t-77 -2
q-42 0 -86.5 24.5t-84 61t-71 80.5t-47.5 83h336q79 0 156 3.5t128 22.5q17 109 57 219.5t103 210.5q78 121 170.5 180.5t186.5 59.5q32 0 64 -22.5t52 -68.5q27 -66 27 -144q0 -113 -84 -260q-10 -17 -28.5 -42.5t-44.5 -57.5t-65 -68.5t-91 -77.5q42 12 81.5 20.5
t80.5 14.5t72.5 8.5t123.5 2.5h183v-250z" />
    <glyph glyph-name="uniFBAC" unicode="&#x6be;" horiz-adv-x="1330" arabic-form="initial" 
d="M829 581q0 30 -32 61.5t-108 77.5q-45 -21 -109 -106q-64 -82 -64 -129q0 -50 62 -103q23 -25 43.5 -35.5t49.5 -18.5q45 18 102 111q56 89 56 142zM1101 207q0 97 -41.5 186.5t-138.5 185.5q-4 -95 -29 -170.5t-85 -147.5q76 -47 131.5 -65t102.5 -18q60 0 60 29zM94 0
q-50 0 -97 24t-85.5 60.5t-65.5 80.5t-36 84h285q49 0 99 0.5t91.5 2.5t70.5 5t38 8q-7 10 -14 24.5t-12 31.5t-8.5 34.5t-3.5 34.5q0 184 240 397q-29 20 -51.5 34t-49.5 25q5 8 9 16t10 17q9 16 19 34.5t23 39.5q13 23 28 49.5t32 56.5q70 -23 132 -53t116 -68.5
t101.5 -86.5t89.5 -108q82 -120 116.5 -249.5t34.5 -277.5q0 -32 -13 -75t-34.5 -83.5t-51 -72t-62.5 -40.5q-30 0 -136.5 43t-299.5 119q-66 -51 -153.5 -79t-181.5 -28h-180v0z" />
    <glyph glyph-name="uniFBAD" unicode="&#x6be;" horiz-adv-x="1210" arabic-form="medial" 
d="M933 -474q3 9 4.5 22.5t1.5 25.5q0 148 -122 249q-27 24 -54.5 44t-58.5 35t-67 23t-80 8q5 -91 33 -161.5t79 -127.5q101 -119 264 -118zM983 689q0 88 -61 88q-133 0 -242 -172q-95 -132 -120 -289q69 14 137 45.5t137 83.5q149 119 149 244zM1318 0q-121 0 -178 -1.5
t-104.5 -4t-83 -6t-54.5 -8.5q66 -88 110 -169.5t44 -157.5q0 -45 -4.5 -78.5t-12 -58.5t-18 -43.5t-23.5 -34.5q-59 -74 -179 -74q-87 0 -150 45t-117 136q-42 73 -65.5 146.5t-25.5 163.5q0 16 2.5 31t4.5 31l-154 -39l34 153q-26 -8 -58 -14t-55 -9.5t-55 -5.5t-77 -2
q-42 0 -86.5 24.5t-84 61t-71 80.5t-47.5 83h336q79 0 156 3.5t128 22.5q17 109 57 219.5t103 210.5q78 121 170.5 180.5t186.5 59.5q32 0 64 -22.5t52 -68.5q27 -66 27 -144q0 -113 -84 -260q-10 -17 -28.5 -42.5t-44.5 -57.5t-65 -68.5t-91 -77.5q42 12 81.5 20.5
t80.5 14.5t72.5 8.5t123.5 2.5h183v-250z" />
    <glyph glyph-name="uniFBAE" unicode="&#x6d2;" horiz-adv-x="1685" arabic-form="isolated" 
d="M826 -910q-87 1 -173.5 5.5t-165 17.5t-145.5 37.5t-116.5 65.5t-77.5 101t-28 144q0 80 33 169.5t93.5 177.5t145.5 167.5t189.5 140.5t226 97t253.5 36h105q66 0 115 10t70 24q17 12 25 27.5t8 47.5q0 45 -25.5 117t-76.5 160l144 210q43 -107 70.5 -233.5t27.5 -286.5
q0 -97 -34.5 -162.5t-91.5 -102.5q-45 -29 -113 -44.5t-168 -15.5h-92q-127 0 -231.5 -27.5t-188 -71t-145.5 -98t-103 -109t-61 -104t-20 -81.5q0 -37 12.5 -63t41 -44.5t76 -30.5t119 -19t168.5 -11t225 -7q141 -2 288.5 -1t287.5 6t266 13t222 20l-301 -232
q-191 -35 -406 -47.5t-449 -2.5z" />
    <glyph glyph-name="uniFBAF" unicode="&#x6d2;" horiz-adv-x="1685" arabic-form="final" 
d="M826 -910q-87 1 -173.5 5.5t-165 17.5t-145.5 37.5t-116.5 65.5t-77.5 101t-28 144q0 80 33 169.5t93.5 177.5t145.5 167.5t189.5 140.5t226 97t253.5 36h713v-249h-749q-127 0 -231.5 -27.5t-188 -71t-145.5 -98t-103 -109t-61 -104t-20 -81.5q0 -37 12.5 -63t41 -44.5
t76 -30.5t119 -19t168.5 -11t225 -7q141 -2 288.5 -1t287.5 6t266 13t222 20l-301 -232q-191 -35 -406 -47.5t-449 -2.5z" />
    <glyph glyph-name="uniFBB0" unicode="&#x6d3;" horiz-adv-x="1685" arabic-form="isolated" 
d="M826 -910q-87 1 -173.5 5.5t-165 17.5t-145.5 37.5t-116.5 65.5t-77.5 101t-28 144q0 80 33 169.5t93.5 177.5t145.5 167.5t189.5 140.5t226 97t253.5 36h105q66 0 115 10t70 24q17 12 25 27.5t8 47.5q0 45 -25.5 117t-76.5 160l144 210q43 -107 70.5 -233.5t27.5 -286.5
q0 -97 -34.5 -162.5t-91.5 -102.5q-45 -29 -113 -44.5t-168 -15.5h-92q-127 0 -231.5 -27.5t-188 -71t-145.5 -98t-103 -109t-61 -104t-20 -81.5q0 -37 12.5 -63t41 -44.5t76 -30.5t119 -19t168.5 -11t225 -7q141 -2 288.5 -1t287.5 6t266 13t222 20l-301 -232
q-191 -35 -406 -47.5t-449 -2.5zM601 814q-11 3 -24 3h-21q-26 0 -49 -7t-41 -18q-31 -17 -46.5 -36.5t-15.5 -47.5q0 -17 12 -32t29 -25.5t36.5 -16t33.5 -3.5q37 5 85 18t111 33l-7 -125q-42 -14 -98.5 -29t-113.5 -33t-107.5 -40t-79.5 -50l-39 45q29 80 138 119
q-81 35 -107 62q-31 34 -31 99q0 30 25.5 64.5t65.5 63.5t89.5 48.5t98.5 19.5q36 0 63 -4t40 -9l-47 -99v0z" />
    <glyph glyph-name="uniFBB1" unicode="&#x6d3;" horiz-adv-x="1685" arabic-form="final" 
d="M826 -910q-87 1 -173.5 5.5t-165 17.5t-145.5 37.5t-116.5 65.5t-77.5 101t-28 144q0 80 33 169.5t93.5 177.5t145.5 167.5t189.5 140.5t226 97t253.5 36h713v-249h-749q-127 0 -231.5 -27.5t-188 -71t-145.5 -98t-103 -109t-61 -104t-20 -81.5q0 -37 12.5 -63t41 -44.5
t76 -30.5t119 -19t168.5 -11t225 -7q141 -2 288.5 -1t287.5 6t266 13t222 20l-301 -232q-191 -35 -406 -47.5t-449 -2.5zM571 814q-11 3 -24 3h-21q-26 0 -49 -7t-41 -18q-31 -17 -46.5 -36.5t-15.5 -47.5q0 -17 12 -32t29 -25.5t36.5 -16t33.5 -3.5q37 5 85 18t111 33
l-7 -125q-42 -14 -98.5 -29t-113.5 -33t-107.5 -40t-79.5 -50l-39 45q29 80 138 119q-81 35 -107 62q-31 34 -31 99q0 30 25.5 64.5t65.5 63.5t89.5 48.5t98.5 19.5q36 0 63 -4t40 -9l-47 -99v0z" />
    <glyph glyph-name="uniFBE9" unicode="&#x649;" horiz-adv-x="966" arabic-form="medial" 
d="M1019 0q-74 0 -131.5 31.5t-98 79t-64 104.5t-30.5 108q0 -124 -59 -216q-74 -107 -198 -107h-340q-44 0 -91 23.5t-87.5 59.5t-70 80t-39.5 86h585q191 0 191 119q0 122 -51 235l150 166q24 -85 39.5 -158.5t15.5 -134.5q0 -86 27.5 -134t80.5 -71q21 -11 69.5 -16
t124.5 -5h14v-250h-37v0zM872 -285l-133 -161l-139 117l-123 -143l-151 130l131 155l139 -111l120 141z" />
    <glyph glyph-name="uniFBFC" unicode="&#x6cc;" horiz-adv-x="1706" arabic-form="isolated" 
d="M392 627q-27 -54 -45 -101t-28.5 -90.5t-14.5 -86.5t-4 -89q0 -481 388 -481q36 0 95 6.5t126 20.5t135 35t123 50.5t89.5 67t34.5 83.5q0 55 -123 82q-94 20 -152 36t-80 28q-33 17 -58.5 35.5t-41.5 47.5q-14 26 -18.5 59t-4.5 67q0 219 144 402q79 96 165 139t193 43
q106 0 175.5 -61.5t95.5 -176.5q-16 -20 -35.5 -48t-42.5 -59q-15 24 -38 44.5t-50 36t-55.5 24.5t-52.5 9q-41 0 -86 -5.5t-87 -18.5t-78.5 -35.5t-60.5 -55.5q-23 -30 -33.5 -70.5t-10.5 -77.5q0 -35 16.5 -55t46.5 -33q42 -17 83 -26.5t82 -17.5t81 -16t80 -22
q140 -44 140 -154q0 -95 -38.5 -179t-103.5 -153.5t-149.5 -124.5t-176 -92.5t-183.5 -57.5t-172 -20q-126 0 -226 35t-170.5 102.5t-108 166t-37.5 225.5q0 54 6 112t20.5 120.5t39 130.5t61.5 142l145 57v0z" />
    <glyph glyph-name="uniFBFD" unicode="&#x6cc;" horiz-adv-x="1532" arabic-form="final" 
d="M1464 1q-129 0 -221 -3.5t-150.5 -11.5t-85.5 -20.5t-27 -31.5q0 -9 23.5 -20.5t56.5 -23t68.5 -22t59.5 -18.5q31 -10 66.5 -24.5t66.5 -34t51.5 -44t20.5 -54.5q0 -63 -42 -123t-111 -113.5t-157.5 -98.5t-181.5 -77.5t-183 -50.5t-161 -18q-121 0 -216 46t-155 127
q-54 72 -75.5 160t-21.5 197q0 60 12 131.5t37 148t62 156t87 155.5l99 20q-119 -256 -119 -420q0 -143 20.5 -235.5t66.5 -149.5q27 -30 58 -47.5t66 -27t74.5 -12t83.5 -2.5q52 0 111.5 6t118 17t112.5 26t95 33t65.5 38.5t24.5 42.5q0 47 -108 82q-94 29 -140 45t-54 19
q-27 13 -46 25t-31.5 25.5t-18 30.5t-5.5 40q0 31 14.5 62.5t39.5 62.5t58.5 61t71.5 59q51 39 101 62t107.5 35t128 15.5t163.5 3.5h183v-249h-163v0z" />
    <glyph glyph-name="uniFBFE" unicode="&#x6cc;" horiz-adv-x="849" arabic-form="initial" 
d="M632 845q43 -107 70.5 -233.5t27.5 -286.5q0 -97 -34.5 -162.5t-91.5 -102.5q-93 -60 -295 -60h-213q-41 0 -88.5 23.5t-89.5 59.5t-72 80t-36 86h346q103 0 174 2.5t117.5 7t72 10.5t37.5 14q17 12 25 27.5t8 47.5q0 45 -25.5 117t-76.5 160l144 210v0zM705 -412
l-133 -161l-139 117l-123 -143l-151 130l131 155l139 -111l120 141z" />
    <glyph glyph-name="uniFBFF" unicode="&#x6cc;" horiz-adv-x="966" arabic-form="medial" 
d="M1019 0q-74 0 -131.5 31.5t-98 79t-64 104.5t-30.5 108q0 -124 -59 -216q-74 -107 -198 -107h-340q-44 0 -91 23.5t-87.5 59.5t-70 80t-39.5 86h585q191 0 191 119q0 122 -51 235l150 166q24 -85 39.5 -158.5t15.5 -134.5q0 -86 27.5 -134t80.5 -71q21 -11 69.5 -16
t124.5 -5h14v-250h-37v0zM872 -427l-133 -161l-139 117l-123 -143l-151 130l131 155l139 -111l120 141z" />
    <glyph glyph-name="uniFC5F" unicode="&#xfc5f;" horiz-adv-x="0" arabic-form="isolated" 
d="M45 1344l25 130l463 156l-17 -127zM45 1570l25 130l463 156l-17 -127zM325 1986q-21 -41 -41 -67.5t-40.5 -41.5t-41.5 -21t-43 -6q-66 0 -102 38t-36 127q0 42 5 80.5t19 77.5h65q-3 -17 -5 -30t-3 -24t-1.5 -22.5t-0.5 -25.5q0 -23 11.5 -41.5t38.5 -18.5q26 0 46.5 11
t36 37.5t25.5 71t15 112.5l63 2q0 -86 19.5 -119t53.5 -33q24 0 40.5 8.5t27 33t15.5 68t5 114.5l63 1q4 -28 7 -50t5.5 -42t3.5 -40t1 -43q0 -50 -11 -90.5t-31 -69.5t-48.5 -44.5t-63.5 -15.5q-26 0 -53.5 15.5t-44.5 47.5z" />
    <glyph glyph-name="uniFC62" unicode="&#xfc62;" horiz-adv-x="0" arabic-form="isolated" 
d="M45 1355l25 130l463 156l-17 -127zM325 1751q-21 -41 -41 -67.5t-40.5 -41.5t-41.5 -21t-43 -6q-66 0 -102 38t-36 127q0 42 5 80.5t19 77.5h65q-3 -17 -5 -30t-3 -24t-1.5 -22.5t-0.5 -25.5q0 -23 11.5 -41.5t38.5 -18.5q26 0 46.5 11t36 37.5t25.5 71t15 112.5l63 2
q0 -86 19.5 -119t53.5 -33q24 0 40.5 8.5t27 33t15.5 68t5 114.5l63 1q4 -28 7 -50t5.5 -42t3.5 -40t1 -43q0 -50 -11 -90.5t-31 -69.5t-48.5 -44.5t-63.5 -15.5q-26 0 -53.5 15.5t-44.5 47.5z" />
    <glyph glyph-name="uniFDF2" unicode="&#xfdf2;" horiz-adv-x="1825" arabic-form="isolated" 
d="M814 2041q0 -17 3.5 -66.5t10.5 -134.5q5 -60 7.5 -93.5t2.5 -41.5q0 -67 -10 -87q-11 -42 -28 -42t-17 35l2 43q0 7 -4.5 36t-12.5 83q-13 78 -19.5 123t-6.5 58q0 24 18 77t37 53q17 0 17 -43zM799 1339q-59 -110 -144 -110q-65 0 -65 92q0 42 20 124q21 60 43 60
q8 0 17 -32q10 -33 49 -33q32 0 61 41q30 41 49 41q12 0 31 -37q20 -35 49 -35q20 0 49 33q32 35 39 35q23 0 23 -21q0 -65 -41 -127q-40 -61 -113 -61q-37 0 -67 30zM473 326q-5 25 -8.5 52t-5.5 56q-24 0 -151 -53q-105 -53 -105 -74q0 -37 141 -37q33 0 68 21q11 8 24 15
t27 14q4 2 6.5 3.5t3.5 2.5zM1389 336q0 -98 -44 -221q-44 -101 -122 -101q-120 0 -222 195q-74 -129 -120 -171q-47 -42 -138 -42q-87 0 -140 25q-75 26 -130 192q-57 -104 -92 -113q-23 -4 -55 -6t-74 -2q-32 0 -113 26q-59 27 -59 54q0 28 43 113q43 90 67 112
q14 12 45 30.5t82 43.5q52 26 86.5 41.5t51.5 22.5q-6 82 -6 118v37q0 19 1 20q1 9 19 33q17 21 49 41q43 -435 87 -501q43 -66 132 -66q49 0 120 20q48 19 83 109l-115 547q52 151 80 151q17 0 127 -552q21 -104 87 -180q67 -76 147 -76q49 0 49 55q0 14 -18.5 93.5
t-55.5 231.5q-74 316 -74 306q0 10 19 47q10 20 17.5 34.5t12.5 23.5q11 17 15 17q15 0 28 -61l71 -329q29 -139 44 -216.5t15 -103.5v2v0z" />
    <glyph glyph-name="uniFE80" unicode="&#x621;" horiz-adv-x="946" arabic-form="isolated" 
d="M725 645q-70 45 -130.5 62.5t-120.5 17.5q-47 0 -83.5 -17t-62 -42.5t-39 -55.5t-13.5 -55q0 -43 17 -74.5t45 -50.5t63 -26t70 -1q30 6 72.5 10t89 5.5t93.5 0.5t86 -5l-58 -189q-122 2 -207 -3.5t-150 -21.5t-119 -45.5t-114 -75.5l-54 55q32 56 69 96t88 75
q-24 5 -52.5 19.5t-52.5 36t-40 50.5t-16 64q0 89 29 172t80 147.5t119.5 103t147.5 38.5q34 0 69.5 -7.5t67.5 -22.5t59.5 -38t46.5 -54v-169v0z" />
    <glyph glyph-name="uniFE81" unicode="&#x622;" horiz-adv-x="723" arabic-form="isolated" 
d="M465 1439q-3 -46 -4 -83.5t-1.5 -74t-0.5 -76.5v-89q0 -81 7.5 -165t16.5 -163t16.5 -149t7.5 -122q0 -60 -2 -115.5t-6.5 -110t-13 -108.5t-21.5 -111l-144 -94q6 44 9.5 79t5.5 69.5t3 73t1 89.5q0 52 -6 120.5t-14.5 145t-18.5 155t-18.5 150.5t-14.5 132.5t-6 100.5
v42v40q0 21 0.5 43.5t2.5 49.5l201 171v0zM876 1851q-37 -74 -75 -118.5t-81 -69.5t-93.5 -33t-112.5 -8q-47 0 -96.5 15t-97.5 33t-91 33t-76 15q-70 0 -126.5 -29.5t-108.5 -105.5l-48 31q20 46 48 90.5t65.5 79.5t86 56.5t110.5 21.5q45 0 84.5 -16.5t81 -36t87.5 -36
t104 -16.5q55 0 98.5 3.5t80 15t68 32.5t64.5 57l28 -14v0z" />
    <glyph glyph-name="uniFE82" unicode="&#x622;" horiz-adv-x="624" arabic-form="final" 
d="M538 0q-70 2 -119 18t-82 42.5t-51.5 61.5t-28 75.5t-12 84.5t-2.5 88q0 37 1.5 84t3 95.5t3 95t1.5 83.5q0 89 -1.5 161t-5.5 135t-9.5 122.5t-13.5 124.5l192 172q12 -97 16.5 -192.5t4.5 -180.5q0 -61 -3 -129t-6.5 -137t-6.5 -137t-3 -129q0 -84 4.5 -139.5t22 -88.5
t52.5 -47t96 -14h189v-249h-242v0zM853 1835q-37 -74 -75 -118.5t-81 -69.5t-93.5 -33t-112.5 -8q-47 0 -96.5 15t-97.5 33t-91 33t-76 15q-70 0 -126.5 -29.5t-108.5 -105.5l-48 31q20 46 48 90.5t65.5 79.5t86 56.5t110.5 21.5q45 0 84.5 -16.5t81 -36t87.5 -36t104 -16.5
q55 0 98.5 3.5t80 15t68 32.5t64.5 57l28 -14v0z" />
    <glyph glyph-name="uniFE83" unicode="&#x623;" horiz-adv-x="657" arabic-form="isolated" 
d="M465 1439q-3 -46 -4 -83.5t-1.5 -74t-0.5 -76.5v-89q0 -81 7.5 -165t16.5 -163t16.5 -149t7.5 -122q0 -60 -2 -115.5t-6.5 -110t-13 -108.5t-21.5 -111l-144 -94q6 44 9.5 79t5.5 69.5t3 73t1 89.5q0 52 -6 120.5t-14.5 145t-18.5 155t-18.5 150.5t-14.5 132.5t-6 100.5
v42v40q0 21 0.5 43.5t2.5 49.5l201 171v0zM444 1858q-11 3 -24 3h-21q-26 0 -49 -7t-41 -18q-31 -17 -46.5 -36.5t-15.5 -47.5q0 -17 12 -32t29 -25.5t36.5 -16t33.5 -3.5q37 5 85 18t111 33l-7 -125q-42 -14 -98.5 -29t-113.5 -33t-107.5 -40t-79.5 -50l-39 45
q29 80 138 119q-81 35 -107 62q-31 34 -31 99q0 30 25.5 64.5t65.5 63.5t89.5 48.5t98.5 19.5q36 0 63 -4t40 -9l-47 -99v0z" />
    <glyph glyph-name="uniFE84" unicode="&#x623;" horiz-adv-x="614" arabic-form="final" 
d="M538 0q-70 2 -119 18t-82 42.5t-51.5 61.5t-28 75.5t-12 84.5t-2.5 88q0 37 1.5 84t3 95.5t3 95t1.5 83.5q0 89 -1.5 161t-5.5 135t-9.5 122.5t-13.5 124.5l192 172q12 -97 16.5 -192.5t4.5 -180.5q0 -61 -3 -129t-6.5 -137t-6.5 -137t-3 -129q0 -84 4.5 -139.5t22 -88.5
t52.5 -47t96 -14h189v-249h-242v0zM387 1850q-11 3 -24 3h-21q-26 0 -49 -7t-41 -18q-31 -17 -46.5 -36.5t-15.5 -47.5q0 -17 12 -32t29 -25.5t36.5 -16t33.5 -3.5q37 5 85 18t111 33l-7 -125q-42 -14 -98.5 -29t-113.5 -33t-107.5 -40t-79.5 -50l-39 45q29 80 138 119
q-81 35 -107 62q-31 34 -31 99q0 30 25.5 64.5t65.5 63.5t89.5 48.5t98.5 19.5q36 0 63 -4t40 -9l-47 -99v0z" />
    <glyph glyph-name="uniFE85" unicode="&#x624;" horiz-adv-x="1087" arabic-form="isolated" 
d="M983 198q0 -145 -10.5 -250t-33.5 -180q-54 -187 -205 -374q-45 -57 -104.5 -103t-137.5 -81q-81 -36 -151.5 -54t-143.5 -21q-39 17 -93 41t-127 58q198 50 340 114.5t242 144.5q126 103 190 236.5t66 312.5q-54 -13 -96.5 -17t-88.5 -4q-172 0 -287 79
q-138 96 -138 274q0 81 20 161.5t61 144t105 103.5t152 40q189 0 322 -214q118 -187 118 -411zM796 298q-56 157 -130 233t-178 76q-58 0 -100 -49q-38 -53 -38 -111q0 -54 27.5 -93t87.5 -56q23 -9 56 -12t93 -6q43 0 87 3t95 15zM631 1378q-11 3 -24 3h-21q-26 0 -49 -7
t-41 -18q-31 -17 -46.5 -36.5t-15.5 -47.5q0 -17 12 -32t29 -25.5t36.5 -16t33.5 -3.5q37 5 85 18t111 33l-7 -125q-42 -14 -98.5 -29t-113.5 -33t-107.5 -40t-79.5 -50l-39 45q29 80 138 119q-81 35 -107 62q-31 34 -31 99q0 30 25.5 64.5t65.5 63.5t89.5 48.5t98.5 19.5
q36 0 63 -4t40 -9l-47 -99v0z" />
    <glyph glyph-name="uniFE86" unicode="&#x624;" horiz-adv-x="1104" arabic-form="final" 
d="M563 833q65 0 122.5 -27.5t106.5 -73.5t88.5 -106t68 -125t44.5 -130t19 -122h278v-249h-267q0 -129 -30 -242t-84 -207.5t-128 -168t-162 -123.5t-187 -75.5t-201 -23.5l-229 105q129 38 242.5 77.5t209 85t171 100t127.5 123.5t78.5 155t23.5 194q-100 0 -186.5 4
t-157.5 17t-126.5 37.5t-93 66.5t-57.5 103.5t-20 148.5q0 81 22 162.5t65.5 146.5t109.5 106t153 41zM831 250q-23 78 -60 143.5t-81.5 113.5t-92 74.5t-90.5 26.5q-36 0 -62 -15t-42.5 -38.5t-24.5 -53t-8 -58.5q0 -66 33 -105t94 -58.5t145.5 -25t188.5 -4.5zM641 1378
q-11 3 -24 3h-21q-26 0 -49 -7t-41 -18q-31 -17 -46.5 -36.5t-15.5 -47.5q0 -17 12 -32t29 -25.5t36.5 -16t33.5 -3.5q37 5 85 18t111 33l-7 -125q-42 -14 -98.5 -29t-113.5 -33t-107.5 -40t-79.5 -50l-39 45q29 80 138 119q-81 35 -107 62q-31 34 -31 99q0 30 25.5 64.5
t65.5 63.5t89.5 48.5t98.5 19.5q36 0 63 -4t40 -9l-47 -99v0z" />
    <glyph glyph-name="uniFE87" unicode="&#x625;" horiz-adv-x="664" arabic-form="isolated" 
d="M463 1702q-1 -39 -1.5 -83t-0.5 -82q0 -45 2 -92.5t5.5 -101.5t8.5 -117.5t11 -140.5q8 -78 13.5 -140.5t9 -116.5t5 -104t1.5 -102q0 -81 -1.5 -147.5t-6.5 -126.5t-15.5 -118t-28.5 -123l-145 -108q4 44 8 79t7 69.5t4.5 73.5t1.5 90q0 67 -2.5 130.5t-7 130.5
t-12 141.5t-17.5 163.5q-12 102 -21.5 188t-16.5 159t-11 134t-5 114l215 230v0zM500 -234q-11 3 -24 3h-21q-26 0 -49 -7t-41 -18q-31 -17 -46.5 -36.5t-15.5 -47.5q0 -17 12 -32t29 -25.5t36.5 -16t33.5 -3.5q37 5 85 18t111 33l-7 -125q-42 -14 -98.5 -29t-113.5 -33
t-107.5 -40t-79.5 -50l-39 45q29 80 138 119q-81 35 -107 62q-31 34 -31 99q0 30 25.5 64.5t65.5 63.5t89.5 48.5t98.5 19.5q36 0 63 -4t40 -9l-47 -99v0z" />
    <glyph glyph-name="uniFE88" unicode="&#x625;" horiz-adv-x="664" arabic-form="final" 
d="M538 2q-70 2 -119 18t-82 42.5t-51.5 61.5t-28 75.5t-12 84.5t-2.5 88q0 25 1 68t2 95t2.5 109t2.5 109t2 94.5t1 67.5q0 180 -8 328t-24 278l192 172q12 -97 16.5 -192.5t4.5 -180.5q0 -41 -1.5 -103.5t-4 -135.5t-5 -151t-5 -151t-4 -135.5t-1.5 -103.5q0 -84 5 -139.5
t23 -88.5t53 -47t96 -14h120v-249h-173v0zM499 -269q-11 3 -24 3h-21q-26 0 -49 -7t-41 -18q-31 -17 -46.5 -36.5t-15.5 -47.5q0 -17 12 -32t29 -25.5t36.5 -16t33.5 -3.5q37 5 85 18t111 33l-7 -125q-42 -14 -98.5 -29t-113.5 -33t-107.5 -40t-79.5 -50l-39 45
q29 80 138 119q-81 35 -107 62q-31 34 -31 99q0 30 25.5 64.5t65.5 63.5t89.5 48.5t98.5 19.5q36 0 63 -4t40 -9l-47 -99v0z" />
    <glyph glyph-name="uniFE89" unicode="&#x626;" horiz-adv-x="1706" arabic-form="isolated" 
d="M392 627q-27 -54 -45 -101t-28.5 -90.5t-14.5 -86.5t-4 -89q0 -481 388 -481q36 0 95 6.5t126 20.5t135 35t123 50.5t89.5 67t34.5 83.5q0 55 -123 82q-94 20 -152 36t-80 28q-33 17 -58.5 35.5t-41.5 47.5q-14 26 -18.5 59t-4.5 67q0 219 144 402q79 96 165 139t193 43
q106 0 175.5 -61.5t95.5 -176.5q-16 -20 -35.5 -48t-42.5 -59q-15 24 -38 44.5t-50 36t-55.5 24.5t-52.5 9q-41 0 -86 -5.5t-87 -18.5t-78.5 -35.5t-60.5 -55.5q-23 -30 -33.5 -70.5t-10.5 -77.5q0 -35 16.5 -55t46.5 -33q42 -17 83 -26.5t82 -17.5t81 -16t80 -22
q140 -44 140 -154q0 -95 -38.5 -179t-103.5 -153.5t-149.5 -124.5t-176 -92.5t-183.5 -57.5t-172 -20q-126 0 -226 35t-170.5 102.5t-108 166t-37.5 225.5q0 54 6 112t20.5 120.5t39 130.5t61.5 142l145 57v0zM710 1378q-11 3 -24 3h-21q-26 0 -49 -7t-41 -18
q-31 -17 -46.5 -36.5t-15.5 -47.5q0 -17 12 -32t29 -25.5t36.5 -16t33.5 -3.5q37 5 85 18t111 33l-7 -125q-42 -14 -98.5 -29t-113.5 -33t-107.5 -40t-79.5 -50l-39 45q29 80 138 119q-81 35 -107 62q-31 34 -31 99q0 30 25.5 64.5t65.5 63.5t89.5 48.5t98.5 19.5
q36 0 63 -4t40 -9l-47 -99v0z" />
    <glyph glyph-name="uniFE8A" unicode="&#x626;" horiz-adv-x="1477" arabic-form="final" 
d="M1464 1q-129 0 -221 -3.5t-150.5 -11.5t-85.5 -20.5t-27 -31.5q0 -9 23.5 -20.5t56.5 -23t68.5 -22t59.5 -18.5q31 -10 66.5 -24.5t66.5 -34t51.5 -44t20.5 -54.5q0 -63 -42 -123t-111 -113.5t-157.5 -98.5t-181.5 -77.5t-183 -50.5t-161 -18q-121 0 -216 46t-155 127
q-54 72 -75.5 160t-21.5 197q0 60 12 131.5t37 148t62 156t87 155.5l99 20q-119 -256 -119 -420q0 -143 20.5 -235.5t66.5 -149.5q27 -30 58 -47.5t66 -27t74.5 -12t83.5 -2.5q52 0 111.5 6t118 17t112.5 26t95 33t65.5 38.5t24.5 42.5q0 47 -108 82q-94 29 -140 45t-54 19
q-27 13 -46 25t-31.5 25.5t-18 30.5t-5.5 40q0 31 14.5 62.5t39.5 62.5t58.5 61t71.5 59q51 39 101 62t107.5 35t128 15.5t163.5 3.5h183v-249h-163v0zM801 1009q-11 3 -24 3h-21q-26 0 -49 -7t-41 -18q-31 -17 -46.5 -36.5t-15.5 -47.5q0 -17 12 -32t29 -25.5t36.5 -16
t33.5 -3.5q37 5 85 18t111 33l-7 -125q-42 -14 -98.5 -29t-113.5 -33t-107.5 -40t-79.5 -50l-39 45q29 80 138 119q-81 35 -107 62q-31 34 -31 99q0 30 25.5 64.5t65.5 63.5t89.5 48.5t98.5 19.5q36 0 63 -4t40 -9l-47 -99v0z" />
    <glyph glyph-name="uniFE8B" unicode="&#x626;" horiz-adv-x="849" arabic-form="initial" 
d="M632 845q43 -107 70.5 -233.5t27.5 -286.5q0 -97 -34.5 -162.5t-91.5 -102.5q-93 -60 -295 -60h-213q-41 0 -88.5 23.5t-89.5 59.5t-72 80t-36 86h346q103 0 174 2.5t117.5 7t72 10.5t37.5 14q17 12 25 27.5t8 47.5q0 45 -25.5 117t-76.5 160l144 210v0zM521 1378
q-11 3 -24 3h-21q-26 0 -49 -7t-41 -18q-31 -17 -46.5 -36.5t-15.5 -47.5q0 -17 12 -32t29 -25.5t36.5 -16t33.5 -3.5q37 5 85 18t111 33l-7 -125q-42 -14 -98.5 -29t-113.5 -33t-107.5 -40t-79.5 -50l-39 45q29 80 138 119q-81 35 -107 62q-31 34 -31 99q0 30 25.5 64.5
t65.5 63.5t89.5 48.5t98.5 19.5q36 0 63 -4t40 -9l-47 -99v0z" />
    <glyph glyph-name="uniFE8C" unicode="&#x626;" horiz-adv-x="959" arabic-form="medial" 
d="M1019 0q-74 0 -131.5 31.5t-98 79t-64 104.5t-30.5 108q0 -124 -59 -216q-74 -107 -198 -107h-340q-44 0 -91 23.5t-87.5 59.5t-70 80t-39.5 86h585q191 0 191 119q0 122 -51 235l150 166q24 -85 39.5 -158.5t15.5 -134.5q0 -86 27.5 -134t80.5 -71q21 -11 69.5 -16
t124.5 -5h14v-250h-37v0zM596 1378q-11 3 -24 3h-21q-26 0 -49 -7t-41 -18q-31 -17 -46.5 -36.5t-15.5 -47.5q0 -17 12 -32t29 -25.5t36.5 -16t33.5 -3.5q37 5 85 18t111 33l-7 -125q-42 -14 -98.5 -29t-113.5 -33t-107.5 -40t-79.5 -50l-39 45q29 80 138 119
q-81 35 -107 62q-31 34 -31 99q0 30 25.5 64.5t65.5 63.5t89.5 48.5t98.5 19.5q36 0 63 -4t40 -9l-47 -99v0z" />
    <glyph glyph-name="uniFE8D" unicode="&#x627;" horiz-adv-x="723" arabic-form="isolated" 
d="M463 1702q-1 -39 -1.5 -83t-0.5 -82q0 -45 2 -92.5t5.5 -101.5t8.5 -117.5t11 -140.5q8 -78 13.5 -140.5t9 -116.5t5 -104t1.5 -102q0 -81 -1.5 -147.5t-6.5 -126.5t-15.5 -118t-28.5 -123l-145 -108q4 44 8 79t7 69.5t4.5 73.5t1.5 90q0 67 -2.5 130.5t-7 130.5
t-12 141.5t-17.5 163.5q-12 102 -21.5 188t-16.5 159t-11 134t-5 114l215 230v0z" />
    <glyph glyph-name="uniFE8E" unicode="&#x627;" horiz-adv-x="604" arabic-form="final" 
d="M538 2q-70 2 -119 18t-82 42.5t-51.5 61.5t-28 75.5t-12 84.5t-2.5 88q0 25 1 68t2 95t2.5 109t2.5 109t2 94.5t1 67.5q0 180 -8 328t-24 278l192 172q12 -97 16.5 -192.5t4.5 -180.5q0 -41 -1.5 -103.5t-4 -135.5t-5 -151t-5 -151t-4 -135.5t-1.5 -103.5q0 -84 5 -139.5
t23 -88.5t53 -47t96 -14h120v-249h-173v0z" />
    <glyph glyph-name="uniFE8F" unicode="&#x628;" horiz-adv-x="2023" arabic-form="isolated" 
d="M1813 858q42 -86 66 -201t24 -272q0 -151 -62.5 -239t-198.5 -117q-77 -17 -186 -24t-265 -6q-159 0 -284.5 2.5t-223 7.5t-170 13t-126 20t-91 28t-64.5 36q-36 27 -58 55.5t-34 60t-16 67t-4 77.5q0 94 16.5 182.5t58.5 185.5l124 61q-47 -114 -47 -209q0 -35 4 -70.5
t14 -68.5t27.5 -62t45.5 -51q21 -17 47 -30t65.5 -22.5t96 -16.5t139 -11t194.5 -6t262 -2q75 0 156 2t153.5 6t129 9.5t80.5 12.5q82 21 82 95q0 88 -97 281l142 206v0zM1230 -321l-150 -172l-170 144l150 172z" />
    <glyph glyph-name="uniFE90" unicode="&#x628;" horiz-adv-x="2023" arabic-form="final" 
d="M1813 858q42 -86 66 -201t24 -272q0 -151 -62.5 -239t-198.5 -117q-77 -17 -186 -24t-265 -6q-159 0 -284.5 2.5t-223 7.5t-170 13t-126 20t-91 28t-64.5 36q-36 27 -58 55.5t-34 60t-16 67t-4 77.5q0 94 16.5 182.5t58.5 185.5l124 61q-47 -114 -47 -209q0 -35 4 -70.5
t14 -68.5t27.5 -62t45.5 -51q21 -17 47 -30t65.5 -22.5t96 -16.5t139 -11t194.5 -6t262 -2q75 0 156 2t153.5 6t129 9.5t80.5 12.5q82 21 82 95q0 88 -97 281l142 206v0zM1230 -321l-150 -172l-170 144l150 172z" />
    <glyph glyph-name="uniFE91" unicode="&#x628;" horiz-adv-x="849" arabic-form="initial" 
d="M632 845q43 -107 70.5 -233.5t27.5 -286.5q0 -97 -34.5 -162.5t-91.5 -102.5q-93 -60 -295 -60h-213q-41 0 -88.5 23.5t-89.5 59.5t-72 80t-36 86h346q103 0 174 2.5t117.5 7t72 10.5t37.5 14q17 12 25 27.5t8 47.5q0 45 -25.5 117t-76.5 160l144 210v0zM546 -321
l-150 -172l-170 144l150 172z" />
    <glyph glyph-name="uniFE92" unicode="&#x628;" horiz-adv-x="973" arabic-form="medial" 
d="M1019 0q-74 0 -131.5 31.5t-98 79t-64 104.5t-30.5 108q0 -124 -59 -216q-74 -107 -198 -107h-340q-44 0 -91 23.5t-87.5 59.5t-70 80t-39.5 86h585q191 0 191 119q0 122 -51 235l150 166q24 -85 39.5 -158.5t15.5 -134.5q0 -86 27.5 -134t80.5 -71q21 -11 69.5 -16
t124.5 -5h14v-250h-37v0zM818 -321l-150 -172l-170 144l150 172z" />
    <glyph glyph-name="uniFE93" unicode="&#x629;" horiz-adv-x="991" arabic-form="isolated" 
d="M546 912q93 -56 152.5 -97.5t91.5 -71.5q115 -108 115 -239q0 -156 -134 -314q-132 -153 -289 -153q-145 0 -263 85q-130 94 -130 231q0 117 53 218q16 29 46.5 75t84.5 110q-40 22 -68 44.5t-44 47.5l165 229q53 -59 220 -165zM750 364q-14 120 -159 216
q-64 35 -126.5 69t-125.5 68q-29 -66 -43 -112.5t-14 -77.5q0 -62 20 -109t56 -79t87 -48.5t114 -16.5q120 0 191 90zM664 1414l-133 -161l-139 117l-123 -143l-151 130l131 155l139 -111l120 141z" />
    <glyph glyph-name="uniFE94" unicode="&#x629;" horiz-adv-x="1099" arabic-form="final" 
d="M664 437q-9 57 -13 125.5t-4 159.5q-71 -71 -203 -123q-129 -41 -129 -83q0 -39 116 -66q48 -12 84.5 -17.5t66.5 -5.5q19 0 39.5 2.5t42.5 7.5zM1028 0q-169 0 -247 80q-60 60 -110 240q-127 -160 -210 -160q-80 0 -198 61q-134 72 -134 137q0 97 104 234
q88 121 141 150q57 19 120.5 47t144.5 67q-1 26 -4.5 60t-7.5 85l149 167q0 -177 4.5 -309.5t14.5 -235.5q35 -359 231 -374h150v-249h-148v0zM715 1404l-133 -161l-139 117l-123 -143l-151 130l131 155l139 -111l120 141z" />
    <glyph glyph-name="uniFE95" unicode="&#x62a;" horiz-adv-x="2023" arabic-form="isolated" 
d="M1813 858q42 -86 66 -201t24 -272q0 -151 -62.5 -239t-198.5 -117q-77 -17 -186 -24t-265 -6q-159 0 -284.5 2.5t-223 7.5t-170 13t-126 20t-91 28t-64.5 36q-36 27 -58 55.5t-34 60t-16 67t-4 77.5q0 94 16.5 182.5t58.5 185.5l124 61q-47 -114 -47 -209q0 -35 4 -70.5
t14 -68.5t27.5 -62t45.5 -51q21 -17 47 -30t65.5 -22.5t96 -16.5t139 -11t194.5 -6t262 -2q75 0 156 2t153.5 6t129 9.5t80.5 12.5q82 21 82 95q0 88 -97 281l142 206v0zM1305 1114l-133 -161l-139 117l-123 -143l-151 130l131 155l139 -111l120 141z" />
    <glyph glyph-name="uniFE96" unicode="&#x62a;" horiz-adv-x="2023" arabic-form="final" 
d="M1813 858q42 -86 66 -201t24 -272q0 -151 -62.5 -239t-198.5 -117q-77 -17 -186 -24t-265 -6q-159 0 -284.5 2.5t-223 7.5t-170 13t-126 20t-91 28t-64.5 36q-36 27 -58 55.5t-34 60t-16 67t-4 77.5q0 94 16.5 182.5t58.5 185.5l124 61q-47 -114 -47 -209q0 -35 4 -70.5
t14 -68.5t27.5 -62t45.5 -51q21 -17 47 -30t65.5 -22.5t96 -16.5t139 -11t194.5 -6t262 -2q75 0 156 2t153.5 6t129 9.5t80.5 12.5q82 21 82 95q0 88 -97 281l142 206v0zM1305 1114l-133 -161l-139 117l-123 -143l-151 130l131 155l139 -111l120 141z" />
    <glyph glyph-name="uniFE97" unicode="&#x62a;" horiz-adv-x="896" arabic-form="initial" 
d="M632 845q43 -107 70.5 -233.5t27.5 -286.5q0 -97 -34.5 -162.5t-91.5 -102.5q-93 -60 -295 -60h-213q-41 0 -88.5 23.5t-89.5 59.5t-72 80t-36 86h346q103 0 174 2.5t117.5 7t72 10.5t37.5 14q17 12 25 27.5t8 47.5q0 45 -25.5 117t-76.5 160l144 210v0zM755 1164
l-133 -161l-139 117l-123 -143l-151 130l131 155l139 -111l120 141z" />
    <glyph glyph-name="uniFE98" unicode="&#x62a;" horiz-adv-x="976" arabic-form="medial" 
d="M1019 0q-74 0 -131.5 31.5t-98 79t-64 104.5t-30.5 108q0 -124 -59 -216q-74 -107 -198 -107h-340q-44 0 -91 23.5t-87.5 59.5t-70 80t-39.5 86h585q191 0 191 119q0 122 -51 235l150 166q24 -85 39.5 -158.5t15.5 -134.5q0 -86 27.5 -134t80.5 -71q21 -11 69.5 -16
t124.5 -5h14v-250h-37v0zM805 1164l-133 -161l-139 117l-123 -143l-151 130l131 155l139 -111l120 141z" />
    <glyph glyph-name="uniFE99" unicode="&#x62b;" horiz-adv-x="2023" arabic-form="isolated" 
d="M1813 858q42 -86 66 -201t24 -272q0 -151 -62.5 -239t-198.5 -117q-77 -17 -186 -24t-265 -6q-159 0 -284.5 2.5t-223 7.5t-170 13t-126 20t-91 28t-64.5 36q-36 27 -58 55.5t-34 60t-16 67t-4 77.5q0 94 16.5 182.5t58.5 185.5l124 61q-47 -114 -47 -209q0 -35 4 -70.5
t14 -68.5t27.5 -62t45.5 -51q21 -17 47 -30t65.5 -22.5t96 -16.5t139 -11t194.5 -6t262 -2q75 0 156 2t153.5 6t129 9.5t80.5 12.5q82 21 82 95q0 88 -97 281l142 206v0zM1304 1014l-135 -158l-136 114l-123 -142l-151 129l130 155l138 -111l121 142zM1151 1298l-135 -157
l-154 130l135 156z" />
    <glyph glyph-name="uniFE9A" unicode="&#x62b;" horiz-adv-x="2023" arabic-form="final" 
d="M1813 858q42 -86 66 -201t24 -272q0 -151 -62.5 -239t-198.5 -117q-77 -17 -186 -24t-265 -6q-159 0 -284.5 2.5t-223 7.5t-170 13t-126 20t-91 28t-64.5 36q-36 27 -58 55.5t-34 60t-16 67t-4 77.5q0 94 16.5 182.5t58.5 185.5l124 61q-47 -114 -47 -209q0 -35 4 -70.5
t14 -68.5t27.5 -62t45.5 -51q21 -17 47 -30t65.5 -22.5t96 -16.5t139 -11t194.5 -6t262 -2q75 0 156 2t153.5 6t129 9.5t80.5 12.5q82 21 82 95q0 88 -97 281l142 206v0zM1304 1014l-135 -158l-136 114l-123 -142l-151 129l130 155l138 -111l121 142zM1151 1298l-135 -157
l-154 130l135 156z" />
    <glyph glyph-name="uniFE9B" unicode="&#x62b;" horiz-adv-x="913" arabic-form="initial" 
d="M632 845q43 -107 70.5 -233.5t27.5 -286.5q0 -97 -34.5 -162.5t-91.5 -102.5q-93 -60 -295 -60h-213q-41 0 -88.5 23.5t-89.5 59.5t-72 80t-36 86h346q103 0 174 2.5t117.5 7t72 10.5t37.5 14q17 12 25 27.5t8 47.5q0 45 -25.5 117t-76.5 160l144 210v0zM764 1164
l-135 -158l-136 114l-123 -142l-151 129l130 155l138 -111l121 142zM611 1448l-135 -157l-154 130l135 156z" />
    <glyph glyph-name="uniFE9C" unicode="&#x62b;" horiz-adv-x="966" arabic-form="medial" 
d="M1019 0q-74 0 -131.5 31.5t-98 79t-64 104.5t-30.5 108q0 -124 -59 -216q-74 -107 -198 -107h-340q-44 0 -91 23.5t-87.5 59.5t-70 80t-39.5 86h585q191 0 191 119q0 122 -51 235l150 166q24 -85 39.5 -158.5t15.5 -134.5q0 -86 27.5 -134t80.5 -71q21 -11 69.5 -16
t124.5 -5h14v-250h-37v0zM804 1164l-135 -158l-136 114l-123 -142l-151 129l130 155l138 -111l121 142zM651 1448l-135 -157l-154 130l135 156z" />
    <glyph glyph-name="uniFE9D" unicode="&#x62c;" horiz-adv-x="1640" arabic-form="isolated" 
d="M1547 461q-70 0 -133.5 -2.5t-124.5 -8t-122 -14.5t-126 -22q-81 -15 -159 -48.5t-147.5 -82t-128.5 -108.5t-102 -128t-67 -141.5t-24 -147.5q0 -114 27.5 -202.5t75 -154t111 -110.5t135 -73t147 -40t147.5 -12t140 7t139 25t148.5 48t169.5 75l-50 -188
q-73 -57 -147.5 -96t-154 -63t-164.5 -34.5t-178 -10.5q-153 0 -289 48t-238 143t-161 236t-59 327q0 94 25.5 186t71.5 178t111 163.5t143 142t167.5 114t185.5 78.5q-33 10 -79 19t-96 16.5t-98.5 12t-85.5 4.5q-34 0 -77 -6t-91.5 -23.5t-99.5 -48t-101 -79.5l-47 193
q60 66 116 105.5t108.5 60.5t101 27t91.5 6q62 0 113.5 -8.5t103 -21t108.5 -27t129 -27t164.5 -21t216.5 -8.5q52 0 105 2t108 5l-59 -265v0zM1174 -141l-150 -172l-170 144l150 172z" />
    <glyph glyph-name="uniFE9E" unicode="&#x62c;" horiz-adv-x="1728" arabic-form="final" 
d="M1546 463q-51 0 -97 -1.5t-91 -3.5q0 -68 5.5 -109t21 -62.5t43.5 -28.5t74 -7h318v-249h-321q-83 0 -135 27.5t-81.5 82.5t-40.5 138t-11 194q-96 -2 -193.5 -27t-188.5 -70t-170.5 -108t-138.5 -138.5t-93 -162.5t-34 -180q0 -107 24.5 -192t68.5 -151t104.5 -113
t132 -77.5t151 -44.5t161.5 -14q66 0 133 7t140 25t153 48t172 75l-50 -188q-76 -58 -151.5 -97t-154 -63t-162.5 -34t-177 -10q-153 0 -289 48t-237.5 143t-160.5 236t-59 327q0 99 27.5 193.5t76.5 181.5t115.5 163.5t144.5 139.5t164.5 110.5t174.5 75.5q-33 10 -79 19
t-96 16.5t-98.5 12t-85.5 4.5q-39 0 -82 -7t-90 -24.5t-96 -48.5t-100 -79l-47 193q59 60 110 98.5t100 61.5t99 32t107 9q62 0 113.5 -8.5t103 -21.5t108.5 -27.5t129 -27.5t164.5 -21.5t216.5 -8.5q52 0 105 2t108 5l-59 -263v0zM1124 -141l-150 -172l-170 144l150 172z
" />
    <glyph glyph-name="uniFE9F" unicode="&#x62c;" horiz-adv-x="1766" arabic-form="initial" 
d="M199 752q30 25 67 47t79.5 38.5t89 26t95.5 9.5q84 0 151.5 -15t130 -37.5t125 -49t137 -49t165.5 -37.5t211 -15q60 0 110 1t96 5l-63 -243q-75 0 -131.5 -0.5t-102.5 -3.5t-86.5 -8t-83.5 -14q-23 -5 -50 -14t-54.5 -20t-53 -23t-45.5 -23q-55 -30 -105.5 -66l-101 -72
t-104.5 -70.5t-116 -60.5t-135.5 -42t-162.5 -16h-160q-45 0 -91.5 23.5t-87 59.5t-70.5 80t-42 86h530q67 0 128 13.5t118.5 36t114 50.5t115 57t121.5 56t134 47q-52 18 -122.5 44.5t-148 51.5t-156 42.5t-146.5 17.5q-88 2 -165 -25.5t-138 -75.5l4 188v0zM1203 -163
l-150 -172l-170 144l150 172z" />
    <glyph glyph-name="uniFEA0" unicode="&#x62c;" horiz-adv-x="1759" arabic-form="medial" 
d="M1466 0q-72 0 -118 33.5t-72.5 90.5t-36 132.5t-9.5 158.5q-29 -4 -61 -13t-64.5 -21t-63 -26t-55.5 -28q-55 -30 -105.5 -66l-101 -72t-104.5 -70.5t-116 -60.5t-135.5 -42t-162.5 -16h-160q-45 0 -91.5 23.5t-87 59.5t-70.5 80t-42 86h530q67 0 128 13.5t118.5 36
t114 50.5t115 57t121.5 56t134 47q-52 18 -122.5 44.5t-148 51.5t-156 42.5t-146.5 17.5q-88 2 -165 -25.5t-138 -75.5l4 188q30 25 67 47t79.5 38.5t89 26t95.5 9.5q84 0 151.5 -15t130 -37.5t125 -49t137 -49t165.5 -37.5t211 -15q60 0 110 1t96 5l-63 -243
q-76 0 -131.5 -1t-103.5 -3q-1 -31 2 -60.5t11 -52.5q19 -67 104 -67h346v-249h-355v0zM1192 -166l-150 -172l-170 144l150 172z" />
    <glyph glyph-name="uniFEA1" unicode="&#x62d;" horiz-adv-x="1640" arabic-form="isolated" 
d="M1547 461q-70 0 -133.5 -2.5t-124.5 -8t-122 -14.5t-126 -22q-81 -15 -159 -48.5t-147.5 -82t-128.5 -108.5t-102 -128t-67 -141.5t-24 -147.5q0 -114 27.5 -202.5t75 -154t111 -110.5t135 -73t147 -40t147.5 -12t140 7t139 25t148.5 48t169.5 75l-50 -188
q-73 -57 -147.5 -96t-154 -63t-164.5 -34.5t-178 -10.5q-153 0 -289 48t-238 143t-161 236t-59 327q0 94 25.5 186t71.5 178t111 163.5t143 142t167.5 114t185.5 78.5q-33 10 -79 19t-96 16.5t-98.5 12t-85.5 4.5q-34 0 -77 -6t-91.5 -23.5t-99.5 -48t-101 -79.5l-47 193
q60 66 116 105.5t108.5 60.5t101 27t91.5 6q62 0 113.5 -8.5t103 -21t108.5 -27t129 -27t164.5 -21t216.5 -8.5q52 0 105 2t108 5l-59 -265v0z" />
    <glyph glyph-name="uniFEA2" unicode="&#x62d;" horiz-adv-x="1671" arabic-form="final" 
d="M1546 463q-51 0 -97 -1.5t-91 -3.5q0 -68 5.5 -109t21 -62.5t43.5 -28.5t74 -7h318v-249h-321q-83 0 -135 27.5t-81.5 82.5t-40.5 138t-11 194q-96 -2 -193.5 -27t-188.5 -70t-170.5 -108t-138.5 -138.5t-93 -162.5t-34 -180q0 -107 24.5 -192t68.5 -151t104.5 -113
t132 -77.5t151 -44.5t161.5 -14q66 0 133 7t140 25t153 48t172 75l-50 -188q-76 -58 -151.5 -97t-154 -63t-162.5 -34t-177 -10q-153 0 -289 48t-237.5 143t-160.5 236t-59 327q0 99 27.5 193.5t76.5 181.5t115.5 163.5t144.5 139.5t164.5 110.5t174.5 75.5q-33 10 -79 19
t-96 16.5t-98.5 12t-85.5 4.5q-39 0 -82 -7t-90 -24.5t-96 -48.5t-100 -79l-47 193q59 60 110 98.5t100 61.5t99 32t107 9q62 0 113.5 -8.5t103 -21.5t108.5 -27.5t129 -27.5t164.5 -21.5t216.5 -8.5q52 0 105 2t108 5l-59 -263v0z" />
    <glyph glyph-name="uniFEA3" unicode="&#x62d;" horiz-adv-x="1766" arabic-form="initial" 
d="M199 752q30 25 67 47t79.5 38.5t89 26t95.5 9.5q84 0 151.5 -15t130 -37.5t125 -49t137 -49t165.5 -37.5t211 -15q60 0 110 1t96 5l-63 -243q-75 0 -131.5 -0.5t-102.5 -3.5t-86.5 -8t-83.5 -14q-23 -5 -50 -14t-54.5 -20t-53 -23t-45.5 -23q-55 -30 -105.5 -66l-101 -72
t-104.5 -70.5t-116 -60.5t-135.5 -42t-162.5 -16h-160q-45 0 -91.5 23.5t-87 59.5t-70.5 80t-42 86h530q67 0 128 13.5t118.5 36t114 50.5t115 57t121.5 56t134 47q-52 18 -122.5 44.5t-148 51.5t-156 42.5t-146.5 17.5q-88 2 -165 -25.5t-138 -75.5l4 188v0z" />
    <glyph glyph-name="uniFEA4" unicode="&#x62d;" horiz-adv-x="1696" arabic-form="medial" 
d="M1466 0q-72 0 -118 33.5t-72.5 90.5t-36 132.5t-9.5 158.5q-29 -4 -61 -13t-64.5 -21t-63 -26t-55.5 -28q-55 -30 -105.5 -66l-101 -72t-104.5 -70.5t-116 -60.5t-135.5 -42t-162.5 -16h-160q-45 0 -91.5 23.5t-87 59.5t-70.5 80t-42 86h530q67 0 128 13.5t118.5 36
t114 50.5t115 57t121.5 56t134 47q-52 18 -122.5 44.5t-148 51.5t-156 42.5t-146.5 17.5q-88 2 -165 -25.5t-138 -75.5l4 188q30 25 67 47t79.5 38.5t89 26t95.5 9.5q84 0 151.5 -15t130 -37.5t125 -49t137 -49t165.5 -37.5t211 -15q60 0 110 1t96 5l-63 -243
q-76 0 -131.5 -1t-103.5 -3q-1 -31 2 -60.5t11 -52.5q19 -67 104 -67h346v-249h-355v0z" />
    <glyph glyph-name="uniFEA5" unicode="&#x62e;" horiz-adv-x="1640" arabic-form="isolated" 
d="M1547 461q-70 0 -133.5 -2.5t-124.5 -8t-122 -14.5t-126 -22q-81 -15 -159 -48.5t-147.5 -82t-128.5 -108.5t-102 -128t-67 -141.5t-24 -147.5q0 -114 27.5 -202.5t75 -154t111 -110.5t135 -73t147 -40t147.5 -12t140 7t139 25t148.5 48t169.5 75l-50 -188
q-73 -57 -147.5 -96t-154 -63t-164.5 -34.5t-178 -10.5q-153 0 -289 48t-238 143t-161 236t-59 327q0 94 25.5 186t71.5 178t111 163.5t143 142t167.5 114t185.5 78.5q-33 10 -79 19t-96 16.5t-98.5 12t-85.5 4.5q-34 0 -77 -6t-91.5 -23.5t-99.5 -48t-101 -79.5l-47 193
q60 66 116 105.5t108.5 60.5t101 27t91.5 6q62 0 113.5 -8.5t103 -21t108.5 -27t129 -27t164.5 -21t216.5 -8.5q52 0 105 2t108 5l-59 -265v0zM1107 1159l-150 -172l-170 144l150 172z" />
    <glyph glyph-name="uniFEA6" unicode="&#x62e;" horiz-adv-x="1732" arabic-form="final" 
d="M1546 463q-51 0 -97 -1.5t-91 -3.5q0 -68 5.5 -109t21 -62.5t43.5 -28.5t74 -7h318v-249h-321q-83 0 -135 27.5t-81.5 82.5t-40.5 138t-11 194q-96 -2 -193.5 -27t-188.5 -70t-170.5 -108t-138.5 -138.5t-93 -162.5t-34 -180q0 -107 24.5 -192t68.5 -151t104.5 -113
t132 -77.5t151 -44.5t161.5 -14q66 0 133 7t140 25t153 48t172 75l-50 -188q-76 -58 -151.5 -97t-154 -63t-162.5 -34t-177 -10q-153 0 -289 48t-237.5 143t-160.5 236t-59 327q0 99 27.5 193.5t76.5 181.5t115.5 163.5t144.5 139.5t164.5 110.5t174.5 75.5q-33 10 -79 19
t-96 16.5t-98.5 12t-85.5 4.5q-39 0 -82 -7t-90 -24.5t-96 -48.5t-100 -79l-47 193q59 60 110 98.5t100 61.5t99 32t107 9q62 0 113.5 -8.5t103 -21.5t108.5 -27.5t129 -27.5t164.5 -21.5t216.5 -8.5q52 0 105 2t108 5l-59 -263v0zM1107 1159l-150 -172l-170 144l150 172z
" />
    <glyph glyph-name="uniFEA7" unicode="&#x62e;" horiz-adv-x="1766" arabic-form="initial" 
d="M199 752q30 25 67 47t79.5 38.5t89 26t95.5 9.5q84 0 151.5 -15t130 -37.5t125 -49t137 -49t165.5 -37.5t211 -15q60 0 110 1t96 5l-63 -243q-75 0 -131.5 -0.5t-102.5 -3.5t-86.5 -8t-83.5 -14q-23 -5 -50 -14t-54.5 -20t-53 -23t-45.5 -23q-55 -30 -105.5 -66l-101 -72
t-104.5 -70.5t-116 -60.5t-135.5 -42t-162.5 -16h-160q-45 0 -91.5 23.5t-87 59.5t-70.5 80t-42 86h530q67 0 128 13.5t118.5 36t114 50.5t115 57t121.5 56t134 47q-52 18 -122.5 44.5t-148 51.5t-156 42.5t-146.5 17.5q-88 2 -165 -25.5t-138 -75.5l4 188v0zM1159 1159
l-150 -172l-170 144l150 172z" />
    <glyph glyph-name="uniFEA8" unicode="&#x62e;" horiz-adv-x="1696" arabic-form="medial" 
d="M1466 0q-72 0 -118 33.5t-72.5 90.5t-36 132.5t-9.5 158.5q-29 -4 -61 -13t-64.5 -21t-63 -26t-55.5 -28q-55 -30 -105.5 -66l-101 -72t-104.5 -70.5t-116 -60.5t-135.5 -42t-162.5 -16h-160q-45 0 -91.5 23.5t-87 59.5t-70.5 80t-42 86h530q67 0 128 13.5t118.5 36
t114 50.5t115 57t121.5 56t134 47q-52 18 -122.5 44.5t-148 51.5t-156 42.5t-146.5 17.5q-88 2 -165 -25.5t-138 -75.5l4 188q30 25 67 47t79.5 38.5t89 26t95.5 9.5q84 0 151.5 -15t130 -37.5t125 -49t137 -49t165.5 -37.5t211 -15q60 0 110 1t96 5l-63 -243
q-76 0 -131.5 -1t-103.5 -3q-1 -31 2 -60.5t11 -52.5q19 -67 104 -67h346v-249h-355v0zM1172 1159l-150 -172l-170 144l150 172z" />
    <glyph glyph-name="uniFEA9" unicode="&#x62f;" horiz-adv-x="1233" arabic-form="isolated" 
d="M893 1145q220 -379 220 -929q0 -61 -51 -118q-50 -57 -115 -78q-132 -45 -364 -45q-138 0 -216 6t-107 19q-140 63 -140 223q0 111 37 192l97 66q-3 -21 -5 -36t-2 -26q0 -196 229 -196q425 0 511 99q-39 337 -253 566l159 257v0z" />
    <glyph glyph-name="uniFEAA" unicode="&#x62f;" horiz-adv-x="1233" arabic-form="final" 
d="M893 1145q220 -379 220 -929q0 -61 -51 -118q-50 -57 -115 -78q-132 -45 -364 -45q-138 0 -216 6t-107 19q-140 63 -140 223q0 111 37 192l97 66q-3 -21 -5 -36t-2 -26q0 -196 229 -196q425 0 511 99q-39 337 -253 566l159 257v0z" />
    <glyph glyph-name="uniFEAB" unicode="&#x630;" horiz-adv-x="1233" arabic-form="isolated" 
d="M893 1145q220 -379 220 -929q0 -61 -51 -118q-50 -57 -115 -78q-132 -45 -364 -45q-138 0 -216 6t-107 19q-140 63 -140 223q0 111 37 192l97 66q-3 -21 -5 -36t-2 -26q0 -196 229 -196q425 0 511 99q-39 337 -253 566l159 257v0zM945 1457l-150 -172l-170 144l150 172z
" />
    <glyph glyph-name="uniFEAC" unicode="&#x630;" horiz-adv-x="1233" arabic-form="final" 
d="M893 1145q220 -379 220 -929q0 -61 -51 -118q-50 -57 -115 -78q-132 -45 -364 -45q-138 0 -216 6t-107 19q-140 63 -140 223q0 111 37 192l97 66q-3 -21 -5 -36t-2 -26q0 -196 229 -196q425 0 511 99q-39 337 -253 566l159 257v0zM945 1457l-150 -172l-170 144l150 172z
" />
    <glyph glyph-name="uniFEAD" unicode="&#x631;" horiz-adv-x="841" arabic-form="isolated" 
d="M608 716q36 -61 61 -123.5t40 -129t22 -137.5t7 -147q0 -114 -23.5 -221.5t-68 -202.5t-109 -174t-147.5 -136.5t-183.5 -90t-215.5 -33.5l-228 103q102 22 203 51.5t193 70t171.5 93.5t138 122.5t91.5 157t33 196.5q0 46 -14.5 104.5t-39 117.5t-56 113.5t-65.5 92.5
l190 173v0z" />
    <glyph glyph-name="uniFEAE" unicode="&#x631;" horiz-adv-x="841" arabic-form="final" 
d="M608 716q36 -61 61 -123.5t40 -129t22 -137.5t7 -147q0 -114 -23.5 -221.5t-68 -202.5t-109 -174t-147.5 -136.5t-183.5 -90t-215.5 -33.5l-228 103q102 22 203 51.5t193 70t171.5 93.5t138 122.5t91.5 157t33 196.5q0 46 -14.5 104.5t-39 117.5t-56 113.5t-65.5 92.5
l190 173v0z" />
    <glyph glyph-name="uniFEAF" unicode="&#x632;" horiz-adv-x="841" arabic-form="isolated" 
d="M608 716q36 -61 61 -123.5t40 -129t22 -137.5t7 -147q0 -114 -23.5 -221.5t-68 -202.5t-109 -174t-147.5 -136.5t-183.5 -90t-215.5 -33.5l-228 103q102 22 203 51.5t193 70t171.5 93.5t138 122.5t91.5 157t33 196.5q0 46 -14.5 104.5t-39 117.5t-56 113.5t-65.5 92.5
l190 173v0zM629 1137l-150 -172l-170 144l150 172z" />
    <glyph glyph-name="uniFEB0" unicode="&#x632;" horiz-adv-x="841" arabic-form="final" 
d="M608 716q36 -61 61 -123.5t40 -129t22 -137.5t7 -147q0 -114 -23.5 -221.5t-68 -202.5t-109 -174t-147.5 -136.5t-183.5 -90t-215.5 -33.5l-228 103q102 22 203 51.5t193 70t171.5 93.5t138 122.5t91.5 157t33 196.5q0 46 -14.5 104.5t-39 117.5t-56 113.5t-65.5 92.5
l190 173v0zM629 1137l-150 -172l-170 144l150 172z" />
    <glyph glyph-name="uniFEB1" unicode="&#x633;" horiz-adv-x="2503" arabic-form="isolated" 
d="M2272 860q111 -234 111 -500q0 -82 -23.5 -146t-68 -108.5t-108.5 -67.5t-144 -23q-187 0 -270 104q-115 -121 -385 -123q-110 -2 -151 26q2 -26 4 -51.5t2 -49.5q0 -315 -146 -497q-168 -212 -492 -212q-238 0 -368 166q-113 149 -113 367q0 109 53 277q11 34 36 98.5
t65 164.5l145 67q-130 -293 -130 -510q0 -365 369 -365q459 0 459 407q0 199 -114 483l128 173q36 -63 58.5 -126t33.5 -129q69 -23 130 -32.5t118 -9.5q268 0 268 145q0 48 -29 158l145 143q34 -195 -5 -406q108 -32 181 -32q223 0 223 154q0 141 -121 286l139 169v0z" />
    <glyph glyph-name="uniFEB2" unicode="&#x633;" horiz-adv-x="2503" arabic-form="final" 
d="M2272 860q111 -234 111 -500q0 -82 -23.5 -146t-68 -108.5t-108.5 -67.5t-144 -23q-187 0 -270 104q-115 -121 -385 -123q-110 -2 -151 26q2 -26 4 -51.5t2 -49.5q0 -315 -146 -497q-168 -212 -492 -212q-238 0 -368 166q-113 149 -113 367q0 109 53 277q11 34 36 98.5
t65 164.5l145 67q-130 -293 -130 -510q0 -365 369 -365q459 0 459 407q0 199 -114 483l128 173q36 -63 58.5 -126t33.5 -129q69 -23 130 -32.5t118 -9.5q268 0 268 145q0 48 -29 158l145 143q34 -195 -5 -406q108 -32 181 -32q223 0 223 154q0 141 -121 286l139 169v0z" />
    <glyph glyph-name="uniFEB3" unicode="&#x633;" horiz-adv-x="1737" arabic-form="initial" 
d="M1099 677q37 -197 -2 -404q85 -36 180 -36q221 0 221 158q0 142 -121 287l138 169q112 -223 112 -503q0 -348 -344 -348q-178 0 -270 110q-104 -110 -372 -110q-167 0 -203 60q-62 -50 -146 -56q-11 -2 -57 -3t-137 -1q-79 0 -173 79q-96 79 -115 170h434q148 0 171 26
q56 77 35 233q63 48 105 82t68 60q3 -20 4 -39t1 -40q0 -120 -71 -300q70 -22 166 -22q262 0 262 129q0 96 -31 158l145 141v0z" />
    <glyph glyph-name="uniFEB4" unicode="&#x633;" horiz-adv-x="1737" arabic-form="medial" 
d="M1099 677q37 -197 -2 -404q85 -36 180 -36q221 0 221 158q0 142 -121 287l138 169q112 -223 112 -503q0 -348 -344 -348q-178 0 -270 110q-104 -110 -372 -110q-167 0 -203 60q-62 -50 -146 -56q-11 -2 -57 -3t-137 -1q-79 0 -173 79q-96 79 -115 170h434q148 0 171 26
q56 77 35 233q63 48 105 82t68 60q3 -20 4 -39t1 -40q0 -120 -71 -300q70 -22 166 -22q262 0 262 129q0 96 -31 158l145 141v0z" />
    <glyph glyph-name="uniFEB5" unicode="&#x634;" horiz-adv-x="2503" arabic-form="isolated" 
d="M2272 860q111 -234 111 -500q0 -82 -23.5 -146t-68 -108.5t-108.5 -67.5t-144 -23q-187 0 -270 104q-115 -121 -385 -123q-110 -2 -151 26q2 -26 4 -51.5t2 -49.5q0 -315 -146 -497q-168 -212 -492 -212q-238 0 -368 166q-113 149 -113 367q0 109 53 277q11 34 36 98.5
t65 164.5l145 67q-130 -293 -130 -510q0 -365 369 -365q459 0 459 407q0 199 -114 483l128 173q36 -63 58.5 -126t33.5 -129q69 -23 130 -32.5t118 -9.5q268 0 268 145q0 48 -29 158l145 143q34 -195 -5 -406q108 -32 181 -32q223 0 223 154q0 141 -121 286l139 169v0z
M2034 1084l-135 -158l-136 114l-123 -142l-151 129l130 155l138 -111l121 142zM1881 1368l-135 -157l-154 130l135 156z" />
    <glyph glyph-name="uniFEB6" unicode="&#x634;" horiz-adv-x="2503" arabic-form="final" 
d="M2272 860q111 -234 111 -500q0 -82 -23.5 -146t-68 -108.5t-108.5 -67.5t-144 -23q-187 0 -270 104q-115 -121 -385 -123q-110 -2 -151 26q2 -26 4 -51.5t2 -49.5q0 -315 -146 -497q-168 -212 -492 -212q-238 0 -368 166q-113 149 -113 367q0 109 53 277q11 34 36 98.5
t65 164.5l145 67q-130 -293 -130 -510q0 -365 369 -365q459 0 459 407q0 199 -114 483l128 173q36 -63 58.5 -126t33.5 -129q69 -23 130 -32.5t118 -9.5q268 0 268 145q0 48 -29 158l145 143q34 -195 -5 -406q108 -32 181 -32q223 0 223 154q0 141 -121 286l139 169v0z
M2034 1084l-135 -158l-136 114l-123 -142l-151 129l130 155l138 -111l121 142zM1881 1368l-135 -157l-154 130l135 156z" />
    <glyph glyph-name="uniFEB7" unicode="&#x634;" horiz-adv-x="1737" arabic-form="initial" 
d="M1099 677q37 -197 -2 -404q85 -36 180 -36q221 0 221 158q0 142 -121 287l138 169q112 -223 112 -503q0 -348 -344 -348q-178 0 -270 110q-104 -110 -372 -110q-167 0 -203 60q-62 -50 -146 -56q-11 -2 -57 -3t-137 -1q-79 0 -173 79q-96 79 -115 170h434q148 0 171 26
q56 77 35 233q63 48 105 82t68 60q3 -20 4 -39t1 -40q0 -120 -71 -300q70 -22 166 -22q262 0 262 129q0 96 -31 158l145 141v0zM1254 1084l-135 -158l-136 114l-123 -142l-151 129l130 155l138 -111l121 142zM1101 1368l-135 -157l-154 130l135 156z" />
    <glyph glyph-name="uniFEB8" unicode="&#x634;" horiz-adv-x="1737" arabic-form="medial" 
d="M1099 677q37 -197 -2 -404q85 -36 180 -36q221 0 221 158q0 142 -121 287l138 169q112 -223 112 -503q0 -348 -344 -348q-178 0 -270 110q-104 -110 -372 -110q-167 0 -203 60q-62 -50 -146 -56q-11 -2 -57 -3t-137 -1q-79 0 -173 79q-96 79 -115 170h434q148 0 171 26
q56 77 35 233q63 48 105 82t68 60q3 -20 4 -39t1 -40q0 -120 -71 -300q70 -22 166 -22q262 0 262 129q0 96 -31 158l145 141v0zM1254 1084l-135 -158l-136 114l-123 -142l-151 129l130 155l138 -111l121 142zM1101 1368l-135 -157l-154 130l135 156z" />
    <glyph glyph-name="uniFEB9" unicode="&#x635;" horiz-adv-x="2533" arabic-form="isolated" 
d="M2251 322q-2 141 -93 229q-90 90 -224 90q-121 0 -314 -150q-42 -32 -108 -91.5t-160 -150.5q124 -7 230 -10t206 -3q465 0 463 86zM1099 473q66 -82 107 -232q78 115 166 212t188 188q267 237 455 237q183 0 298 -220q100 -187 100 -387q0 -224 -201 -261
q-7 -1 -28.5 -2.5t-57.5 -5.5q-180 -11 -298 -16t-188 -5q-127 0 -223.5 5t-172.5 16q3 -29 5 -56.5t2 -54.5q0 -277 -158 -471q-178 -208 -480 -208q-237 0 -372 161q-121 145 -121 377q0 78 13.5 150.5t39.5 144.5q24 60 48.5 118.5t50.5 121.5l149 67
q-132 -303 -132 -515q0 -360 383 -360q186 0 305 80q137 92 137 280q0 226 -149 471l134 165v0z" />
    <glyph glyph-name="uniFEBA" unicode="&#x635;" horiz-adv-x="2533" arabic-form="final" 
d="M2251 322q-2 141 -93 229q-90 90 -224 90q-121 0 -314 -150q-42 -32 -108 -91.5t-160 -150.5q124 -7 230 -10t206 -3q465 0 463 86zM1099 473q66 -82 107 -232q78 115 166 212t188 188q267 237 455 237q183 0 298 -220q100 -187 100 -387q0 -224 -201 -261
q-7 -1 -28.5 -2.5t-57.5 -5.5q-180 -11 -298 -16t-188 -5q-127 0 -223.5 5t-172.5 16q3 -29 5 -56.5t2 -54.5q0 -277 -158 -471q-178 -208 -480 -208q-237 0 -372 161q-121 145 -121 377q0 78 13.5 150.5t39.5 144.5q24 60 48.5 118.5t50.5 121.5l149 67
q-132 -303 -132 -515q0 -360 383 -360q186 0 305 80q137 92 137 280q0 226 -149 471l134 165v0z" />
    <glyph glyph-name="uniFEBB" unicode="&#x635;" horiz-adv-x="2055" arabic-form="initial" 
d="M1785 325q0 138 -94 223q-95 87 -221 87q-134 0 -313 -143q-35 -29 -98.5 -89t-160.5 -154q142 -9 248.5 -14t194.5 -5q103 0 164 2t87 5q193 16 193 88zM109 0q-45 0 -93.5 22t-91 57.5t-73 80t-39.5 89.5h348q122 0 181 56q62 59 101 201l117 53q-7 -48 -9.5 -82.5
t-2.5 -63.5q0 -169 94 -169q64 0 120 47q10 11 31.5 35.5t54.5 66.5q396 489 685 489q191 0 305 -210q98 -185 98 -423q0 -224 -244 -249q-85 -8 -208 -12t-301 -4q-147 0 -242 1.5t-152 5.5q-275 23 -327 97q-62 -65 -163 -80q-23 -3 -69.5 -5.5t-119.5 -2.5z" />
    <glyph glyph-name="uniFEBC" unicode="&#x635;" horiz-adv-x="2055" arabic-form="medial" 
d="M1785 325q0 138 -94 223q-95 87 -221 87q-134 0 -313 -143q-35 -29 -98.5 -89t-160.5 -154q142 -9 248.5 -14t194.5 -5q103 0 164 2t87 5q193 16 193 88zM109 0q-45 0 -93.5 22t-91 57.5t-73 80t-39.5 89.5h348q122 0 181 56q62 59 101 201l117 53q-7 -48 -9.5 -82.5
t-2.5 -63.5q0 -169 94 -169q64 0 120 47q10 11 31.5 35.5t54.5 66.5q396 489 685 489q191 0 305 -210q98 -185 98 -423q0 -224 -244 -249q-85 -8 -208 -12t-301 -4q-147 0 -242 1.5t-152 5.5q-275 23 -327 97q-62 -65 -163 -80q-23 -3 -69.5 -5.5t-119.5 -2.5z" />
    <glyph glyph-name="uniFEBD" unicode="&#x636;" horiz-adv-x="2533" arabic-form="isolated" 
d="M2251 322q-2 141 -93 229q-90 90 -224 90q-121 0 -314 -150q-42 -32 -108 -91.5t-160 -150.5q124 -7 230 -10t206 -3q465 0 463 86zM1099 473q66 -82 107 -232q78 115 166 212t188 188q267 237 455 237q183 0 298 -220q100 -187 100 -387q0 -224 -201 -261
q-7 -1 -28.5 -2.5t-57.5 -5.5q-180 -11 -298 -16t-188 -5q-127 0 -223.5 5t-172.5 16q3 -29 5 -56.5t2 -54.5q0 -277 -158 -471q-178 -208 -480 -208q-237 0 -372 161q-121 145 -121 377q0 78 13.5 150.5t39.5 144.5q24 60 48.5 118.5t50.5 121.5l149 67
q-132 -303 -132 -515q0 -360 383 -360q186 0 305 80q137 92 137 280q0 226 -149 471l134 165v0zM1694 1199l-150 -172l-170 144l150 172z" />
    <glyph glyph-name="uniFEBE" unicode="&#x636;" horiz-adv-x="2533" arabic-form="final" 
d="M2251 322q-2 141 -93 229q-90 90 -224 90q-121 0 -314 -150q-42 -32 -108 -91.5t-160 -150.5q124 -7 230 -10t206 -3q465 0 463 86zM1099 473q66 -82 107 -232q78 115 166 212t188 188q267 237 455 237q183 0 298 -220q100 -187 100 -387q0 -224 -201 -261
q-7 -1 -28.5 -2.5t-57.5 -5.5q-180 -11 -298 -16t-188 -5q-127 0 -223.5 5t-172.5 16q3 -29 5 -56.5t2 -54.5q0 -277 -158 -471q-178 -208 -480 -208q-237 0 -372 161q-121 145 -121 377q0 78 13.5 150.5t39.5 144.5q24 60 48.5 118.5t50.5 121.5l149 67
q-132 -303 -132 -515q0 -360 383 -360q186 0 305 80q137 92 137 280q0 226 -149 471l134 165v0zM1814 1199l-150 -172l-170 144l150 172z" />
    <glyph glyph-name="uniFEBF" unicode="&#x636;" horiz-adv-x="2055" arabic-form="initial" 
d="M1785 325q0 138 -94 223q-95 87 -221 87q-134 0 -313 -143q-35 -29 -98.5 -89t-160.5 -154q142 -9 248.5 -14t194.5 -5q103 0 164 2t87 5q193 16 193 88zM109 0q-45 0 -93.5 22t-91 57.5t-73 80t-39.5 89.5h348q122 0 181 56q62 59 101 201l117 53q-7 -48 -9.5 -82.5
t-2.5 -63.5q0 -169 94 -169q64 0 120 47q10 11 31.5 35.5t54.5 66.5q396 489 685 489q191 0 305 -210q98 -185 98 -423q0 -224 -244 -249q-85 -8 -208 -12t-301 -4q-147 0 -242 1.5t-152 5.5q-275 23 -327 97q-62 -65 -163 -80q-23 -3 -69.5 -5.5t-119.5 -2.5zM1023 1154
l-150 -172l-170 144l150 172z" />
    <glyph glyph-name="uniFEC0" unicode="&#x636;" horiz-adv-x="2055" arabic-form="medial" 
d="M1785 325q0 138 -94 223q-95 87 -221 87q-134 0 -313 -143q-35 -29 -98.5 -89t-160.5 -154q142 -9 248.5 -14t194.5 -5q103 0 164 2t87 5q193 16 193 88zM109 0q-45 0 -93.5 22t-91 57.5t-73 80t-39.5 89.5h348q122 0 181 56q62 59 101 201l117 53q-7 -48 -9.5 -82.5
t-2.5 -63.5q0 -169 94 -169q64 0 120 47q10 11 31.5 35.5t54.5 66.5q396 489 685 489q191 0 305 -210q98 -185 98 -423q0 -224 -244 -249q-85 -8 -208 -12t-301 -4q-147 0 -242 1.5t-152 5.5q-275 23 -327 97q-62 -65 -163 -80q-23 -3 -69.5 -5.5t-119.5 -2.5zM1023 1154
l-150 -172l-170 144l150 172z" />
    <glyph glyph-name="uniFEC1" unicode="&#x637;" horiz-adv-x="1675" arabic-form="isolated" 
d="M1390 298q0 118 -106 217q-107 98 -239 98q-162 0 -329 -119q-47 -32 -110 -91.5t-153 -149.5q44 -23 471 -23q117 0 179 0.5t79 1.5q208 13 208 66zM1565 296q0 -189 -154 -259q-48 -20 -125 -32.5t-186 -16.5q-60 -2 -125 -3.5t-143 -1.5q-263 0 -443.5 4.5
t-289.5 14.5q-45 4 -92.5 26.5t-88.5 57t-70.5 77.5t-37.5 88q469 0 482 7q26 11 44 26t34 42q7 51 9 110t2 113v61q0 295 -15.5 533t-64.5 420q13 12 33 26.5t43.5 32.5t49.5 39t50 45q20 -138 31.5 -253t17.5 -218t8 -200t2 -199q0 -38 -1 -86t-2.5 -96t-3.5 -92t-5 -74
q358 390 607 390q158 0 286 -140q148 -166 148 -442z" />
    <glyph glyph-name="uniFEC2" unicode="&#x637;" horiz-adv-x="1675" arabic-form="final" 
d="M1390 298q0 118 -106 217q-107 98 -239 98q-162 0 -329 -119q-47 -32 -110 -91.5t-153 -149.5q44 -23 471 -23q117 0 179 0.5t79 1.5q208 13 208 66zM1565 296q0 -189 -154 -259q-48 -20 -125 -32.5t-186 -16.5q-60 -2 -125 -3.5t-143 -1.5q-263 0 -443.5 4.5
t-289.5 14.5q-45 4 -92.5 26.5t-88.5 57t-70.5 77.5t-37.5 88q469 0 482 7q26 11 44 26t34 42q7 51 9 110t2 113v61q0 295 -15.5 533t-64.5 420q13 12 33 26.5t43.5 32.5t49.5 39t50 45q20 -138 31.5 -253t17.5 -218t8 -200t2 -199q0 -38 -1 -86t-2.5 -96t-3.5 -92t-5 -74
q358 390 607 390q158 0 286 -140q148 -166 148 -442z" />
    <glyph glyph-name="uniFEC3" unicode="&#x637;" horiz-adv-x="1675" arabic-form="initial" 
d="M1390 298q0 118 -106 217q-107 98 -239 98q-162 0 -329 -119q-47 -32 -110 -91.5t-153 -149.5q44 -23 471 -23q117 0 179 0.5t79 1.5q208 13 208 66zM1565 296q0 -189 -154 -259q-48 -20 -125 -32.5t-186 -16.5q-60 -2 -125 -3.5t-143 -1.5q-263 0 -443.5 4.5
t-289.5 14.5q-45 4 -92.5 26.5t-88.5 57t-70.5 77.5t-37.5 88q469 0 482 7q26 11 44 26t34 42q7 51 9 110t2 113v61q0 295 -15.5 533t-64.5 420q13 12 33 26.5t43.5 32.5t49.5 39t50 45q20 -138 31.5 -253t17.5 -218t8 -200t2 -199q0 -38 -1 -86t-2.5 -96t-3.5 -92t-5 -74
q358 390 607 390q158 0 286 -140q148 -166 148 -442z" />
    <glyph glyph-name="uniFEC4" unicode="&#x637;" horiz-adv-x="1675" arabic-form="medial" 
d="M1390 298q0 118 -106 217q-107 98 -239 98q-162 0 -329 -119q-47 -32 -110 -91.5t-153 -149.5q44 -23 471 -23q117 0 179 0.5t79 1.5q208 13 208 66zM1565 296q0 -189 -154 -259q-48 -20 -125 -32.5t-186 -16.5q-60 -2 -125 -3.5t-143 -1.5q-263 0 -443.5 4.5
t-289.5 14.5q-45 4 -92.5 26.5t-88.5 57t-70.5 77.5t-37.5 88q469 0 482 7q26 11 44 26t34 42q7 51 9 110t2 113v61q0 295 -15.5 533t-64.5 420q13 12 33 26.5t43.5 32.5t49.5 39t50 45q20 -138 31.5 -253t17.5 -218t8 -200t2 -199q0 -38 -1 -86t-2.5 -96t-3.5 -92t-5 -74
q358 390 607 390q158 0 286 -140q148 -166 148 -442z" />
    <glyph glyph-name="uniFEC5" unicode="&#x638;" horiz-adv-x="1675" arabic-form="isolated" 
d="M1390 298q0 118 -106 217q-107 98 -239 98q-162 0 -329 -119q-47 -32 -110 -91.5t-153 -149.5q44 -23 471 -23q117 0 179 0.5t79 1.5q208 13 208 66zM1565 296q0 -189 -154 -259q-48 -20 -125 -32.5t-186 -16.5q-60 -2 -125 -3.5t-143 -1.5q-263 0 -443.5 4.5
t-289.5 14.5q-45 4 -92.5 26.5t-88.5 57t-70.5 77.5t-37.5 88q469 0 482 7q26 11 44 26t34 42q7 51 9 110t2 113v61q0 295 -15.5 533t-64.5 420q13 12 33 26.5t43.5 32.5t49.5 39t50 45q20 -138 31.5 -253t17.5 -218t8 -200t2 -199q0 -38 -1 -86t-2.5 -96t-3.5 -92t-5 -74
q358 390 607 390q158 0 286 -140q148 -166 148 -442zM1006 1189l-150 -172l-170 144l150 172z" />
    <glyph glyph-name="uniFEC6" unicode="&#x638;" horiz-adv-x="1675" arabic-form="final" 
d="M1390 298q0 118 -106 217q-107 98 -239 98q-162 0 -329 -119q-47 -32 -110 -91.5t-153 -149.5q44 -23 471 -23q117 0 179 0.5t79 1.5q208 13 208 66zM1565 296q0 -189 -154 -259q-48 -20 -125 -32.5t-186 -16.5q-60 -2 -125 -3.5t-143 -1.5q-263 0 -443.5 4.5
t-289.5 14.5q-45 4 -92.5 26.5t-88.5 57t-70.5 77.5t-37.5 88q469 0 482 7q26 11 44 26t34 42q7 51 9 110t2 113v61q0 295 -15.5 533t-64.5 420q13 12 33 26.5t43.5 32.5t49.5 39t50 45q20 -138 31.5 -253t17.5 -218t8 -200t2 -199q0 -38 -1 -86t-2.5 -96t-3.5 -92t-5 -74
q358 390 607 390q158 0 286 -140q148 -166 148 -442zM1006 1189l-150 -172l-170 144l150 172z" />
    <glyph glyph-name="uniFEC7" unicode="&#x638;" horiz-adv-x="1675" arabic-form="initial" 
d="M1390 298q0 118 -106 217q-107 98 -239 98q-162 0 -329 -119q-47 -32 -110 -91.5t-153 -149.5q44 -23 471 -23q117 0 179 0.5t79 1.5q208 13 208 66zM1565 296q0 -189 -154 -259q-48 -20 -125 -32.5t-186 -16.5q-60 -2 -125 -3.5t-143 -1.5q-263 0 -443.5 4.5
t-289.5 14.5q-45 4 -92.5 26.5t-88.5 57t-70.5 77.5t-37.5 88q469 0 482 7q26 11 44 26t34 42q7 51 9 110t2 113v61q0 295 -15.5 533t-64.5 420q13 12 33 26.5t43.5 32.5t49.5 39t50 45q20 -138 31.5 -253t17.5 -218t8 -200t2 -199q0 -38 -1 -86t-2.5 -96t-3.5 -92t-5 -74
q358 390 607 390q158 0 286 -140q148 -166 148 -442zM1006 1189l-150 -172l-170 144l150 172z" />
    <glyph glyph-name="uniFEC8" unicode="&#x638;" horiz-adv-x="1675" arabic-form="medial" 
d="M1390 298q0 118 -106 217q-107 98 -239 98q-162 0 -329 -119q-47 -32 -110 -91.5t-153 -149.5q44 -23 471 -23q117 0 179 0.5t79 1.5q208 13 208 66zM1565 296q0 -189 -154 -259q-48 -20 -125 -32.5t-186 -16.5q-60 -2 -125 -3.5t-143 -1.5q-263 0 -443.5 4.5
t-289.5 14.5q-45 4 -92.5 26.5t-88.5 57t-70.5 77.5t-37.5 88q469 0 482 7q26 11 44 26t34 42q7 51 9 110t2 113v61q0 295 -15.5 533t-64.5 420q13 12 33 26.5t43.5 32.5t49.5 39t50 45q20 -138 31.5 -253t17.5 -218t8 -200t2 -199q0 -38 -1 -86t-2.5 -96t-3.5 -92t-5 -74
q358 390 607 390q158 0 286 -140q148 -166 148 -442zM1006 1189l-150 -172l-170 144l150 172z" />
    <glyph glyph-name="uniFEC9" unicode="&#x639;" horiz-adv-x="1405" arabic-form="isolated" 
d="M1059 366q-70 -23 -133 -50t-121 -59t-112.5 -68.5t-107.5 -76.5q-63 -54 -113.5 -107t-86 -108.5t-54 -115.5t-18.5 -129q0 -95 25 -173.5t68.5 -140.5t102.5 -108t125.5 -76t138.5 -45t142 -15q55 0 109.5 4t117.5 16t140 35t176 61l-33 -179q-87 -51 -165.5 -84.5
t-154.5 -53t-153 -27t-162 -7.5q-142 0 -263 45t-210 129.5t-139.5 206.5t-50.5 276q0 76 14.5 159t49 167t91 168t139.5 162q-60 47 -113.5 88t-93.5 84t-63.5 91.5t-23.5 110.5q0 65 19 130.5t52.5 126.5t79.5 114.5t100.5 93t115 62t123.5 22.5q37 0 74.5 -4.5
t70.5 -12.5t60.5 -18.5t45.5 -22.5l37 -155q-20 9 -43.5 15.5t-49 11.5t-51 7.5t-49.5 2.5q-56 0 -108.5 -15.5t-98.5 -39.5t-84.5 -53.5t-66 -58t-43 -52.5t-15.5 -36q0 -22 8.5 -49t23.5 -54.5t37 -53t49 -43.5q51 -35 103.5 -63.5t115.5 -45.5q113 82 222 144t228 112
l-24 -245v0z" />
    <glyph glyph-name="uniFECA" unicode="&#x639;" horiz-adv-x="1485" arabic-form="final" 
d="M1427 0q-96 0 -163 16.5t-114.5 43t-80 60.5t-58.5 69q-30 40 -114 109q-112 -36 -205 -95.5t-159.5 -134t-103.5 -159t-37 -169.5q0 -130 47.5 -234.5t129.5 -178t193 -113t239 -39.5q85 0 159.5 7t145.5 24.5t141.5 47t147.5 74.5l-48 -209q-68 -55 -137 -91.5
t-143.5 -58t-157.5 -30t-180 -8.5q-150 0 -282.5 43.5t-231 132.5t-155.5 225.5t-57 321.5q0 123 33.5 227.5t102.5 197t174 175t248 160.5q-94 79 -165.5 115.5t-134.5 36.5q-37 0 -57 -10l34 246q151 54 273.5 83.5t219.5 29.5q157 -12 211 -23.5t104.5 -29t89.5 -40.5
t62 -51t23 -61q0 -16 -6.5 -51t-24.5 -86q-8 -21 -14.5 -34t-16 -23t-25.5 -19.5t-41 -22.5q-57 -24 -203 -96q13 -26 46 -49t77 -41t94.5 -28.5t98.5 -10.5h263v-249h-242zM1190 656q0 83 -236 83q-48 0 -115 -16.5t-152 -50.5q60 -26 129.5 -66t135.5 -100q107 41 145 55
q93 40 93 95z" />
    <glyph glyph-name="uniFECB" unicode="&#x639;" horiz-adv-x="1434" arabic-form="initial" 
d="M1099 812q-60 14 -106.5 19.5t-85.5 5.5q-61 0 -116 -15t-107.5 -44.5t-104 -73.5t-105.5 -103q33 -169 286 -293q351 31 564 99l-67 -224q-204 -71 -453 -126q-266 -57 -455 -57h-255q-24 0 -53 12t-58 31.5t-57 45t-51.5 53t-40.5 55.5t-24 52q125 0 231.5 1.5
t189.5 4.5t140.5 7.5t86.5 11.5q-41 32 -71 61t-49.5 57t-29 56.5t-9.5 59.5q0 63 23.5 128t63 126t91.5 114.5t109 93.5t115 63t110 23q44 0 78 -4t63 -11.5t54 -18.5t51 -25l42 -185v0z" />
    <glyph glyph-name="uniFECC" unicode="&#x639;" horiz-adv-x="1459" arabic-form="medial" 
d="M1141 656q0 83 -234 83q-119 0 -253 -67q60 -26 127.5 -71t133.5 -105q27 13 55.5 26t55.5 26.5t51.5 29t43.5 33.5q20 17 20 45zM1307 0q-89 0 -154 28.5t-115 72t-90 94.5t-78 97q-98 -68 -188.5 -122.5t-178 -92t-174.5 -57.5t-178 -20h-52q-42 0 -89.5 23.5t-89.5 60
t-72.5 80.5t-37.5 85h303q72 0 129.5 2t106.5 7.5t93 15.5t89.5 26.5t95.5 40.5t111 57q-91 81 -175.5 124.5t-157.5 43.5q-16 0 -31 -2t-30 -5q10 85 18 143t17 100q288 107 483 107q29 0 77.5 -3.5t104 -12.5t113 -23t103.5 -34.5t75.5 -49t29.5 -64.5q0 -49 -28 -130
q-6 -21 -13 -35t-14 -22q-14 -14 -43 -34t-65 -41.5t-76.5 -44t-77.5 -41.5q15 -29 44.5 -52t69.5 -39t87.5 -25t98.5 -9h201v-249h-242v0z" />
    <glyph glyph-name="uniFECD" unicode="&#x63a;" horiz-adv-x="1405" arabic-form="isolated" 
d="M1059 366q-70 -23 -133 -50t-121 -59t-112.5 -68.5t-107.5 -76.5q-63 -54 -113.5 -107t-86 -108.5t-54 -115.5t-18.5 -129q0 -95 25 -173.5t68.5 -140.5t102.5 -108t125.5 -76t138.5 -45t142 -15q55 0 109.5 4t117.5 16t140 35t176 61l-33 -179q-87 -51 -165.5 -84.5
t-154.5 -53t-153 -27t-162 -7.5q-142 0 -263 45t-210 129.5t-139.5 206.5t-50.5 276q0 76 14.5 159t49 167t91 168t139.5 162q-60 47 -113.5 88t-93.5 84t-63.5 91.5t-23.5 110.5q0 65 19 130.5t52.5 126.5t79.5 114.5t100.5 93t115 62t123.5 22.5q37 0 74.5 -4.5
t70.5 -12.5t60.5 -18.5t45.5 -22.5l37 -155q-20 9 -43.5 15.5t-49 11.5t-51 7.5t-49.5 2.5q-56 0 -108.5 -15.5t-98.5 -39.5t-84.5 -53.5t-66 -58t-43 -52.5t-15.5 -36q0 -22 8.5 -49t23.5 -54.5t37 -53t49 -43.5q51 -35 103.5 -63.5t115.5 -45.5q113 82 222 144t228 112
l-24 -245v0zM774 1489l-150 -172l-170 144l150 172z" />
    <glyph glyph-name="uniFECE" unicode="&#x63a;" horiz-adv-x="1485" arabic-form="final" 
d="M1427 0q-96 0 -163 16.5t-114.5 43t-80 60.5t-58.5 69q-30 40 -114 109q-112 -36 -205 -95.5t-159.5 -134t-103.5 -159t-37 -169.5q0 -130 47.5 -234.5t129.5 -178t193 -113t239 -39.5q85 0 159.5 7t145.5 24.5t141.5 47t147.5 74.5l-48 -209q-68 -55 -137 -91.5
t-143.5 -58t-157.5 -30t-180 -8.5q-150 0 -282.5 43.5t-231 132.5t-155.5 225.5t-57 321.5q0 123 33.5 227.5t102.5 197t174 175t248 160.5q-94 79 -165.5 115.5t-134.5 36.5q-37 0 -57 -10l34 246q151 54 273.5 83.5t219.5 29.5q157 -12 211 -23.5t104.5 -29t89.5 -40.5
t62 -51t23 -61q0 -16 -6.5 -51t-24.5 -86q-8 -21 -14.5 -34t-16 -23t-25.5 -19.5t-41 -22.5q-57 -24 -203 -96q13 -26 46 -49t77 -41t94.5 -28.5t98.5 -10.5h263v-249h-242zM1190 656q0 83 -236 83q-48 0 -115 -16.5t-152 -50.5q60 -26 129.5 -66t135.5 -100q107 41 145 55
q93 40 93 95zM1048 1252l-150 -172l-170 144l150 172z" />
    <glyph glyph-name="uniFECF" unicode="&#x63a;" horiz-adv-x="1434" arabic-form="initial" 
d="M1099 812q-60 14 -106.5 19.5t-85.5 5.5q-61 0 -116 -15t-107.5 -44.5t-104 -73.5t-105.5 -103q33 -169 286 -293q351 31 564 99l-67 -224q-204 -71 -453 -126q-266 -57 -455 -57h-255q-24 0 -53 12t-58 31.5t-57 45t-51.5 53t-40.5 55.5t-24 52q125 0 231.5 1.5
t189.5 4.5t140.5 7.5t86.5 11.5q-41 32 -71 61t-49.5 57t-29 56.5t-9.5 59.5q0 63 23.5 128t63 126t91.5 114.5t109 93.5t115 63t110 23q44 0 78 -4t63 -11.5t54 -18.5t51 -25l42 -185v0zM895 1375l-150 -172l-170 144l150 172z" />
    <glyph glyph-name="uniFED0" unicode="&#x63a;" horiz-adv-x="1459" arabic-form="medial" 
d="M1141 656q0 83 -234 83q-119 0 -253 -67q60 -26 127.5 -71t133.5 -105q27 13 55.5 26t55.5 26.5t51.5 29t43.5 33.5q20 17 20 45zM1307 0q-89 0 -154 28.5t-115 72t-90 94.5t-78 97q-98 -68 -188.5 -122.5t-178 -92t-174.5 -57.5t-178 -20h-52q-42 0 -89.5 23.5t-89.5 60
t-72.5 80.5t-37.5 85h303q72 0 129.5 2t106.5 7.5t93 15.5t89.5 26.5t95.5 40.5t111 57q-91 81 -175.5 124.5t-157.5 43.5q-16 0 -31 -2t-30 -5q10 85 18 143t17 100q288 107 483 107q29 0 77.5 -3.5t104 -12.5t113 -23t103.5 -34.5t75.5 -49t29.5 -64.5q0 -49 -28 -130
q-6 -21 -13 -35t-14 -22q-14 -14 -43 -34t-65 -41.5t-76.5 -44t-77.5 -41.5q15 -29 44.5 -52t69.5 -39t87.5 -25t98.5 -9h201v-249h-242v0zM1021 1289l-150 -172l-170 144l150 172z" />
    <glyph glyph-name="uniFED1" unicode="&#x641;" horiz-adv-x="2170" arabic-form="isolated" 
d="M298 801q-20 -54 -26 -104t-6 -96q0 -90 19.5 -153.5t62 -106.5t109.5 -68.5t162.5 -38.5t221 -16.5t285.5 -3.5q192 0 325 5t224 19q-81 32 -153 66t-125 75.5t-84 93.5t-31 121q0 73 24 142.5t68.5 123t108.5 86t144 32.5q72 0 130.5 -25t104.5 -68t79.5 -100
t55.5 -120.5t32.5 -130.5t10.5 -130q0 -146 -74.5 -238.5t-237.5 -126.5q-124 -26 -294 -37.5t-388 -11.5q-184 0 -312.5 8t-218 22t-146.5 33t-97 42q-38 19 -66 51t-47.5 73.5t-29 90.5t-9.5 102q0 75 15.5 158.5t50.5 190.5l112 40v0zM1824 309q6 29 10 58.5t4 58.5
q0 36 -5 79t-17 86.5t-31.5 84t-47.5 71.5q-26 29 -60 46.5t-80 17.5q-36 0 -61.5 -18.5t-42.5 -47t-25 -62.5t-8 -65q0 -48 37 -94.5t92.5 -87t118.5 -73.5t116 -54zM1774 1369l-150 -172l-170 144l150 172z" />
    <glyph glyph-name="uniFED2" unicode="&#x641;" horiz-adv-x="2000" arabic-form="final" 
d="M1830 611q0 60 -52 105q-56 45 -113 45q-64 0 -116 -42q-52 -46 -52 -108q0 -79 60 -142l115 -104q48 42 74 67.5t36 36.5q48 64 48 142zM2081 0q-237 0 -443 164q-29 -35 -75.5 -62.5t-100.5 -47t-109.5 -31.5t-101.5 -15q-169 -13 -284 -15t-191 -2q-280 0 -412 66
q-186 93 -186 344q0 69 13 148t42 181l109 44q-35 -120 -35 -189q0 -215 166 -302q86 -44 432 -44q178 0 322.5 10.5t269.5 33.5q-51 39 -79.5 64.5t-41.5 38.5q-47 62 -47 152q0 53 35 119.5t118 149.5q85 85 158.5 124t130.5 39q199 0 199 -283q0 -159 -176 -389
q81 -26 155.5 -37.5t152.5 -11.5h52v-249h-73zM1707 1269l-150 -172l-170 144l150 172z" />
    <glyph glyph-name="uniFED3" unicode="&#x641;" horiz-adv-x="1054" arabic-form="initial" 
d="M797 355q5 17 8 43t3 44q0 31 -4.5 71t-15.5 82t-28 82.5t-42.5 72t-59 51t-77.5 19.5q-30 0 -53 -14.5t-38.5 -37.5t-24 -52.5t-8.5 -59.5q0 -45 25.5 -87t70.5 -80t107.5 -71.5t136.5 -62.5zM96 0q-41 0 -88.5 23.5t-89.5 59.5t-72 80t-36 86h291q182 0 326.5 8
t240.5 25q-76 27 -144.5 60t-120 75t-81.5 94t-30 116q0 69 21.5 136t62 119.5t98.5 85t131 32.5q71 0 129 -22.5t103 -62t78 -92.5t54.5 -113.5t32 -125t10.5 -127.5q0 -102 -28 -175.5t-80 -124t-124.5 -81.5t-161.5 -48t-192 -22.5t-215 -5.5h-115zM703 1359l-150 -172
l-170 144l150 172z" />
    <glyph glyph-name="uniFED4" unicode="&#x641;" horiz-adv-x="1230" arabic-form="medial" 
d="M976 599q0 59 -54 110q-50 50 -110 50q-65 0 -119 -42q-52 -43 -52 -106q0 -77 62 -142l114 -104q159 141 159 234zM274 251q82 2 148.5 6t120 10.5t98.5 15.5q-51 37 -79.5 63t-42.5 40q-23 31 -35 67.5t-12 84.5q0 96 120 221q51 54 101 93.5t104 70.5q74 44 121 44
q196 0 196 -285q0 -152 -176 -388q29 -12 62.5 -20.5t74 -14t90 -8t111.5 -2.5h44v-249h-44q-82 0 -150.5 10t-128.5 30t-113 50.5t-104 71.5q-60 -66 -171 -112q-129 -50 -201 -50h-323q-42 0 -85.5 24t-81 60.5t-66.5 80.5t-42 84h279q103 0 185 2zM1001 1249l-150 -172
l-170 144l150 172z" />
    <glyph glyph-name="uniFED5" unicode="&#x642;" horiz-adv-x="1676" arabic-form="isolated" 
d="M1382 380q-20 78 -51 135t-69.5 94.5t-82 56t-88.5 18.5q-39 0 -74.5 -12.5t-63 -36t-44 -56t-16.5 -72.5q0 -79 65 -118.5t206 -39.5q74 0 124 6t94 25zM357 629q-36 -127 -54 -232.5t-18 -202.5q0 -138 33.5 -253t101.5 -197.5t170.5 -128.5t241.5 -46q76 0 152 15
t144.5 45.5t126 76t97 106.5t58.5 137.5t10 169.5q-29 -13 -59.5 -21t-60 -13t-56 -7t-46.5 -2q-55 0 -107 4.5t-98.5 18.5t-86 39.5t-68 67.5t-44.5 103t-16 146q0 96 22.5 184t70.5 154.5t121.5 106t175.5 38.5q187 -2 287.5 -190.5t100.5 -562.5q0 -397 -201 -643
q-213 -254 -576 -254q-146 0 -267.5 50.5t-208.5 140.5t-135 213t-48 269q0 107 21.5 248t67.5 333l148 87v0zM1378 1294l-133 -161l-139 117l-123 -143l-151 130l131 155l139 -111l120 141z" />
    <glyph glyph-name="uniFED6" unicode="&#x642;" horiz-adv-x="1559" arabic-form="final" 
d="M1335 256q-9 51 -31.5 99.5t-61.5 94.5q-86 99 -176 99q-75 0 -124 -43q-58 -45 -58 -115q0 -73 59.5 -107.5t189.5 -34.5q51 0 101 1t101 6zM1149 783q153 0 256 -187q84 -164 84 -347h224v-249h-226q-20 -320 -203 -515q-191 -203 -501 -203q-265 0 -433 170
q-168 169 -168 443q0 88 20.5 217t62.5 310l132 84q-66 -222 -66 -399q0 -256 120 -406q130 -164 372 -162q130 1 223 27.5t163 77.5q167 117 158 356h-75q-94 0 -158 4t-108 11.5t-73.5 19.5t-53.5 27q-114 79 -114 281q0 185 87 305q99 135 277 135zM1304 1124l-133 -161
l-139 117l-123 -143l-151 130l131 155l139 -111l120 141z" />
    <glyph glyph-name="uniFED7" unicode="&#x642;" horiz-adv-x="1054" arabic-form="initial" 
d="M797 355q5 17 8 43t3 44q0 31 -4.5 71t-15.5 82t-28 82.5t-42.5 72t-59 51t-77.5 19.5q-30 0 -53 -14.5t-38.5 -37.5t-24 -52.5t-8.5 -59.5q0 -45 25.5 -87t70.5 -80t107.5 -71.5t136.5 -62.5zM96 0q-41 0 -88.5 23.5t-89.5 59.5t-72 80t-36 86h291q182 0 326.5 8
t240.5 25q-76 27 -144.5 60t-120 75t-81.5 94t-30 116q0 69 21.5 136t62 119.5t98.5 85t131 32.5q71 0 129 -22.5t103 -62t78 -92.5t54.5 -113.5t32 -125t10.5 -127.5q0 -102 -28 -175.5t-80 -124t-124.5 -81.5t-161.5 -48t-192 -22.5t-215 -5.5h-115zM794 1364l-133 -161
l-139 117l-123 -143l-151 130l131 155l139 -111l120 141z" />
    <glyph glyph-name="uniFED8" unicode="&#x642;" horiz-adv-x="1230" arabic-form="medial" 
d="M976 599q0 59 -54 110q-50 50 -110 50q-65 0 -119 -42q-52 -43 -52 -106q0 -77 62 -142l114 -104q159 141 159 234zM274 251q82 2 148.5 6t120 10.5t98.5 15.5q-51 37 -79.5 63t-42.5 40q-23 31 -35 67.5t-12 84.5q0 96 120 221q51 54 101 93.5t104 70.5q74 44 121 44
q196 0 196 -285q0 -152 -176 -388q29 -12 62.5 -20.5t74 -14t90 -8t111.5 -2.5h44v-249h-44q-82 0 -150.5 10t-128.5 30t-113 50.5t-104 71.5q-60 -66 -171 -112q-129 -50 -201 -50h-323q-42 0 -85.5 24t-81 60.5t-66.5 80.5t-42 84h279q103 0 185 2zM1072 1258l-133 -161
l-139 117l-123 -143l-151 130l131 155l139 -111l120 141z" />
    <glyph glyph-name="uniFED9" unicode="&#x643;" horiz-adv-x="1883" arabic-form="isolated" 
d="M1123 1123q-202 -7 -202 -89q0 -40 87 -50q10 -1 27 -2.5t36 -3t38.5 -3.5t36.5 -4q42 -4 73 -21t31 -50q0 -60 -15 -109.5t-48.5 -85t-87.5 -55t-133 -19.5q-67 0 -138.5 10.5t-147.5 27.5l47 92q39 -8 71.5 -13t61.5 -8t56.5 -4.5t54.5 -1.5q52 0 91 9q32 9 48.5 20
t21.5 37q5 32 -25 39q-35 7 -65 10.5t-58 6t-56 6t-59 11.5q-116 30 -116 125q0 111 166 183q70 31 133.5 44.5t123.5 7.5l-53 -110v0zM1763 300q0 -121 -70 -197q-35 -38 -80 -57t-105 -28q-34 -6 -94 -10.5t-136 -8t-164 -5t-179 -1.5h-121q-82 0 -171.5 5t-173 19.5
t-153 42t-111.5 72.5q-45 45 -65 115.5t-20 170.5q0 36 3.5 76.5t10.5 82t18 81.5t26 75l103 43q-16 -45 -23.5 -92.5t-7.5 -95.5q0 -96 28 -157t85 -100q75 -53 277 -82q42 -7 112 -10t179 -3q181 0 312 6t222 25q43 9 70.5 19.5t43.5 26t22 38t6 56.5l-20 1175l176 120
v-1402v0z" />
    <glyph glyph-name="uniFEDA" unicode="&#x643;" horiz-adv-x="1883" arabic-form="final" 
d="M1123 1123q-202 -7 -202 -89q0 -40 87 -50q10 -1 27 -2.5t36 -3t38.5 -3.5t36.5 -4q42 -4 73 -21t31 -50q0 -60 -15 -109.5t-48.5 -85t-87.5 -55t-133 -19.5q-67 0 -138.5 10.5t-147.5 27.5l47 92q39 -8 71.5 -13t61.5 -8t56.5 -4.5t54.5 -1.5q52 0 91 9q32 9 48.5 20
t21.5 37q5 32 -25 39q-35 7 -65 10.5t-58 6t-56 6t-59 11.5q-116 30 -116 125q0 111 166 183q70 31 133.5 44.5t123.5 7.5l-53 -110v0zM1763 300q0 -121 -70 -197q-35 -38 -80 -57t-105 -28q-34 -6 -94 -10.5t-136 -8t-164 -5t-179 -1.5h-121q-82 0 -171.5 5t-173 19.5
t-153 42t-111.5 72.5q-45 45 -65 115.5t-20 170.5q0 36 3.5 76.5t10.5 82t18 81.5t26 75l103 43q-16 -45 -23.5 -92.5t-7.5 -95.5q0 -96 28 -157t85 -100q75 -53 277 -82q42 -7 112 -10t179 -3q181 0 312 6t222 25q43 9 70.5 19.5t43.5 26t22 38t6 56.5l-20 1175l176 120
v-1402v0z" />
    <glyph glyph-name="uniFEDB" unicode="&#x643;" horiz-adv-x="1160" arabic-form="initial" 
d="M786 249q94 0 94 48q0 23 -18.5 58.5t-60.5 83.5q-28 31 -62.5 59.5t-76.5 57.5t-92 61t-109 70q-116 70 -181.5 112.5t-91.5 76.5q-9 12 -13 30t-4 59q0 66 14 118.5t51 105.5q27 39 109 95.5t209 123.5t294.5 142t365.5 151l-89 -240q-43 -14 -105 -39.5t-131.5 -57
t-141.5 -67t-135 -69.5q-252 -137 -252 -182q0 -35 34 -59q79 -56 145.5 -99.5t120 -79.5t94.5 -67.5t71 -64.5q220 -241 220 -503q0 -48 -20.5 -81t-53.5 -53.5t-75.5 -29.5t-85.5 -9h-713q-43 0 -88.5 23.5t-85.5 59.5t-70.5 80t-43.5 86h977v0z" />
    <glyph glyph-name="uniFEDC" unicode="&#x643;" horiz-adv-x="1159" arabic-form="medial" 
d="M786 249q94 0 94 48q0 23 -18.5 58.5t-60.5 83.5q-28 31 -62.5 59.5t-76.5 57.5t-92 61t-109 70q-116 70 -181.5 112.5t-91.5 76.5q-9 12 -13 30t-4 59q0 66 14 118.5t51 105.5q27 39 109 95.5t209 123.5t294.5 142t365.5 151l-89 -240q-43 -14 -105 -39.5t-131.5 -57
t-141.5 -67t-135 -69.5q-252 -137 -252 -182q0 -35 34 -59q79 -56 145.5 -99.5t120 -79.5t94.5 -67.5t71 -64.5q220 -241 220 -503q0 -48 -20.5 -81t-53.5 -53.5t-75.5 -29.5t-85.5 -9h-713q-43 0 -88.5 23.5t-85.5 59.5t-70.5 80t-43.5 86h977v0z" />
    <glyph glyph-name="uniFEDD" unicode="&#x644;" horiz-adv-x="1463" arabic-form="isolated" 
d="M341 473q-70 -204 -70 -349q0 -389 507 -389q123 0 262 59q155 75 155 199q0 357 -18.5 732t-55.5 780q6 4 55 51.5t146 141.5l23 -1611q0 -262 -152 -429q-176 -188 -520 -188q-553 0 -553 536q0 132 86 399l135 68v0z" />
    <glyph glyph-name="uniFEDE" unicode="&#x644;" horiz-adv-x="1463" arabic-form="final" 
d="M341 473q-70 -204 -70 -349q0 -389 507 -389q123 0 262 59q155 75 155 199q0 357 -18.5 732t-55.5 780q6 4 55 51.5t146 141.5l23 -1611q0 -262 -152 -429q-176 -188 -520 -188q-553 0 -553 536q0 132 86 399l135 68v0z" />
    <glyph glyph-name="uniFEDF" unicode="&#x644;" horiz-adv-x="743" arabic-form="initial" 
d="M605 1697q0 -124 2.5 -299t8.5 -419q7 -242 11 -416.5t4 -295.5q0 -135 -95.5 -202t-281.5 -67h-159q-39 0 -88 23.5t-92.5 60t-74.5 80.5t-34 85h439q169 0 205 67q6 9 11 34.5t8 63t3.5 84.5t-1.5 100q-2 51 -6.5 128.5t-11 167.5t-13.5 185.5t-13 182t-11 156
t-7 108.5l196 173v0z" />
    <glyph glyph-name="uniFEE0" unicode="&#x644;" horiz-adv-x="743" arabic-form="medial" 
d="M605 1697q0 -124 2.5 -299t8.5 -419q7 -242 11 -416.5t4 -295.5q0 -135 -95.5 -202t-281.5 -67h-159q-39 0 -88 23.5t-92.5 60t-74.5 80.5t-34 85h439q169 0 205 67q6 9 11 34.5t8 63t3.5 84.5t-1.5 100q-2 51 -6.5 128.5t-11 167.5t-13.5 185.5t-13 182t-11 156
t-7 108.5l196 173v0z" />
    <glyph glyph-name="uniFEE1" unicode="&#x645;" horiz-adv-x="1020" arabic-form="isolated" 
d="M363 257q24 7 71 7q53 0 99.5 -5t83.5 -10.5t62 -9.5t36 -3q18 2 30 11t12 32q0 17 -9 45t-26.5 60.5t-41.5 65t-54 59t-65 43t-74 16.5q-79 0 -122 -46t-43 -127q0 -15 2.5 -32.5t8 -36.5t13 -36.5t17.5 -32.5zM228 -1107q3 256 -12 453t-33.5 341.5t-35 239
t-16.5 145.5q0 35 6 58t19.5 40t35 30t53.5 28q-75 127 -75 287q0 68 19 123t53.5 93.5t83.5 59.5t109 21q74 0 138 -29t116 -77t92 -109.5t67 -125.5t40.5 -126.5t12.5 -111.5q1 -109 -40.5 -172t-128.5 -63q-43 0 -81.5 6.5t-77 15t-80 15t-89.5 6.5q-51 -1 -75 -26
t-24 -59q0 -45 11 -111.5t24.5 -169.5t25 -249t12.5 -349l-150 -184v0z" />
    <glyph glyph-name="uniFEE2" unicode="&#x645;" horiz-adv-x="1033" arabic-form="final" 
d="M363 257q24 7 71 7q53 0 99.5 -5t83.5 -10.5t62 -9.5t36 -3q18 2 30 11t12 32q0 17 -9 45t-26.5 60.5t-41.5 65t-54 59t-65 43t-74 16.5q-79 0 -122 -46t-43 -127q0 -15 2.5 -32.5t8 -36.5t13 -36.5t17.5 -32.5zM228 -1107q3 256 -12 453t-33.5 341.5t-35 239
t-16.5 145.5q0 35 6 58t19.5 40t35 30t53.5 28q-75 127 -75 287q0 68 19 123t53.5 93.5t83.5 59.5t109 21q74 0 138 -29t116 -77t92 -109.5t67 -125.5t40.5 -126.5t12.5 -111.5q1 -109 -40.5 -172t-128.5 -63q-43 0 -81.5 6.5t-77 15t-80 15t-89.5 6.5q-51 -1 -75 -26
t-24 -59q0 -45 11 -111.5t24.5 -169.5t25 -249t12.5 -349l-150 -184v0z" />
    <glyph glyph-name="uniFEE3" unicode="&#x645;" horiz-adv-x="1171" arabic-form="initial" 
d="M957 306q0 181 -175 272q-51 27 -97 27q-57 0 -118 -46q-69 -53 -69 -107q0 -66 148 -148q138 -78 212 -78q99 0 99 80zM1061 247q0 -96 -47 -167q-56 -80 -144 -80q-147 0 -271 70q-43 26 -98.5 67t-124.5 104q-61 -119 -105 -166q-71 -75 -172 -75q-41 0 -88.5 23.5
t-89.5 60t-72.5 80.5t-38.5 85q145 0 231 0.5t125 1.5q74 2 130 131q10 33 25.5 81.5t39.5 111.5q27 54 59.5 100.5t72.5 85.5q98 101 197 101q120 0 221 -140q78 -101 117 -248q33 -116 33 -227z" />
    <glyph glyph-name="uniFEE4" unicode="&#x645;" horiz-adv-x="1171" arabic-form="medial" 
d="M957 306q0 181 -175 272q-51 27 -97 27q-57 0 -118 -46q-69 -53 -69 -107q0 -66 148 -148q138 -78 212 -78q99 0 99 80zM1061 247q0 -96 -47 -167q-56 -80 -144 -80q-147 0 -271 70q-43 26 -98.5 67t-124.5 104q-61 -119 -105 -166q-71 -75 -172 -75q-41 0 -88.5 23.5
t-89.5 60t-72.5 80.5t-38.5 85q145 0 231 0.5t125 1.5q74 2 130 131q10 33 25.5 81.5t39.5 111.5q27 54 59.5 100.5t72.5 85.5q98 101 197 101q120 0 221 -140q78 -101 117 -248q33 -116 33 -227z" />
    <glyph glyph-name="uniFEE5" unicode="&#x646;" horiz-adv-x="1512" arabic-form="isolated" 
d="M1310 587q82 -171 82 -500q0 -306 -166 -508q-179 -215 -478 -215q-290 0 -456 151q-172 157 -172 445q0 94 22 185.5t65 188.5l154 69q-89 -253 -89 -360q0 -216 151 -322q131 -92 364 -92q184 0 312 92q154 103 154 281q0 195 -102 401l159 184v0zM948 944l-150 -172
l-170 144l150 172z" />
    <glyph glyph-name="uniFEE6" unicode="&#x646;" horiz-adv-x="1512" arabic-form="final" 
d="M1310 587q82 -171 82 -500q0 -306 -166 -508q-179 -215 -478 -215q-290 0 -456 151q-172 157 -172 445q0 94 22 185.5t65 188.5l154 69q-89 -253 -89 -360q0 -216 151 -322q131 -92 364 -92q184 0 312 92q154 103 154 281q0 195 -102 401l159 184v0zM948 944l-150 -172
l-170 144l150 172z" />
    <glyph glyph-name="uniFEE7" unicode="&#x646;" horiz-adv-x="849" arabic-form="initial" 
d="M632 845q43 -107 70.5 -233.5t27.5 -286.5q0 -97 -34.5 -162.5t-91.5 -102.5q-93 -60 -295 -60h-213q-41 0 -88.5 23.5t-89.5 59.5t-72 80t-36 86h346q103 0 174 2.5t117.5 7t72 10.5t37.5 14q17 12 25 27.5t8 47.5q0 45 -25.5 117t-76.5 160l144 210v0zM673 1159
l-150 -172l-170 144l150 172z" />
    <glyph glyph-name="uniFEE8" unicode="&#x646;" horiz-adv-x="980" arabic-form="medial" 
d="M1019 0q-74 0 -131.5 31.5t-98 79t-64 104.5t-30.5 108q0 -124 -59 -216q-74 -107 -198 -107h-340q-44 0 -91 23.5t-87.5 59.5t-70 80t-39.5 86h585q191 0 191 119q0 122 -51 235l150 166q24 -85 39.5 -158.5t15.5 -134.5q0 -86 27.5 -134t80.5 -71q21 -11 69.5 -16
t124.5 -5h14v-250h-37v0zM688 1159l-150 -172l-170 144l150 172z" />
    <glyph glyph-name="uniFEE9" unicode="&#x647;" horiz-adv-x="1056" arabic-form="isolated" 
d="M546 912q93 -56 152.5 -97.5t91.5 -71.5q115 -108 115 -239q0 -156 -134 -314q-132 -153 -289 -153q-145 0 -263 85q-130 94 -130 231q0 117 53 218q16 29 46.5 75t84.5 110q-40 22 -68 44.5t-44 47.5l165 229q53 -59 220 -165zM750 364q-14 120 -159 216
q-64 35 -126.5 69t-125.5 68q-29 -66 -43 -112.5t-14 -77.5q0 -62 20 -109t56 -79t87 -48.5t114 -16.5q120 0 191 90z" />
    <glyph glyph-name="uniFEEA" unicode="&#x647;" horiz-adv-x="1030" arabic-form="final" 
d="M664 437q-9 57 -13 125.5t-4 159.5q-71 -71 -203 -123q-129 -41 -129 -83q0 -39 116 -66q48 -12 84.5 -17.5t66.5 -5.5q19 0 39.5 2.5t42.5 7.5zM1028 0q-169 0 -247 80q-60 60 -110 240q-127 -160 -210 -160q-80 0 -198 61q-134 72 -134 137q0 97 104 234
q88 121 141 150q57 19 120.5 47t144.5 67q-1 26 -4.5 60t-7.5 85l149 167q0 -177 4.5 -309.5t14.5 -235.5q35 -359 231 -374h150v-249h-148v0z" />
    <glyph glyph-name="uniFEEB" unicode="&#x647;" horiz-adv-x="1330" arabic-form="initial" 
d="M829 581q0 30 -32 61.5t-108 77.5q-45 -21 -109 -106q-64 -82 -64 -129q0 -50 62 -103q23 -25 43.5 -35.5t49.5 -18.5q45 18 102 111q56 89 56 142zM1101 207q0 97 -41.5 186.5t-138.5 185.5q-4 -95 -29 -170.5t-85 -147.5q76 -47 131.5 -65t102.5 -18q60 0 60 29zM94 0
q-50 0 -97 24t-85.5 60.5t-65.5 80.5t-36 84h285q49 0 99 0.5t91.5 2.5t70.5 5t38 8q-7 10 -14 24.5t-12 31.5t-8.5 34.5t-3.5 34.5q0 184 240 397q-29 20 -51.5 34t-49.5 25q5 8 9 16t10 17q9 16 19 34.5t23 39.5q13 23 28 49.5t32 56.5q70 -23 132 -53t116 -68.5
t101.5 -86.5t89.5 -108q82 -120 116.5 -249.5t34.5 -277.5q0 -32 -13 -75t-34.5 -83.5t-51 -72t-62.5 -40.5q-30 0 -136.5 43t-299.5 119q-66 -51 -153.5 -79t-181.5 -28h-180v0z" />
    <glyph glyph-name="uniFEEC" unicode="&#x647;" horiz-adv-x="1210" arabic-form="medial" 
d="M933 -474q3 9 4.5 22.5t1.5 25.5q0 148 -122 249q-27 24 -54.5 44t-58.5 35t-67 23t-80 8q5 -91 33 -161.5t79 -127.5q101 -119 264 -118zM983 689q0 88 -61 88q-133 0 -242 -172q-95 -132 -120 -289q69 14 137 45.5t137 83.5q149 119 149 244zM1318 0q-121 0 -178 -1.5
t-104.5 -4t-83 -6t-54.5 -8.5q66 -88 110 -169.5t44 -157.5q0 -45 -4.5 -78.5t-12 -58.5t-18 -43.5t-23.5 -34.5q-59 -74 -179 -74q-87 0 -150 45t-117 136q-42 73 -65.5 146.5t-25.5 163.5q0 16 2.5 31t4.5 31l-154 -39l34 153q-26 -8 -58 -14t-55 -9.5t-55 -5.5t-77 -2
q-42 0 -86.5 24.5t-84 61t-71 80.5t-47.5 83h336q79 0 156 3.5t128 22.5q17 109 57 219.5t103 210.5q78 121 170.5 180.5t186.5 59.5q32 0 64 -22.5t52 -68.5q27 -66 27 -144q0 -113 -84 -260q-10 -17 -28.5 -42.5t-44.5 -57.5t-65 -68.5t-91 -77.5q42 12 81.5 20.5
t80.5 14.5t72.5 8.5t123.5 2.5h183v-250z" />
    <glyph glyph-name="uniFEED" unicode="&#x648;" horiz-adv-x="1095" arabic-form="isolated" 
d="M983 198q0 -145 -10.5 -250t-33.5 -180q-54 -187 -205 -374q-45 -57 -104.5 -103t-137.5 -81q-81 -36 -151.5 -54t-143.5 -21q-39 17 -93 41t-127 58q198 50 340 114.5t242 144.5q126 103 190 236.5t66 312.5q-54 -13 -96.5 -17t-88.5 -4q-172 0 -287 79
q-138 96 -138 274q0 81 20 161.5t61 144t105 103.5t152 40q189 0 322 -214q118 -187 118 -411zM796 298q-56 157 -130 233t-178 76q-58 0 -100 -49q-38 -53 -38 -111q0 -54 27.5 -93t87.5 -56q23 -9 56 -12t93 -6q43 0 87 3t95 15z" />
    <glyph glyph-name="uniFEEE" unicode="&#x648;" horiz-adv-x="1059" arabic-form="final" 
d="M563 833q65 0 122.5 -27.5t106.5 -73.5t88.5 -106t68 -125t44.5 -130t19 -122h278v-249h-267q0 -129 -30 -242t-84 -207.5t-128 -168t-162 -123.5t-187 -75.5t-201 -23.5l-229 105q129 38 242.5 77.5t209 85t171 100t127.5 123.5t78.5 155t23.5 194q-100 0 -186.5 4
t-157.5 17t-126.5 37.5t-93 66.5t-57.5 103.5t-20 148.5q0 81 22 162.5t65.5 146.5t109.5 106t153 41zM831 250q-23 78 -60 143.5t-81.5 113.5t-92 74.5t-90.5 26.5q-36 0 -62 -15t-42.5 -38.5t-24.5 -53t-8 -58.5q0 -66 33 -105t94 -58.5t145.5 -25t188.5 -4.5z" />
    <glyph glyph-name="uniFEEF" unicode="&#x649;" horiz-adv-x="1706" arabic-form="isolated" 
d="M392 627q-27 -54 -45 -101t-28.5 -90.5t-14.5 -86.5t-4 -89q0 -481 388 -481q36 0 95 6.5t126 20.5t135 35t123 50.5t89.5 67t34.5 83.5q0 55 -123 82q-94 20 -152 36t-80 28q-33 17 -58.5 35.5t-41.5 47.5q-14 26 -18.5 59t-4.5 67q0 219 144 402q79 96 165 139t193 43
q106 0 175.5 -61.5t95.5 -176.5q-16 -20 -35.5 -48t-42.5 -59q-15 24 -38 44.5t-50 36t-55.5 24.5t-52.5 9q-41 0 -86 -5.5t-87 -18.5t-78.5 -35.5t-60.5 -55.5q-23 -30 -33.5 -70.5t-10.5 -77.5q0 -35 16.5 -55t46.5 -33q42 -17 83 -26.5t82 -17.5t81 -16t80 -22
q140 -44 140 -154q0 -95 -38.5 -179t-103.5 -153.5t-149.5 -124.5t-176 -92.5t-183.5 -57.5t-172 -20q-126 0 -226 35t-170.5 102.5t-108 166t-37.5 225.5q0 54 6 112t20.5 120.5t39 130.5t61.5 142l145 57v0z" />
    <glyph glyph-name="uniFEF0" unicode="&#x649;" horiz-adv-x="1532" arabic-form="final" 
d="M1464 1q-129 0 -221 -3.5t-150.5 -11.5t-85.5 -20.5t-27 -31.5q0 -9 23.5 -20.5t56.5 -23t68.5 -22t59.5 -18.5q31 -10 66.5 -24.5t66.5 -34t51.5 -44t20.5 -54.5q0 -63 -42 -123t-111 -113.5t-157.5 -98.5t-181.5 -77.5t-183 -50.5t-161 -18q-121 0 -216 46t-155 127
q-54 72 -75.5 160t-21.5 197q0 60 12 131.5t37 148t62 156t87 155.5l99 20q-119 -256 -119 -420q0 -143 20.5 -235.5t66.5 -149.5q27 -30 58 -47.5t66 -27t74.5 -12t83.5 -2.5q52 0 111.5 6t118 17t112.5 26t95 33t65.5 38.5t24.5 42.5q0 47 -108 82q-94 29 -140 45t-54 19
q-27 13 -46 25t-31.5 25.5t-18 30.5t-5.5 40q0 31 14.5 62.5t39.5 62.5t58.5 61t71.5 59q51 39 101 62t107.5 35t128 15.5t163.5 3.5h183v-249h-163v0z" />
    <glyph glyph-name="uniFEF1" unicode="&#x64a;" horiz-adv-x="1706" arabic-form="isolated" 
d="M392 627q-27 -54 -45 -101t-28.5 -90.5t-14.5 -86.5t-4 -89q0 -481 388 -481q36 0 95 6.5t126 20.5t135 35t123 50.5t89.5 67t34.5 83.5q0 55 -123 82q-94 20 -152 36t-80 28q-33 17 -58.5 35.5t-41.5 47.5q-14 26 -18.5 59t-4.5 67q0 219 144 402q79 96 165 139t193 43
q106 0 175.5 -61.5t95.5 -176.5q-16 -20 -35.5 -48t-42.5 -59q-15 24 -38 44.5t-50 36t-55.5 24.5t-52.5 9q-41 0 -86 -5.5t-87 -18.5t-78.5 -35.5t-60.5 -55.5q-23 -30 -33.5 -70.5t-10.5 -77.5q0 -35 16.5 -55t46.5 -33q42 -17 83 -26.5t82 -17.5t81 -16t80 -22
q140 -44 140 -154q0 -95 -38.5 -179t-103.5 -153.5t-149.5 -124.5t-176 -92.5t-183.5 -57.5t-172 -20q-126 0 -226 35t-170.5 102.5t-108 166t-37.5 225.5q0 54 6 112t20.5 120.5t39 130.5t61.5 142l145 57v0zM1098 -770l-133 -161l-139 117l-123 -143l-151 130l131 155
l139 -111l120 141z" />
    <glyph glyph-name="uniFEF2" unicode="&#x64a;" horiz-adv-x="1525" arabic-form="final" 
d="M1497 1q-129 0 -221 -3.5t-150.5 -11.5t-85.5 -20.5t-27 -31.5q0 -9 23.5 -20.5t56.5 -23t68.5 -22t59.5 -18.5q31 -10 66.5 -24.5t66.5 -34t51.5 -44t20.5 -54.5q0 -63 -42 -123t-111 -113.5t-157.5 -98.5t-181.5 -77.5t-183 -50.5t-161 -18q-121 0 -216 46t-155 127
q-54 72 -75.5 160t-21.5 197q0 60 12 131.5t37 148t62 156t87 155.5l99 20q-119 -256 -119 -420q0 -143 20.5 -235.5t66.5 -149.5q27 -30 58 -47.5t66 -27t74.5 -12t83.5 -2.5q52 0 111.5 6t118 17t112.5 26t95 33t65.5 38.5t24.5 42.5q0 47 -108 82q-94 29 -140 45t-54 19
q-27 13 -46 25t-31.5 25.5t-18 30.5t-5.5 40q0 31 14.5 62.5t39.5 62.5t58.5 61t71.5 59q51 39 101 62t107.5 35t128 15.5t163.5 3.5h183v-249h-163v0zM1180 -921l-133 -161l-139 117l-123 -143l-151 130l131 155l139 -111l120 141z" />
    <glyph glyph-name="uniFEF3" unicode="&#x64a;" horiz-adv-x="849" arabic-form="initial" 
d="M632 845q43 -107 70.5 -233.5t27.5 -286.5q0 -97 -34.5 -162.5t-91.5 -102.5q-93 -60 -295 -60h-213q-41 0 -88.5 23.5t-89.5 59.5t-72 80t-36 86h346q103 0 174 2.5t117.5 7t72 10.5t37.5 14q17 12 25 27.5t8 47.5q0 45 -25.5 117t-76.5 160l144 210v0zM651 -286
l-133 -161l-139 117l-123 -143l-151 130l131 155l139 -111l120 141z" />
    <glyph glyph-name="uniFEF4" unicode="&#x64a;" horiz-adv-x="966" arabic-form="medial" 
d="M1019 0q-74 0 -131.5 31.5t-98 79t-64 104.5t-30.5 108q0 -124 -59 -216q-74 -107 -198 -107h-340q-44 0 -91 23.5t-87.5 59.5t-70 80t-39.5 86h585q191 0 191 119q0 122 -51 235l150 166q24 -85 39.5 -158.5t15.5 -134.5q0 -86 27.5 -134t80.5 -71q21 -11 69.5 -16
t124.5 -5h14v-250h-37v0zM872 -285l-133 -161l-139 117l-123 -143l-151 130l131 155l139 -111l120 141z" />
    <glyph glyph-name=".notdef" horiz-adv-x="1024" 
d="M51 0v1536h922v-1536h-922zM179 128h666v1280h-666v-1280z" />
    <glyph glyph-name=".null" horiz-adv-x="0" 
 />
    <glyph glyph-name="nonmarkingreturn" horiz-adv-x="485" 
 />
    <glyph glyph-name="space" unicode=" " horiz-adv-x="506" 
 />
    <glyph glyph-name="exclam" unicode="!" horiz-adv-x="596" 
d="M416 1491l-29 -1042h-176l-31 1042h236zM299 -16q-62 0 -102.5 41.5t-40.5 103.5q0 61 40 101t103 40t102 -40t39 -101q0 -62 -39.5 -103.5t-101.5 -41.5z" />
    <glyph glyph-name="quotedbl" unicode="&#x22;" horiz-adv-x="842" 
d="M715 1583l-33 -512h-152l-34 512h219zM346 1583l-33 -512h-151l-35 512h219z" />
    <glyph glyph-name="numbersign" unicode="#" horiz-adv-x="1339" 
d="M1243 897h-246l-43 -313h236v-140h-254l-64 -444h-157l61 444h-293l-63 -444h-158l62 444h-228v140h246l45 313h-237v137h256l63 457h160l-64 -457h293l66 457h157l-63 -457h225v-137zM840 897h-295l-43 -313h295z" />
    <glyph glyph-name="dollar" unicode="$" horiz-adv-x="975" 
d="M836 1276q-148 31 -248 31q-141 0 -208 -46.5t-67 -142.5q0 -63 26 -106.5t74.5 -75.5t170.5 -92q117 -59 182 -109.5t101 -123t36 -167.5q0 -165 -81.5 -265.5t-237.5 -127.5v-203h-183v187q-167 0 -307 41v155q168 -47 293 -47q153 0 226 51.5t73 159.5q0 89 -43.5 145
t-158.5 112q-121 58 -180 91.5t-109 86t-74.5 117t-24.5 143.5q0 139 78.5 230.5t226.5 121.5v200h183v-186q127 0 252 -31v-149z" />
    <glyph glyph-name="percent" unicode="%" horiz-adv-x="1769" 
d="M408 616q-155 0 -235.5 100.5t-80.5 352.5q0 226 80 329t238 103q154 0 232.5 -100.5t78.5 -331.5q0 -251 -78.5 -352t-234.5 -101zM408 1382q-70 0 -104 -56.5t-34 -256.5q0 -210 33 -272t105 -62q71 0 103 63.5t32 270.5q0 205 -34.5 259t-100.5 54zM1399 1491
l-850 -1491h-178l850 1491h178zM1364 -10q-156 0 -235.5 100.5t-79.5 351.5q0 228 80 330t237 102q154 0 232.5 -100.5t78.5 -331.5q0 -253 -78.5 -352.5t-234.5 -99.5zM1364 756q-67 0 -102 -53.5t-35 -260.5q0 -214 33.5 -273.5t103.5 -59.5t102.5 60.5t32.5 272.5
q0 207 -34.5 260.5t-100.5 53.5z" />
    <glyph glyph-name="ampersand" unicode="&#x26;" horiz-adv-x="1333" 
d="M942 111q-151 -127 -367 -127q-220 0 -340 104.5t-120 292.5q0 133 64 234.5t222 197.5q-88 114 -128 199t-40 164q0 157 101 244t276 87q161 0 257 -76.5t96 -205.5q0 -111 -59 -202t-242 -218l329 -428q66 102 109 293l155 -33q-49 -239 -168 -385l195 -252h-254z
M569 926q94 63 143.5 132.5t49.5 166.5q0 63 -44 103t-114 40q-80 0 -123 -43.5t-43 -124.5q0 -63 26.5 -118t104.5 -156zM492 696q-158 -118 -158 -303q0 -122 76 -192t184 -70q153 0 258 96z" />
    <glyph glyph-name="quotesingle" unicode="'" horiz-adv-x="473" 
d="M346 1583l-33 -512h-151l-35 512h219z" />
    <glyph glyph-name="parenleft" unicode="(" horiz-adv-x="682" 
d="M614 -340q-282 0 -386.5 221t-104.5 750q0 528 104 748t387 220v-149q-171 0 -222.5 -169t-51.5 -650q0 -331 21 -498t76.5 -245t176.5 -78v-150z" />
    <glyph glyph-name="parenright" unicode=")" horiz-adv-x="682" 
d="M68 1599q283 0 387 -219.5t104 -748.5q0 -531 -104.5 -751t-386.5 -220v150q171 0 222.5 170t51.5 651t-51.5 650t-222.5 169v149z" />
    <glyph glyph-name="asterisk" unicode="*" horiz-adv-x="1012" 
d="M950 895l-80 -137l-303 194l21 -358h-164l20 358l-303 -194l-80 137l318 166l-318 164l80 139l303 -195l-20 359h164l-21 -359l303 195l80 -139l-317 -164z" />
    <glyph glyph-name="plus" unicode="+" horiz-adv-x="1120" 
d="M1004 639h-355v-354h-180v354h-354v180h354v355h180v-355h355v-180z" />
    <glyph glyph-name="comma" unicode="," horiz-adv-x="518" 
d="M399 260q-75 -287 -196 -536h-162q83 262 137 536h221z" />
    <glyph glyph-name="hyphen" unicode="-" horiz-adv-x="686" 
d="M588 526h-490v203h490v-203z" />
    <glyph glyph-name="hyphen" unicode="&#x2010;" horiz-adv-x="686" 
d="M588 526h-490v203h490v-203z" />
    <glyph glyph-name="period" unicode="." horiz-adv-x="518" 
d="M260 -16q-62 0 -102.5 41.5t-40.5 103.5q0 61 40 101t103 40t102 -40t39 -101q0 -62 -39.5 -103.5t-101.5 -41.5z" />
    <glyph glyph-name="slash" unicode="/" horiz-adv-x="778" 
d="M752 1583l-537 -1917h-188l536 1917h189z" />
    <glyph glyph-name="zero" unicode="0" horiz-adv-x="1120" 
d="M561 -16q-120 0 -206 47t-140 143.5t-75 240t-21 349.5q0 408 112.5 575.5t333.5 167.5q218 0 327 -165t109 -578q0 -199 -20 -343.5t-74.5 -243.5t-140 -146t-205.5 -47zM561 1364q-113 0 -169 -120.5t-56 -479.5q0 -383 54 -510t171 -127q116 0 169.5 127.5t53.5 509.5
q0 352 -55.5 476t-167.5 124z" />
    <glyph glyph-name="one" unicode="1" horiz-adv-x="1120" 
d="M985 0h-821v143h311v1160l-311 -76v143l411 133h113v-1360h297v-143z" />
    <glyph glyph-name="two" unicode="2" horiz-adv-x="1120" 
d="M967 0h-844v88q0 105 26 199.5t75 176t112.5 146.5t181.5 166q157 134 193.5 201t36.5 129q0 124 -68.5 188t-196.5 64q-135 0 -317 -68v156q180 61 354 61q218 0 332.5 -99t114.5 -290q0 -85 -32.5 -162.5t-97 -148.5t-186.5 -172q-128 -108 -190 -174.5t-98 -145.5
t-39 -163h643v-152z" />
    <glyph glyph-name="three" unicode="3" horiz-adv-x="1120" 
d="M170 1309v151q168 47 322 47q436 0 436 -368q0 -125 -70.5 -218.5t-193.5 -129.5q135 -23 209.5 -116t74.5 -233q0 -458 -504 -458q-159 0 -313 47v151q205 -49 315 -49q281 0 281 289q0 127 -50 189t-147 84t-282 22v143q174 0 267.5 17.5t142.5 74.5t49 166
q0 240 -250 240q-104 0 -287 -49z" />
    <glyph glyph-name="four" unicode="4" horiz-adv-x="1120" 
d="M1030 338h-153v-338h-213v338h-617v141l633 1024h197v-1016h153v-149zM664 487v713l-426 -713h426z" />
    <glyph glyph-name="five" unicode="5" horiz-adv-x="1120" 
d="M397 940q27 2 101 2q226 0 345.5 -117.5t119.5 -337.5q0 -503 -510 -503q-140 0 -306 45v153q193 -49 285 -49q157 0 233 81.5t76 266.5q0 312 -329 312q-84 0 -219 -11v709h737v-150h-533v-401z" />
    <glyph glyph-name="six" unicode="6" horiz-adv-x="1120" 
d="M922 1339q-76 19 -191 19q-166 0 -262.5 -126.5t-116.5 -361.5q104 105 273 105q187 0 285 -120t98 -341q0 -249 -115 -389.5t-330 -140.5q-212 0 -322 158t-110 550q0 368 150.5 591.5t429.5 223.5q111 0 211 -18v-150zM578 831q-111 0 -170.5 -77.5t-59.5 -212.5
q0 -228 55 -321t160 -93q114 0 171 84.5t57 296.5q0 323 -213 323z" />
    <glyph glyph-name="seven" unicode="7" horiz-adv-x="1120" 
d="M1001 1376q-409 -668 -426 -1376h-221q7 647 426 1337h-663v154h884v-115z" />
    <glyph glyph-name="eight" unicode="8" horiz-adv-x="1120" 
d="M770 778q244 -77 244 -372q0 -201 -120.5 -311.5t-336.5 -110.5q-212 0 -332.5 111.5t-120.5 310.5q0 141 62.5 239.5t181.5 132.5q-217 81 -217 344q0 182 116 283.5t314 101.5q196 0 312 -101.5t116 -283.5q0 -262 -219 -344zM557 1364q-105 0 -160 -67t-55 -193
q0 -122 56.5 -191t158.5 -69q107 0 164 68t57 192q0 260 -221 260zM557 702q-116 0 -177 -72t-61 -206q0 -143 60 -220t178 -77q242 0 242 297q0 128 -64 203t-178 75z" />
    <glyph glyph-name="nine" unicode="9" horiz-adv-x="1120" 
d="M195 156q79 -23 200 -23q176 0 267 113t104 372q-105 -102 -264 -102q-190 0 -287.5 121.5t-97.5 345.5q0 247 111.5 385.5t320.5 138.5q216 0 329 -156.5t113 -564.5q0 -392 -142.5 -597t-420.5 -205q-112 0 -233 24v148zM551 1364q-102 0 -160.5 -76.5t-58.5 -306.5
q0 -172 53 -247t158 -75q110 0 170.5 75.5t60.5 217.5q0 199 -56 305.5t-167 106.5z" />
    <glyph glyph-name="colon" unicode=":" horiz-adv-x="600" 
d="M301 780q-62 0 -102.5 42t-40.5 104q0 61 40 101t103 40t102 -40t39 -101q0 -62 -39.5 -104t-101.5 -42zM301 -16q-62 0 -102.5 41.5t-40.5 103.5q0 61 40 101t103 40t102 -40t39 -101q0 -62 -39.5 -103.5t-101.5 -41.5z" />
    <glyph glyph-name="semicolon" unicode=";" horiz-adv-x="600" 
d="M301 780q-62 0 -102.5 42t-40.5 104q0 61 40 101t103 40t102 -40t39 -101q0 -62 -39.5 -104t-101.5 -42zM420 260q-74 -283 -197 -536h-162q84 260 138 536h221z" />
    <glyph glyph-name="less" unicode="&#x3c;" horiz-adv-x="1120" 
d="M1006 252l-889 387v180l889 387v-182l-730 -295l730 -295v-182z" />
    <glyph glyph-name="equal" unicode="=" horiz-adv-x="1120" 
d="M1006 860h-889v180h889v-180zM1006 416h-889v182h889v-182z" />
    <glyph glyph-name="greater" unicode="&#x3e;" horiz-adv-x="1120" 
d="M1006 639l-889 -387v182l727 295l-727 295v182l889 -387v-180z" />
    <glyph glyph-name="question" unicode="?" horiz-adv-x="899" 
d="M57 1456q173 51 303 51q213 0 328 -90.5t115 -269.5q0 -83 -39.5 -162t-131.5 -173q-133 -137 -166.5 -187t-33.5 -113v-63h-194v75q0 82 34 158t156 195q66 66 92.5 99.5t43 74t16.5 84.5q0 221 -252 221q-104 0 -271 -49v149zM336 -16q-62 0 -102.5 41.5t-40.5 103.5
q0 61 40 101t103 40t102 -40t39 -101q0 -62 -39.5 -103.5t-101.5 -41.5z" />
    <glyph glyph-name="at" unicode="@" horiz-adv-x="1841" 
d="M1296 1126q-67 -441 -67 -587q0 -80 10 -125.5t33 -66.5t74 -21q96 0 150 99t54 277q0 313 -150.5 484.5t-428.5 171.5q-291 0 -474.5 -179.5t-183.5 -500.5q0 -353 172.5 -533t503.5 -180q91 0 206.5 22t188.5 50v-148q-78 -31 -195.5 -53t-209.5 -22
q-389 0 -620.5 221.5t-231.5 632.5q0 392 236.5 615.5t603.5 223.5q363 0 559 -208.5t196 -585.5q0 -245 -108 -382.5t-287 -137.5q-89 0 -154.5 57t-78.5 153q-94 -210 -265 -210q-127 0 -204.5 95.5t-77.5 268.5q0 266 136 417.5t361 151.5h252zM1104 989h-78
q-137 0 -223 -108.5t-86 -305.5q0 -130 34 -189.5t117 -59.5q145 0 195 352z" />
    <glyph glyph-name="A" unicode="A" horiz-adv-x="1157" 
d="M1135 0h-226l-98 344h-496l-98 -344h-197l443 1491h237zM772 489l-207 779l-211 -779h418z" />
    <glyph glyph-name="B" unicode="B" horiz-adv-x="1149" 
d="M168 0v1491h436q414 0 414 -361q0 -246 -234 -344q279 -69 279 -366q0 -420 -490 -420h-405zM516 846q163 0 223 69t60 195q0 84 -30.5 138t-81 76t-140.5 22h-164v-500h133zM526 145q132 0 192 27.5t91 86t31 167.5q0 85 -27.5 147.5t-88.5 95.5t-187 33h-154v-557h143z
" />
    <glyph glyph-name="C" unicode="C" horiz-adv-x="954" 
d="M891 16q-114 -32 -232 -32q-271 0 -407.5 185.5t-136.5 592.5q0 368 138.5 556.5t410.5 188.5q122 0 227 -30v-152q-105 33 -209 33q-168 0 -254 -149t-86 -439q0 -637 350 -637q99 0 199 31v-148z" />
    <glyph glyph-name="D" unicode="D" horiz-adv-x="1221" 
d="M557 1491q276 0 412.5 -170t136.5 -549q0 -415 -146 -593.5t-438 -178.5h-354v1491h389zM494 145q122 0 186 31t108.5 96t69.5 177t25 307q0 165 -25 275t-67 176.5t-108 102.5t-175 36h-125v-1201h111z" />
    <glyph glyph-name="E" unicode="E" horiz-adv-x="963" 
d="M903 0h-735v1491h729v-150h-514v-460h418v-150h-418v-581h520v-150z" />
    <glyph glyph-name="F" unicode="F" horiz-adv-x="938" 
d="M895 1341h-512v-505h399v-150h-399v-686h-215v1491h727v-150z" />
    <glyph glyph-name="G" unicode="G" horiz-adv-x="1169" 
d="M891 133q-35 -68 -113.5 -108.5t-165.5 -40.5q-247 0 -372 180t-125 581q0 371 150.5 566.5t443.5 195.5q150 0 276 -39v-147q-113 37 -268 37q-184 0 -279.5 -160.5t-95.5 -425.5q0 -354 76 -498.5t217 -144.5q87 0 140.5 58.5t53.5 150.5v260h-147v150h362v-748h-112z
" />
    <glyph glyph-name="H" unicode="H" horiz-adv-x="1247" 
d="M1079 0h-215v737h-481v-737h-215v1491h215v-608h481v608h215v-1491z" />
    <glyph glyph-name="I" unicode="I" horiz-adv-x="635" 
d="M549 0h-463v150h123v1191h-123v150h463v-150h-125v-1191h125v-150z" />
    <glyph glyph-name="J" unicode="J" horiz-adv-x="625" 
d="M549 1341h-125v-1357q0 -150 -81.5 -230t-236.5 -80q-63 0 -194 21v151q106 -18 147 -18q79 0 114.5 39.5t35.5 124.5v1349h-123v150h463v-150z" />
    <glyph glyph-name="K" unicode="K" horiz-adv-x="1092" 
d="M1069 0h-254l-432 770v-770h-215v1491h215v-692l451 692h227l-463 -684z" />
    <glyph glyph-name="L" unicode="L" horiz-adv-x="930" 
d="M887 0h-719v1491h215v-1341h504v-150z" />
    <glyph glyph-name="M" unicode="M" horiz-adv-x="1477" 
d="M1309 0h-211v1075l-305 -567h-107l-307 567v-1075h-211v1491h170l403 -754l406 754h162v-1491z" />
    <glyph glyph-name="N" unicode="N" horiz-adv-x="1317" 
d="M1149 0h-160l-614 1110v-1110h-207v1491h176l598 -1079v1079h207v-1491z" />
    <glyph glyph-name="O" unicode="O" horiz-adv-x="1253" 
d="M627 -16q-255 0 -383.5 189t-128.5 593q0 379 128 560t384 181t384 -182.5t128 -558.5q0 -409 -128.5 -595.5t-383.5 -186.5zM627 1358q-134 0 -209.5 -127.5t-75.5 -464.5q0 -633 285 -633q136 0 210 137.5t74 489.5q0 320 -73 459t-211 139z" />
    <glyph glyph-name="P" unicode="P" horiz-adv-x="1102" 
d="M563 1491q234 0 341.5 -110t107.5 -351q0 -238 -129 -364.5t-367 -126.5h-133v-539h-215v1491h395zM469 684q131 0 191.5 31.5t94 103t33.5 205.5q0 168 -55.5 246t-230.5 78h-119v-664h86z" />
    <glyph glyph-name="Q" unicode="Q" horiz-adv-x="1253" 
d="M913 -334q-181 0 -274 72t-143 260q-188 49 -284.5 230.5t-96.5 537.5q0 379 128 560t384 181q255 0 383.5 -180t128.5 -561q0 -373 -106.5 -559.5t-311.5 -216.5q26 -112 72 -148.5t143 -36.5h10v-139h-33zM627 1358q-136 0 -210.5 -132t-74.5 -460q0 -633 285 -633
q135 0 209.5 138.5t74.5 494.5q0 320 -73 456t-211 136z" />
    <glyph glyph-name="R" unicode="R" horiz-adv-x="1137" 
d="M1102 0h-248l-313 645h-158v-645h-215v1491h420q224 0 331 -99.5t107 -306.5q0 -152 -71 -257.5t-207 -147.5zM530 791q109 0 164.5 33t83 98t27.5 163q0 81 -22.5 138.5t-74 90t-161.5 32.5h-164v-555h147z" />
    <glyph glyph-name="S" unicode="S" horiz-adv-x="975" 
d="M836 1327q-140 31 -254 31q-119 0 -194 -57.5t-75 -159.5q0 -60 27 -106t74 -82.5t170 -108.5q114 -66 180 -122.5t102.5 -132t36.5 -167.5q0 -438 -510 -438q-154 0 -299 41v155q168 -47 293 -47q138 0 218.5 62t80.5 178q0 68 -25.5 115.5t-75.5 87.5t-184 116
q-111 65 -173 119t-97 129.5t-35 171.5q0 190 126 292.5t345 102.5q144 0 269 -30v-150z" />
    <glyph glyph-name="T" unicode="T" horiz-adv-x="1051" 
d="M1008 1335h-375v-1335h-215v1335h-375v156h965v-156z" />
    <glyph glyph-name="U" unicode="U" horiz-adv-x="1239" 
d="M1075 449q0 -229 -115.5 -347t-336.5 -118q-235 0 -347 116t-112 355v1036h215v-1059q0 -160 57.5 -231.5t184.5 -71.5q126 0 182.5 71t56.5 242v1049h215v-1042z" />
    <glyph glyph-name="V" unicode="V" horiz-adv-x="1096" 
d="M1077 1491l-418 -1491h-237l-404 1491h226l311 -1241l328 1241h194z" />
    <glyph glyph-name="W" unicode="W" horiz-adv-x="1796" 
d="M1761 1491l-352 -1491h-221l-289 1217l-319 -1217h-232l-313 1491h229l225 -1198l314 1198h231l283 -1198l254 1198h190z" />
    <glyph glyph-name="X" unicode="X" horiz-adv-x="1085" 
d="M1067 0h-244l-293 590l-301 -590h-206l405 756l-387 735h244l266 -537l270 537h207l-375 -700z" />
    <glyph glyph-name="Y" unicode="Y" horiz-adv-x="1006" 
d="M987 1491l-391 -959v-532h-215v530l-363 961h238l252 -735l276 735h203z" />
    <glyph glyph-name="Z" unicode="Z" horiz-adv-x="952" 
d="M887 1384l-586 -1234h578v-150h-828v106l586 1235h-549v150h799v-107z" />
    <glyph glyph-name="bracketleft" unicode="[" horiz-adv-x="668" 
d="M600 -334h-432v1917h432v-137h-221v-1643h221v-137z" />
    <glyph glyph-name="backslash" unicode="\" horiz-adv-x="778" 
d="M752 -334h-189l-536 1917h188z" />
    <glyph glyph-name="bracketright" unicode="]" horiz-adv-x="668" 
d="M500 -334h-432v137h221v1643h-221v137h432v-1917z" />
    <glyph glyph-name="asciicircum" unicode="^" horiz-adv-x="1120" 
d="M991 729h-192l-238 574l-239 -574h-193l332 762h198z" />
    <glyph glyph-name="underscore" unicode="_" horiz-adv-x="782" 
d="M778 -287h-772v181h772v-181z" />
    <glyph glyph-name="grave" unicode="`" horiz-adv-x="702" 
d="M545 1272h-176l-250 327h207z" />
    <glyph glyph-name="a" unicode="a" horiz-adv-x="1069" 
d="M758 168q-108 -184 -336 -184q-158 0 -247 89.5t-89 250.5q0 103 38.5 176.5t118.5 119t190 60t272 14.5v109q0 87 -21 133.5t-70 72t-127 25.5q-127 0 -305 -53v149q182 50 344 50q182 0 287 -89.5t105 -281.5v-809h-117zM606 567q-173 0 -240 -64.5t-67 -176.5
q0 -95 44 -147t130 -52q109 0 170.5 70.5t61.5 191.5v178h-99z" />
    <glyph glyph-name="b" unicode="b" horiz-adv-x="1155" 
d="M272 0h-116v1583h213v-530q51 59 127 93t155 34q200 0 299 -143.5t99 -452.5q0 -268 -113 -434t-322 -166q-194 0 -297 159zM588 127q239 0 239 448q0 238 -57 349.5t-172 111.5q-120 0 -178 -107t-58 -354q0 -264 60 -356t166 -92z" />
    <glyph glyph-name="c" unicode="c" horiz-adv-x="877" 
d="M821 14q-106 -30 -235 -30q-240 0 -360 156.5t-120 455.5q0 279 130.5 431.5t379.5 152.5q91 0 197 -25v-145q-75 24 -188 24q-146 0 -221.5 -116.5t-75.5 -325.5q0 -224 75 -343.5t222 -119.5q127 0 196 23v-138z" />
    <glyph glyph-name="d" unicode="d" horiz-adv-x="1155" 
d="M838 143q-93 -159 -316 -159q-206 0 -311 146t-105 458q0 260 111.5 426t317.5 166q167 0 251 -101v504h213v-1583h-116zM567 1036q-239 0 -239 -444q0 -465 231 -465q54 0 92.5 16.5t67.5 49t42 72.5t22.5 117t9.5 115q0 135 -1.5 205.5t-18.5 141.5t-45 110.5t-67 60.5
t-94 21z" />
    <glyph glyph-name="e" unicode="e" horiz-adv-x="1063" 
d="M918 33q-155 -49 -326 -49q-244 0 -365 147.5t-121 452.5q0 269 117 432.5t334 163.5q113 0 193 -42t129 -127t65.5 -201t16.5 -275h-629q0 -406 289 -406q114 0 297 49v-145zM752 666q0 197 -50 283.5t-145 86.5q-205 0 -225 -370h420z" />
    <glyph glyph-name="f" unicode="f" horiz-adv-x="647" 
d="M709 1421q-93 31 -158 31t-96.5 -26t-43.5 -77t-12 -186h213v-143h-213v-1020h-213v1020h-141v143h141q0 265 81 350.5t245 85.5q101 0 197 -24v-154z" />
    <glyph glyph-name="g" unicode="g" horiz-adv-x="1145" 
d="M870 1163h119v-1108q0 -187 -116 -291t-320 -104q-158 0 -377 53v150q222 -53 352 -53q108 0 160 36t70 100t18 191v23q-96 -131 -272 -131q-398 0 -398 567q0 274 109 429t320 155q194 0 290 -158zM563 1036q-117 0 -176 -104t-59 -326q0 -434 223 -434q114 0 171.5 92
t57.5 346q0 426 -217 426z" />
    <glyph glyph-name="h" unicode="h" horiz-adv-x="1161" 
d="M1010 0h-213v793q0 243 -185 243q-117 0 -180 -88t-63 -229v-719h-213v1583h213v-532q109 129 286 129q355 0 355 -377v-803z" />
    <glyph glyph-name="i" unicode="i" horiz-adv-x="567" 
d="M293 1329q-51 0 -86 35t-35 86t35 86t86 35q49 0 85 -36t36 -85q0 -50 -35.5 -85.5t-85.5 -35.5zM399 0h-213v1020h-133v143h346v-1163z" />
    <glyph glyph-name="j" unicode="j" horiz-adv-x="567" 
d="M293 1329q-51 0 -86 35t-35 86t35 86t86 35q49 0 85 -36t36 -85q0 -50 -35.5 -85.5t-85.5 -35.5zM399 -27q0 -154 -81 -233.5t-236 -79.5q-94 0 -199 21v141q103 -19 162 -19q141 0 141 168v1049h-133v143h346v-1190z" />
    <glyph glyph-name="k" unicode="k" horiz-adv-x="1030" 
d="M1020 0h-252l-399 633v-633h-213v1583h213v-946l393 526h233l-399 -506z" />
    <glyph glyph-name="l" unicode="l" horiz-adv-x="524" 
d="M369 0h-213v1583h213v-1583z" />
    <glyph glyph-name="m" unicode="m" horiz-adv-x="1761" 
d="M317 991q106 189 326 189q233 0 305 -176q100 176 318 176q171 0 257.5 -94.5t86.5 -276.5v-809h-213v803q0 233 -174 233q-112 0 -173 -88.5t-61 -228.5v-719h-213v803q0 233 -178 233q-109 0 -169 -89t-60 -228v-719h-213v1163h118z" />
    <glyph glyph-name="n" unicode="n" horiz-adv-x="1161" 
d="M317 991q111 189 338 189q355 0 355 -371v-809h-213v774q0 137 -46.5 199.5t-138.5 62.5q-117 0 -180 -88t-63 -229v-719h-213v1163h118z" />
    <glyph glyph-name="o" unicode="o" horiz-adv-x="1151" 
d="M575 -16q-234 0 -351.5 156.5t-117.5 459.5q0 269 122 424.5t347 155.5q229 0 349 -154.5t120 -429.5q0 -299 -118.5 -455.5t-350.5 -156.5zM575 1036q-121 0 -184 -110t-63 -320q0 -235 63 -357t184 -122q122 0 185 108.5t63 370.5q0 183 -64 306.5t-184 123.5z" />
    <glyph glyph-name="p" unicode="p" horiz-adv-x="1147" 
d="M317 997q63 93 140.5 138t195.5 45q387 0 387 -582q0 -291 -130 -450.5t-378 -159.5q-72 0 -163 22v-344h-213v1497h118zM369 160q74 -29 161 -29q144 0 216.5 100.5t72.5 376.5q0 217 -53 322.5t-162 105.5q-116 0 -175.5 -89t-59.5 -302v-485z" />
    <glyph glyph-name="q" unicode="q" horiz-adv-x="1155" 
d="M883 1163h116v-1497h-213v424q-89 -106 -266 -106q-414 0 -414 598q0 271 112.5 434.5t322.5 163.5q199 0 297 -160zM567 1036q-239 0 -239 -448q0 -461 237 -461q86 0 137.5 48t71 144t19.5 269q0 159 -19 254t-72.5 144.5t-134.5 49.5z" />
    <glyph glyph-name="r" unicode="r" horiz-adv-x="752" 
d="M324 969q49 103 130 154t208 51q34 0 47 -3v-194q-25 2 -76 2q-137 0 -200.5 -65.5t-63.5 -204.5v-709h-213v1163h118z" />
    <glyph glyph-name="s" unicode="s" horiz-adv-x="868" 
d="M754 993q-124 43 -244 43q-195 0 -195 -164q0 -51 36 -93t167 -103q99 -48 154.5 -91t87 -105.5t31.5 -145.5q0 -171 -107 -260.5t-305 -89.5q-134 0 -299 39v153q183 -49 285 -49q215 0 215 178q0 54 -32.5 101t-170.5 114q-107 53 -159.5 92.5t-83 100t-30.5 139.5
q0 151 108 239.5t275 88.5q145 0 267 -37v-150z" />
    <glyph glyph-name="t" unicode="t" horiz-adv-x="731" 
d="M705 20q-135 -36 -252 -36q-136 0 -199.5 63t-63.5 203v770h-141v143h144l83 279h127v-279h283v-143h-283v-733q0 -96 32 -126t93 -30q66 0 177 29v-140z" />
    <glyph glyph-name="u" unicode="u" horiz-adv-x="1161" 
d="M844 172q-111 -188 -338 -188q-354 0 -354 370v809h213v-774q0 -135 45.5 -198.5t138.5 -63.5q117 0 180.5 88t63.5 229v719h213v-1163h-119z" />
    <glyph glyph-name="v" unicode="v" horiz-adv-x="979" 
d="M954 1163l-350 -1163h-242l-335 1163h217l254 -964l264 964h192z" />
    <glyph glyph-name="w" unicode="w" horiz-adv-x="1638" 
d="M1610 1163l-314 -1163h-249l-228 938l-244 -938h-245l-301 1163h215l225 -979l246 979h235l232 -981l239 981h189z" />
    <glyph glyph-name="x" unicode="x" horiz-adv-x="997" 
d="M981 0h-233l-259 455l-266 -455h-207l377 598l-346 565h234l227 -405l235 405h207l-344 -547z" />
    <glyph glyph-name="y" unicode="y" horiz-adv-x="979" 
d="M954 1163l-364 -1233q-39 -133 -115 -201.5t-201 -68.5q-87 0 -186 21v147q92 -18 168 -18q71 0 113.5 45.5t72.5 144.5h-88l-329 1163h219l254 -964l264 964h192z" />
    <glyph glyph-name="z" unicode="z" horiz-adv-x="938" 
d="M881 0h-826v131l561 883h-520v149h772v-129l-563 -884h576v-150z" />
    <glyph glyph-name="braceleft" unicode="{" horiz-adv-x="705" 
d="M637 -334h-162q-114 0 -182 73.5t-68 203.5v440q0 155 -151 172v139q151 17 151 172v441q0 129 68 202.5t182 73.5h162v-137h-76q-125 0 -125 -146v-440q0 -189 -141 -235q141 -47 141 -236v-440q0 -146 125 -146h76v-137z" />
    <glyph glyph-name="bar" unicode="|" horiz-adv-x="778" 
d="M479 -334h-180v1917h180v-1917z" />
    <glyph glyph-name="braceright" unicode="}" horiz-adv-x="705" 
d="M631 555q-152 -17 -152 -172v-440q0 -130 -68 -203.5t-182 -73.5h-161v137h75q125 0 125 146v440q0 189 142 236q-142 46 -142 235v440q0 146 -125 146h-75v137h161q114 0 182 -73.5t68 -202.5v-441q0 -155 152 -172v-139z" />
    <glyph glyph-name="asciitilde" unicode="~" horiz-adv-x="1120" 
d="M1049 741q-73 -135 -139 -176t-130 -41q-94 0 -220.5 112t-209.5 112q-51 0 -108.5 -39t-126.5 -172l-43 168q113 229 282 229q49 0 97 -22t140 -100q68 -58 111.5 -79.5t81.5 -21.5q129 0 220 198z" />
    <glyph glyph-name="uni00A0" unicode="&#xa0;" horiz-adv-x="506" 
 />
    <glyph glyph-name="exclamdown" unicode="&#xa1;" horiz-adv-x="596" 
d="M297 1180q62 0 102.5 -42t40.5 -104t-40.5 -101.5t-102.5 -39.5t-101.5 39.5t-39.5 101.5t39.5 104t101.5 42zM180 -328l29 1043h176l31 -1043h-236z" />
    <glyph glyph-name="cent" unicode="&#xa2;" horiz-adv-x="879" 
d="M821 66q-75 -23 -174 -29v-189h-178v197q-177 34 -270 176t-93 375q0 215 93 348t270 170v201h178v-187q78 -2 166 -24v-146q-75 25 -188 25q-147 0 -222 -99t-75 -292q0 -412 297 -412q127 0 196 23v-137z" />
    <glyph glyph-name="sterling" unicode="&#xa3;" horiz-adv-x="1040" 
d="M985 0h-913v135q174 35 174 322v237h-158v148h158v172q0 249 113.5 371t349.5 122q86 0 206 -26v-152q-129 29 -190 29q-145 0 -209.5 -84t-64.5 -287v-145h380v-148h-380v-202q0 -238 -152 -338h686v-154z" />
    <glyph glyph-name="currency" unicode="&#xa4;" horiz-adv-x="1120" 
d="M954 422l-88 -88l-112 112q-91 -63 -193 -63q-104 0 -194 63l-113 -112l-88 88l113 113q-64 88 -64 194q0 104 64 193l-113 114l88 88l113 -114q87 63 194 63q105 0 193 -63l112 114l88 -88l-112 -114q63 -88 63 -193q0 -107 -63 -194zM561 932q-84 0 -144.5 -59.5
t-60.5 -143.5t60.5 -143.5t144.5 -59.5q85 0 144 59t59 144t-59 144t-144 59z" />
    <glyph glyph-name="yen" unicode="&#xa5;" horiz-adv-x="1047" 
d="M1008 1491l-301 -737h243v-146h-303l-31 -76v-86h334v-145h-334v-301h-215v301h-315v145h315v84l-28 78h-287v146h231l-278 737h237l252 -746l277 746h203z" />
    <glyph glyph-name="brokenbar" unicode="&#xa6;" horiz-adv-x="778" 
d="M479 793h-180v790h180v-790zM479 -334h-180v791h180v-791z" />
    <glyph glyph-name="section" unicode="&#xa7;" horiz-adv-x="1108" 
d="M934 1470v-145q-144 43 -283 43q-252 0 -252 -156q0 -56 41.5 -95t206.5 -103q120 -48 187.5 -93.5t104 -110t36.5 -148.5q0 -87 -48 -161t-136 -118q88 -50 124.5 -110.5t36.5 -141.5q0 -348 -475 -348q-153 0 -344 39v153q212 -49 328 -49q276 0 276 168
q0 46 -24.5 80.5t-70.5 61.5t-169 81q-118 52 -180.5 93.5t-96.5 102t-34 138.5q0 181 221 273q-106 52 -152.5 113.5t-46.5 144.5q0 153 121.5 239t321.5 86q176 0 307 -37zM532 860q-80 -27 -127 -77.5t-47 -110.5q0 -74 58 -116.5t221 -102.5q62 24 101.5 73.5
t39.5 106.5q0 72 -53 122.5t-193 104.5z" />
    <glyph glyph-name="dieresis" unicode="&#xa8;" horiz-adv-x="702" 
d="M557 1311q-49 0 -85 36t-36 85q0 48 36 83t85 35t84 -34.5t35 -83.5q0 -50 -35 -85.5t-84 -35.5zM147 1311q-49 0 -84.5 35.5t-35.5 85.5q0 49 35.5 83.5t84.5 34.5t84 -34.5t35 -83.5q0 -50 -35 -85.5t-84 -35.5z" />
    <glyph glyph-name="copyright" unicode="&#xa9;" horiz-adv-x="1786" 
d="M893 -94q-224 0 -409 102.5t-288.5 287t-103.5 411.5q0 224 103 408t288 288t410 104q223 0 407.5 -102.5t289 -287.5t104.5 -410t-104 -410t-289 -288t-408 -103zM893 1366q-283 0 -466 -188.5t-183 -470.5q0 -285 184.5 -472.5t464.5 -187.5q278 0 463.5 186t185.5 474
q0 283 -184 471t-465 188zM1133 227q-79 -22 -185 -22q-432 0 -432 512q0 240 111 364.5t329 124.5q68 0 177 -26v-131q-97 32 -164 32q-140 0 -206.5 -85.5t-66.5 -274.5q0 -212 66.5 -302.5t210.5 -90.5q61 0 160 26v-127z" />
    <glyph glyph-name="ordfeminine" unicode="&#xaa;" horiz-adv-x="846" 
d="M713 715h-103l-26 108q-96 -121 -238 -121q-120 0 -186 60.5t-66 173.5q0 92 50 151t145.5 81t257.5 22v74q0 65 -36 93.5t-118 28.5q-83 0 -231 -38v125q143 34 260 34q143 0 217 -64.5t74 -189.5v-538zM463 1085q-201 0 -201 -147q0 -54 30.5 -85.5t90.5 -31.5
q76 0 120 44t44 116v104h-84zM733 455h-633v139h633v-139z" />
    <glyph glyph-name="guillemotleft" unicode="&#xab;" horiz-adv-x="1057" 
d="M975 152h-189l-278 391v106l278 391h189l-289 -444zM559 152h-188l-279 391v106l279 391h188l-289 -444z" />
    <glyph glyph-name="logicalnot" unicode="&#xac;" horiz-adv-x="1120" 
d="M1006 428h-181v387h-708v180h889v-567z" />
    <glyph glyph-name="uni00AD" unicode="&#xad;" horiz-adv-x="686" 
d="M588 526h-490v203h490v-203z" />
    <glyph glyph-name="registered" unicode="&#xae;" horiz-adv-x="1786" 
d="M893 -94q-224 0 -409 102.5t-288.5 287t-103.5 411.5q0 224 103 408t288 288t410 104q223 0 407.5 -102.5t289 -287.5t104.5 -410t-104 -410t-289 -288t-408 -103zM893 1366q-283 0 -466 -188.5t-183 -470.5q0 -285 184.5 -472.5t464.5 -187.5q278 0 463.5 186t185.5 474
q0 283 -184 471t-465 188zM1276 219h-186l-226 410h-106v-410h-164v975h311q160 0 237 -66t77 -204q0 -211 -195 -275zM874 743q91 0 135 41t44 140q0 86 -40 120.5t-126 34.5h-129v-336h116z" />
    <glyph glyph-name="uni00AF" unicode="&#xaf;" horiz-adv-x="762" 
d="M768 1778v-133h-772v133h772z" />
    <glyph glyph-name="degree" unicode="&#xb0;" horiz-adv-x="854" 
d="M420 850q-140 0 -233 93t-93 239q0 142 90.5 233.5t235.5 91.5t238.5 -92t93.5 -235q0 -144 -95 -237t-237 -93zM422 1384q-87 0 -143 -58.5t-56 -145.5q0 -89 57.5 -147t141.5 -58t141.5 58.5t57.5 146.5q0 87 -56 145.5t-143 58.5z" />
    <glyph glyph-name="plusminus" unicode="&#xb1;" horiz-adv-x="1120" 
d="M1006 795h-355v-365h-180v365h-356v178h356v364h180v-364h355v-178zM1006 154h-889v180h889v-180z" />
    <glyph glyph-name="twosuperior" unicode="&#xb2;" horiz-adv-x="813" 
d="M690 625h-600v63q0 94 51 183.5t217 205.5q104 71 129 106.5t25 67.5q0 127 -164 127q-90 0 -229 -43v125q139 39 256 39q152 0 233.5 -60t81.5 -173q0 -64 -40 -125.5t-179 -157.5q-118 -83 -162.5 -133t-50.5 -102h432v-123z" />
    <glyph glyph-name="threesuperior" unicode="&#xb3;" horiz-adv-x="813" 
d="M123 1348v122q127 29 231 29q312 0 312 -221q0 -62 -41.5 -114t-112.5 -79q79 -21 122.5 -74.5t43.5 -123.5q0 -273 -354 -273q-100 0 -228 31v123q162 -31 228 -31q95 0 137.5 35.5t42.5 110.5q0 78 -52.5 109.5t-277.5 31.5v115q141 0 199 8.5t87 36t29 80.5
q0 61 -34.5 87.5t-122.5 26.5q-70 0 -209 -30z" />
    <glyph glyph-name="acute" unicode="&#xb4;" horiz-adv-x="702" 
d="M584 1599l-250 -327h-176l219 327h207z" />
    <glyph glyph-name="uni00B5" unicode="&#xb5;" horiz-adv-x="1165" 
d="M848 172q-112 -188 -326 -188q-96 0 -153 36v-354h-213v1497h213v-801q0 -129 44.5 -182t139.5 -53q117 0 180.5 88t63.5 229v719h213v-1163h-119z" />
    <glyph glyph-name="paragraph" unicode="&#xb6;" horiz-adv-x="1221" 
d="M1157 1343h-153v-1677h-146v1677h-205v-1677h-145v1077q-426 0 -426 369q0 191 107 285t333 94h635v-148z" />
    <glyph glyph-name="uni00B7" unicode="&#xb7;" horiz-adv-x="545" 
d="M274 571q-66 0 -112.5 47t-46.5 113q0 65 46.5 111.5t112.5 46.5t111 -46t45 -112t-45 -113t-111 -47z" />
    <glyph glyph-name="cedilla" unicode="&#xb8;" horiz-adv-x="702" 
d="M358 -33q74 -2 112 -38t38 -95q0 -176 -313 -182v104q96 3 136 21t40 55q0 41 -31 57t-92 17l6 121h104v-60z" />
    <glyph glyph-name="onesuperior" unicode="&#xb9;" horiz-adv-x="813" 
d="M717 625h-586v118h213v600l-213 -43v119l293 78h90v-754h203v-118z" />
    <glyph glyph-name="ordmasculine" unicode="&#xba;" horiz-adv-x="915" 
d="M459 702q-174 0 -262 106t-88 310q0 181 91 285t259 104q170 0 259 -104t89 -289q0 -202 -88 -307t-260 -105zM459 1393q-176 0 -176 -271q0 -303 176 -303q89 0 132.5 68t43.5 235q0 125 -45 198t-131 73zM799 455h-680v139h680v-139z" />
    <glyph glyph-name="guillemotright" unicode="&#xbb;" horiz-adv-x="1057" 
d="M965 543l-279 -391h-188l288 444l-288 444h188l279 -391v-106zM549 543l-279 -391h-188l289 444l-289 444h188l279 -391v-106z" />
    <glyph glyph-name="onequarter" unicode="&#xbc;" horiz-adv-x="1769" 
d="M717 625h-586v118h213v600l-213 -43v119l293 78h90v-754h203v-118zM1399 1491l-850 -1491h-178l850 1491h178zM1698 190h-105v-190h-168v190h-428v99l439 583h157v-565h105v-117zM1425 307v357l-260 -357h260z" />
    <glyph glyph-name="onehalf" unicode="&#xbd;" horiz-adv-x="1769" 
d="M717 625h-586v118h213v600l-213 -43v119l293 78h90v-754h203v-118zM1399 1491l-850 -1491h-178l850 1491h178zM1647 0h-600v63q0 98 54 189t214 201q105 72 129 107t24 67q0 127 -163 127q-85 0 -230 -43v125q144 38 256 38q152 0 234 -60t82 -173q0 -63 -38.5 -124
t-181.5 -159q-117 -82 -161.5 -132t-51.5 -103h433v-123z" />
    <glyph glyph-name="threequarters" unicode="&#xbe;" horiz-adv-x="1769" 
d="M123 1348v122q127 29 231 29q312 0 312 -221q0 -62 -41.5 -114t-112.5 -79q79 -21 122.5 -74.5t43.5 -123.5q0 -273 -354 -273q-100 0 -228 31v123q162 -31 228 -31q95 0 137.5 35.5t42.5 110.5q0 78 -52.5 109.5t-277.5 31.5v115q141 0 199 8.5t87 36t29 80.5
q0 61 -34.5 87.5t-122.5 26.5q-70 0 -209 -30zM1399 1491l-850 -1491h-178l850 1491h178zM1698 190h-105v-190h-168v190h-428v99l439 583h157v-565h105v-117zM1425 307v357l-260 -357h260z" />
    <glyph glyph-name="questiondown" unicode="&#xbf;" horiz-adv-x="899" 
d="M563 1180q63 0 103.5 -42.5t40.5 -103.5t-40.5 -101t-103.5 -40q-62 0 -101.5 39.5t-39.5 101.5t39.5 104t101.5 42zM842 -289q-181 -51 -303 -51q-213 0 -328 90.5t-115 269.5q0 82 39.5 161.5t131.5 174.5q133 137 166.5 186.5t33.5 112.5v64h195v-76q0 -83 -35 -159.5
t-156 -192.5q-89 -89 -120.5 -142t-31.5 -116q0 -221 252 -221q112 0 271 49v-150z" />
    <glyph glyph-name="Acircumflex" unicode="&#xc2;" horiz-adv-x="1157" 
d="M1135 0h-226l-98 344h-496l-98 -344h-197l443 1491h237zM772 489l-207 779l-211 -779h418zM909 1559h-162l-164 209l-164 -209h-161l221 311h209z" />
    <glyph glyph-name="Adieresis" unicode="&#xc4;" horiz-adv-x="1157" 
d="M1135 0h-226l-98 344h-496l-98 -344h-197l443 1491h237zM772 489l-207 779l-211 -779h418zM790 1577q-49 0 -85 36t-36 85q0 48 36 83t85 35t84 -34.5t35 -83.5q0 -50 -35 -85.5t-84 -35.5zM380 1577q-49 0 -84.5 35.5t-35.5 85.5q0 49 35.5 83.5t84.5 34.5t84 -34.5
t35 -83.5q0 -50 -35 -85.5t-84 -35.5z" />
    <glyph glyph-name="Aring" unicode="&#xc5;" horiz-adv-x="1157" 
d="M1135 0h-226l-98 344h-496l-98 -344h-197l443 1491h237zM772 489l-207 779l-211 -779h418zM583 1506q-82 0 -141 56.5t-59 143.5q0 85 56.5 142t143.5 57q89 0 144 -57t55 -142q0 -88 -56 -144t-143 -56zM583 1817q-49 0 -78.5 -31t-29.5 -80q0 -50 29.5 -81t78.5 -31
t78 31.5t29 80.5t-29 80t-78 31z" />
    <glyph glyph-name="AE" unicode="&#xc6;" horiz-adv-x="1511" 
d="M1452 0h-715v344h-381l-131 -344h-211l586 1491h846v-150h-494v-460h410v-150h-410v-581h500v-150zM737 489v848l-325 -848h325z" />
    <glyph glyph-name="Ccedilla" unicode="&#xc7;" horiz-adv-x="954" 
d="M891 16q-114 -32 -232 -32q-27 0 -71 4v-21q73 -2 111 -38t38 -95q0 -176 -313 -182v104q96 3 136 21t40 55q0 43 -33 58t-90 16l6 102q-182 53 -275 235.5t-93 518.5q0 368 138.5 556.5t410.5 188.5q122 0 227 -30v-152q-105 33 -209 33q-168 0 -254 -149t-86 -439
q0 -637 350 -637q99 0 199 31v-148z" />
    <glyph glyph-name="Ecircumflex" unicode="&#xca;" horiz-adv-x="963" 
d="M903 0h-735v1491h729v-150h-514v-460h418v-150h-418v-581h520v-150zM846 1559h-162l-164 209l-164 -209h-161l221 311h209z" />
    <glyph glyph-name="Edieresis" unicode="&#xcb;" horiz-adv-x="963" 
d="M903 0h-735v1491h729v-150h-514v-460h418v-150h-418v-581h520v-150zM719 1577q-49 0 -85 36t-36 85q0 48 36 83t85 35t84 -34.5t35 -83.5q0 -50 -35 -85.5t-84 -35.5zM309 1577q-49 0 -84.5 35.5t-35.5 85.5q0 49 35.5 83.5t84.5 34.5t84 -34.5t35 -83.5q0 -50 -35 -85.5
t-84 -35.5z" />
    <glyph glyph-name="Icircumflex" unicode="&#xce;" horiz-adv-x="635" 
d="M549 0h-463v150h123v1191h-123v150h463v-150h-125v-1191h125v-150zM644 1559h-162l-164 209l-164 -209h-161l221 311h209z" />
    <glyph glyph-name="Idieresis" unicode="&#xcf;" horiz-adv-x="635" 
d="M549 0h-463v150h123v1191h-123v150h463v-150h-125v-1191h125v-150zM523 1577q-49 0 -85 36t-36 85q0 48 36 83t85 35t84 -34.5t35 -83.5q0 -50 -35 -85.5t-84 -35.5zM113 1577q-49 0 -84.5 35.5t-35.5 85.5q0 49 35.5 83.5t84.5 34.5t84 -34.5t35 -83.5q0 -50 -35 -85.5
t-84 -35.5z" />
    <glyph glyph-name="Eth" unicode="&#xd0;" horiz-adv-x="1276" 
d="M612 1491q276 0 412.5 -170t136.5 -549q0 -415 -145.5 -593.5t-437.5 -178.5h-355v707h-151v149h151v635h389zM549 145q122 0 188.5 32t114.5 107t67 191.5t19 280.5q0 165 -25 275t-67 176.5t-108 102.5t-175 36h-125v-490h295v-149h-295v-562h111z" />
    <glyph glyph-name="Ntilde" unicode="&#xd1;" horiz-adv-x="1317" 
d="M1149 0h-160l-614 1110v-1110h-207v1491h176l598 -1079v1079h207v-1491zM879 1812h110v-28q0 -88 -54 -154t-140 -66q-89 0 -164 62q-44 38 -62 48.5t-42 10.5q-86 0 -86 -98v-25h-111v54q0 97 54 153t147 56q44 0 77 -14t74 -48q47 -41 69.5 -51t45.5 -10q82 0 82 90v20
z" />
    <glyph glyph-name="Ocircumflex" unicode="&#xd4;" horiz-adv-x="1253" 
d="M627 -16q-255 0 -383.5 189t-128.5 593q0 379 128 560t384 181t384 -182.5t128 -558.5q0 -409 -128.5 -595.5t-383.5 -186.5zM627 1358q-134 0 -209.5 -127.5t-75.5 -464.5q0 -633 285 -633q136 0 210 137.5t74 489.5q0 320 -73 459t-211 139zM952 1559h-162l-164 209
l-164 -209h-161l221 311h209z" />
    <glyph glyph-name="Odieresis" unicode="&#xd6;" horiz-adv-x="1253" 
d="M627 -16q-255 0 -383.5 189t-128.5 593q0 379 128 560t384 181t384 -182.5t128 -558.5q0 -409 -128.5 -595.5t-383.5 -186.5zM627 1358q-134 0 -209.5 -127.5t-75.5 -464.5q0 -633 285 -633q136 0 210 137.5t74 489.5q0 320 -73 459t-211 139zM833 1577q-49 0 -85 36
t-36 85q0 48 36 83t85 35t84 -34.5t35 -83.5q0 -50 -35 -85.5t-84 -35.5zM423 1577q-49 0 -84.5 35.5t-35.5 85.5q0 49 35.5 83.5t84.5 34.5t84 -34.5t35 -83.5q0 -50 -35 -85.5t-84 -35.5z" />
    <glyph glyph-name="multiply" unicode="&#xd7;" horiz-adv-x="1120" 
d="M969 449l-129 -127l-281 280l-278 -280l-129 127l280 280l-280 281l129 127l280 -281l279 281l129 -127l-281 -281z" />
    <glyph glyph-name="Oslash" unicode="&#xd8;" horiz-adv-x="1253" 
d="M1178 1581l-156 -272q117 -182 117 -543q0 -409 -128.5 -595.5t-383.5 -186.5q-185 0 -308 104l-102 -180h-141l160 278q-121 192 -121 580q0 379 128 560t384 181q191 0 309 -100l100 174h142zM834 1229q-72 129 -207 129q-134 0 -209.5 -127.5t-75.5 -464.5
q0 -209 29 -342zM424 270q73 -137 203 -137q135 0 209.5 138.5t74.5 494.5q0 191 -24 309z" />
    </font>
</defs>
</svg>
