<?xml version="1.0" standalone="no"?>
<!DOCTYPE svg PUBLIC "-//W3C//DTD SVG 1.1//EN" "http://www.w3.org/Graphics/SVG/1.1/DTD/svg11.dtd" >
<svg xmlns="http://www.w3.org/2000/svg" xmlns:xlink="http://www.w3.org/1999/xlink" version="1.1">
<metadata>
Created by FontForge 20150824 at Thu Dec 24 02:27:24 2015
 By Everything Fonts
Copyright (c) 2001-2006. Nokia Corporation.  All rights reserved. 
</metadata>
<defs>
<font id="NokiaStandardMultiBold" horiz-adv-x="1451" >
  <font-face 
    font-family="NokiaStandardMultiBold"
    font-weight="700"
    font-stretch="normal"
    units-per-em="2048"
    panose-1="2 11 8 6 3 4 4 3 2 4"
    ascent="1638"
    descent="-410"
    x-height="1176"
    cap-height="1491"
    bbox="-1189 -1225 2597 2490"
    underline-thickness="168"
    underline-position="-383"
    unicode-range="U+0020-FFFC"
  />
<missing-glyph horiz-adv-x="1024" 
d="M51 0v1536h922v-1536h-922zM179 128h666v1280h-666v-1280z" />
    <glyph glyph-name="Agrave" unicode="A&#x300;" horiz-adv-x="1253" 
d="M1233 0h-359l-73 309h-406l-76 -309h-305l418 1491h410zM760 506l-160 700l-164 -700h324zM799 1559h-224l-264 340h283z" />
    <glyph glyph-name="Aacute" unicode="A&#x301;" horiz-adv-x="1253" 
d="M1233 0h-359l-73 309h-406l-76 -309h-305l418 1491h410zM760 506l-160 700l-164 -700h324zM950 1899l-266 -340h-221l204 340h283z" />
    <glyph glyph-name="Atilde" unicode="A&#x303;" horiz-adv-x="1253" 
d="M1233 0h-359l-73 309h-406l-76 -309h-305l418 1491h410zM760 506l-160 700l-164 -700h324zM848 1849h137v-55q0 -104 -55.5 -170t-151.5 -66q-60 0 -97 15.5t-108 65.5q-46 33 -82 33q-78 0 -78 -93v-21h-137v66q0 111 57.5 171t159.5 60q46 0 79 -13t79 -46
q49 -35 73.5 -45t49.5 -10q74 0 74 84v24z" />
    <glyph glyph-name="Egrave" unicode="E&#x300;" horiz-adv-x="1010" 
d="M958 0h-815v1491h807v-197h-469v-389h375v-196h-375v-512h477v-197zM705 1559h-224l-264 340h283z" />
    <glyph glyph-name="Eacute" unicode="E&#x301;" horiz-adv-x="1010" 
d="M958 0h-815v1491h807v-197h-469v-389h375v-196h-375v-512h477v-197zM856 1899l-266 -340h-221l204 340h283z" />
    <glyph glyph-name="Igrave" unicode="I&#x300;" horiz-adv-x="727" 
d="M655 0h-583v197h123v1097h-123v197h583v-197h-123v-1097h123v-197zM534 1559h-224l-264 340h283z" />
    <glyph glyph-name="Iacute" unicode="I&#x301;" horiz-adv-x="727" 
d="M655 0h-583v197h123v1097h-123v197h583v-197h-123v-1097h123v-197zM682 1899l-266 -340h-221l204 340h283z" />
    <glyph glyph-name="Ograve" unicode="O&#x300;" horiz-adv-x="1341" 
d="M672 -16q-287 0 -432.5 191t-145.5 591q0 741 578 741q575 0 575 -741q0 -402 -144 -592t-431 -190zM672 1311q-113 0 -170.5 -109t-57.5 -436q0 -320 56.5 -453t171.5 -133q111 0 168 118t57 468q0 315 -57 430t-168 115zM840 1559h-224l-264 340h283z" />
    <glyph glyph-name="Oacute" unicode="O&#x301;" horiz-adv-x="1341" 
d="M672 -16q-287 0 -432.5 191t-145.5 591q0 741 578 741q575 0 575 -741q0 -402 -144 -592t-431 -190zM672 1311q-113 0 -170.5 -109t-57.5 -436q0 -320 56.5 -453t171.5 -133q111 0 168 118t57 468q0 315 -57 430t-168 115zM989 1899l-266 -340h-221l204 340h283z" />
    <glyph glyph-name="Otilde" unicode="O&#x303;" horiz-adv-x="1341" 
d="M672 -16q-287 0 -432.5 191t-145.5 591q0 741 578 741q575 0 575 -741q0 -402 -144 -592t-431 -190zM672 1311q-113 0 -170.5 -109t-57.5 -436q0 -320 56.5 -453t171.5 -133q111 0 168 118t57 468q0 315 -57 430t-168 115zM887 1849h137v-55q0 -104 -55.5 -170
t-151.5 -66q-60 0 -97 15.5t-108 65.5q-46 33 -82 33q-78 0 -78 -93v-21h-137v66q0 111 57.5 171t159.5 60q46 0 79 -13t79 -46q49 -35 73.5 -45t49.5 -10q74 0 74 84v24z" />
    <glyph glyph-name="Ugrave" unicode="U&#x300;" horiz-adv-x="1325" 
d="M1186 461q0 -236 -130.5 -356.5t-387.5 -120.5q-272 0 -400.5 117.5t-128.5 365.5v1024h338v-1047q0 -142 44.5 -204t142.5 -62t141 60t43 206v1047h338v-1030zM832 1559h-224l-264 340h283z" />
    <glyph glyph-name="Uacute" unicode="U&#x301;" horiz-adv-x="1325" 
d="M1186 461q0 -236 -130.5 -356.5t-387.5 -120.5q-272 0 -400.5 117.5t-128.5 365.5v1024h338v-1047q0 -142 44.5 -204t142.5 -62t141 60t43 206v1047h338v-1030zM981 1899l-266 -340h-221l204 340h283z" />
    <glyph glyph-name="agrave" unicode="a&#x300;" horiz-adv-x="1169" 
d="M840 0l-45 168q-68 -94 -152.5 -139t-206.5 -45q-173 0 -268.5 91.5t-95.5 256.5q0 200 139 290.5t498 92.5v73q0 81 -19 122t-65 67.5t-138 26.5q-119 0 -309 -58v193q221 53 402 53q226 0 342 -99t116 -292v-801h-198zM655 551q-149 0 -203.5 -59.5t-54.5 -153.5
q0 -166 135 -166q86 0 131.5 56t45.5 163v160h-54zM754 1278h-224l-264 340h283z" />
    <glyph glyph-name="aacute" unicode="a&#x301;" horiz-adv-x="1169" 
d="M840 0l-45 168q-68 -94 -152.5 -139t-206.5 -45q-173 0 -268.5 91.5t-95.5 256.5q0 200 139 290.5t498 92.5v73q0 81 -19 122t-65 67.5t-138 26.5q-119 0 -309 -58v193q221 53 402 53q226 0 342 -99t116 -292v-801h-198zM655 551q-149 0 -203.5 -59.5t-54.5 -153.5
q0 -166 135 -166q86 0 131.5 56t45.5 163v160h-54zM905 1618l-266 -340h-221l204 340h283z" />
    <glyph glyph-name="atilde" unicode="a&#x303;" horiz-adv-x="1169" 
d="M840 0l-45 168q-68 -94 -152.5 -139t-206.5 -45q-173 0 -268.5 91.5t-95.5 256.5q0 200 139 290.5t498 92.5v73q0 81 -19 122t-65 67.5t-138 26.5q-119 0 -309 -58v193q221 53 402 53q226 0 342 -99t116 -292v-801h-198zM655 551q-149 0 -203.5 -59.5t-54.5 -153.5
q0 -166 135 -166q86 0 131.5 56t45.5 163v160h-54zM803 1589h137v-55q0 -104 -55.5 -170t-151.5 -66q-60 0 -97 15.5t-108 65.5q-46 33 -82 33q-78 0 -78 -93v-21h-137v66q0 111 57.5 171t159.5 60q46 0 79 -13t79 -46q49 -35 73.5 -45t49.5 -10q74 0 74 84v24z" />
    <glyph glyph-name="egrave" unicode="e&#x300;" horiz-adv-x="1159" 
d="M1024 37q-172 -53 -371 -53q-565 0 -565 606q0 269 140 435.5t384 166.5q229 0 346 -145.5t117 -528.5h-645q0 -346 285 -346q125 0 309 51v-186zM750 682q0 192 -38.5 260t-111.5 68q-83 0 -125 -73.5t-47 -254.5h322zM748 1278h-224l-264 340h283z" />
    <glyph glyph-name="eacute" unicode="e&#x301;" horiz-adv-x="1159" 
d="M1024 37q-172 -53 -371 -53q-565 0 -565 606q0 269 140 435.5t384 166.5q229 0 346 -145.5t117 -528.5h-645q0 -346 285 -346q125 0 309 51v-186zM750 682q0 192 -38.5 260t-111.5 68q-83 0 -125 -73.5t-47 -254.5h322zM899 1618l-266 -340h-221l204 340h283z" />
    <glyph glyph-name="igrave" unicode="i&#x300;" horiz-adv-x="639" 
d="M498 0h-332v987h-125v189h457v-1176zM489 1278h-224l-264 340h283z" />
    <glyph glyph-name="iacute" unicode="i&#x301;" horiz-adv-x="639" 
d="M498 0h-332v987h-125v189h457v-1176zM640 1618l-266 -340h-221l204 340h283z" />
    <glyph glyph-name="ograve" unicode="o&#x300;" horiz-adv-x="1251" 
d="M625 -16q-265 0 -401 158.5t-136 463.5q0 272 144 429t397 157q258 0 396 -156.5t138 -437.5q0 -294 -139 -454t-399 -160zM625 1004q-97 0 -147 -85t-50 -307q0 -254 51 -347t146 -93q96 0 147 87.5t51 352.5q0 392 -198 392zM795 1278h-224l-264 340h283z" />
    <glyph glyph-name="oacute" unicode="o&#x301;" horiz-adv-x="1251" 
d="M625 -16q-265 0 -401 158.5t-136 463.5q0 272 144 429t397 157q258 0 396 -156.5t138 -437.5q0 -294 -139 -454t-399 -160zM625 1004q-97 0 -147 -85t-50 -307q0 -254 51 -347t146 -93q96 0 147 87.5t51 352.5q0 392 -198 392zM946 1618l-266 -340h-221l204 340h283z" />
    <glyph glyph-name="otilde" unicode="o&#x303;" horiz-adv-x="1251" 
d="M625 -16q-265 0 -401 158.5t-136 463.5q0 272 144 429t397 157q258 0 396 -156.5t138 -437.5q0 -294 -139 -454t-399 -160zM625 1004q-97 0 -147 -85t-50 -307q0 -254 51 -347t146 -93q96 0 147 87.5t51 352.5q0 392 -198 392zM844 1589h137v-55q0 -104 -55.5 -170
t-151.5 -66q-60 0 -97 15.5t-108 65.5q-46 33 -82 33q-78 0 -78 -93v-21h-137v66q0 111 57.5 171t159.5 60q46 0 79 -13t79 -46q49 -35 73.5 -45t49.5 -10q74 0 74 84v24z" />
    <glyph glyph-name="ugrave" unicode="u&#x300;" horiz-adv-x="1262" 
d="M879 176q-132 -192 -365 -192q-187 0 -285 99t-98 286v807h332v-781q0 -127 35 -175t106 -48q191 0 191 297v707h331v-1176h-200zM799 1278h-224l-264 340h283z" />
    <glyph glyph-name="uacute" unicode="u&#x301;" horiz-adv-x="1262" 
d="M879 176q-132 -192 -365 -192q-187 0 -285 99t-98 286v807h332v-781q0 -127 35 -175t106 -48q191 0 191 297v707h331v-1176h-200zM950 1618l-266 -340h-221l204 340h283z" />
    <glyph glyph-name="Itilde" unicode="I&#x303;" horiz-adv-x="727" 
d="M655 0h-583v197h123v1097h-123v197h583v-197h-123v-1097h123v-197zM583 1849h137v-55q0 -104 -55.5 -170t-151.5 -66q-60 0 -97 15.5t-108 65.5q-46 33 -82 33q-78 0 -78 -93v-21h-137v66q0 111 57.5 171t159.5 60q46 0 79 -13t79 -46q49 -35 73.5 -45t49.5 -10
q74 0 74 84v24z" />
    <glyph glyph-name="itilde" unicode="i&#x303;" horiz-adv-x="639" 
d="M498 0h-332v987h-125v189h457v-1176zM538 1589h137v-55q0 -104 -55.5 -170t-151.5 -66q-60 0 -97 15.5t-108 65.5q-46 33 -82 33q-78 0 -78 -93v-21h-137v66q0 111 57.5 171t159.5 60q46 0 79 -13t79 -46q49 -35 73.5 -45t49.5 -10q74 0 74 84v24z" />
    <glyph glyph-name="Utilde" unicode="U&#x303;" horiz-adv-x="1325" 
d="M1186 461q0 -236 -130.5 -356.5t-387.5 -120.5q-272 0 -400.5 117.5t-128.5 365.5v1024h338v-1047q0 -142 44.5 -204t142.5 -62t141 60t43 206v1047h338v-1030zM881 1850h137v-55q0 -104 -55.5 -170t-151.5 -66q-60 0 -97 15.5t-108 65.5q-46 33 -82 33q-78 0 -78 -93
v-21h-137v66q0 111 57.5 171t159.5 60q46 0 79 -13t79 -46q49 -35 73.5 -45t49.5 -10q74 0 74 84v24z" />
    <glyph glyph-name="utilde" unicode="u&#x303;" horiz-adv-x="1262" 
d="M879 176q-132 -192 -365 -192q-187 0 -285 99t-98 286v807h332v-781q0 -127 35 -175t106 -48q191 0 191 297v707h331v-1176h-200zM848 1589h137v-55q0 -104 -55.5 -170t-151.5 -66q-60 0 -97 15.5t-108 65.5q-46 33 -82 33q-78 0 -78 -93v-21h-137v66q0 111 57.5 171
t159.5 60q46 0 79 -13t79 -46q49 -35 73.5 -45t49.5 -10q74 0 74 84v24z" />
    <glyph glyph-name="uni1EA0" unicode="A&#x323;" horiz-adv-x="1253" 
d="M1233 0h-359l-73 309h-406l-76 -309h-305l418 1491h410zM760 506l-160 700l-164 -700h324zM597 -348q-82 0 -131 38.5t-49 108.5q0 69 47.5 108.5t132.5 39.5q80 0 130 -40t50 -108q0 -70 -48.5 -108.5t-131.5 -38.5z" />
    <glyph glyph-name="uni1EA1" unicode="a&#x323;" horiz-adv-x="1169" 
d="M840 0l-45 168q-68 -94 -152.5 -139t-206.5 -45q-173 0 -268.5 91.5t-95.5 256.5q0 200 139 290.5t498 92.5v73q0 81 -19 122t-65 67.5t-138 26.5q-119 0 -309 -58v193q221 53 402 53q226 0 342 -99t116 -292v-801h-198zM655 551q-149 0 -203.5 -59.5t-54.5 -153.5
q0 -166 135 -166q86 0 131.5 56t45.5 163v160h-54zM539 -348q-82 0 -131 38.5t-49 108.5q0 69 47.5 108.5t132.5 39.5q80 0 130 -40t50 -108q0 -70 -48.5 -108.5t-131.5 -38.5z" />
    <glyph glyph-name="uni1EA2" unicode="A&#x309;" horiz-adv-x="1253" 
d="M1233 0h-359l-73 309h-406l-76 -309h-305l418 1491h410zM760 506l-160 700l-164 -700h324zM693 1565h-129v122q108 7 108 64q0 54 -92 54q-47 0 -91 -11v132q78 14 139 14q119 0 178.5 -42.5t59.5 -126.5q0 -72 -43 -114.5t-130 -55.5v-36z" />
    <glyph glyph-name="uni1EA3" unicode="a&#x309;" horiz-adv-x="1169" 
d="M840 0l-45 168q-68 -94 -152.5 -139t-206.5 -45q-173 0 -268.5 91.5t-95.5 256.5q0 200 139 290.5t498 92.5v73q0 81 -19 122t-65 67.5t-138 26.5q-119 0 -309 -58v193q221 53 402 53q226 0 342 -99t116 -292v-801h-198zM655 551q-149 0 -203.5 -59.5t-54.5 -153.5
q0 -166 135 -166q86 0 131.5 56t45.5 163v160h-54zM624 1278h-129v122q108 7 108 64q0 54 -92 54q-47 0 -91 -11v132q78 14 139 14q119 0 178.5 -42.5t59.5 -126.5q0 -72 -43 -114.5t-130 -55.5v-36z" />
    <glyph glyph-name="uni1EA4" unicode="&#xc2;&#x301;" horiz-adv-x="1253" 
d="M1233 0h-359l-73 309h-406l-76 -309h-305l418 1491h410zM760 506l-160 700l-164 -700h324zM1236 2065l-209 -260h-191l127 260h273zM976 1545h-197l-158 186l-157 -186h-197l215 334h278zM1068 1507z" />
    <glyph glyph-name="uni1EA5" unicode="&#xe2;&#x301;" horiz-adv-x="1169" 
d="M840 0l-45 168q-68 -94 -152.5 -139t-206.5 -45q-173 0 -268.5 91.5t-95.5 256.5q0 200 139 290.5t498 92.5v73q0 81 -19 122t-65 67.5t-138 26.5q-119 0 -309 -58v193q221 53 402 53q226 0 342 -99t116 -292v-801h-198zM655 551q-149 0 -203.5 -59.5t-54.5 -153.5
q0 -166 135 -166q86 0 131.5 56t45.5 163v160h-54zM1213 1763l-209 -260h-191l127 260h273zM928 1278h-197l-158 186l-157 -186h-197l215 334h278zM827 1192z" />
    <glyph glyph-name="uni1EA6" unicode="&#xc2;&#x300;" horiz-adv-x="1253" 
d="M1233 0h-359l-73 309h-406l-76 -309h-305l418 1491h410zM760 506l-160 700l-164 -700h324zM300 2065l127 -260h-191l-209 260h273zM996 1545h-197l-158 186l-157 -186h-197l215 334h278zM1088 1507z" />
    <glyph glyph-name="uni1EA7" unicode="&#xe2;&#x300;" horiz-adv-x="1169" 
d="M840 0l-45 168q-68 -94 -152.5 -139t-206.5 -45q-173 0 -268.5 91.5t-95.5 256.5q0 200 139 290.5t498 92.5v73q0 81 -19 122t-65 67.5t-138 26.5q-119 0 -309 -58v193q221 53 402 53q226 0 342 -99t116 -292v-801h-198zM655 551q-149 0 -203.5 -59.5t-54.5 -153.5
q0 -166 135 -166q86 0 131.5 56t45.5 163v160h-54zM229 1763l127 -260h-191l-209 260h273zM950 1278h-197l-158 186l-157 -186h-197l215 334h278zM849 1192z" />
    <glyph glyph-name="uni1EA8" unicode="&#xc2;&#x309;" horiz-adv-x="1253" 
d="M1233 0h-359l-73 309h-406l-76 -309h-305l418 1491h410zM760 506l-160 700l-164 -700h324zM1006 1730h-120v114q48 3 74.5 15.5t26.5 44.5q0 51 -86 51q-49 0 -85 -11v124q71 13 129 13q112 0 168 -40t56 -119q0 -67 -40.5 -106.5t-122.5 -51.5v-34zM762 1879l216 -334
h-197l-158 186l-157 -186h-197l215 334h278zM1070 1507z" />
    <glyph glyph-name="uni1EA9" unicode="&#xe2;&#x309;" horiz-adv-x="1169" 
d="M840 0l-45 168q-68 -94 -152.5 -139t-206.5 -45q-173 0 -268.5 91.5t-95.5 256.5q0 200 139 290.5t498 92.5v73q0 81 -19 122t-65 67.5t-138 26.5q-119 0 -309 -58v193q221 53 402 53q226 0 342 -99t116 -292v-801h-198zM655 551q-149 0 -203.5 -59.5t-54.5 -153.5
q0 -166 135 -166q86 0 131.5 56t45.5 163v160h-54zM930 1499h-120v114q48 3 74.5 15.5t26.5 44.5q0 51 -86 51q-49 0 -85 -11v124q71 13 129 13q112 0 168 -40t56 -119q0 -67 -40.5 -106.5t-122.5 -51.5v-34zM712 1612l216 -334h-197l-158 186l-157 -186h-197l215 334h278z
M827 1192z" />
    <glyph glyph-name="uni1EAA" unicode="&#xc2;&#x303;" horiz-adv-x="1253" 
d="M1233 0h-359l-73 309h-406l-76 -309h-305l418 1491h410zM760 506l-160 700l-164 -700h324zM853 2081h137v-23q0 -101 -55 -161t-152 -60q-64 0 -151 41t-136 41q-33 0 -53.5 -20.5t-20.5 -45.5v-16h-137v23q0 101 55 161t152 60q65 0 152 -41t135 -41q34 0 54 20.5
t20 45.5v16zM992 1545h-197l-158 141l-157 -141h-197l215 269h278zM1084 1507z" />
    <glyph glyph-name="uni1EAB" unicode="&#xe2;&#x303;" horiz-adv-x="1169" 
d="M840 0l-45 168q-68 -94 -152.5 -139t-206.5 -45q-173 0 -268.5 91.5t-95.5 256.5q0 200 139 290.5t498 92.5v73q0 81 -19 122t-65 67.5t-138 26.5q-119 0 -309 -58v193q221 53 402 53q226 0 342 -99t116 -292v-801h-198zM655 551q-149 0 -203.5 -59.5t-54.5 -153.5
q0 -166 135 -166q86 0 131.5 56t45.5 163v160h-54zM793 1946h137v-55q0 -104 -55.5 -170t-151.5 -66q-60 0 -97 15.5t-108 65.5q-46 32 -82 32q-77 0 -77 -92v-21h-138v66q0 111 57.5 171t159.5 60q46 0 79 -13t79 -46q49 -35 73.5 -45t49.5 -10q74 0 74 84v24zM930 1278
h-197l-158 186l-157 -186h-197l215 334h278zM829 1192z" />
    <glyph glyph-name="uni1EAC" unicode="&#xc2;&#x323;" horiz-adv-x="1253" 
d="M1233 0h-359l-73 309h-406l-76 -309h-305l418 1491h410zM760 506l-160 700l-164 -700h324zM597 -348q-82 0 -131 38.5t-49 108.5q0 69 47.5 108.5t132.5 39.5q80 0 130 -40t50 -108q0 -70 -48.5 -108.5t-131.5 -38.5zM986 1559h-197l-158 186l-157 -186h-197l215 334h278
z" />
    <glyph glyph-name="uni1EAD" unicode="&#xe2;&#x323;" horiz-adv-x="1169" 
d="M840 0l-45 168q-68 -94 -152.5 -139t-206.5 -45q-173 0 -268.5 91.5t-95.5 256.5q0 200 139 290.5t498 92.5v73q0 81 -19 122t-65 67.5t-138 26.5q-119 0 -309 -58v193q221 53 402 53q226 0 342 -99t116 -292v-801h-198zM655 551q-149 0 -203.5 -59.5t-54.5 -153.5
q0 -166 135 -166q86 0 131.5 56t45.5 163v160h-54zM941 1278h-197l-158 186l-157 -186h-197l215 334h278zM539 -348q-82 0 -131 38.5t-49 108.5q0 69 47.5 108.5t132.5 39.5q80 0 130 -40t50 -108q0 -70 -48.5 -108.5t-131.5 -38.5z" />
    <glyph glyph-name="uni1EAE" unicode="&#x102;&#x301;" horiz-adv-x="1253" 
d="M1233 0h-359l-73 309h-406l-76 -309h-305l418 1491h410zM760 506l-160 700l-164 -700h324zM911 2065l-209 -260h-191l127 260h273zM995 1852q-36 -154 -127.5 -230.5t-238.5 -76.5q-145 0 -239 78t-127 229h166q15 -65 65 -97t135 -32q83 0 133 32t67 97h166zM896 1507z
" />
    <glyph glyph-name="uni1EAF" unicode="&#x103;&#x301;" horiz-adv-x="1169" 
d="M840 0l-45 168q-68 -94 -152.5 -139t-206.5 -45q-173 0 -268.5 91.5t-95.5 256.5q0 200 139 290.5t498 92.5v73q0 81 -19 122t-65 67.5t-138 26.5q-119 0 -309 -58v193q221 53 402 53q226 0 342 -99t116 -292v-801h-198zM655 551q-149 0 -203.5 -59.5t-54.5 -153.5
q0 -166 135 -166q86 0 131.5 56t45.5 163v160h-54zM862 1815l-209 -260h-191l127 260h273zM946 1606q-37 -159 -131.5 -243.5t-234.5 -84.5t-235.5 85t-130.5 243h166q9 -67 65 -108.5t135 -41.5q81 0 131 37.5t69 112.5h166zM826 1192z" />
    <glyph glyph-name="uni1EB0" unicode="&#x102;&#x300;" horiz-adv-x="1253" 
d="M1233 0h-359l-73 309h-406l-76 -309h-305l418 1491h410zM760 506l-160 700l-164 -700h324zM630 2065l127 -260h-191l-209 260h273zM1005 1852q-36 -154 -127.5 -230.5t-238.5 -76.5q-145 0 -239 78t-127 229h166q15 -65 65 -97t135 -32q83 0 133 32t67 97h166zM946 1507z
" />
    <glyph glyph-name="uni1EB1" unicode="&#x103;&#x300;" horiz-adv-x="1169" 
d="M840 0l-45 168q-68 -94 -152.5 -139t-206.5 -45q-173 0 -268.5 91.5t-95.5 256.5q0 200 139 290.5t498 92.5v73q0 81 -19 122t-65 67.5t-138 26.5q-119 0 -309 -58v193q221 53 402 53q226 0 342 -99t116 -292v-801h-198zM655 551q-149 0 -203.5 -59.5t-54.5 -153.5
q0 -166 135 -166q86 0 131.5 56t45.5 163v160h-54zM572 1815l127 -260h-191l-209 260h273zM947 1606q-37 -159 -131.5 -243.5t-234.5 -84.5t-235.5 85t-130.5 243h166q9 -67 65 -108.5t135 -41.5q81 0 131 37.5t69 112.5h166zM827 1192z" />
    <glyph glyph-name="uni1EB2" unicode="&#x102;&#x309;" horiz-adv-x="1253" 
d="M1233 0h-359l-73 309h-406l-76 -309h-305l418 1491h410zM760 506l-160 700l-164 -700h324zM664 1778h-120v98q47 3 74 14t27 38q0 44 -86 44q-55 0 -85 -9v107q67 11 129 11q112 0 168 -34.5t56 -102.5q0 -58 -40.5 -92t-122.5 -45v-29zM840 1852h166
q-36 -154 -127.5 -230.5t-238.5 -76.5q-145 0 -239 78t-127 229h166q15 -65 65 -97t135 -32q87 0 137 32t63 97zM906 1507z" />
    <glyph glyph-name="uni1EB3" unicode="&#x103;&#x309;" horiz-adv-x="1169" 
d="M840 0l-45 168q-68 -94 -152.5 -139t-206.5 -45q-173 0 -268.5 91.5t-95.5 256.5q0 200 139 290.5t498 92.5v73q0 81 -19 122t-65 67.5t-138 26.5q-119 0 -309 -58v193q221 53 402 53q226 0 342 -99t116 -292v-801h-198zM655 551q-149 0 -203.5 -59.5t-54.5 -153.5
q0 -166 135 -166q86 0 131.5 56t45.5 163v160h-54zM606 1563h-120v114q48 3 74.5 15.5t26.5 44.5q0 51 -86 51q-49 0 -85 -11v124q71 13 129 13q112 0 168 -40t56 -119q0 -67 -40.5 -106.5t-122.5 -51.5v-34zM761 1606h166q-37 -164 -123.5 -246t-222.5 -82
q-137 0 -223.5 82t-122.5 246h166q15 -70 63 -110t117 -40q70 0 118.5 41t61.5 109zM827 1192z" />
    <glyph glyph-name="uni1EB4" unicode="&#x102;&#x303;" horiz-adv-x="1253" 
d="M1233 0h-359l-73 309h-406l-76 -309h-305l418 1491h410zM760 506l-160 700l-164 -700h324zM885 2081h137v-23q0 -100 -54.5 -155.5t-152.5 -55.5q-53 0 -89.5 10t-97.5 38q-52 24 -101 24q-33 0 -53.5 -20.5t-20.5 -45.5v-6h-137v13q0 101 55 161t152 60q79 0 159 -36
q78 -36 129 -36q35 0 54.5 16.5t19.5 39.5v16zM985 1817q-30 -136 -116.5 -204t-229.5 -68t-229.5 68t-116.5 204h166q14 -47 59 -70.5t121 -23.5q88 0 127.5 23.5t52.5 70.5h166zM906 1507z" />
    <glyph glyph-name="uni1EB5" unicode="&#x103;&#x303;" horiz-adv-x="1169" 
d="M840 0l-45 168q-68 -94 -152.5 -139t-206.5 -45q-173 0 -268.5 91.5t-95.5 256.5q0 200 139 290.5t498 92.5v73q0 81 -19 122t-65 67.5t-138 26.5q-119 0 -309 -58v193q221 53 402 53q226 0 342 -99t116 -292v-801h-198zM655 551q-149 0 -203.5 -59.5t-54.5 -153.5
q0 -166 135 -166q86 0 131.5 56t45.5 163v160h-54zM821 1946h137v-55q0 -104 -55.5 -170t-151.5 -66q-60 0 -97 15.5t-108 65.5q-46 32 -82 32q-77 0 -77 -92v-21h-138v66q0 111 57.5 171t159.5 60q46 0 79 -13t79 -46q49 -35 73.5 -45t49.5 -10q74 0 74 84v24zM919 1606
q-37 -164 -123.5 -246t-222.5 -82q-137 0 -223.5 82t-122.5 246h166q15 -70 63 -110t117 -40q70 0 118.5 41t61.5 109h166zM827 1192z" />
    <glyph glyph-name="uni1EB6" unicode="&#x102;&#x323;" horiz-adv-x="1253" 
d="M1233 0h-359l-73 309h-406l-76 -309h-305l418 1491h410zM760 506l-160 700l-164 -700h324zM597 -348q-82 0 -131 38.5t-49 108.5q0 69 47.5 108.5t132.5 39.5q80 0 130 -40t50 -108q0 -70 -48.5 -108.5t-131.5 -38.5zM983 1887q-74 -328 -346 -328q-274 0 -346 328h166
q15 -70 63 -110t117 -40q70 0 118.5 41t61.5 109h166z" />
    <glyph glyph-name="uni1EB7" unicode="&#x103;&#x323;" horiz-adv-x="1169" 
d="M840 0l-45 168q-68 -94 -152.5 -139t-206.5 -45q-173 0 -268.5 91.5t-95.5 256.5q0 200 139 290.5t498 92.5v73q0 81 -19 122t-65 67.5t-138 26.5q-119 0 -309 -58v193q221 53 402 53q226 0 342 -99t116 -292v-801h-198zM655 551q-149 0 -203.5 -59.5t-54.5 -153.5
q0 -166 135 -166q86 0 131.5 56t45.5 163v160h-54zM539 -348q-82 0 -131 38.5t-49 108.5q0 69 47.5 108.5t132.5 39.5q80 0 130 -40t50 -108q0 -70 -48.5 -108.5t-131.5 -38.5zM932 1606q-74 -328 -346 -328q-274 0 -346 328h166q15 -70 63 -110t117 -40q70 0 118.5 41
t61.5 109h166z" />
    <glyph glyph-name="uni1EB8" unicode="E&#x323;" horiz-adv-x="1010" 
d="M958 0h-815v1491h807v-197h-469v-389h375v-196h-375v-512h477v-197zM536 -348q-82 0 -131 38.5t-49 108.5q0 69 47.5 108.5t132.5 39.5q80 0 130 -40t50 -108q0 -70 -48.5 -108.5t-131.5 -38.5z" />
    <glyph glyph-name="uni1EB9" unicode="e&#x323;" horiz-adv-x="1159" 
d="M1024 37q-172 -53 -371 -53q-565 0 -565 606q0 269 140 435.5t384 166.5q229 0 346 -145.5t117 -528.5h-645q0 -346 285 -346q125 0 309 51v-186zM750 682q0 192 -38.5 260t-111.5 68q-83 0 -125 -73.5t-47 -254.5h322zM629 -348q-82 0 -131 38.5t-49 108.5
q0 69 47.5 108.5t132.5 39.5q80 0 130 -40t50 -108q0 -70 -48.5 -108.5t-131.5 -38.5z" />
    <glyph glyph-name="uni1EBA" unicode="E&#x309;" horiz-adv-x="1010" 
d="M958 0h-815v1491h807v-197h-469v-389h375v-196h-375v-512h477v-197zM576 1565h-129v122q108 7 108 64q0 54 -92 54q-47 0 -91 -11v132q78 14 139 14q119 0 178.5 -42.5t59.5 -126.5q0 -72 -43 -114.5t-130 -55.5v-36z" />
    <glyph glyph-name="uni1EBB" unicode="e&#x309;" horiz-adv-x="1159" 
d="M1024 37q-172 -53 -371 -53q-565 0 -565 606q0 269 140 435.5t384 166.5q229 0 346 -145.5t117 -528.5h-645q0 -346 285 -346q125 0 309 51v-186zM750 682q0 192 -38.5 260t-111.5 68q-83 0 -125 -73.5t-47 -254.5h322zM649 1278h-129v122q108 7 108 64q0 54 -92 54
q-47 0 -91 -11v132q78 14 139 14q119 0 178.5 -42.5t59.5 -126.5q0 -72 -43 -114.5t-130 -55.5v-36z" />
    <glyph glyph-name="uni1EBC" unicode="E&#x303;" horiz-adv-x="1010" 
d="M958 0h-815v1491h807v-197h-469v-389h375v-196h-375v-512h477v-197zM770 1855h137v-55q0 -104 -55.5 -170t-151.5 -66q-60 0 -97 15.5t-108 65.5q-46 33 -82 33q-78 0 -78 -93v-21h-137v66q0 111 57.5 171t159.5 60q46 0 79 -13t79 -46q49 -35 73.5 -45t49.5 -10
q74 0 74 84v24z" />
    <glyph glyph-name="uni1EBD" unicode="e&#x303;" horiz-adv-x="1159" 
d="M1024 37q-172 -53 -371 -53q-565 0 -565 606q0 269 140 435.5t384 166.5q229 0 346 -145.5t117 -528.5h-645q0 -346 285 -346q125 0 309 51v-186zM750 682q0 192 -38.5 260t-111.5 68q-83 0 -125 -73.5t-47 -254.5h322zM815 1589h137v-55q0 -104 -55.5 -170t-151.5 -66
q-60 0 -97 15.5t-108 65.5q-46 33 -82 33q-78 0 -78 -93v-21h-137v66q0 111 57.5 171t159.5 60q46 0 79 -13t79 -46q49 -35 73.5 -45t49.5 -10q74 0 74 84v24z" />
    <glyph glyph-name="uni1EBE" unicode="&#xca;&#x301;" horiz-adv-x="1010" 
d="M958 0h-815v1491h807v-197h-469v-389h375v-196h-375v-512h477v-197zM1144 2065l-209 -260h-191l127 260h273zM884 1545h-197l-158 186l-157 -186h-197l215 334h278zM976 1507z" />
    <glyph glyph-name="uni1EBF" unicode="&#xea;&#x301;" horiz-adv-x="1159" 
d="M1024 37q-172 -53 -371 -53q-565 0 -565 606q0 269 140 435.5t384 166.5q229 0 346 -145.5t117 -528.5h-645q0 -346 285 -346q125 0 309 51v-186zM750 682q0 192 -38.5 260t-111.5 68q-83 0 -125 -73.5t-47 -254.5h322zM1195 1763l-209 -260h-191l127 260h273zM910 1278
h-197l-158 186l-157 -186h-197l215 334h278zM809 1192z" />
    <glyph glyph-name="uni1EC0" unicode="&#xca;&#x300;" horiz-adv-x="1010" 
d="M958 0h-815v1491h807v-197h-469v-389h375v-196h-375v-512h477v-197zM208 2065l127 -260h-191l-209 260h273zM904 1545h-197l-158 186l-157 -186h-197l215 334h278zM996 1507z" />
    <glyph glyph-name="uni1EC1" unicode="&#xea;&#x300;" horiz-adv-x="1159" 
d="M1024 37q-172 -53 -371 -53q-565 0 -565 606q0 269 140 435.5t384 166.5q229 0 346 -145.5t117 -528.5h-645q0 -346 285 -346q125 0 309 51v-186zM750 682q0 192 -38.5 260t-111.5 68q-83 0 -125 -73.5t-47 -254.5h322zM239 1763l127 -260h-191l-209 260h273zM960 1278
h-197l-158 186l-157 -186h-197l215 334h278zM859 1192z" />
    <glyph glyph-name="uni1EC2" unicode="&#xca;&#x309;" horiz-adv-x="1010" 
d="M958 0h-815v1491h807v-197h-469v-389h375v-196h-375v-512h477v-197zM912 1730h-120v114q48 3 74.5 15.5t26.5 44.5q0 51 -86 51q-49 0 -85 -11v124q71 13 129 13q112 0 168 -40t56 -119q0 -67 -40.5 -106.5t-122.5 -51.5v-34zM668 1879l216 -334h-197l-158 186l-157 -186
h-197l215 334h278zM976 1507z" />
    <glyph glyph-name="uni1EC3" unicode="&#xea;&#x309;" horiz-adv-x="1159" 
d="M1024 37q-172 -53 -371 -53q-565 0 -565 606q0 269 140 435.5t384 166.5q229 0 346 -145.5t117 -528.5h-645q0 -346 285 -346q125 0 309 51v-186zM750 682q0 192 -38.5 260t-111.5 68q-83 0 -125 -73.5t-47 -254.5h322zM918 1499h-120v114q48 3 74.5 15.5t26.5 44.5
q0 51 -86 51q-49 0 -85 -11v124q71 13 129 13q112 0 168 -40t56 -119q0 -67 -40.5 -106.5t-122.5 -51.5v-34zM700 1612l216 -334h-197l-158 186l-157 -186h-197l215 334h278zM815 1192z" />
    <glyph glyph-name="uni1EC4" unicode="&#xca;&#x303;" horiz-adv-x="1010" 
d="M958 0h-815v1491h807v-197h-469v-389h375v-196h-375v-512h477v-197zM759 2081h137v-23q0 -101 -55 -161t-152 -60q-64 0 -151 41t-136 41q-33 0 -53.5 -20.5t-20.5 -45.5v-16h-137v23q0 101 55 161t152 60q65 0 152 -41t135 -41q34 0 54 20.5t20 45.5v16zM898 1545h-197
l-158 141l-157 -141h-197l215 269h278zM990 1507z" />
    <glyph glyph-name="uni1EC5" unicode="&#xea;&#x303;" horiz-adv-x="1159" 
d="M1024 37q-172 -53 -371 -53q-565 0 -565 606q0 269 140 435.5t384 166.5q229 0 346 -145.5t117 -528.5h-645q0 -346 285 -346q125 0 309 51v-186zM750 682q0 192 -38.5 260t-111.5 68q-83 0 -125 -73.5t-47 -254.5h322zM799 1946h137v-55q0 -104 -55.5 -170t-151.5 -66
q-60 0 -97 15.5t-108 65.5q-46 32 -82 32q-77 0 -77 -92v-21h-138v66q0 111 57.5 171t159.5 60q46 0 79 -13t79 -46q49 -35 73.5 -45t49.5 -10q74 0 74 84v24zM936 1278h-197l-158 186l-157 -186h-197l215 334h278zM835 1192z" />
    <glyph glyph-name="uni1EC6" unicode="&#xca;&#x323;" horiz-adv-x="1010" 
d="M958 0h-815v1491h807v-197h-469v-389h375v-196h-375v-512h477v-197zM536 -348q-82 0 -131 38.5t-49 108.5q0 69 47.5 108.5t132.5 39.5q80 0 130 -40t50 -108q0 -70 -48.5 -108.5t-131.5 -38.5zM891 1559h-197l-158 186l-157 -186h-197l215 334h278z" />
    <glyph glyph-name="uni1EC7" unicode="&#xea;&#x323;" horiz-adv-x="1159" 
d="M1024 37q-172 -53 -371 -53q-565 0 -565 606q0 269 140 435.5t384 166.5q229 0 346 -145.5t117 -528.5h-645q0 -346 285 -346q125 0 309 51v-186zM750 682q0 192 -38.5 260t-111.5 68q-83 0 -125 -73.5t-47 -254.5h322zM629 -348q-82 0 -131 38.5t-49 108.5
q0 69 47.5 108.5t132.5 39.5q80 0 130 -40t50 -108q0 -70 -48.5 -108.5t-131.5 -38.5zM934 1278h-197l-158 186l-157 -186h-197l215 334h278z" />
    <glyph glyph-name="uni1EC8" unicode="I&#x309;" horiz-adv-x="727" 
d="M655 0h-583v197h123v1097h-123v197h583v-197h-123v-1097h123v-197zM403 1565h-129v122q108 7 108 64q0 54 -92 54q-47 0 -91 -11v132q78 14 139 14q119 0 178.5 -42.5t59.5 -126.5q0 -72 -43 -114.5t-130 -55.5v-36z" />
    <glyph glyph-name="uni1EC9" unicode="i&#x309;" horiz-adv-x="639" 
d="M498 0h-332v987h-125v189h457v-1176zM341 1278h-129v122q108 7 108 64q0 54 -92 54q-47 0 -91 -11v132q78 14 139 14q119 0 178.5 -42.5t59.5 -126.5q0 -72 -43 -114.5t-130 -55.5v-36z" />
    <glyph glyph-name="uni1ECA" unicode="I&#x323;" horiz-adv-x="727" 
d="M655 0h-583v197h123v1097h-123v197h583v-197h-123v-1097h123v-197zM364 -348q-82 0 -131 38.5t-49 108.5q0 69 47.5 108.5t132.5 39.5q80 0 130 -40t50 -108q0 -70 -48.5 -108.5t-131.5 -38.5z" />
    <glyph glyph-name="uni1ECB" unicode="i&#x323;" horiz-adv-x="639" 
d="M332 1298q-81 0 -130.5 40.5t-49.5 111.5t48.5 111.5t131.5 40.5q78 0 129 -41.5t51 -110.5q0 -71 -49.5 -111.5t-130.5 -40.5zM498 0h-332v987h-125v189h457v-1176zM331 -348q-82 0 -131 38.5t-49 108.5q0 69 47.5 108.5t132.5 39.5q80 0 130 -40t50 -108
q0 -70 -48.5 -108.5t-131.5 -38.5z" />
    <glyph glyph-name="uni1ECC" unicode="O&#x323;" horiz-adv-x="1341" 
d="M672 -16q-287 0 -432.5 191t-145.5 591q0 741 578 741q575 0 575 -741q0 -402 -144 -592t-431 -190zM672 1311q-113 0 -170.5 -109t-57.5 -436q0 -320 56.5 -453t171.5 -133q111 0 168 118t57 468q0 315 -57 430t-168 115zM669 -348q-82 0 -131 38.5t-49 108.5
q0 69 47.5 108.5t132.5 39.5q80 0 130 -40t50 -108q0 -70 -48.5 -108.5t-131.5 -38.5z" />
    <glyph glyph-name="uni1ECD" unicode="o&#x323;" horiz-adv-x="1251" 
d="M625 -16q-265 0 -401 158.5t-136 463.5q0 272 144 429t397 157q258 0 396 -156.5t138 -437.5q0 -294 -139 -454t-399 -160zM625 1004q-97 0 -147 -85t-50 -307q0 -254 51 -347t146 -93q96 0 147 87.5t51 352.5q0 392 -198 392zM626 -348q-82 0 -131 38.5t-49 108.5
q0 69 47.5 108.5t132.5 39.5q80 0 130 -40t50 -108q0 -70 -48.5 -108.5t-131.5 -38.5z" />
    <glyph glyph-name="uni1ECE" unicode="O&#x309;" horiz-adv-x="1341" 
d="M672 -16q-287 0 -432.5 191t-145.5 591q0 741 578 741q575 0 575 -741q0 -402 -144 -592t-431 -190zM672 1311q-113 0 -170.5 -109t-57.5 -436q0 -320 56.5 -453t171.5 -133q111 0 168 118t57 468q0 315 -57 430t-168 115zM726 1565h-129v122q108 7 108 64q0 54 -92 54
q-47 0 -91 -11v132q78 14 139 14q119 0 178.5 -42.5t59.5 -126.5q0 -72 -43 -114.5t-130 -55.5v-36z" />
    <glyph glyph-name="uni1ECF" unicode="o&#x309;" horiz-adv-x="1251" 
d="M625 -16q-265 0 -401 158.5t-136 463.5q0 272 144 429t397 157q258 0 396 -156.5t138 -437.5q0 -294 -139 -454t-399 -160zM625 1004q-97 0 -147 -85t-50 -307q0 -254 51 -347t146 -93q96 0 147 87.5t51 352.5q0 392 -198 392zM661 1278h-129v122q108 7 108 64
q0 54 -92 54q-47 0 -91 -11v132q78 14 139 14q119 0 178.5 -42.5t59.5 -126.5q0 -72 -43 -114.5t-130 -55.5v-36z" />
    <glyph glyph-name="uni1ED0" unicode="&#xd4;&#x301;" horiz-adv-x="1341" 
d="M672 -16q-287 0 -432.5 191t-145.5 591q0 741 578 741q575 0 575 -741q0 -402 -144 -592t-431 -190zM672 1311q-113 0 -170.5 -109t-57.5 -436q0 -320 56.5 -453t171.5 -133q111 0 168 118t57 468q0 315 -57 430t-168 115zM1278 2065l-209 -260h-191l127 260h273z
M1018 1545h-197l-158 186l-157 -186h-197l215 334h278zM1110 1507z" />
    <glyph glyph-name="uni1ED1" unicode="&#xf4;&#x301;" horiz-adv-x="1251" 
d="M625 -16q-265 0 -401 158.5t-136 463.5q0 272 144 429t397 157q258 0 396 -156.5t138 -437.5q0 -294 -139 -454t-399 -160zM625 1004q-97 0 -147 -85t-50 -307q0 -254 51 -347t146 -93q96 0 147 87.5t51 352.5q0 392 -198 392zM1245 1763l-209 -260h-191l127 260h273z
M960 1278h-197l-158 186l-157 -186h-197l215 334h278zM859 1192z" />
    <glyph glyph-name="uni1ED2" unicode="&#xd4;&#x300;" horiz-adv-x="1341" 
d="M672 -16q-287 0 -432.5 191t-145.5 591q0 741 578 741q575 0 575 -741q0 -402 -144 -592t-431 -190zM672 1311q-113 0 -170.5 -109t-57.5 -436q0 -320 56.5 -453t171.5 -133q111 0 168 118t57 468q0 315 -57 430t-168 115zM336 2065l127 -260h-191l-209 260h273z
M1032 1545h-197l-158 186l-157 -186h-197l215 334h278zM1124 1507z" />
    <glyph glyph-name="uni1ED3" unicode="&#xf4;&#x300;" horiz-adv-x="1251" 
d="M625 -16q-265 0 -401 158.5t-136 463.5q0 272 144 429t397 157q258 0 396 -156.5t138 -437.5q0 -294 -139 -454t-399 -160zM625 1004q-97 0 -147 -85t-50 -307q0 -254 51 -347t146 -93q96 0 147 87.5t51 352.5q0 392 -198 392zM281 1763l127 -260h-191l-209 260h273z
M1002 1278h-197l-158 186l-157 -186h-197l215 334h278zM901 1192z" />
    <glyph glyph-name="uni1ED4" unicode="&#xd4;&#x309;" horiz-adv-x="1341" 
d="M672 -16q-287 0 -432.5 191t-145.5 591q0 741 578 741q575 0 575 -741q0 -402 -144 -592t-431 -190zM672 1311q-113 0 -170.5 -109t-57.5 -436q0 -320 56.5 -453t171.5 -133q111 0 168 118t57 468q0 315 -57 430t-168 115zM1040 1730h-120v114q48 3 74.5 15.5t26.5 44.5
q0 51 -86 51q-49 0 -85 -11v124q71 13 129 13q112 0 168 -40t56 -119q0 -67 -40.5 -106.5t-122.5 -51.5v-34zM796 1879l216 -334h-197l-158 186l-157 -186h-197l215 334h278zM1104 1507z" />
    <glyph glyph-name="uni1ED5" unicode="&#xf4;&#x309;" horiz-adv-x="1251" 
d="M625 -16q-265 0 -401 158.5t-136 463.5q0 272 144 429t397 157q258 0 396 -156.5t138 -437.5q0 -294 -139 -454t-399 -160zM625 1004q-97 0 -147 -85t-50 -307q0 -254 51 -347t146 -93q96 0 147 87.5t51 352.5q0 392 -198 392zM964 1499h-120v114q48 3 74.5 15.5
t26.5 44.5q0 51 -86 51q-49 0 -85 -11v124q71 13 129 13q112 0 168 -40t56 -119q0 -67 -40.5 -106.5t-122.5 -51.5v-34zM746 1612l216 -334h-197l-158 186l-157 -186h-197l215 334h278zM861 1192z" />
    <glyph glyph-name="uni1ED6" unicode="&#xd4;&#x303;" horiz-adv-x="1341" 
d="M672 -16q-287 0 -432.5 191t-145.5 591q0 741 578 741q575 0 575 -741q0 -402 -144 -592t-431 -190zM672 1311q-113 0 -170.5 -109t-57.5 -436q0 -320 56.5 -453t171.5 -133q111 0 168 118t57 468q0 315 -57 430t-168 115zM887 2081h137v-23q0 -101 -55 -161t-152 -60
q-64 0 -151 41t-136 41q-33 0 -53.5 -20.5t-20.5 -45.5v-16h-137v23q0 101 55 161t152 60q65 0 152 -41t135 -41q34 0 54 20.5t20 45.5v16zM1026 1545h-197l-158 141l-157 -141h-197l215 269h278zM1118 1507z" />
    <glyph glyph-name="uni1ED7" unicode="&#xf4;&#x303;" horiz-adv-x="1251" 
d="M625 -16q-265 0 -401 158.5t-136 463.5q0 272 144 429t397 157q258 0 396 -156.5t138 -437.5q0 -294 -139 -454t-399 -160zM625 1004q-97 0 -147 -85t-50 -307q0 -254 51 -347t146 -93q96 0 147 87.5t51 352.5q0 392 -198 392zM844 1946h137v-55q0 -104 -55.5 -170
t-151.5 -66q-60 0 -97 15.5t-108 65.5q-46 32 -82 32q-77 0 -77 -92v-21h-138v66q0 111 57.5 171t159.5 60q46 0 79 -13t79 -46q49 -35 73.5 -45t49.5 -10q74 0 74 84v24zM981 1278h-197l-158 186l-157 -186h-197l215 334h278zM880 1192z" />
    <glyph glyph-name="uni1ED8" unicode="&#xd4;&#x323;" horiz-adv-x="1341" 
d="M672 -16q-287 0 -432.5 191t-145.5 591q0 741 578 741q575 0 575 -741q0 -402 -144 -592t-431 -190zM672 1311q-113 0 -170.5 -109t-57.5 -436q0 -320 56.5 -453t171.5 -133q111 0 168 118t57 468q0 315 -57 430t-168 115zM669 -348q-82 0 -131 38.5t-49 108.5
q0 69 47.5 108.5t132.5 39.5q80 0 130 -40t50 -108q0 -70 -48.5 -108.5t-131.5 -38.5zM1024 1559h-197l-158 186l-157 -186h-197l215 334h278z" />
    <glyph glyph-name="uni1ED9" unicode="&#xf4;&#x323;" horiz-adv-x="1251" 
d="M625 -16q-265 0 -401 158.5t-136 463.5q0 272 144 429t397 157q258 0 396 -156.5t138 -437.5q0 -294 -139 -454t-399 -160zM625 1004q-97 0 -147 -85t-50 -307q0 -254 51 -347t146 -93q96 0 147 87.5t51 352.5q0 392 -198 392zM626 -348q-82 0 -131 38.5t-49 108.5
q0 69 47.5 108.5t132.5 39.5q80 0 130 -40t50 -108q0 -70 -48.5 -108.5t-131.5 -38.5zM981 1278h-197l-158 186l-157 -186h-197l215 334h278z" />
    <glyph glyph-name="uni1EDA" unicode="&#x1a0;&#x301;" horiz-adv-x="1397" 
d="M1091 1338q38 11 57 49.5t19 104.5v91h205v-82q0 -125 -49 -201t-147 -103q35 -84 53 -191.5t18 -239.5q0 -402 -144 -592t-431 -190t-432.5 191t-145.5 591q0 370 144.5 555.5t433.5 185.5q274 0 419 -169zM672 1311q-113 0 -170.5 -109t-57.5 -436q0 -320 56.5 -453
t171.5 -133q110 0 167.5 117.5t57.5 468.5q0 315 -57 430t-168 115zM989 1899l-266 -340h-221l204 340h283z" />
    <glyph glyph-name="uni1EDB" unicode="&#x1a1;&#x301;" horiz-adv-x="1367" 
d="M1043 1014q47 3 70.5 42.5t23.5 114.5v91h205v-82q0 -134 -55.5 -211.5t-166.5 -97.5q43 -118 43 -273q0 -294 -139 -454t-399 -160q-265 0 -401 158.5t-136 463.5q0 272 144 429t397 157q272 0 414 -178zM625 1004q-97 0 -147 -85t-50 -307q0 -254 51 -347t146 -93
q96 0 147 87.5t51 352.5q0 196 -49.5 294t-148.5 98zM946 1618l-266 -340h-221l204 340h283z" />
    <glyph glyph-name="uni1EDC" unicode="&#x1a0;&#x300;" horiz-adv-x="1397" 
d="M1091 1338q38 11 57 49.5t19 104.5v91h205v-82q0 -125 -49 -201t-147 -103q35 -84 53 -191.5t18 -239.5q0 -402 -144 -592t-431 -190t-432.5 191t-145.5 591q0 370 144.5 555.5t433.5 185.5q274 0 419 -169zM672 1311q-113 0 -170.5 -109t-57.5 -436q0 -320 56.5 -453
t171.5 -133q110 0 167.5 117.5t57.5 468.5q0 315 -57 430t-168 115zM840 1559h-224l-264 340h283z" />
    <glyph glyph-name="uni1EDD" unicode="&#x1a1;&#x300;" horiz-adv-x="1367" 
d="M1043 1014q47 3 70.5 42.5t23.5 114.5v91h205v-82q0 -134 -55.5 -211.5t-166.5 -97.5q43 -118 43 -273q0 -294 -139 -454t-399 -160q-265 0 -401 158.5t-136 463.5q0 272 144 429t397 157q272 0 414 -178zM625 1004q-97 0 -147 -85t-50 -307q0 -254 51 -347t146 -93
q96 0 147 87.5t51 352.5q0 196 -49.5 294t-148.5 98zM795 1278h-224l-264 340h283z" />
    <glyph glyph-name="uni1EDE" unicode="&#x1a0;&#x309;" horiz-adv-x="1397" 
d="M1091 1338q38 11 57 49.5t19 104.5v91h205v-82q0 -125 -49 -201t-147 -103q35 -84 53 -191.5t18 -239.5q0 -402 -144 -592t-431 -190t-432.5 191t-145.5 591q0 370 144.5 555.5t433.5 185.5q274 0 419 -169zM672 1311q-113 0 -170.5 -109t-57.5 -436q0 -320 56.5 -453
t171.5 -133q110 0 167.5 117.5t57.5 468.5q0 315 -57 430t-168 115zM726 1565h-129v122q108 7 108 64q0 54 -92 54q-47 0 -91 -11v132q78 14 139 14q119 0 178.5 -42.5t59.5 -126.5q0 -72 -43 -114.5t-130 -55.5v-36z" />
    <glyph glyph-name="uni1EDF" unicode="&#x1a1;&#x309;" horiz-adv-x="1367" 
d="M1043 1014q47 3 70.5 42.5t23.5 114.5v91h205v-82q0 -134 -55.5 -211.5t-166.5 -97.5q43 -118 43 -273q0 -294 -139 -454t-399 -160q-265 0 -401 158.5t-136 463.5q0 272 144 429t397 157q272 0 414 -178zM625 1004q-97 0 -147 -85t-50 -307q0 -254 51 -347t146 -93
q96 0 147 87.5t51 352.5q0 196 -49.5 294t-148.5 98zM661 1278h-129v122q108 7 108 64q0 54 -92 54q-47 0 -91 -11v132q78 14 139 14q119 0 178.5 -42.5t59.5 -126.5q0 -72 -43 -114.5t-130 -55.5v-36z" />
    <glyph glyph-name="uni1EE0" unicode="&#x1a0;&#x303;" horiz-adv-x="1397" 
d="M1091 1338q38 11 57 49.5t19 104.5v91h205v-82q0 -125 -49 -201t-147 -103q35 -84 53 -191.5t18 -239.5q0 -402 -144 -592t-431 -190t-432.5 191t-145.5 591q0 370 144.5 555.5t433.5 185.5q274 0 419 -169zM672 1311q-113 0 -170.5 -109t-57.5 -436q0 -320 56.5 -453
t171.5 -133q110 0 167.5 117.5t57.5 468.5q0 315 -57 430t-168 115zM887 1849h137v-55q0 -104 -55.5 -170t-151.5 -66q-60 0 -97 15.5t-108 65.5q-46 33 -82 33q-78 0 -78 -93v-21h-137v66q0 111 57.5 171t159.5 60q46 0 79 -13t79 -46q49 -35 73.5 -45t49.5 -10q74 0 74 84
v24z" />
    <glyph glyph-name="uni1EE1" unicode="&#x1a1;&#x303;" horiz-adv-x="1367" 
d="M1043 1014q47 3 70.5 42.5t23.5 114.5v91h205v-82q0 -134 -55.5 -211.5t-166.5 -97.5q43 -118 43 -273q0 -294 -139 -454t-399 -160q-265 0 -401 158.5t-136 463.5q0 272 144 429t397 157q272 0 414 -178zM625 1004q-97 0 -147 -85t-50 -307q0 -254 51 -347t146 -93
q96 0 147 87.5t51 352.5q0 196 -49.5 294t-148.5 98zM844 1589h137v-55q0 -104 -55.5 -170t-151.5 -66q-60 0 -97 15.5t-108 65.5q-46 33 -82 33q-78 0 -78 -93v-21h-137v66q0 111 57.5 171t159.5 60q46 0 79 -13t79 -46q49 -35 73.5 -45t49.5 -10q74 0 74 84v24z" />
    <glyph glyph-name="uni1EE2" unicode="&#x1a0;&#x323;" horiz-adv-x="1397" 
d="M1091 1338q38 11 57 49.5t19 104.5v91h205v-82q0 -125 -49 -201t-147 -103q35 -84 53 -191.5t18 -239.5q0 -402 -144 -592t-431 -190t-432.5 191t-145.5 591q0 370 144.5 555.5t433.5 185.5q274 0 419 -169zM672 1311q-113 0 -170.5 -109t-57.5 -436q0 -320 56.5 -453
t171.5 -133q110 0 167.5 117.5t57.5 468.5q0 315 -57 430t-168 115zM669 -348q-82 0 -131 38.5t-49 108.5q0 69 47.5 108.5t132.5 39.5q80 0 130 -40t50 -108q0 -70 -48.5 -108.5t-131.5 -38.5z" />
    <glyph glyph-name="uni1EE3" unicode="&#x1a1;&#x323;" horiz-adv-x="1367" 
d="M1043 1014q47 3 70.5 42.5t23.5 114.5v91h205v-82q0 -134 -55.5 -211.5t-166.5 -97.5q43 -118 43 -273q0 -294 -139 -454t-399 -160q-265 0 -401 158.5t-136 463.5q0 272 144 429t397 157q272 0 414 -178zM625 1004q-97 0 -147 -85t-50 -307q0 -254 51 -347t146 -93
q96 0 147 87.5t51 352.5q0 196 -49.5 294t-148.5 98zM626 -348q-82 0 -131 38.5t-49 108.5q0 69 47.5 108.5t132.5 39.5q80 0 130 -40t50 -108q0 -70 -48.5 -108.5t-131.5 -38.5z" />
    <glyph glyph-name="uni1EE4" unicode="U&#x323;" horiz-adv-x="1325" 
d="M1186 461q0 -236 -130.5 -356.5t-387.5 -120.5q-272 0 -400.5 117.5t-128.5 365.5v1024h338v-1047q0 -142 44.5 -204t142.5 -62t141 60t43 206v1047h338v-1030zM662 -348q-82 0 -131 38.5t-49 108.5q0 69 47.5 108.5t132.5 39.5q80 0 130 -40t50 -108q0 -70 -48.5 -108.5
t-131.5 -38.5z" />
    <glyph glyph-name="uni1EE5" unicode="u&#x323;" horiz-adv-x="1262" 
d="M879 176q-132 -192 -365 -192q-187 0 -285 99t-98 286v807h332v-781q0 -127 35 -175t106 -48q191 0 191 297v707h331v-1176h-200zM633 -348q-82 0 -131 38.5t-49 108.5q0 69 47.5 108.5t132.5 39.5q80 0 130 -40t50 -108q0 -70 -48.5 -108.5t-131.5 -38.5z" />
    <glyph glyph-name="uni1EE6" unicode="U&#x309;" horiz-adv-x="1325" 
d="M1186 461q0 -236 -130.5 -356.5t-387.5 -120.5q-272 0 -400.5 117.5t-128.5 365.5v1024h338v-1047q0 -142 44.5 -204t142.5 -62t141 60t43 206v1047h338v-1030zM700 1565h-129v122q108 7 108 64q0 54 -92 54q-47 0 -91 -11v132q78 14 139 14q119 0 178.5 -42.5
t59.5 -126.5q0 -72 -43 -114.5t-130 -55.5v-36z" />
    <glyph glyph-name="uni1EE7" unicode="u&#x309;" horiz-adv-x="1262" 
d="M879 176q-132 -192 -365 -192q-187 0 -285 99t-98 286v807h332v-781q0 -127 35 -175t106 -48q191 0 191 297v707h331v-1176h-200zM665 1278h-129v122q108 7 108 64q0 54 -92 54q-47 0 -91 -11v132q78 14 139 14q119 0 178.5 -42.5t59.5 -126.5q0 -72 -43 -114.5
t-130 -55.5v-36z" />
    <glyph glyph-name="uni1EE8" unicode="&#x1af;&#x301;" horiz-adv-x="1513" 
d="M1186 1335q48 2 72.5 41t24.5 116v91h205v-82q0 -155 -76.5 -235.5t-225.5 -80.5v-724q0 -236 -130.5 -356.5t-387.5 -120.5q-272 0 -400.5 117.5t-128.5 365.5v1024h338v-1047q0 -142 44.5 -204t142.5 -62t141 60t43 206v1047h338v-156zM981 1899l-266 -340h-221
l204 340h283z" />
    <glyph glyph-name="uni1EE9" unicode="&#x1b0;&#x301;" horiz-adv-x="1455" 
d="M1126 0h-200l-47 176q-66 -96 -157.5 -144t-207.5 -48q-187 0 -285 99t-98 286v807h332v-781q0 -127 35 -175t106 -48q95 0 143 74t48 223v707h331v-161q47 0 73 40.5t26 116.5v91h205v-82q0 -155 -76.5 -235.5t-224.5 -80.5h-3v-865zM950 1618l-266 -340h-221l204 340
h283z" />
    <glyph glyph-name="uni1EEA" unicode="&#x1af;&#x300;" horiz-adv-x="1513" 
d="M1186 1335q48 2 72.5 41t24.5 116v91h205v-82q0 -155 -76.5 -235.5t-225.5 -80.5v-724q0 -236 -130.5 -356.5t-387.5 -120.5q-272 0 -400.5 117.5t-128.5 365.5v1024h338v-1047q0 -142 44.5 -204t142.5 -62t141 60t43 206v1047h338v-156zM832 1559h-224l-264 340h283z
" />
    <glyph glyph-name="uni1EEB" unicode="&#x1b0;&#x300;" horiz-adv-x="1455" 
d="M1126 0h-200l-47 176q-66 -96 -157.5 -144t-207.5 -48q-187 0 -285 99t-98 286v807h332v-781q0 -127 35 -175t106 -48q95 0 143 74t48 223v707h331v-161q47 0 73 40.5t26 116.5v91h205v-82q0 -155 -76.5 -235.5t-224.5 -80.5h-3v-865zM799 1278h-224l-264 340h283z" />
    <glyph glyph-name="uni1EEC" unicode="&#x1af;&#x309;" horiz-adv-x="1513" 
d="M1186 1335q48 2 72.5 41t24.5 116v91h205v-82q0 -155 -76.5 -235.5t-225.5 -80.5v-724q0 -236 -130.5 -356.5t-387.5 -120.5q-272 0 -400.5 117.5t-128.5 365.5v1024h338v-1047q0 -142 44.5 -204t142.5 -62t141 60t43 206v1047h338v-156zM700 1565h-129v122q108 7 108 64
q0 54 -92 54q-47 0 -91 -11v132q78 14 139 14q119 0 178.5 -42.5t59.5 -126.5q0 -72 -43 -114.5t-130 -55.5v-36z" />
    <glyph glyph-name="uni1EED" unicode="&#x1b0;&#x309;" horiz-adv-x="1455" 
d="M1126 0h-200l-47 176q-66 -96 -157.5 -144t-207.5 -48q-187 0 -285 99t-98 286v807h332v-781q0 -127 35 -175t106 -48q95 0 143 74t48 223v707h331v-161q47 0 73 40.5t26 116.5v91h205v-82q0 -155 -76.5 -235.5t-224.5 -80.5h-3v-865zM654 1278h-129v122q108 7 108 64
q0 54 -92 54q-47 0 -91 -11v132q78 14 139 14q119 0 178.5 -42.5t59.5 -126.5q0 -72 -43 -114.5t-130 -55.5v-36z" />
    <glyph glyph-name="uni1EEE" unicode="&#x1af;&#x303;" horiz-adv-x="1513" 
d="M1186 1335q48 2 72.5 41t24.5 116v91h205v-82q0 -155 -76.5 -235.5t-225.5 -80.5v-724q0 -236 -130.5 -356.5t-387.5 -120.5q-272 0 -400.5 117.5t-128.5 365.5v1024h338v-1047q0 -142 44.5 -204t142.5 -62t141 60t43 206v1047h338v-156zM881 1850h137v-55
q0 -104 -55.5 -170t-151.5 -66q-60 0 -97 15.5t-108 65.5q-46 33 -82 33q-78 0 -78 -93v-21h-137v66q0 111 57.5 171t159.5 60q46 0 79 -13t79 -46q49 -35 73.5 -45t49.5 -10q74 0 74 84v24z" />
    <glyph glyph-name="uni1EEF" unicode="&#x1b0;&#x303;" horiz-adv-x="1455" 
d="M1126 0h-200l-47 176q-66 -96 -157.5 -144t-207.5 -48q-187 0 -285 99t-98 286v807h332v-781q0 -127 35 -175t106 -48q95 0 143 74t48 223v707h331v-161q47 0 73 40.5t26 116.5v91h205v-82q0 -155 -76.5 -235.5t-224.5 -80.5h-3v-865zM848 1589h137v-55
q0 -104 -55.5 -170t-151.5 -66q-60 0 -97 15.5t-108 65.5q-46 33 -82 33q-78 0 -78 -93v-21h-137v66q0 111 57.5 171t159.5 60q46 0 79 -13t79 -46q49 -35 73.5 -45t49.5 -10q74 0 74 84v24z" />
    <glyph glyph-name="uni1EF0" unicode="&#x1af;&#x323;" horiz-adv-x="1513" 
d="M1186 1335q48 2 72.5 41t24.5 116v91h205v-82q0 -155 -76.5 -235.5t-225.5 -80.5v-724q0 -236 -130.5 -356.5t-387.5 -120.5q-272 0 -400.5 117.5t-128.5 365.5v1024h338v-1047q0 -142 44.5 -204t142.5 -62t141 60t43 206v1047h338v-156zM662 -348q-82 0 -131 38.5
t-49 108.5q0 69 47.5 108.5t132.5 39.5q80 0 130 -40t50 -108q0 -70 -48.5 -108.5t-131.5 -38.5z" />
    <glyph glyph-name="uni1EF1" unicode="&#x1b0;&#x323;" horiz-adv-x="1455" 
d="M1126 0h-200l-47 176q-66 -96 -157.5 -144t-207.5 -48q-187 0 -285 99t-98 286v807h332v-781q0 -127 35 -175t106 -48q95 0 143 74t48 223v707h331v-161q47 0 73 40.5t26 116.5v91h205v-82q0 -155 -76.5 -235.5t-224.5 -80.5h-3v-865zM633 -348q-82 0 -131 38.5
t-49 108.5q0 69 47.5 108.5t132.5 39.5q80 0 130 -40t50 -108q0 -70 -48.5 -108.5t-131.5 -38.5z" />
    <glyph glyph-name="Ygrave" unicode="Y&#x300;" horiz-adv-x="1128" 
d="M1114 1491l-389 -977v-514h-336v514l-373 977h351l221 -678l235 678h291zM747 1558h-224l-264 340h283z" />
    <glyph glyph-name="ygrave" unicode="y&#x300;" horiz-adv-x="1098" 
d="M1081 1176l-340 -1178q-50 -175 -150 -256.5t-263 -81.5q-109 0 -222 25v186q94 -23 181 -23q84 0 128 39t85 160h-168l-314 1129h344l209 -861l222 861h288zM727 1278h-224l-264 340h283z" />
    <glyph glyph-name="uni1EF4" unicode="Y&#x323;" horiz-adv-x="1128" 
d="M1114 1491l-389 -977v-514h-336v514l-373 977h351l221 -678l235 678h291zM557 -348q-82 0 -131 38.5t-49 108.5q0 69 47.5 108.5t132.5 39.5q80 0 130 -40t50 -108q0 -70 -48.5 -108.5t-131.5 -38.5z" />
    <glyph glyph-name="uni1EF5" unicode="y&#x323;" horiz-adv-x="1098" 
d="M1081 1176l-340 -1178q-50 -175 -150 -256.5t-263 -81.5q-109 0 -222 25v186q94 -23 181 -23q84 0 128 39t85 160h-168l-314 1129h344l209 -861l222 861h288zM916 -348q-82 0 -131 38.5t-49 108.5q0 69 47.5 108.5t132.5 39.5q80 0 130 -40t50 -108q0 -70 -48.5 -108.5
t-131.5 -38.5z" />
    <glyph glyph-name="uni1EF6" unicode="Y&#x309;" horiz-adv-x="1128" 
d="M1114 1491l-389 -977v-514h-336v514l-373 977h351l221 -678l235 678h291zM622 1565h-129v122q108 7 108 64q0 54 -92 54q-47 0 -91 -11v132q78 14 139 14q119 0 178.5 -42.5t59.5 -126.5q0 -72 -43 -114.5t-130 -55.5v-36z" />
    <glyph glyph-name="uni1EF7" unicode="y&#x309;" horiz-adv-x="1098" 
d="M1081 1176l-340 -1178q-50 -175 -150 -256.5t-263 -81.5q-109 0 -222 25v186q94 -23 181 -23q84 0 128 39t85 160h-168l-314 1129h344l209 -861l222 861h288zM625 1278h-129v122q108 7 108 64q0 54 -92 54q-47 0 -91 -11v132q78 14 139 14q119 0 178.5 -42.5t59.5 -126.5
q0 -72 -43 -114.5t-130 -55.5v-36z" />
    <glyph glyph-name="uni1EF8" unicode="Y&#x303;" horiz-adv-x="1128" 
d="M1114 1491l-389 -977v-514h-336v514l-373 977h351l221 -678l235 678h291zM800 1849h137v-55q0 -104 -55.5 -170t-151.5 -66q-60 0 -97 15.5t-108 65.5q-46 33 -82 33q-78 0 -78 -93v-21h-137v66q0 111 57.5 171t159.5 60q46 0 79 -13t79 -46q49 -35 73.5 -45t49.5 -10
q74 0 74 84v24z" />
    <glyph glyph-name="uni1EF9" unicode="y&#x303;" horiz-adv-x="1098" 
d="M1081 1176l-340 -1178q-50 -175 -150 -256.5t-263 -81.5q-109 0 -222 25v186q94 -23 181 -23q84 0 128 39t85 160h-168l-314 1129h344l209 -861l222 861h288zM780 1589h137v-55q0 -104 -55.5 -170t-151.5 -66q-60 0 -97 15.5t-108 65.5q-46 33 -82 33q-78 0 -78 -93v-21
h-137v66q0 111 57.5 171t159.5 60q46 0 79 -13t79 -46q49 -35 73.5 -45t49.5 -10q74 0 74 84v24z" />
    <glyph glyph-name="uniFC5E" unicode="&#x64c;&#x651;" horiz-adv-x="0" arabic-form="isolated" 
d="M325 1493q-39 -75 -77 -105.5t-89 -30.5q-69 0 -103.5 41t-34.5 124q0 91 24 158h65q-10 -58 -10 -102q0 -30 12.5 -45t37.5 -15q57 0 85.5 53.5t37.5 178.5l63 2q0 -76 18 -114t55 -38q56 0 72 53t16 171l63 1l7 -50q10 -71 10 -125q0 -99 -42 -159.5t-112 -60.5
q-64 0 -98 63zM490 2107q31 -14 76 -19l32 -5l-44 -132q-72 5 -150 43q-201 -269 -472 -269l-10 77q41 0 71 14q43 75 43 146q0 81 -62 81q-63 0 -93 -51l-33 19q23 67 67.5 101t110.5 34q53 0 80 -26t27 -77q0 -100 -63 -201q147 69 237 191q-113 63 -113 157q0 123 69 204
t159 81q48 0 84 -49t36 -113q0 -131 -52 -206zM396 2143q35 45 35 118q0 44 -17.5 66t-51.5 22q-33 0 -49 -20.5t-16 -60.5q0 -92 99 -125z" />
    <glyph glyph-name="uniFC60" unicode="&#x64e;&#x651;" horiz-adv-x="0" arabic-form="isolated" 
d="M325 1493q-39 -75 -77 -105.5t-89 -30.5q-69 0 -103.5 41t-34.5 124q0 91 24 158h65q-10 -58 -10 -102q0 -30 12.5 -45t37.5 -15q57 0 85.5 53.5t37.5 178.5l63 2q0 -76 18 -114t55 -38q56 0 72 53t16 171l63 1l7 -50q10 -71 10 -125q0 -99 -42 -159.5t-112 -60.5
q-64 0 -98 63zM45 1799l25 130l463 156l-17 -127z" />
    <glyph glyph-name="uniFC61" unicode="&#x64f;&#x651;" horiz-adv-x="0" arabic-form="isolated" 
d="M325 1493q-39 -75 -77 -105.5t-89 -30.5q-69 0 -103.5 41t-34.5 124q0 91 24 158h65q-10 -58 -10 -102q0 -30 12.5 -45t37.5 -15q57 0 85.5 53.5t37.5 178.5l63 2q0 -76 18 -114t55 -38q56 0 72 53t16 171l63 1l7 -50q10 -71 10 -125q0 -99 -42 -159.5t-112 -60.5
q-64 0 -98 63zM494 2126q41 -19 105 -21l-44 -129q-72 3 -145 36q-99 -134 -223.5 -202t-260.5 -68l-6 76q225 24 385 231q-113 63 -113 157q0 122 68.5 203t159.5 81q50 0 88.5 -50.5t38.5 -114.5q0 -119 -53 -199zM398 2158q31 38 31 118q0 44 -17.5 66.5t-51.5 22.5
q-33 0 -49 -20.5t-16 -60.5q0 -92 103 -126z" />
    <glyph glyph-name="uniFEF5" unicode="&#xfedf;&#xfe82;" horiz-adv-x="1380" arabic-form="isolated" 
d="M1227 1769q-11 -432 -58.5 -659t-128.5 -386q84 -144 133 -251.5t49 -262.5q0 -116 -77 -174t-230 -58q-37 0 -144 15q-107 14 -140 14q-89 0 -208 -17l61 372l75 -2q163 115 270 357q-34 73 -113 155t-288 222l-47 -200l-271 272l94 343q439 -220 695 -612
q46 184 46 353q0 94 -13 249zM933 537q-37 -79 -136 -197q51 -9 110 -9q91 0 91 33q0 71 -65 173zM944 1760zM1019 1820q-51 -104 -126 -166.5t-236 -62.5q-66 0 -194 48t-167 48q-142 0 -235 -135l-48 78q110 248 310 248q58 0 176 -52q119 -53 181 -53q141 0 202 27.5
t109 80.5z" />
    <glyph glyph-name="uniFEF6" unicode="&#xfee0;&#xfe82;" horiz-adv-x="1681" arabic-form="final" 
d="M1533 2q-141 0 -217.5 116.5t-89.5 349.5q-157 -319 -337.5 -485t-385.5 -179l-97 -6q-33 -2 -41 -2q-51 0 -253 46q259 97 500 255.5t395 341.5q-51 165 -229 328t-402 256l-16 -139l-265 251l45 360q349 -145 601.5 -394.5t361.5 -557.5q30 28 49.5 80t19.5 104
q0 421 -72 748l178 267q106 -573 106 -1080q0 -185 41 -242.5t138 -57.5h263v-360h-293zM944 1760zM1001 1835q-51 -104 -126 -166.5t-236 -62.5q-66 0 -194 48t-167 48q-142 0 -235 -135l-48 78q110 248 310 248q58 0 176 -52q119 -53 181 -53q141 0 202 27.5t109 80.5z
" />
    <glyph glyph-name="uniFEF7" unicode="&#xfedf;&#xfe84;" horiz-adv-x="1380" arabic-form="isolated" 
d="M1227 1769q-11 -432 -58.5 -659t-128.5 -386q84 -144 133 -251.5t49 -262.5q0 -116 -77 -174t-230 -58q-37 0 -144 15q-107 14 -140 14q-89 0 -208 -17l61 372l75 -2q163 115 270 357q-34 73 -113 155t-288 222l-47 -200l-271 272l94 343q439 -220 695 -612
q46 184 46 353q0 94 -13 249zM933 537q-37 -79 -136 -197q51 -9 110 -9q91 0 91 33q0 71 -65 173zM944 1760zM371 1957q-21 5 -44 5q-58 0 -102.5 -29t-44.5 -69q0 -25 34 -45.5t65 -20.5q62 9 205 55l-8 -145q-14 -5 -106 -31q-161 -46 -218.5 -74t-79.5 -52l-48 56
q27 80 121 120q-77 35 -98.5 69t-21.5 90q0 75 90 139t195 64q76 0 114 -18z" />
    <glyph glyph-name="uniFEF8" unicode="&#xfee0;&#xfe84;" horiz-adv-x="1681" arabic-form="final" 
d="M1533 2q-141 0 -217.5 116.5t-89.5 349.5q-157 -319 -337.5 -485t-385.5 -179l-97 -6q-33 -2 -41 -2q-51 0 -253 46q259 97 500 255.5t395 341.5q-51 165 -229 328t-402 256l-16 -139l-265 251l45 360q349 -145 601.5 -394.5t361.5 -557.5q30 28 49.5 80t19.5 104
q0 421 -72 748l178 267q106 -573 106 -1080q0 -185 41 -242.5t138 -57.5h263v-360h-293zM944 1760zM552 1997q-21 5 -44 5q-58 0 -102.5 -29t-44.5 -69q0 -25 34 -45.5t65 -20.5q62 9 205 55l-8 -145q-14 -5 -106 -31q-161 -46 -218.5 -74t-79.5 -52l-48 56q27 80 121 120
q-77 35 -98.5 69t-21.5 90q0 75 90 139t195 64q76 0 114 -18z" />
    <glyph glyph-name="uniFEF9" unicode="&#xfedf;&#xfe88;" horiz-adv-x="1431" arabic-form="isolated" 
d="M1301 1801q0 -323 -52.5 -601.5t-152.5 -475.5q84 -144 133 -251.5t49 -262.5q0 -113 -77 -169t-230 -56q-33 0 -144 11l-78 8q-37 3 -62 3q-117 0 -208 -13l61 368l75 -2q174 123 270 341q-63 143 -181.5 291t-256.5 252l-47 -192l-270 272l81 420q207 -88 405.5 -309
t347.5 -519q56 228 56 460q0 98 -9 211zM989 537q-37 -79 -136 -197q51 -9 110 -9q91 0 91 33q0 71 -65 173zM944 1760zM734 -295q-21 5 -44 5q-58 0 -102.5 -29t-44.5 -69q0 -25 34 -45.5t65 -20.5q62 9 205 55l-8 -145q-14 -5 -106 -31q-161 -46 -218.5 -74t-79.5 -52
l-48 56q27 80 121 120q-77 35 -98.5 69t-21.5 90q0 75 90 139t195 64q76 0 114 -18z" />
    <glyph glyph-name="uniFEFA" unicode="&#xfee0;&#xfe88;" horiz-adv-x="1681" arabic-form="final" 
d="M1533 2q-141 0 -217.5 116.5t-89.5 349.5q-157 -319 -337.5 -485t-385.5 -179l-97 -6q-33 -2 -41 -2q-51 0 -253 46q259 97 500 255.5t395 341.5q-51 165 -229 328t-402 256l-16 -139l-265 251l45 360q349 -145 601.5 -394.5t361.5 -557.5q30 28 49.5 80t19.5 104
q0 421 -72 748l178 267q106 -573 106 -1080q0 -185 41 -242.5t138 -57.5h263v-360h-293zM944 1760zM549 -438q-21 5 -44 5q-58 0 -102.5 -29t-44.5 -69q0 -25 34 -45.5t65 -20.5q62 9 205 55l-8 -145q-14 -5 -106 -31q-161 -46 -218.5 -74t-79.5 -52l-48 56q27 80 121 120
q-77 35 -98.5 69t-21.5 90q0 75 90 139t195 64q76 0 114 -18z" />
    <glyph glyph-name="uniFEFB" unicode="&#xfedf;&#xfe8e;" horiz-adv-x="1431" arabic-form="isolated" 
d="M1301 1801q0 -323 -52.5 -601.5t-152.5 -475.5q84 -144 133 -251.5t49 -262.5q0 -113 -77 -169t-230 -56q-33 0 -144 11l-78 8q-37 3 -62 3q-117 0 -208 -13l61 368l75 -2q174 123 270 341q-63 143 -181.5 291t-256.5 252l-47 -192l-270 272l81 420q207 -88 405.5 -309
t347.5 -519q56 228 56 460q0 98 -9 211zM989 537q-37 -79 -136 -197q51 -9 110 -9q91 0 91 33q0 71 -65 173zM944 1760z" />
    <glyph glyph-name="uniFEFC" unicode="&#xfee0;&#xfe8e;" horiz-adv-x="1681" arabic-form="final" 
d="M1533 2q-141 0 -217.5 116.5t-89.5 349.5q-157 -319 -337.5 -485t-385.5 -179l-97 -6q-33 -2 -41 -2q-51 0 -253 46q259 97 500 255.5t395 341.5q-51 165 -229 328t-402 256l-16 -139l-265 251l45 360q349 -145 601.5 -394.5t361.5 -557.5q30 28 49.5 80t19.5 104
q0 421 -72 748l178 267q106 -573 106 -1080q0 -185 41 -242.5t138 -57.5h263v-360h-293zM944 1760z" />
    <glyph glyph-name="uni064B0651" unicode="&#x64b;&#x651;" horiz-adv-x="0" 
d="M325 1493q-39 -75 -77 -105.5t-89 -30.5q-69 0 -103.5 41t-34.5 124q0 91 24 158h65q-10 -58 -10 -102q0 -30 12.5 -45t37.5 -15q57 0 85.5 53.5t37.5 178.5l63 2q0 -76 18 -114t55 -38q56 0 72 53t16 171l63 1l7 -50q10 -71 10 -125q0 -99 -42 -159.5t-112 -60.5
q-64 0 -98 63zM45 2008l25 130l463 156l-17 -127zM45 1774l25 130l463 156l-17 -127z" />
    <glyph glyph-name="uniFB50" unicode="&#x671;" horiz-adv-x="716" arabic-form="isolated" 
d="M486 1604q-4 -106 -4 -201q0 -154 12 -344q22 -351 22 -424q0 -322 -65 -499l-197 -166q18 119 21 346v101q1 145 -37 453q-38 301 -38 439zM494 1760zM217 1835q85 141 178.5 212t194.5 71q61 0 110.5 -40.5t49.5 -97.5q0 -152 -103 -231t-297 -79h-219
q-44 0 -69.5 -31.5t-33.5 -93.5l-75 28q0 124 43.5 193t128.5 69h92zM346 1835q38 -12 79 -12q102 0 153 18t51 55q0 42 -22.5 63.5t-66.5 21.5q-50 0 -98.5 -36.5t-95.5 -109.5z" />
    <glyph glyph-name="uniFB51" unicode="&#x671;" horiz-adv-x="719" arabic-form="final" 
d="M613 0q-146 0 -214.5 50.5t-92 133t-23.5 252.5q0 37 2 85l8 196q2 48 2 83q0 412 -27 565l250 265q30 -189 30 -411q0 -66 -4 -151l-19 -349q-5 -83 -5 -151q0 -141 41 -174.5t132 -33.5h116v-360h-196zM344 1760zM262 1835q85 141 178.5 212t194.5 71q61 0 110.5 -40.5
t49.5 -97.5q0 -152 -103 -231t-297 -79h-219q-44 0 -69.5 -31.5t-33.5 -93.5l-75 28q0 124 43.5 193t128.5 69h92zM391 1835q38 -12 79 -12q102 0 153 18t51 55q0 42 -22.5 63.5t-66.5 21.5q-50 0 -98.5 -36.5t-95.5 -109.5z" />
    <glyph glyph-name="uniFB56" unicode="&#x67e;" horiz-adv-x="2127" arabic-form="isolated" 
d="M1882 986q115 -234 115 -566q0 -194 -80 -294.5t-206 -122t-454 -21.5q-459 0 -644 17t-290.5 68t-149 135.5t-43.5 203.5q0 157 78 372l208 96q-71 -156 -71 -267q0 -112 58 -176t251.5 -86t534.5 -22q153 0 276 4.5t177 12.5l87 12q32 5 50 18.5t18 33.5q0 97 -121 272
zM644 990zM1286 -512l-151 127l-137 -158l-168 143l145 173l153 -124l134 158l174 -143zM1163 -866l-170 144l149 174l171 -144z" />
    <glyph glyph-name="uniFB57" unicode="&#x67e;" horiz-adv-x="2127" arabic-form="final" 
d="M1882 986q115 -234 115 -566q0 -194 -80 -294.5t-206 -122t-454 -21.5q-459 0 -644 17t-290.5 68t-149 135.5t-43.5 203.5q0 157 78 372l208 96q-71 -156 -71 -267q0 -112 58 -176t251.5 -86t534.5 -22q153 0 276 4.5t177 12.5l87 12q32 5 50 18.5t18 33.5q0 97 -121 272
zM644 990zM1286 -512l-151 127l-137 -158l-168 143l145 173l153 -124l134 158l174 -143zM1163 -866l-170 144l149 174l171 -144z" />
    <glyph glyph-name="uniFB58" unicode="&#x67e;" horiz-adv-x="1000" arabic-form="initial" 
d="M741 949q128 -258 128 -566q0 -183 -103 -282.5t-367 -99.5h-273q-111 0 -213.5 117.5t-102.5 242.5h316q396 0 447 10q26 5 40 16t17 28v22q0 25 -23 78t-84 123zM144 990zM537 -510l-151 127l-137 -158l-168 143l145 173l153 -124l134 158l174 -143zM414 -864l-170 144
l149 174l171 -144z" />
    <glyph glyph-name="uniFB59" unicode="&#x67e;" horiz-adv-x="995" arabic-form="medial" 
d="M1019 0q-76 0 -139 55t-121 155q-46 -105 -114.5 -157.5t-159.5 -52.5h-355q-68 0 -149 66t-126 149t-45 145h632q79 0 118.5 14.5t39.5 44.5q0 113 -101 265l245 258q4 -11 60 -296q44 -225 61.5 -255.5t247.5 -30.5v-360h-94zM144 990zM781 -505l-151 127l-137 -158
l-168 143l145 173l153 -124l134 158l174 -143zM658 -859l-170 144l149 174l171 -144z" />
    <glyph glyph-name="uniFB66" unicode="&#x679;" horiz-adv-x="2127" arabic-form="isolated" 
d="M1882 986q115 -234 115 -566q0 -194 -80 -294.5t-206 -122t-454 -21.5q-459 0 -644 17t-290.5 68t-149 135.5t-43.5 203.5q0 157 78 372l208 96q-71 -156 -71 -267q0 -112 58 -176t251.5 -86t534.5 -22q153 0 276 4.5t177 12.5l87 12q32 5 50 18.5t18 33.5q0 97 -121 272
zM644 990zM1231 1163q0 30 -24 56q-13 13 -27.5 19t-27.5 6q-40 0 -76 -30q-11 -9 -25.5 -25t-33.5 -39q11 -1 37 -1.5t68 -0.5h35.5t35.5 1.5t27 4.5t11 9zM1358 1153q0 -71 -57 -101q-17 -9 -65.5 -15t-144.5 -6q-90 0 -140.5 1.5t-77.5 6t-39 12t-24 20.5
q-14 14 -23 31.5t-12 48.5q35 0 54.5 1.5t23.5 2.5q34 5 41 22q5 14 7 38.5t2 52.5q0 104 -10 175.5t-33 116.5q29 11 58 25t55 27q19 -78 24.5 -146t5.5 -115q0 -29 -1.5 -56t-8.5 -51q22 29 48.5 55.5t53.5 46.5t53 32t49 12q60 0 108 -58q27 -32 40 -77t13 -102z" />
    <glyph glyph-name="uniFB67" unicode="&#x679;" horiz-adv-x="2127" arabic-form="final" 
d="M1882 986q115 -234 115 -566q0 -194 -80 -294.5t-206 -122t-454 -21.5q-459 0 -644 17t-290.5 68t-149 135.5t-43.5 203.5q0 157 78 372l208 96q-71 -156 -71 -267q0 -112 58 -176t251.5 -86t534.5 -22q153 0 276 4.5t177 12.5l87 12q32 5 50 18.5t18 33.5q0 97 -121 272
zM644 990zM1231 1163q0 30 -24 56q-13 13 -27.5 19t-27.5 6q-40 0 -76 -30q-11 -9 -25.5 -25t-33.5 -39q11 -1 37 -1.5t68 -0.5h35.5t35.5 1.5t27 4.5t11 9zM1358 1153q0 -71 -57 -101q-17 -9 -65.5 -15t-144.5 -6q-90 0 -140.5 1.5t-77.5 6t-39 12t-24 20.5
q-14 14 -23 31.5t-12 48.5q35 0 54.5 1.5t23.5 2.5q34 5 41 22q5 14 7 38.5t2 52.5q0 104 -10 175.5t-33 116.5q29 11 58 25t55 27q19 -78 24.5 -146t5.5 -115q0 -29 -1.5 -56t-8.5 -51q22 29 48.5 55.5t53.5 46.5t53 32t49 12q60 0 108 -58q27 -32 40 -77t13 -102z" />
    <glyph glyph-name="uniFB68" unicode="&#x679;" horiz-adv-x="1000" arabic-form="initial" 
d="M741 949q128 -258 128 -566q0 -183 -103 -282.5t-367 -99.5h-273q-111 0 -213.5 117.5t-102.5 242.5h316q396 0 447 10q26 5 40 16t17 28v22q0 25 -23 78t-84 123zM144 990zM634 1163q0 30 -24 56q-13 13 -27.5 19t-27.5 6q-40 0 -76 -30q-11 -9 -25.5 -25t-33.5 -39
q11 -1 37 -1.5t68 -0.5h35.5t35.5 1.5t27 4.5t11 9zM761 1153q0 -71 -57 -101q-17 -9 -65.5 -15t-144.5 -6q-90 0 -140.5 1.5t-77.5 6t-39 12t-24 20.5q-14 14 -23 31.5t-12 48.5q35 0 54.5 1.5t23.5 2.5q34 5 41 22q5 14 7 38.5t2 52.5q0 104 -10 175.5t-33 116.5
q29 11 58 25t55 27q19 -78 24.5 -146t5.5 -115q0 -29 -1.5 -56t-8.5 -51q22 29 48.5 55.5t53.5 46.5t53 32t49 12q60 0 108 -58q27 -32 40 -77t13 -102z" />
    <glyph glyph-name="uniFB69" unicode="&#x679;" horiz-adv-x="995" arabic-form="medial" 
d="M1019 0q-76 0 -139 55t-121 155q-46 -105 -114.5 -157.5t-159.5 -52.5h-355q-68 0 -149 66t-126 149t-45 145h632q79 0 118.5 14.5t39.5 44.5q0 113 -101 265l245 258q4 -11 60 -296q44 -225 61.5 -255.5t247.5 -30.5v-360h-94zM144 990zM639 1163q0 30 -24 56
q-13 13 -27.5 19t-27.5 6q-40 0 -76 -30q-11 -9 -25.5 -25t-33.5 -39q11 -1 37 -1.5t68 -0.5h35.5t35.5 1.5t27 4.5t11 9zM766 1153q0 -71 -57 -101q-17 -9 -65.5 -15t-144.5 -6q-90 0 -140.5 1.5t-77.5 6t-39 12t-24 20.5q-14 14 -23 31.5t-12 48.5q35 0 54.5 1.5t23.5 2.5
q34 5 41 22q5 14 7 38.5t2 52.5q0 104 -10 175.5t-33 116.5q29 11 58 25t55 27q19 -78 24.5 -146t5.5 -115q0 -29 -1.5 -56t-8.5 -51q22 29 48.5 55.5t53.5 46.5t53 32t49 12q60 0 108 -58q27 -32 40 -77t13 -102z" />
    <glyph glyph-name="uniFB7A" unicode="&#x686;" horiz-adv-x="1816" arabic-form="isolated" 
d="M1594 485q-486 0 -806 -193t-320 -510q0 -261 178.5 -402.5t492.5 -141.5q329 0 727 201l-63 -258q-356 -266 -724 -266q-416 0 -645.5 217t-229.5 611q0 264 202 496.5t574 358.5q-100 40 -236.5 66.5t-252.5 26.5q-110 0 -193.5 -29t-167.5 -95l7 275q168 154 390 154
q173 0 438 -96q266 -96 540 -96q70 0 118 3l122 6l-89 -328h-62zM144 990zM1268 -190l-151 127l-137 -158l-168 143l145 173l153 -124l134 158l174 -143zM1145 -544l-170 144l149 174l171 -144z" />
    <glyph glyph-name="uniFB7B" unicode="&#x686;" horiz-adv-x="1800" arabic-form="final" 
d="M1661 502q-192 0 -296 -13q23 -128 149 -128h440v-361h-427q-162 0 -237 103.5t-84 360.5q-380 -110 -559 -277.5t-179 -404.5q0 -261 178.5 -402.5t492.5 -141.5q329 0 727 201l-63 -258q-356 -266 -724 -266q-416 0 -645.5 217t-229.5 611q0 264 202 496.5t574 358.5
q-100 40 -236.5 66.5t-252.5 26.5q-110 0 -193.5 -29t-167.5 -95l7 275q168 154 390 154q173 0 438 -96q266 -96 540 -96q70 0 118 3l122 6zM944 990zM1115 -250l-151 127l-137 -158l-168 143l145 173l153 -124l134 158l174 -143zM992 -604l-170 144l149 174l171 -144z" />
    <glyph glyph-name="uniFB7C" unicode="&#x686;" horiz-adv-x="2010" arabic-form="initial" 
d="M267 863q69 69 176 111.5t214 42.5q181 0 440 -105q259 -106 519 -106h54q70 0 220 6l-90 -341q-193 0 -305.5 -10.5t-217 -51t-216.5 -116.5l-204 -139q-227 -154 -480 -154h-188q-72 0 -168.5 59.5t-153.5 142.5t-57 158h650q67 0 151 24.5t269 120.5q116 60 220 95
q-292 112 -479 112q-111 0 -195 -30.5t-165 -93.5zM144 990zM1146 -439l-151 127l-137 -158l-168 143l145 173l153 -124l134 158l174 -143zM1023 -793l-170 144l149 174l171 -144z" />
    <glyph glyph-name="uniFB7D" unicode="&#x686;" horiz-adv-x="1930" arabic-form="medial" 
d="M1630 0q-164 0 -237.5 97t-81.5 335q-93 -28 -165 -66.5t-204 -129.5q-66 -46 -189.5 -120.5t-225 -95.5t-186.5 -21h-167q-100 0 -215 118.5t-149 241.5h614q67 0 151 24.5t269 120.5q116 60 220 95q-292 112 -479 112q-111 0 -195 -30.5t-165 -93.5l6 275
q69 69 176 111.5t214 42.5q172 0 435 -105q262 -106 578 -106q70 0 220 6l-87 -328q-166 0 -295 -23q22 -99 145 -99h440v-361h-427zM144 990zM1126 -439l-151 127l-137 -158l-168 143l145 173l153 -124l134 158l174 -143zM1003 -793l-170 144l149 174l171 -144z" />
    <glyph glyph-name="uniFB88" unicode="&#x688;" horiz-adv-x="1368" arabic-form="isolated" 
d="M993 1266q88 -147 147 -301t78.5 -309t19.5 -377q0 -121 -131 -209.5t-456 -88.5q-253 0 -331.5 26t-134 97.5t-55.5 182.5q0 86 57 238l142 77q-30 -80 -30 -143q0 -37 20.5 -60.5t55.5 -31t171 -7.5q437 0 499 59q-42 246 -271 490zM324 990zM834 1523q0 30 -24 56
q-13 13 -27.5 19t-27.5 6q-40 0 -76 -30q-11 -9 -25.5 -25t-33.5 -39q11 -1 37 -1.5t68 -0.5h35.5t35.5 1.5t27 4.5t11 9zM961 1513q0 -71 -57 -101q-17 -9 -65.5 -15t-144.5 -6q-90 0 -140.5 1.5t-77.5 6t-39 12t-24 20.5q-14 14 -23 31.5t-12 48.5q35 0 54.5 1.5t23.5 2.5
q34 5 41 22q5 14 7 38.5t2 52.5q0 104 -10 175.5t-33 116.5q29 11 58 25t55 27q19 -78 24.5 -146t5.5 -115q0 -29 -1.5 -56t-8.5 -51q22 29 48.5 55.5t53.5 46.5t53 32t49 12q60 0 108 -58q27 -32 40 -77t13 -102z" />
    <glyph glyph-name="uniFB89" unicode="&#x688;" horiz-adv-x="1368" arabic-form="final" 
d="M993 1266q88 -147 147 -301t78.5 -309t19.5 -377q0 -121 -131 -209.5t-456 -88.5q-253 0 -331.5 26t-134 97.5t-55.5 182.5q0 86 57 238l142 77q-30 -80 -30 -143q0 -37 20.5 -60.5t55.5 -31t171 -7.5q437 0 499 59q-42 246 -271 490zM324 990zM834 1523q0 30 -24 56
q-13 13 -27.5 19t-27.5 6q-40 0 -76 -30q-11 -9 -25.5 -25t-33.5 -39q11 -1 37 -1.5t68 -0.5h35.5t35.5 1.5t27 4.5t11 9zM961 1513q0 -71 -57 -101q-17 -9 -65.5 -15t-144.5 -6q-90 0 -140.5 1.5t-77.5 6t-39 12t-24 20.5q-14 14 -23 31.5t-12 48.5q35 0 54.5 1.5t23.5 2.5
q34 5 41 22q5 14 7 38.5t2 52.5q0 104 -10 175.5t-33 116.5q29 11 58 25t55 27q19 -78 24.5 -146t5.5 -115q0 -29 -1.5 -56t-8.5 -51q22 29 48.5 55.5t53.5 46.5t53 32t49 12q60 0 108 -58q27 -32 40 -77t13 -102z" />
    <glyph glyph-name="uniFB8A" unicode="&#x698;" horiz-adv-x="1004" arabic-form="isolated" 
d="M704 866q174 -284 174 -647q0 -486 -248 -770t-616 -301l-346 161q243 54 400 108.5t248 116t158.5 128.5t106 147t60.5 180t22 189q0 192 -210 416zM144 990zM445 1418l-171 144l150 174l171 -144zM615 1101l-151 127l-137 -158l-168 143l145 173l153 -124l134 158
l174 -143zM693 1793z" />
    <glyph glyph-name="uniFB8B" unicode="&#x698;" horiz-adv-x="1004" arabic-form="final" 
d="M704 866q174 -284 174 -647q0 -486 -248 -770t-616 -301l-346 161q243 54 400 108.5t248 116t158.5 128.5t106 147t60.5 180t22 189q0 192 -210 416zM144 990zM445 1418l-171 144l150 174l171 -144zM615 1101l-151 127l-137 -158l-168 143l145 173l153 -124l134 158
l174 -143zM693 1793z" />
    <glyph glyph-name="uniFB8C" unicode="&#x691;" horiz-adv-x="1004" arabic-form="isolated" 
d="M704 866q174 -284 174 -647q0 -486 -248 -770t-616 -301l-346 161q243 54 400 108.5t248 116t158.5 128.5t106 147t60.5 180t22 189q0 192 -210 416zM144 990zM564 1213q0 30 -24 56q-13 13 -27.5 19t-27.5 6q-40 0 -76 -30q-11 -9 -25.5 -25t-33.5 -39q11 -1 37 -1.5
t68 -0.5h35.5t35.5 1.5t27 4.5t11 9zM691 1203q0 -71 -57 -101q-17 -9 -65.5 -15t-144.5 -6q-90 0 -140.5 1.5t-77.5 6t-39 12t-24 20.5q-14 14 -23 31.5t-12 48.5q35 0 54.5 1.5t23.5 2.5q34 5 41 22q5 14 7 38.5t2 52.5q0 104 -10 175.5t-33 116.5q29 11 58 25t55 27
q19 -78 24.5 -146t5.5 -115q0 -29 -1.5 -56t-8.5 -51q22 29 48.5 55.5t53.5 46.5t53 32t49 12q60 0 108 -58q27 -32 40 -77t13 -102z" />
    <glyph glyph-name="uniFB8D" unicode="&#x691;" horiz-adv-x="1004" arabic-form="final" 
d="M704 866q174 -284 174 -647q0 -486 -248 -770t-616 -301l-346 161q243 54 400 108.5t248 116t158.5 128.5t106 147t60.5 180t22 189q0 192 -210 416zM144 990zM564 1213q0 30 -24 56q-13 13 -27.5 19t-27.5 6q-40 0 -76 -30q-11 -9 -25.5 -25t-33.5 -39q11 -1 37 -1.5
t68 -0.5h35.5t35.5 1.5t27 4.5t11 9zM691 1203q0 -71 -57 -101q-17 -9 -65.5 -15t-144.5 -6q-90 0 -140.5 1.5t-77.5 6t-39 12t-24 20.5q-14 14 -23 31.5t-12 48.5q35 0 54.5 1.5t23.5 2.5q34 5 41 22q5 14 7 38.5t2 52.5q0 104 -10 175.5t-33 116.5q29 11 58 25t55 27
q19 -78 24.5 -146t5.5 -115q0 -29 -1.5 -56t-8.5 -51q22 29 48.5 55.5t53.5 46.5t53 32t49 12q60 0 108 -58q27 -32 40 -77t13 -102z" />
    <glyph glyph-name="uniFB8E" unicode="&#x6a9;" horiz-adv-x="2290" arabic-form="isolated" 
d="M417 838q-78 -104 -78 -256q0 -70 36.5 -122t109.5 -78.5t299 -34.5t669 -8q316 0 404.5 9t88.5 33q0 90 -462 358q-114 66 -192.5 128t-93.5 95.5t-15 95.5q0 58 32 143t81 133.5t184.5 119.5t347 153t455.5 151l-116 -309q-294 -72 -508.5 -171t-214.5 -149
q0 -13 14 -28t78 -58q232 -155 332.5 -243.5t198.5 -243.5t98 -322q0 -109 -45 -157t-221.5 -69t-626.5 -21h-182q-273 0 -433.5 19t-255.5 46t-152 66.5t-88 99t-31 173.5q0 229 126 433zM944 1760z" />
    <glyph glyph-name="uniFB8F" unicode="&#x6a9;" horiz-adv-x="2290" arabic-form="final" 
d="M417 838q-78 -104 -78 -256q0 -70 36.5 -122t109.5 -78.5t299 -34.5t669 -8q316 0 404.5 9t88.5 33q0 90 -462 358q-114 66 -192.5 128t-93.5 95.5t-15 95.5q0 58 32 143t81 133.5t184.5 119.5t347 153t455.5 151l-116 -309q-294 -72 -508.5 -171t-214.5 -149
q0 -13 14 -28t78 -58q232 -155 332.5 -243.5t198.5 -243.5t98 -322q0 -109 -45 -157t-221.5 -69t-626.5 -21h-182q-273 0 -433.5 19t-255.5 46t-152 66.5t-88 99t-31 173.5q0 229 126 433zM944 1760z" />
    <glyph glyph-name="uniFB90" unicode="&#x6a9;" horiz-adv-x="1230" arabic-form="initial" 
d="M774 361q104 0 104 26q0 39 -105 118t-235 155q-257 145 -339.5 221t-82.5 155q0 51 12.5 102.5t41.5 112t79 105t172 103t306 122t430 132.5l-115 -313q-234 -44 -448.5 -127t-214.5 -131q0 -34 117 -102q135 -74 294.5 -221.5t236 -294.5t76.5 -296q0 -98 -75.5 -163
t-181.5 -65h-746q-101 0 -195.5 121.5t-94.5 239.5h964zM744 1760z" />
    <glyph glyph-name="uniFB91" unicode="&#x6a9;" horiz-adv-x="1230" arabic-form="medial" 
d="M774 361q104 0 104 26q0 39 -105 118t-235 155q-257 145 -339.5 221t-82.5 155q0 51 12.5 102.5t41.5 112t79 105t172 103t306 122t430 132.5l-115 -313q-234 -44 -448.5 -127t-214.5 -131q0 -34 117 -102q135 -74 294.5 -221.5t236 -294.5t76.5 -296q0 -98 -75.5 -163
t-181.5 -65h-746q-101 0 -195.5 121.5t-94.5 239.5h964zM744 1760z" />
    <glyph glyph-name="uniFB92" unicode="&#x6af;" horiz-adv-x="2302" arabic-form="isolated" 
d="M2219 1766q-513 -147 -682 -225t-327 -198l17 236q132 107 433 223.5t632 205.5zM419 838q-79 -93 -79 -236q0 -81 32.5 -134.5t124.5 -84t278 -37.5t615 -7q554 0 554 36q0 46 -152 128q-448 242 -556 352q-37 42 -37 89q0 163 77 275q60 89 300 191t659 218l-117 -311
q-247 -49 -454 -130t-207 -129q0 -18 16 -33.5t94 -67.5l57 -38q136 -91 176 -121q152 -112 232 -202t115 -183t35 -200q0 -84 -51 -139t-164 -70.5t-498 -15.5q-231 0 -495 7.5t-390 18t-206 36t-137.5 69.5t-82.5 101.5t-25 179.5q0 267 125 424zM944 1760z" />
    <glyph glyph-name="uniFB93" unicode="&#x6af;" horiz-adv-x="2302" arabic-form="final" 
d="M2219 1766q-513 -147 -682 -225t-327 -198l17 236q132 107 433 223.5t632 205.5zM419 838q-79 -93 -79 -236q0 -81 32.5 -134.5t124.5 -84t278 -37.5t615 -7q554 0 554 36q0 46 -152 128q-448 242 -556 352q-37 42 -37 89q0 163 77 275q60 89 300 191t659 218l-117 -311
q-247 -49 -454 -130t-207 -129q0 -18 16 -33.5t94 -67.5l57 -38q136 -91 176 -121q152 -112 232 -202t115 -183t35 -200q0 -84 -51 -139t-164 -70.5t-498 -15.5q-231 0 -495 7.5t-390 18t-206 36t-137.5 69.5t-82.5 101.5t-25 179.5q0 267 125 424zM944 1760z" />
    <glyph glyph-name="uniFB94" unicode="&#x6af;" horiz-adv-x="1220" arabic-form="initial" 
d="M1135 1778q-385 -108 -592.5 -187.5t-416.5 -235.5l17 236q127 104 431.5 222.5t633.5 206.5zM769 360q92 0 92 27q0 15 -36 40.5t-189 111.5l-176 100q-139 78 -200.5 119t-105 97t-43.5 110q0 52 12 103.5t40 110.5t79 104t173 104t306 122t430 131l-116 -311
q-237 -46 -449.5 -128t-212.5 -131q0 -35 148 -126q111 -67 264 -185.5t233 -242.5t80 -290q0 -101 -75.5 -164t-178.5 -63h-745q-98 0 -194.5 122t-96.5 228v11h961zM-56 1760z" />
    <glyph glyph-name="uniFB95" unicode="&#x6af;" horiz-adv-x="1220" arabic-form="medial" 
d="M1135 1778q-385 -108 -592.5 -187.5t-416.5 -235.5l17 236q127 104 431.5 222.5t633.5 206.5zM769 360q92 0 92 27q0 15 -36 40.5t-189 111.5l-176 100q-139 78 -200.5 119t-105 97t-43.5 110q0 52 12 103.5t40 110.5t79 104t173 104t306 122t430 131l-116 -311
q-237 -46 -449.5 -128t-212.5 -131q0 -35 148 -126q111 -67 264 -185.5t233 -242.5t80 -290q0 -101 -75.5 -164t-178.5 -63h-745q-98 0 -194.5 122t-96.5 228v11h961zM-56 1760z" />
    <glyph glyph-name="uniFB9E" unicode="&#x6ba;" horiz-adv-x="1648" arabic-form="isolated" 
d="M1401 628q117 -223 117 -516q0 -358 -207 -574t-560 -216q-311 0 -466 163.5t-155 489.5q0 150 79 315l213 93q-78 -163 -78 -339q0 -173 114 -259.5t343 -86.5q237 0 356 75.5t119 225.5q0 192 -118 359z" />
    <glyph glyph-name="uniFB9F" unicode="&#x6ba;" horiz-adv-x="1648" arabic-form="final" 
d="M1401 628q117 -223 117 -516q0 -358 -207 -574t-560 -216q-311 0 -466 163.5t-155 489.5q0 150 79 315l213 93q-78 -163 -78 -339q0 -173 114 -259.5t343 -86.5q237 0 356 75.5t119 225.5q0 192 -118 359z" />
    <glyph glyph-name="uniFBA4" unicode="&#x6c0;" horiz-adv-x="1149" arabic-form="isolated" 
d="M407 1102q76 -91 271 -200q341 -183 341 -417q0 -173 -143.5 -334t-317.5 -161q-166 0 -297 98.5t-131 252.5q0 235 168 373q-36 16 -104 107zM799 339q-10 35 -32 68.5t-58.5 67.5t-67 52t-116.5 53q-79 32 -113 57q-36 -91 -36 -121q0 -106 76 -172.5t193 -66.5
q73 0 102 9.5t52 52.5zM944 990zM689 1743q-21 5 -44 5q-58 0 -102.5 -29t-44.5 -69q0 -25 34 -45.5t65 -20.5q62 9 205 55l-8 -145q-14 -5 -106 -31q-161 -46 -218.5 -74t-79.5 -52l-48 56q27 80 121 120q-77 35 -98.5 69t-21.5 90q0 75 90 139t195 64q76 0 114 -18z" />
    <glyph glyph-name="uniFBA5" unicode="&#x6c0;" horiz-adv-x="1142" arabic-form="final" 
d="M1088 0q-150 0 -232 72t-124 242q-138 -157 -211 -157q-97 0 -242 79t-145 175q0 63 48 148t126 170.5t99 97.5t57 27q99 35 138.5 53t84.5 46l-4 55q-3 30 -8 69l206 208q0 -128 10 -332l17 -306q7 -103 31 -167.5t62 -91.5t101 -27h170v-361h-184zM715 513l-16 215
q-31 -19 -211 -91q-116 -46 -116 -79q0 -31 73.5 -46.5t221.5 -15.5q27 0 48 17zM944 990zM766 1743q-21 5 -44 5q-58 0 -102.5 -29t-44.5 -69q0 -25 34 -45.5t65 -20.5q62 9 205 55l-8 -145q-14 -5 -106 -31q-161 -46 -218.5 -74t-79.5 -52l-48 56q27 80 121 120
q-77 35 -98.5 69t-21.5 90q0 75 90 139t195 64q76 0 114 -18z" />
    <glyph glyph-name="uniFBA6" unicode="&#x6c1;" horiz-adv-x="1149" arabic-form="isolated" 
d="M407 1102q76 -91 271 -200q341 -183 341 -417q0 -173 -143.5 -334t-317.5 -161q-166 0 -297 98.5t-131 252.5q0 235 168 373q-36 16 -104 107zM799 339q-10 35 -32 68.5t-58.5 67.5t-67 52t-116.5 53q-79 32 -113 57q-36 -91 -36 -121q0 -106 76 -172.5t193 -66.5
q73 0 102 9.5t52 52.5zM944 990z" />
    <glyph glyph-name="uniFBA7" unicode="&#x6c1;" horiz-adv-x="1509" arabic-form="final" 
d="M1642 0h-143q-130 0 -213.5 27.5t-140.5 68t-118 88t-108 86.5t-89.5 66.5t-95.5 27.5q-93 0 -173 -56t-148 -147t-124.5 -207t-98.5 -237l-84 210q21 85 55 176.5t79.5 181.5t103.5 169t124.5 140t141.5 98t153 37q85 0 142.5 -26t108.5 -67t106 -87.5t108 -87
t130 -70.5t186 -30h98v-361zM214 990z" />
    <glyph glyph-name="uniFBA8" unicode="&#x6c1;" horiz-adv-x="1000" arabic-form="initial" 
d="M529 -1036q-137 203 -137 407q0 116 45.5 227t136.5 215h148q-28 -70 -49.5 -154.5t-21.5 -177.5q0 -76 22 -151.5t76 -135.5zM741 949q128 -258 128 -566q0 -183 -103 -282.5t-367 -99.5h-273q-111 0 -213.5 117.5t-102.5 242.5h316q396 0 447 10q26 5 40 16t17 28v22
q0 25 -23 78t-84 123zM214 990z" />
    <glyph glyph-name="uniFBA9" unicode="&#x6c1;" horiz-adv-x="1769" arabic-form="medial" 
d="M1911 0h-305q-149 0 -262 -27.5t-195.5 -73t-138 -104.5t-89 -121.5t-47.5 -123.5t-14 -111q0 -39 7 -78t20 -74.5t30 -66.5t38 -53l-244 -243q-93 150 -130.5 313.5t-37.5 332.5q0 192 37 360t97 318q-60 -81 -118 -129.5t-114.5 -75t-111.5 -35t-108 -8.5
q-77 0 -147.5 28t-126.5 77t-93.5 115t-47.5 141h389q117 0 210.5 14.5t166.5 54.5t125 112t86 187l256 49q-37 -103 -66 -186t-52.5 -156t-40.5 -141t-29.5 -140.5t-21 -155t-13.5 -184.5q54 116 121 216t159.5 173.5t216 115t291.5 41.5h303v-361zM214 990z" />
    <glyph glyph-name="uniFBAA" unicode="&#x6be;" horiz-adv-x="1383" arabic-form="isolated" 
d="M128 0q-71 0 -146.5 58.5t-123.5 146t-48 156.5h514q-5 25 -5 67q0 95 33 170.5t126 155.5q-55 20 -87 29l168 300q313 -74 498.5 -301t185.5 -519q0 -116 -80 -215.5t-123 -99.5q-84 0 -418 147q-64 -50 -135 -72.5t-126 -22.5h-233zM638 669q-118 -99 -118 -161
q0 -71 117 -132q44 14 93.5 71.5t49.5 100.5q0 24 -53.5 66.5t-88.5 54.5zM904 499q-15 -108 -85 -208q166 -88 236 -88q27 0 27 30q0 123 -178 266zM1034 990z" />
    <glyph glyph-name="uniFBAB" unicode="&#x6be;" horiz-adv-x="1400" arabic-form="final" 
d="M1364 0q-2 0 -114.5 -3t-164.5 -12q116 -149 116 -313q0 -141 -75 -222.5t-213 -81.5q-176 0 -278.5 154t-106.5 385l-182 -44l55 159q-112 -23 -303 -23q-99 0 -193.5 119t-94.5 242h412q194 0 306 41q47 248 188.5 424.5t321.5 176.5q84 0 135.5 -78.5t51.5 -176.5
q0 -125 -79 -248.5t-222 -219.5q179 82 378 82h216v-361h-154zM1073 733q0 22 -12.5 44.5t-28.5 22.5q-95 0 -189 -110.5t-144 -262.5q187 43 280.5 119.5t93.5 186.5zM1020 -450q-2 144 -95.5 254.5t-233.5 133.5q30 -174 112 -271t217 -117zM544 990z" />
    <glyph glyph-name="uniFBAC" unicode="&#x6be;" horiz-adv-x="1383" arabic-form="initial" 
d="M128 0q-71 0 -146.5 58.5t-123.5 146t-48 156.5h514q-5 25 -5 67q0 95 33 170.5t126 155.5q-55 20 -87 29l168 300q313 -74 498.5 -301t185.5 -519q0 -116 -80 -215.5t-123 -99.5q-84 0 -418 147q-64 -50 -135 -72.5t-126 -22.5h-233zM638 669q-118 -99 -118 -161
q0 -71 117 -132q44 14 93.5 71.5t49.5 100.5q0 24 -53.5 66.5t-88.5 54.5zM904 499q-15 -108 -85 -208q166 -88 236 -88q27 0 27 30q0 123 -178 266zM1034 990z" />
    <glyph glyph-name="uniFBAD" unicode="&#x6be;" horiz-adv-x="1400" arabic-form="medial" 
d="M1364 0q-2 0 -114.5 -3t-164.5 -12q116 -149 116 -313q0 -141 -75 -222.5t-213 -81.5q-176 0 -278.5 154t-106.5 385l-182 -44l55 159q-112 -23 -303 -23q-99 0 -193.5 119t-94.5 242h412q194 0 306 41q47 248 188.5 424.5t321.5 176.5q84 0 135.5 -78.5t51.5 -176.5
q0 -125 -79 -248.5t-222 -219.5q179 82 378 82h216v-361h-154zM1073 733q0 22 -12.5 44.5t-28.5 22.5q-95 0 -189 -110.5t-144 -262.5q187 43 280.5 119.5t93.5 186.5zM1020 -450q-2 144 -95.5 254.5t-233.5 133.5q30 -174 112 -271t217 -117zM544 990z" />
    <glyph glyph-name="uniFBAE" unicode="&#x6d2;" horiz-adv-x="1753" arabic-form="isolated" 
d="M2028 -401l-477 -359q-120 -20 -264 -31t-338 -11q-90 0 -194.5 3.5t-196.5 16.5t-174 37t-142 73t-91.5 119.5t-31.5 167.5q0 116 87 266t249.5 266.5t324.5 165t305 48.5q90 0 151 10q26 5 43 16t17 32v18q0 25 -24.5 78t-70.5 116l215 328q116 -299 116 -559
q0 -200 -103 -300q-103 -99 -366 -100h-45q-114 0 -257 -34.5t-224 -81t-131 -101.5t-50 -91q0 -39 30.5 -63.5t88.5 -37t123 -19t152 -9t160 -5t133 -2.5q121 0 230.5 0.5t224 4.5t243 13t287.5 25zM214 990z" />
    <glyph glyph-name="uniFBAF" unicode="&#x6d2;" horiz-adv-x="1753" arabic-form="final" 
d="M1883 0h-723q-228 0 -385 -34.5t-238 -81t-131 -101.5t-50 -95q0 -35 30.5 -59.5t83.5 -35t123 -18.5t144.5 -12.5t147.5 -5.5t133 -1q146 0 255.5 0.5t224 4.5t243 13t287.5 25l-477 -359q-111 -26 -259.5 -34t-367.5 -8q-90 0 -182 3.5t-184 16.5t-174 37t-142 73
t-91.5 119.5t-31.5 167.5q0 128 87 272t249.5 260.5t324.5 165t395 48.5h708v-361z" />
    <glyph glyph-name="uniFBB0" unicode="&#x6d3;" horiz-adv-x="1753" arabic-form="isolated" 
d="M2028 -401l-477 -359q-120 -20 -264 -31t-338 -11q-90 0 -194.5 3.5t-196.5 16.5t-174 37t-142 73t-91.5 119.5t-31.5 167.5q0 116 87 266t249.5 266.5t324.5 165t305 48.5q90 0 151 10q26 5 43 16t17 32v18q0 25 -24.5 78t-70.5 116l215 328q116 -299 116 -559
q0 -200 -103 -300q-103 -99 -366 -100h-45q-114 0 -257 -34.5t-224 -81t-131 -101.5t-50 -91q0 -39 30.5 -63.5t88.5 -37t123 -19t152 -9t160 -5t133 -2.5q121 0 230.5 0.5t224 4.5t243 13t287.5 25zM214 990zM558 918q-21 5 -44 5q-58 0 -102.5 -29t-44.5 -69
q0 -25 34 -45.5t65 -20.5q62 9 205 55l-8 -145q-14 -5 -106 -31q-161 -46 -218.5 -74t-79.5 -52l-48 56q27 80 121 120q-77 35 -98.5 69t-21.5 90q0 75 90 139t195 64q76 0 114 -18z" />
    <glyph glyph-name="uniFBB1" unicode="&#x6d3;" horiz-adv-x="1753" arabic-form="final" 
d="M1883 0h-723q-228 0 -385 -34.5t-238 -81t-131 -101.5t-50 -95q0 -35 30.5 -59.5t83.5 -35t123 -18.5t144.5 -12.5t147.5 -5.5t133 -1q146 0 255.5 0.5t224 4.5t243 13t287.5 25l-477 -359q-111 -26 -259.5 -34t-367.5 -8q-90 0 -182 3.5t-184 16.5t-174 37t-142 73
t-91.5 119.5t-31.5 167.5q0 128 87 272t249.5 260.5t324.5 165t395 48.5h708v-361zM558 918q-21 5 -44 5q-58 0 -102.5 -29t-44.5 -69q0 -25 34 -45.5t65 -20.5q62 9 205 55l-8 -145q-14 -5 -106 -31q-161 -46 -218.5 -74t-79.5 -52l-48 56q27 80 121 120q-77 35 -98.5 69
t-21.5 90q0 75 90 139t195 64q76 0 114 -18z" />
    <glyph glyph-name="uniFBE9" unicode="&#x649;" horiz-adv-x="995" arabic-form="medial" 
d="M1019 0q-76 0 -139 55t-121 155q-46 -105 -114.5 -157.5t-159.5 -52.5h-355q-68 0 -149 66t-126 149t-45 145h632q79 0 118.5 14.5t39.5 44.5q0 113 -101 265l245 258q4 -11 60 -296q44 -225 61.5 -255.5t247.5 -30.5v-360h-94zM144 990zM786 -506l-154 130l-137 -158
l-168 144l146 172l154 -123l133 156l174 -142z" />
    <glyph glyph-name="uniFBFC" unicode="&#x6cc;" horiz-adv-x="1854" arabic-form="isolated" 
d="M1590 679q-26 45 -59 74.5t-70 42.5t-101 13q-136 0 -235.5 -44t-99.5 -116q0 -84 198 -124q148 -26 196 -39t100 -39t83.5 -72.5t31.5 -109.5q0 -273 -291 -485.5t-603 -212.5q-282 0 -446 159t-164 439q0 82 20 179.5t109 291.5l198 76q-89 -205 -89 -364
q0 -217 94.5 -317t304.5 -100q243 0 421.5 54t178.5 154q0 33 -107 57q-204 31 -284 70.5t-111.5 99t-31.5 137.5q0 244 171 441.5t408 197.5q143 0 226.5 -84t85.5 -223zM944 990z" />
    <glyph glyph-name="uniFBFD" unicode="&#x6cc;" horiz-adv-x="1633" arabic-form="final" 
d="M1474 1q-185 0 -277.5 -12.5t-92.5 -38.5q0 -15 86 -39q130 -33 206 -59.5t113.5 -68t37.5 -91.5q0 -211 -278 -380.5t-593 -169.5q-247 0 -401 167t-154 425q0 221 122 467l236 103q-56 -111 -83 -195t-27 -172q0 -223 107.5 -335t322.5 -112q155 0 299 29t144 76
q0 13 -14.5 22t-67.5 24q-110 31 -230 78.5t-120 158.5q0 64 32 127t111 138t153 129.5t170 71.5t270 17h217v-360h-289z" />
    <glyph glyph-name="uniFBFE" unicode="&#x6cc;" horiz-adv-x="1000" arabic-form="initial" 
d="M741 949q128 -258 128 -566q0 -183 -103 -282.5t-367 -99.5h-273q-111 0 -213.5 117.5t-102.5 242.5h316q396 0 447 10q26 5 40 16t17 28v22q0 25 -23 78t-84 123zM144 990zM565 -507l-154 130l-137 -158l-168 144l146 172l154 -123l133 156l174 -142z" />
    <glyph glyph-name="uniFBFF" unicode="&#x6cc;" horiz-adv-x="995" arabic-form="medial" 
d="M1019 0q-76 0 -139 55t-121 155q-46 -105 -114.5 -157.5t-159.5 -52.5h-355q-68 0 -149 66t-126 149t-45 145h632q79 0 118.5 14.5t39.5 44.5q0 113 -101 265l245 258q4 -11 60 -296q44 -225 61.5 -255.5t247.5 -30.5v-360h-94zM144 990zM786 -507l-154 130l-137 -158
l-168 144l146 172l154 -123l133 156l174 -142z" />
    <glyph glyph-name="uniFC5F" unicode="&#xfc5f;" horiz-adv-x="0" arabic-form="isolated" 
d="M45 1344l25 130l463 156l-17 -127zM45 1570l25 130l463 156l-17 -127zM325 1986q-39 -75 -77 -105.5t-89 -30.5q-69 0 -103.5 41t-34.5 124q0 91 24 158h65q-10 -58 -10 -102q0 -30 12.5 -45t37.5 -15q57 0 85.5 53.5t37.5 178.5l63 2q0 -76 18 -114t55 -38q56 0 72 53
t16 171l63 1l7 -50q10 -71 10 -125q0 -99 -42 -159.5t-112 -60.5q-64 0 -98 63z" />
    <glyph glyph-name="uniFC62" unicode="&#xfc62;" horiz-adv-x="0" arabic-form="isolated" 
d="M45 1355l25 130l463 156l-17 -127zM325 1751q-39 -75 -77 -105.5t-89 -30.5q-69 0 -103.5 41t-34.5 124q0 91 24 158h65q-10 -58 -10 -102q0 -30 12.5 -45t37.5 -15q57 0 85.5 53.5t37.5 178.5l63 2q0 -76 18 -114t55 -38q56 0 72 53t16 171l63 1l7 -50q10 -71 10 -125
q0 -99 -42 -159.5t-112 -60.5q-64 0 -98 63z" />
    <glyph glyph-name="uniFDF2" unicode="&#xfdf2;" horiz-adv-x="1825" arabic-form="isolated" 
d="M828 1618q-11 -42 -28 -42t-17 35l2 44q0 12 -17 118l-19 123q-7 41 -7 58q0 28 18.5 79t36.5 51q17 0 17 -43q0 -32 14 -201l8 -93q2 -32 2 -42q0 -67 -10 -87zM799 1339q-59 -110 -144 -110q-33 0 -49 23t-16 69q0 52 19 118t44 66q8 0 17 -32q10 -33 49 -33
q29 0 61 41q33 41 49 41q11 0 31 -37q19 -35 49 -35q20 0 49 33q32 35 39 35q23 0 23 -21q0 -74 -43.5 -131t-110.5 -57q-37 0 -67 30zM1389 336l-3 -61q-4 -31 -11 -62q-14 -62 -37 -114q-20 -40 -37 -54q-36 -33 -78 -31q-60 0 -115.5 48.5t-106.5 146.5
q-82 -150 -138 -181.5t-120 -31.5q-106 0 -164.5 38t-105.5 179q-55 -100 -85 -110.5t-136 -10.5q-40 0 -106 24.5t-66 55.5q0 25 42.5 111.5t63.5 109t113 69.5t156 73q-6 82 -6 118v37q0 18 1 20q4 34 68 74l13 -185q8 -119 33.5 -206.5t68.5 -131.5t104 -44
q39 0 94.5 13.5t79 54t29.5 61.5l-115 547q52 151 80 151q17 0 127 -552q20 -102 85.5 -179t148.5 -77q24 0 36.5 13.5t12.5 41.5q0 13 -74 325l-74 306q0 10 19 47l18 35q20 40 27 40q15 0 28 -61l71 -329q59 -273 59 -318zM473 326q-10 50 -14 108q-34 0 -145 -50
t-111 -77q0 -19 35 -28t106 -9q33 0 68 21q16 11 51 29q8 4 10 6zM494 990z" />
    <glyph glyph-name="uniFE80" unicode="&#x621;" horiz-adv-x="1040" arabic-form="isolated" 
d="M829 633q-135 92 -279 92q-82 0 -125 -62.5t-43 -107.5q0 -64 39.5 -95t81.5 -31l10 1q161 19 252 19q17 0 38 -1l125 -7l-75 -246l-89 1q-248 0 -347.5 -41.5t-174.5 -123.5l-94 99q49 107 132 164q-62 31 -95 79.5t-33 101.5q0 196 120 358.5t286 162.5q184 0 273 -144
zM864 990z" />
    <glyph glyph-name="uniFE81" unicode="&#x622;" horiz-adv-x="716" arabic-form="isolated" 
d="M486 1604q-4 -106 -4 -201q0 -154 12 -344q22 -351 22 -424q0 -322 -65 -499l-197 -166q18 119 21 346v101q1 145 -37 453q-38 301 -38 439zM494 1760zM855 1984q-51 -104 -126 -166.5t-236 -62.5q-66 0 -194 48t-167 48q-142 0 -235 -135l-48 78q110 248 310 248
q58 0 176 -52q119 -53 181 -53q141 0 202 27.5t109 80.5z" />
    <glyph glyph-name="uniFE82" unicode="&#x622;" horiz-adv-x="719" arabic-form="final" 
d="M613 0q-146 0 -214.5 50.5t-92 133t-23.5 252.5q0 37 2 85l8 196q2 48 2 83q0 412 -27 565l250 265q30 -189 30 -411q0 -66 -4 -151l-19 -349q-5 -83 -5 -151q0 -141 41 -174.5t132 -33.5h116v-360h-196zM344 1760zM906 2014q-51 -104 -126 -166.5t-236 -62.5
q-66 0 -194 48t-167 48q-142 0 -235 -135l-48 78q110 248 310 248q58 0 176 -52q119 -53 181 -53q141 0 202 27.5t109 80.5z" />
    <glyph glyph-name="uniFE83" unicode="&#x623;" horiz-adv-x="716" arabic-form="isolated" 
d="M486 1604q-4 -106 -4 -201q0 -154 12 -344q22 -351 22 -424q0 -322 -65 -499l-197 -166q18 119 21 346v101q1 145 -37 453q-38 301 -38 439zM494 1760zM443 1997q-21 5 -44 5q-58 0 -102.5 -29t-44.5 -69q0 -25 34 -45.5t65 -20.5q62 9 205 55l-8 -145q-14 -5 -106 -31
q-161 -46 -218.5 -74t-79.5 -52l-48 56q27 80 121 120q-77 35 -98.5 69t-21.5 90q0 75 90 139t195 64q76 0 114 -18z" />
    <glyph glyph-name="uniFE84" unicode="&#x623;" horiz-adv-x="719" arabic-form="final" 
d="M613 0q-146 0 -214.5 50.5t-92 133t-23.5 252.5q0 37 2 85l8 196q2 48 2 83q0 412 -27 565l250 265q30 -189 30 -411q0 -66 -4 -151l-19 -349q-5 -83 -5 -151q0 -141 41 -174.5t132 -33.5h116v-360h-196zM344 1760zM476 1997q-21 5 -44 5q-58 0 -102.5 -29t-44.5 -69
q0 -25 34 -45.5t65 -20.5q62 9 205 55l-8 -145q-14 -5 -106 -31q-161 -46 -218.5 -74t-79.5 -52l-48 56q27 80 121 120q-77 35 -98.5 69t-21.5 90q0 75 90 139t195 64q76 0 114 -18z" />
    <glyph glyph-name="uniFE85" unicode="&#x624;" horiz-adv-x="1180" arabic-form="isolated" 
d="M190 -935l-390 176q527 116 764 298.5t258 472.5q-68 -17 -166 -17q-245 0 -367 102.5t-122 308.5q0 215 103.5 347t290.5 132q225 0 360 -208t135 -507q0 -504 -235.5 -804.5t-630.5 -300.5zM784 317q-46 132 -117.5 198.5t-167.5 66.5q-47 0 -89.5 -48t-42.5 -103
q0 -62 70.5 -92.5t236.5 -30.5q60 0 110 9zM944 990zM630 1357q-21 5 -44 5q-58 0 -102.5 -29t-44.5 -69q0 -25 34 -45.5t65 -20.5q62 9 205 55l-8 -145q-14 -5 -106 -31q-161 -46 -218.5 -74t-79.5 -52l-48 56q27 80 121 120q-77 35 -98.5 69t-21.5 90q0 75 90 139t195 64
q76 0 114 -18z" />
    <glyph glyph-name="uniFE86" unicode="&#x624;" horiz-adv-x="1100" arabic-form="final" 
d="M1022 360h209v-360h-200q-10 -400 -255 -678.5t-606 -278.5l-390 176q259 60 418.5 112.5t291 139t208 217.5t101.5 312q-157 0 -266 11t-203 61.5t-143.5 139t-49.5 212.5q0 209 110.5 346.5t293.5 137.5q185 0 314 -154.5t167 -393.5zM799 360q-45 130 -135 194.5
t-185 64.5q-47 0 -86.5 -38.5t-39.5 -85.5q0 -69 77.5 -102t368.5 -33zM944 990zM640 1357q-21 5 -44 5q-58 0 -102.5 -29t-44.5 -69q0 -25 34 -45.5t65 -20.5q62 9 205 55l-8 -145q-14 -5 -106 -31q-161 -46 -218.5 -74t-79.5 -52l-48 56q27 80 121 120q-77 35 -98.5 69
t-21.5 90q0 75 90 139t195 64q76 0 114 -18z" />
    <glyph glyph-name="uniFE87" unicode="&#x625;" horiz-adv-x="725" arabic-form="isolated" 
d="M479 1748q-1 -47 -1 -92q0 -181 21 -485l18 -246q8 -120 8 -215q0 -373 -65 -551l-197 -166q18 119 21 389v110q1 143 -42 494q-42 345 -42 479zM214 1760zM499 -255q-21 5 -44 5q-58 0 -102.5 -29t-44.5 -69q0 -25 34 -45.5t65 -20.5q62 9 205 55l-8 -145
q-14 -5 -106 -31q-161 -46 -218.5 -74t-79.5 -52l-48 56q27 80 121 120q-77 35 -98.5 69t-21.5 90q0 75 90 139t195 64q76 0 114 -18z" />
    <glyph glyph-name="uniFE88" unicode="&#x625;" horiz-adv-x="728" arabic-form="final" 
d="M583 1q-146 0 -214.5 50.5t-91.5 133.5t-23 252q0 37 2 94l8 237q2 59 2 93v193q-1 309 -30 432l253 265q30 -221 30 -521q0 -106 -14 -330t-14 -331q0 -142 41.5 -175t132.5 -33h184v-360h-266zM304 1760zM498 -290q-21 5 -44 5q-58 0 -102.5 -29t-44.5 -69
q0 -25 34 -45.5t65 -20.5q62 9 205 55l-8 -145q-14 -5 -106 -31q-161 -46 -218.5 -74t-79.5 -52l-48 56q27 80 121 120q-77 35 -98.5 69t-21.5 90q0 75 90 139t195 64q76 0 114 -18z" />
    <glyph glyph-name="uniFE89" unicode="&#x626;" horiz-adv-x="1854" arabic-form="isolated" 
d="M1590 679q-26 45 -59 74.5t-70 42.5t-101 13q-136 0 -235.5 -44t-99.5 -116q0 -84 198 -124q148 -26 196 -39t100 -39t83.5 -72.5t31.5 -109.5q0 -273 -291 -485.5t-603 -212.5q-282 0 -446 159t-164 439q0 82 20 179.5t109 291.5l198 76q-89 -205 -89 -364
q0 -217 94.5 -317t304.5 -100q243 0 421.5 54t178.5 154q0 33 -107 57q-204 31 -284 70.5t-111.5 99t-31.5 137.5q0 244 171 441.5t408 197.5q143 0 226.5 -84t85.5 -223zM944 990zM709 1357q-21 5 -44 5q-58 0 -102.5 -29t-44.5 -69q0 -25 34 -45.5t65 -20.5q62 9 205 55
l-8 -145q-14 -5 -106 -31q-161 -46 -218.5 -74t-79.5 -52l-48 56q27 80 121 120q-77 35 -98.5 69t-21.5 90q0 75 90 139t195 64q76 0 114 -18z" />
    <glyph glyph-name="uniFE8A" unicode="&#x626;" horiz-adv-x="1633" arabic-form="final" 
d="M1474 1q-185 0 -277.5 -12.5t-92.5 -38.5q0 -15 86 -39q130 -33 206 -59.5t113.5 -68t37.5 -91.5q0 -211 -278 -380.5t-593 -169.5q-247 0 -401 167t-154 425q0 221 122 467l236 103q-56 -111 -83 -195t-27 -172q0 -223 107.5 -335t322.5 -112q155 0 299 29t144 76
q0 13 -14.5 22t-67.5 24q-110 31 -230 78.5t-120 158.5q0 64 32 127t111 138t153 129.5t170 71.5t270 17h217v-360h-289zM800 988q-21 5 -44 5q-58 0 -102.5 -29t-44.5 -69q0 -25 34 -45.5t65 -20.5q62 9 205 55l-8 -145q-14 -5 -106 -31q-161 -46 -218.5 -74t-79.5 -52
l-48 56q27 80 121 120q-77 35 -98.5 69t-21.5 90q0 75 90 139t195 64q76 0 114 -18z" />
    <glyph glyph-name="uniFE8B" unicode="&#x626;" horiz-adv-x="1000" arabic-form="initial" 
d="M741 949q128 -258 128 -566q0 -183 -103 -282.5t-367 -99.5h-273q-111 0 -213.5 117.5t-102.5 242.5h316q396 0 447 10q26 5 40 16t17 28v22q0 25 -23 78t-84 123zM144 990zM620 1407q-21 5 -44 5q-58 0 -102.5 -29t-44.5 -69q0 -25 34 -45.5t65 -20.5q62 9 205 55
l-8 -145q-14 -5 -106 -31q-161 -46 -218.5 -74t-79.5 -52l-48 56q27 80 121 120q-77 35 -98.5 69t-21.5 90q0 75 90 139t195 64q76 0 114 -18z" />
    <glyph glyph-name="uniFE8C" unicode="&#x626;" horiz-adv-x="995" arabic-form="medial" 
d="M1019 0q-76 0 -139 55t-121 155q-46 -105 -114.5 -157.5t-159.5 -52.5h-355q-68 0 -149 66t-126 149t-45 145h632q79 0 118.5 14.5t39.5 44.5q0 113 -101 265l245 258q4 -11 60 -296q44 -225 61.5 -255.5t247.5 -30.5v-360h-94zM144 990zM620 1407q-21 5 -44 5
q-58 0 -102.5 -29t-44.5 -69q0 -25 34 -45.5t65 -20.5q62 9 205 55l-8 -145q-14 -5 -106 -31q-161 -46 -218.5 -74t-79.5 -52l-48 56q27 80 121 120q-77 35 -98.5 69t-21.5 90q0 75 90 139t195 64q76 0 114 -18z" />
    <glyph glyph-name="uniFE8D" unicode="&#x627;" horiz-adv-x="725" arabic-form="isolated" 
d="M479 1748q-1 -47 -1 -92q0 -181 21 -485l18 -246q8 -120 8 -215q0 -373 -65 -551l-197 -166q18 119 21 389v110q1 143 -42 494q-42 345 -42 479zM214 1760z" />
    <glyph glyph-name="uniFE8E" unicode="&#x627;" horiz-adv-x="728" arabic-form="final" 
d="M583 1q-146 0 -214.5 50.5t-91.5 133.5t-23 252q0 37 2 94l8 237q2 59 2 93v193q-1 309 -30 432l253 265q30 -221 30 -521q0 -106 -14 -330t-14 -331q0 -142 41.5 -175t132.5 -33h184v-360h-266zM304 1760z" />
    <glyph glyph-name="uniFE8F" unicode="&#x628;" horiz-adv-x="2127" arabic-form="isolated" 
d="M1882 986q115 -234 115 -566q0 -194 -80 -294.5t-206 -122t-454 -21.5q-459 0 -644 17t-290.5 68t-149 135.5t-43.5 203.5q0 157 78 372l208 96q-71 -156 -71 -267q0 -112 58 -176t251.5 -86t534.5 -22q153 0 276 4.5t177 12.5l87 12q32 5 50 18.5t18 33.5q0 97 -121 272
zM644 990zM1100 -523l-170 144l150 172l170 -144z" />
    <glyph glyph-name="uniFE90" unicode="&#x628;" horiz-adv-x="2127" arabic-form="final" 
d="M1882 986q115 -234 115 -566q0 -194 -80 -294.5t-206 -122t-454 -21.5q-459 0 -644 17t-290.5 68t-149 135.5t-43.5 203.5q0 157 78 372l208 96q-71 -156 -71 -267q0 -112 58 -176t251.5 -86t534.5 -22q153 0 276 4.5t177 12.5l87 12q32 5 50 18.5t18 33.5q0 97 -121 272
zM644 990zM1100 -523l-170 144l150 172l170 -144z" />
    <glyph glyph-name="uniFE91" unicode="&#x628;" horiz-adv-x="1000" arabic-form="initial" 
d="M741 949q128 -258 128 -566q0 -183 -103 -282.5t-367 -99.5h-273q-111 0 -213.5 117.5t-102.5 242.5h316q396 0 447 10q26 5 40 16t17 28v22q0 25 -23 78t-84 123zM144 990zM416 -523l-170 144l150 172l170 -144z" />
    <glyph glyph-name="uniFE92" unicode="&#x628;" horiz-adv-x="995" arabic-form="medial" 
d="M1019 0q-76 0 -139 55t-121 155q-46 -105 -114.5 -157.5t-159.5 -52.5h-355q-68 0 -149 66t-126 149t-45 145h632q79 0 118.5 14.5t39.5 44.5q0 113 -101 265l245 258q4 -11 60 -296q44 -225 61.5 -255.5t247.5 -30.5v-360h-94zM144 990zM688 -523l-170 144l150 172
l170 -144z" />
    <glyph glyph-name="uniFE93" unicode="&#x629;" horiz-adv-x="1149" arabic-form="isolated" 
d="M407 1102q76 -91 271 -200q341 -183 341 -417q0 -173 -143.5 -334t-317.5 -161q-166 0 -297 98.5t-131 252.5q0 235 168 373q-36 16 -104 107zM799 339q-10 35 -32 68.5t-58.5 67.5t-67 52t-116.5 53q-79 32 -113 57q-36 -91 -36 -121q0 -106 76 -172.5t193 -66.5
q73 0 102 9.5t52 52.5zM944 990zM629 1393l-154 130l-137 -158l-168 144l146 172l154 -123l133 156l174 -142z" />
    <glyph glyph-name="uniFE94" unicode="&#x629;" horiz-adv-x="1142" arabic-form="final" 
d="M1088 0q-150 0 -232 72t-124 242q-138 -157 -211 -157q-97 0 -242 79t-145 175q0 63 48 148t126 170.5t99 97.5t57 27q99 35 138.5 53t84.5 46l-4 55q-3 30 -8 69l206 208q0 -128 10 -332l17 -306q7 -103 31 -167.5t62 -91.5t101 -27h170v-361h-184zM715 513l-16 215
q-31 -19 -211 -91q-116 -46 -116 -79q0 -31 73.5 -46.5t221.5 -15.5q27 0 48 17zM944 990zM629 1413l-154 130l-137 -158l-168 144l146 172l154 -123l133 156l174 -142z" />
    <glyph glyph-name="uniFE95" unicode="&#x62a;" horiz-adv-x="2127" arabic-form="isolated" 
d="M1882 986q115 -234 115 -566q0 -194 -80 -294.5t-206 -122t-454 -21.5q-459 0 -644 17t-290.5 68t-149 135.5t-43.5 203.5q0 157 78 372l208 96q-71 -156 -71 -267q0 -112 58 -176t251.5 -86t534.5 -22q153 0 276 4.5t177 12.5l87 12q32 5 50 18.5t18 33.5q0 97 -121 272
zM644 990zM1279 1043l-154 130l-137 -158l-168 144l146 172l154 -123l133 156l174 -142z" />
    <glyph glyph-name="uniFE96" unicode="&#x62a;" horiz-adv-x="2127" arabic-form="final" 
d="M1882 986q115 -234 115 -566q0 -194 -80 -294.5t-206 -122t-454 -21.5q-459 0 -644 17t-290.5 68t-149 135.5t-43.5 203.5q0 157 78 372l208 96q-71 -156 -71 -267q0 -112 58 -176t251.5 -86t534.5 -22q153 0 276 4.5t177 12.5l87 12q32 5 50 18.5t18 33.5q0 97 -121 272
zM644 990zM1279 1043l-154 130l-137 -158l-168 144l146 172l154 -123l133 156l174 -142z" />
    <glyph glyph-name="uniFE97" unicode="&#x62a;" horiz-adv-x="1000" arabic-form="initial" 
d="M741 949q128 -258 128 -566q0 -183 -103 -282.5t-367 -99.5h-273q-111 0 -213.5 117.5t-102.5 242.5h316q396 0 447 10q26 5 40 16t17 28v22q0 25 -23 78t-84 123zM144 990zM648 1143l-154 130l-137 -158l-168 144l146 172l154 -123l133 156l174 -142z" />
    <glyph glyph-name="uniFE98" unicode="&#x62a;" horiz-adv-x="995" arabic-form="medial" 
d="M1019 0q-76 0 -139 55t-121 155q-46 -105 -114.5 -157.5t-159.5 -52.5h-355q-68 0 -149 66t-126 149t-45 145h632q79 0 118.5 14.5t39.5 44.5q0 113 -101 265l245 258q4 -11 60 -296q44 -225 61.5 -255.5t247.5 -30.5v-360h-94zM144 990zM680 1143l-154 130l-137 -158
l-168 144l146 172l154 -123l133 156l174 -142z" />
    <glyph glyph-name="uniFE99" unicode="&#x62b;" horiz-adv-x="2127" arabic-form="isolated" 
d="M1882 986q115 -234 115 -566q0 -194 -80 -294.5t-206 -122t-454 -21.5q-459 0 -644 17t-290.5 68t-149 135.5t-43.5 203.5q0 157 78 372l208 96q-71 -156 -71 -267q0 -112 58 -176t251.5 -86t534.5 -22q153 0 276 4.5t177 12.5l87 12q32 5 50 18.5t18 33.5q0 97 -121 272
zM644 990zM1106 1385l-171 144l150 174l171 -144zM1276 1068l-151 127l-137 -158l-168 143l145 173l153 -124l134 158l174 -143zM1354 1760z" />
    <glyph glyph-name="uniFE9A" unicode="&#x62b;" horiz-adv-x="2127" arabic-form="final" 
d="M1882 986q115 -234 115 -566q0 -194 -80 -294.5t-206 -122t-454 -21.5q-459 0 -644 17t-290.5 68t-149 135.5t-43.5 203.5q0 157 78 372l208 96q-71 -156 -71 -267q0 -112 58 -176t251.5 -86t534.5 -22q153 0 276 4.5t177 12.5l87 12q32 5 50 18.5t18 33.5q0 97 -121 272
zM644 990zM1106 1385l-171 144l150 174l171 -144zM1276 1068l-151 127l-137 -158l-168 143l145 173l153 -124l134 158l174 -143zM1354 1760z" />
    <glyph glyph-name="uniFE9B" unicode="&#x62b;" horiz-adv-x="1000" arabic-form="initial" 
d="M741 949q128 -258 128 -566q0 -183 -103 -282.5t-367 -99.5h-273q-111 0 -213.5 117.5t-102.5 242.5h316q396 0 447 10q26 5 40 16t17 28v22q0 25 -23 78t-84 123zM144 990zM493 1530l-171 144l150 174l171 -144zM663 1213l-151 127l-137 -158l-168 143l145 173l153 -124
l134 158l174 -143zM741 1905z" />
    <glyph glyph-name="uniFE9C" unicode="&#x62b;" horiz-adv-x="995" arabic-form="medial" 
d="M1019 0q-76 0 -139 55t-121 155q-46 -105 -114.5 -157.5t-159.5 -52.5h-355q-68 0 -149 66t-126 149t-45 145h632q79 0 118.5 14.5t39.5 44.5q0 113 -101 265l245 258q4 -11 60 -296q44 -225 61.5 -255.5t247.5 -30.5v-360h-94zM144 990zM523 1530l-171 144l150 174
l171 -144zM693 1213l-151 127l-137 -158l-168 143l145 173l153 -124l134 158l174 -143zM771 1905z" />
    <glyph glyph-name="uniFE9D" unicode="&#x62c;" horiz-adv-x="1816" arabic-form="isolated" 
d="M1594 485q-486 0 -806 -193t-320 -510q0 -261 178.5 -402.5t492.5 -141.5q329 0 727 201l-63 -258q-356 -266 -724 -266q-416 0 -645.5 217t-229.5 611q0 264 202 496.5t574 358.5q-100 40 -236.5 66.5t-252.5 26.5q-110 0 -193.5 -29t-167.5 -95l7 275q168 154 390 154
q173 0 438 -96q266 -96 540 -96q70 0 118 3l122 6l-89 -328h-62zM144 990zM1072 -328l-170 144l150 172l170 -144z" />
    <glyph glyph-name="uniFE9E" unicode="&#x62c;" horiz-adv-x="1800" arabic-form="final" 
d="M1661 502q-192 0 -296 -13q23 -128 149 -128h440v-361h-427q-162 0 -237 103.5t-84 360.5q-380 -110 -559 -277.5t-179 -404.5q0 -261 178.5 -402.5t492.5 -141.5q329 0 727 201l-63 -258q-356 -266 -724 -266q-416 0 -645.5 217t-229.5 611q0 264 202 496.5t574 358.5
q-100 40 -236.5 66.5t-252.5 26.5q-110 0 -193.5 -29t-167.5 -95l7 275q168 154 390 154q173 0 438 -96q266 -96 540 -96q70 0 118 3l122 6zM944 990zM1041 -360l-170 144l150 172l170 -144z" />
    <glyph glyph-name="uniFE9F" unicode="&#x62c;" horiz-adv-x="2010" arabic-form="initial" 
d="M267 863q69 69 176 111.5t214 42.5q181 0 440 -105q259 -106 519 -106h54q70 0 220 6l-90 -341q-193 0 -305.5 -10.5t-217 -51t-216.5 -116.5l-204 -139q-227 -154 -480 -154h-188q-72 0 -168.5 59.5t-153.5 142.5t-57 158h650q67 0 151 24.5t269 120.5q116 60 220 95
q-292 112 -479 112q-111 0 -195 -30.5t-165 -93.5zM144 990zM1073 -423l-170 144l150 172l170 -144z" />
    <glyph glyph-name="uniFEA0" unicode="&#x62c;" horiz-adv-x="1930" arabic-form="medial" 
d="M1630 0q-164 0 -237.5 97t-81.5 335q-93 -28 -165 -66.5t-204 -129.5q-66 -46 -189.5 -120.5t-225 -95.5t-186.5 -21h-167q-100 0 -215 118.5t-149 241.5h614q67 0 151 24.5t269 120.5q116 60 220 95q-292 112 -479 112q-111 0 -195 -30.5t-165 -93.5l6 275
q69 69 176 111.5t214 42.5q172 0 435 -105q262 -106 578 -106q70 0 220 6l-87 -328q-166 0 -295 -23q22 -99 145 -99h440v-361h-427zM144 990zM1062 -423l-170 144l150 172l170 -144z" />
    <glyph glyph-name="uniFEA1" unicode="&#x62d;" horiz-adv-x="1816" arabic-form="isolated" 
d="M1594 485q-486 0 -806 -193t-320 -510q0 -261 178.5 -402.5t492.5 -141.5q329 0 727 201l-63 -258q-356 -266 -724 -266q-416 0 -645.5 217t-229.5 611q0 264 202 496.5t574 358.5q-100 40 -236.5 66.5t-252.5 26.5q-110 0 -193.5 -29t-167.5 -95l7 275q168 154 390 154
q173 0 438 -96q266 -96 540 -96q70 0 118 3l122 6l-89 -328h-62zM144 990z" />
    <glyph glyph-name="uniFEA2" unicode="&#x62d;" horiz-adv-x="1800" arabic-form="final" 
d="M1661 502q-192 0 -296 -13q23 -128 149 -128h440v-361h-427q-162 0 -237 103.5t-84 360.5q-380 -110 -559 -277.5t-179 -404.5q0 -261 178.5 -402.5t492.5 -141.5q329 0 727 201l-63 -258q-356 -266 -724 -266q-416 0 -645.5 217t-229.5 611q0 264 202 496.5t574 358.5
q-100 40 -236.5 66.5t-252.5 26.5q-110 0 -193.5 -29t-167.5 -95l7 275q168 154 390 154q173 0 438 -96q266 -96 540 -96q70 0 118 3l122 6zM944 990z" />
    <glyph glyph-name="uniFEA3" unicode="&#x62d;" horiz-adv-x="2010" arabic-form="initial" 
d="M267 863q69 69 176 111.5t214 42.5q181 0 440 -105q259 -106 519 -106h54q70 0 220 6l-90 -341q-193 0 -305.5 -10.5t-217 -51t-216.5 -116.5l-204 -139q-227 -154 -480 -154h-188q-72 0 -168.5 59.5t-153.5 142.5t-57 158h650q67 0 151 24.5t269 120.5q116 60 220 95
q-292 112 -479 112q-111 0 -195 -30.5t-165 -93.5zM144 990z" />
    <glyph glyph-name="uniFEA4" unicode="&#x62d;" horiz-adv-x="1930" arabic-form="medial" 
d="M1630 0q-164 0 -237.5 97t-81.5 335q-93 -28 -165 -66.5t-204 -129.5q-66 -46 -189.5 -120.5t-225 -95.5t-186.5 -21h-167q-100 0 -215 118.5t-149 241.5h614q67 0 151 24.5t269 120.5q116 60 220 95q-292 112 -479 112q-111 0 -195 -30.5t-165 -93.5l6 275
q69 69 176 111.5t214 42.5q172 0 435 -105q262 -106 578 -106q70 0 220 6l-87 -328q-166 0 -295 -23q22 -99 145 -99h440v-361h-427zM144 990z" />
    <glyph glyph-name="uniFEA5" unicode="&#x62e;" horiz-adv-x="1816" arabic-form="isolated" 
d="M1594 485q-486 0 -806 -193t-320 -510q0 -261 178.5 -402.5t492.5 -141.5q329 0 727 201l-63 -258q-356 -266 -724 -266q-416 0 -645.5 217t-229.5 611q0 264 202 496.5t574 358.5q-100 40 -236.5 66.5t-252.5 26.5q-110 0 -193.5 -29t-167.5 -95l7 275q168 154 390 154
q173 0 438 -96q266 -96 540 -96q70 0 118 3l122 6l-89 -328h-62zM144 990zM977 1177l-170 144l150 172l170 -144z" />
    <glyph glyph-name="uniFEA6" unicode="&#x62e;" horiz-adv-x="1800" arabic-form="final" 
d="M1661 502q-192 0 -296 -13q23 -128 149 -128h440v-361h-427q-162 0 -237 103.5t-84 360.5q-380 -110 -559 -277.5t-179 -404.5q0 -261 178.5 -402.5t492.5 -141.5q329 0 727 201l-63 -258q-356 -266 -724 -266q-416 0 -645.5 217t-229.5 611q0 264 202 496.5t574 358.5
q-100 40 -236.5 66.5t-252.5 26.5q-110 0 -193.5 -29t-167.5 -95l7 275q168 154 390 154q173 0 438 -96q266 -96 540 -96q70 0 118 3l122 6zM944 990zM977 1177l-170 144l150 172l170 -144z" />
    <glyph glyph-name="uniFEA7" unicode="&#x62e;" horiz-adv-x="2010" arabic-form="initial" 
d="M267 863q69 69 176 111.5t214 42.5q181 0 440 -105q259 -106 519 -106h54q70 0 220 6l-90 -341q-193 0 -305.5 -10.5t-217 -51t-216.5 -116.5l-204 -139q-227 -154 -480 -154h-188q-72 0 -168.5 59.5t-153.5 142.5t-57 158h650q67 0 151 24.5t269 120.5q116 60 220 95
q-292 112 -479 112q-111 0 -195 -30.5t-165 -93.5zM144 990zM1029 1177l-170 144l150 172l170 -144z" />
    <glyph glyph-name="uniFEA8" unicode="&#x62e;" horiz-adv-x="1930" arabic-form="medial" 
d="M1630 0q-164 0 -237.5 97t-81.5 335q-93 -28 -165 -66.5t-204 -129.5q-66 -46 -189.5 -120.5t-225 -95.5t-186.5 -21h-167q-100 0 -215 118.5t-149 241.5h614q67 0 151 24.5t269 120.5q116 60 220 95q-292 112 -479 112q-111 0 -195 -30.5t-165 -93.5l6 275
q69 69 176 111.5t214 42.5q172 0 435 -105q262 -106 578 -106q70 0 220 6l-87 -328q-166 0 -295 -23q22 -99 145 -99h440v-361h-427zM144 990zM1042 1177l-170 144l150 172l170 -144z" />
    <glyph glyph-name="uniFEA9" unicode="&#x62f;" horiz-adv-x="1368" arabic-form="isolated" 
d="M993 1266q88 -147 147 -301t78.5 -309t19.5 -377q0 -121 -131 -209.5t-456 -88.5q-253 0 -331.5 26t-134 97.5t-55.5 182.5q0 86 57 238l142 77q-30 -80 -30 -143q0 -37 20.5 -60.5t55.5 -31t171 -7.5q437 0 499 59q-42 246 -271 490zM324 990z" />
    <glyph glyph-name="uniFEAA" unicode="&#x62f;" horiz-adv-x="1368" arabic-form="final" 
d="M993 1266q88 -147 147 -301t78.5 -309t19.5 -377q0 -121 -131 -209.5t-456 -88.5q-253 0 -331.5 26t-134 97.5t-55.5 182.5q0 86 57 238l142 77q-30 -80 -30 -143q0 -37 20.5 -60.5t55.5 -31t171 -7.5q437 0 499 59q-42 246 -271 490zM324 990z" />
    <glyph glyph-name="uniFEAB" unicode="&#x630;" horiz-adv-x="1368" arabic-form="isolated" 
d="M993 1266q88 -147 147 -301t78.5 -309t19.5 -377q0 -121 -131 -209.5t-456 -88.5q-253 0 -331.5 26t-134 97.5t-55.5 182.5q0 86 57 238l142 77q-30 -80 -30 -143q0 -37 20.5 -60.5t55.5 -31t171 -7.5q437 0 499 59q-42 246 -271 490zM324 990zM815 1475l-170 144
l150 172l170 -144z" />
    <glyph glyph-name="uniFEAC" unicode="&#x630;" horiz-adv-x="1368" arabic-form="final" 
d="M993 1266q88 -147 147 -301t78.5 -309t19.5 -377q0 -121 -131 -209.5t-456 -88.5q-253 0 -331.5 26t-134 97.5t-55.5 182.5q0 86 57 238l142 77q-30 -80 -30 -143q0 -37 20.5 -60.5t55.5 -31t171 -7.5q437 0 499 59q-42 246 -271 490zM324 990zM815 1475l-170 144
l150 172l170 -144z" />
    <glyph glyph-name="uniFEAD" unicode="&#x631;" horiz-adv-x="1004" arabic-form="isolated" 
d="M704 866q174 -284 174 -647q0 -486 -248 -770t-616 -301l-346 161q243 54 400 108.5t248 116t158.5 128.5t106 147t60.5 180t22 189q0 192 -210 416zM144 990z" />
    <glyph glyph-name="uniFEAE" unicode="&#x631;" horiz-adv-x="1004" arabic-form="final" 
d="M704 866q174 -284 174 -647q0 -486 -248 -770t-616 -301l-346 161q243 54 400 108.5t248 116t158.5 128.5t106 147t60.5 180t22 189q0 192 -210 416zM144 990z" />
    <glyph glyph-name="uniFEAF" unicode="&#x632;" horiz-adv-x="1004" arabic-form="isolated" 
d="M704 866q174 -284 174 -647q0 -486 -248 -770t-616 -301l-346 161q243 54 400 108.5t248 116t158.5 128.5t106 147t60.5 180t22 189q0 192 -210 416zM144 990zM493 1146l-170 144l150 172l170 -144z" />
    <glyph glyph-name="uniFEB0" unicode="&#x632;" horiz-adv-x="1004" arabic-form="final" 
d="M704 866q174 -284 174 -647q0 -486 -248 -770t-616 -301l-346 161q243 54 400 108.5t248 116t158.5 128.5t106 147t60.5 180t22 189q0 192 -210 416zM144 990zM493 1146l-170 144l150 172l170 -144z" />
    <glyph glyph-name="uniFEB1" unicode="&#x633;" horiz-adv-x="2631" arabic-form="isolated" 
d="M2359 963q74 -127 113 -241t39 -276q0 -204 -106.5 -328.5t-302.5 -124.5q-166 0 -272 91q-124 -103 -380 -103q-69 0 -109 8q1 -24 1 -47q0 -337 -175.5 -537.5t-502.5 -200.5q-243 0 -388.5 160.5t-145.5 418.5q0 189 163 511l193 94q-47 -102 -89 -273.5t-42 -252.5
q0 -147 90.5 -220.5t271.5 -73.5q217 0 325.5 87.5t108.5 261.5q0 168 -147 496l192 219q83 -109 118 -259q83 -34 223 -34q111 0 167 22.5t56 67.5q0 50 -59 142l262 235q22 -143 22 -255q0 -99 -17 -186q50 -16 130 -16q94 0 141 21t47 63q0 88 -141 264zM744 990z" />
    <glyph glyph-name="uniFEB2" unicode="&#x633;" horiz-adv-x="2631" arabic-form="final" 
d="M2359 963q74 -127 113 -241t39 -276q0 -204 -106.5 -328.5t-302.5 -124.5q-166 0 -272 91q-124 -103 -380 -103q-69 0 -109 8q1 -24 1 -47q0 -337 -175.5 -537.5t-502.5 -200.5q-243 0 -388.5 160.5t-145.5 418.5q0 189 163 511l193 94q-47 -102 -89 -273.5t-42 -252.5
q0 -147 90.5 -220.5t271.5 -73.5q217 0 325.5 87.5t108.5 261.5q0 168 -147 496l192 219q83 -109 118 -259q83 -34 223 -34q111 0 167 22.5t56 67.5q0 50 -59 142l262 235q22 -143 22 -255q0 -99 -17 -186q50 -16 130 -16q94 0 141 21t47 63q0 88 -141 264zM744 990z" />
    <glyph glyph-name="uniFEB3" unicode="&#x633;" horiz-adv-x="1852" arabic-form="initial" 
d="M1173 814q24 -113 24 -245q0 -94 -22 -198q51 -16 134 -16q94 0 141 22.5t47 68.5q0 89 -143 267l220 269q94 -186 117 -297.5t23 -279.5q0 -188 -107 -296t-292 -108q-172 0 -273 89q-119 -89 -369 -89q-111 0 -203 50q-84 -50 -217 -50h-123q-103 0 -208 112t-112 248
h466q143 0 154 12q15 24 15 66q0 44 -22 128l12 10q34 28 74 63l186 162q12 -76 12 -172q0 -133 -49 -259v-2q72 -12 164 -12q75 0 113 20t38 60q0 36 -50 134zM144 990z" />
    <glyph glyph-name="uniFEB4" unicode="&#x633;" horiz-adv-x="1852" arabic-form="medial" 
d="M1173 814q24 -113 24 -245q0 -94 -22 -198q51 -16 134 -16q94 0 141 22.5t47 68.5q0 89 -143 267l220 269q94 -186 117 -297.5t23 -279.5q0 -188 -107 -296t-292 -108q-172 0 -273 89q-119 -89 -369 -89q-111 0 -203 50q-84 -50 -217 -50h-123q-103 0 -208 112t-112 248
h466q143 0 154 12q15 24 15 66q0 44 -22 128l12 10q34 28 74 63l186 162q12 -76 12 -172q0 -133 -49 -259v-2q72 -12 164 -12q75 0 113 20t38 60q0 36 -50 134zM144 990z" />
    <glyph glyph-name="uniFEB5" unicode="&#x634;" horiz-adv-x="2631" arabic-form="isolated" 
d="M2359 963q74 -127 113 -241t39 -276q0 -204 -106.5 -328.5t-302.5 -124.5q-166 0 -272 91q-124 -103 -380 -103q-69 0 -109 8q1 -24 1 -47q0 -337 -175.5 -537.5t-502.5 -200.5q-243 0 -388.5 160.5t-145.5 418.5q0 189 163 511l193 94q-47 -102 -89 -273.5t-42 -252.5
q0 -147 90.5 -220.5t271.5 -73.5q217 0 325.5 87.5t108.5 261.5q0 168 -147 496l192 219q83 -109 118 -259q83 -34 223 -34q111 0 167 22.5t56 67.5q0 50 -59 142l262 235q22 -143 22 -255q0 -99 -17 -186q50 -16 130 -16q94 0 141 21t47 63q0 88 -141 264zM744 990z
M1816 1415l-171 144l150 174l171 -144zM1986 1098l-151 127l-137 -158l-168 143l145 173l153 -124l134 158l174 -143zM2064 1790z" />
    <glyph glyph-name="uniFEB6" unicode="&#x634;" horiz-adv-x="2631" arabic-form="final" 
d="M2359 963q74 -127 113 -241t39 -276q0 -204 -106.5 -328.5t-302.5 -124.5q-166 0 -272 91q-124 -103 -380 -103q-69 0 -109 8q1 -24 1 -47q0 -337 -175.5 -537.5t-502.5 -200.5q-243 0 -388.5 160.5t-145.5 418.5q0 189 163 511l193 94q-47 -102 -89 -273.5t-42 -252.5
q0 -147 90.5 -220.5t271.5 -73.5q217 0 325.5 87.5t108.5 261.5q0 168 -147 496l192 219q83 -109 118 -259q83 -34 223 -34q111 0 167 22.5t56 67.5q0 50 -59 142l262 235q22 -143 22 -255q0 -99 -17 -186q50 -16 130 -16q94 0 141 21t47 63q0 88 -141 264zM744 990z
M1816 1415l-171 144l150 174l171 -144zM1986 1098l-151 127l-137 -158l-168 143l145 173l153 -124l134 158l174 -143zM2064 1790z" />
    <glyph glyph-name="uniFEB7" unicode="&#x634;" horiz-adv-x="1852" arabic-form="initial" 
d="M1173 814q24 -113 24 -245q0 -94 -22 -198q51 -16 134 -16q94 0 141 22.5t47 68.5q0 89 -143 267l220 269q94 -186 117 -297.5t23 -279.5q0 -188 -107 -296t-292 -108q-172 0 -273 89q-119 -89 -369 -89q-111 0 -203 50q-84 -50 -217 -50h-123q-103 0 -208 112t-112 248
h466q143 0 154 12q15 24 15 66q0 44 -22 128l12 10q34 28 74 63l186 162q12 -76 12 -172q0 -133 -49 -259v-2q72 -12 164 -12q75 0 113 20t38 60q0 36 -50 134zM144 990zM1046 1425l-171 144l150 174l171 -144zM1216 1108l-151 127l-137 -158l-168 143l145 173l153 -124
l134 158l174 -143zM1294 1800z" />
    <glyph glyph-name="uniFEB8" unicode="&#x634;" horiz-adv-x="1852" arabic-form="medial" 
d="M1173 814q24 -113 24 -245q0 -94 -22 -198q51 -16 134 -16q94 0 141 22.5t47 68.5q0 89 -143 267l220 269q94 -186 117 -297.5t23 -279.5q0 -188 -107 -296t-292 -108q-172 0 -273 89q-119 -89 -369 -89q-111 0 -203 50q-84 -50 -217 -50h-123q-103 0 -208 112t-112 248
h466q143 0 154 12q15 24 15 66q0 44 -22 128l12 10q34 28 74 63l186 162q12 -76 12 -172q0 -133 -49 -259v-2q72 -12 164 -12q75 0 113 20t38 60q0 36 -50 134zM144 990zM1046 1425l-171 144l150 174l171 -144zM1216 1108l-151 127l-137 -158l-168 143l145 173l153 -124
l134 158l174 -143zM1294 1800z" />
    <glyph glyph-name="uniFEB9" unicode="&#x635;" horiz-adv-x="2656" arabic-form="isolated" 
d="M1188 604q85 -114 94 -240q240 317 433.5 466t364.5 149q207 0 326.5 -187t119.5 -468q0 -130 -59.5 -205.5t-183 -98t-545.5 -22.5l-270 1q-84 0 -131 3q3 -34 3 -67q0 -284 -168 -497.5t-497 -213.5q-258 0 -401.5 160.5t-143.5 421.5q0 171 161 513l201 95
q-136 -339 -136 -534q0 -146 92 -219t276 -73q212 0 318.5 80t106.5 239q0 216 -147 526zM1508 374q280 -12 389 -12h248q2 0 64 5.5t77 12t15 16.5q0 87 -88.5 157.5t-190.5 70.5q-120 0 -248.5 -62.5t-265.5 -187.5zM744 990z" />
    <glyph glyph-name="uniFEBA" unicode="&#x635;" horiz-adv-x="2656" arabic-form="final" 
d="M1188 604q85 -114 94 -240q240 317 433.5 466t364.5 149q207 0 326.5 -187t119.5 -468q0 -130 -59.5 -205.5t-183 -98t-545.5 -22.5l-270 1q-84 0 -131 3q3 -34 3 -67q0 -284 -168 -497.5t-497 -213.5q-258 0 -401.5 160.5t-143.5 421.5q0 171 161 513l201 95
q-136 -339 -136 -534q0 -146 92 -219t276 -73q212 0 318.5 80t106.5 239q0 216 -147 526zM1508 374q280 -12 389 -12h248q2 0 64 5.5t77 12t15 16.5q0 87 -88.5 157.5t-190.5 70.5q-120 0 -248.5 -62.5t-265.5 -187.5zM744 990z" />
    <glyph glyph-name="uniFEBB" unicode="&#x635;" horiz-adv-x="2134" arabic-form="initial" 
d="M624 692q-25 -152 -25 -213q0 -118 73 -118q81 0 170 111q199 247 375 370.5t329 123.5q207 0 326.5 -187t119.5 -468q0 -130 -59 -205.5t-183 -98t-546 -22.5q-251 0 -370 6t-219 34t-135 73q-72 -97 -320 -97q-63 0 -107.5 18t-105 71t-99 131t-38.5 140h368
q109 0 167.5 56t90.5 197zM1006 361q184 -12 356 -12h249q22 0 76 5.5t67 12t13 16.5q0 87 -88.5 157.5t-192.5 70.5q-94 0 -234 -76.5t-246 -173.5zM144 990z" />
    <glyph glyph-name="uniFEBC" unicode="&#x635;" horiz-adv-x="2134" arabic-form="medial" 
d="M624 692q-25 -152 -25 -213q0 -118 73 -118q81 0 170 111q199 247 375 370.5t329 123.5q207 0 326.5 -187t119.5 -468q0 -130 -59 -205.5t-183 -98t-546 -22.5q-251 0 -370 6t-219 34t-135 73q-72 -97 -320 -97q-63 0 -107.5 18t-105 71t-99 131t-38.5 140h368
q109 0 167.5 56t90.5 197zM1006 361q184 -12 356 -12h249q22 0 76 5.5t67 12t13 16.5q0 87 -88.5 157.5t-192.5 70.5q-94 0 -234 -76.5t-246 -173.5zM144 990z" />
    <glyph glyph-name="uniFEBD" unicode="&#x636;" horiz-adv-x="2656" arabic-form="isolated" 
d="M1188 604q85 -114 94 -240q240 317 433.5 466t364.5 149q207 0 326.5 -187t119.5 -468q0 -130 -59.5 -205.5t-183 -98t-545.5 -22.5l-270 1q-84 0 -131 3q3 -34 3 -67q0 -284 -168 -497.5t-497 -213.5q-258 0 -401.5 160.5t-143.5 421.5q0 171 161 513l201 95
q-136 -339 -136 -534q0 -146 92 -219t276 -73q212 0 318.5 80t106.5 239q0 216 -147 526zM1508 374q280 -12 389 -12h248q2 0 64 5.5t77 12t15 16.5q0 87 -88.5 157.5t-190.5 70.5q-120 0 -248.5 -62.5t-265.5 -187.5zM744 990zM1564 1217l-170 144l150 172l170 -144z" />
    <glyph glyph-name="uniFEBE" unicode="&#x636;" horiz-adv-x="2656" arabic-form="final" 
d="M1188 604q85 -114 94 -240q240 317 433.5 466t364.5 149q207 0 326.5 -187t119.5 -468q0 -130 -59.5 -205.5t-183 -98t-545.5 -22.5l-270 1q-84 0 -131 3q3 -34 3 -67q0 -284 -168 -497.5t-497 -213.5q-258 0 -401.5 160.5t-143.5 421.5q0 171 161 513l201 95
q-136 -339 -136 -534q0 -146 92 -219t276 -73q212 0 318.5 80t106.5 239q0 216 -147 526zM1508 374q280 -12 389 -12h248q2 0 64 5.5t77 12t15 16.5q0 87 -88.5 157.5t-190.5 70.5q-120 0 -248.5 -62.5t-265.5 -187.5zM744 990zM1564 1217l-170 144l150 172l170 -144z" />
    <glyph glyph-name="uniFEBF" unicode="&#x636;" horiz-adv-x="2134" arabic-form="initial" 
d="M624 692q-25 -152 -25 -213q0 -118 73 -118q81 0 170 111q199 247 375 370.5t329 123.5q207 0 326.5 -187t119.5 -468q0 -130 -59 -205.5t-183 -98t-546 -22.5q-251 0 -370 6t-219 34t-135 73q-72 -97 -320 -97q-63 0 -107.5 18t-105 71t-99 131t-38.5 140h368
q109 0 167.5 56t90.5 197zM1006 361q184 -12 356 -12h249q22 0 76 5.5t67 12t13 16.5q0 87 -88.5 157.5t-192.5 70.5q-94 0 -234 -76.5t-246 -173.5zM144 990zM893 1172l-170 144l150 172l170 -144z" />
    <glyph glyph-name="uniFEC0" unicode="&#x636;" horiz-adv-x="2134" arabic-form="medial" 
d="M624 692q-25 -152 -25 -213q0 -118 73 -118q81 0 170 111q199 247 375 370.5t329 123.5q207 0 326.5 -187t119.5 -468q0 -130 -59 -205.5t-183 -98t-546 -22.5q-251 0 -370 6t-219 34t-135 73q-72 -97 -320 -97q-63 0 -107.5 18t-105 71t-99 131t-38.5 140h368
q109 0 167.5 56t90.5 197zM1006 361q184 -12 356 -12h249q22 0 76 5.5t67 12t13 16.5q0 87 -88.5 157.5t-192.5 70.5q-94 0 -234 -76.5t-246 -173.5zM144 990zM893 1172l-170 144l150 172l170 -144z" />
    <glyph glyph-name="uniFEC1" unicode="&#x637;" horiz-adv-x="1782" arabic-form="isolated" 
d="M529 1765q33 -294 33 -940q0 -125 -16 -233q177 194 336 300.5t271 106.5q192 0 340 -171.5t148 -465.5q0 -158 -101 -245t-281.5 -104.5t-567.5 -21.5l-189 -1q-300 -2 -402.5 12.5t-196 119.5t-93.5 238h446q53 0 99 70q14 84 14 213q0 293 -15 485t-53 408zM578 358
q156 -13 368 -13q450 0 450 37q0 96 -104 168t-226 72q-106 0 -228 -66t-260 -198zM214 990zM144 1760z" />
    <glyph glyph-name="uniFEC2" unicode="&#x637;" horiz-adv-x="1782" arabic-form="final" 
d="M529 1765q33 -294 33 -940q0 -125 -16 -233q177 194 336 300.5t271 106.5q192 0 340 -171.5t148 -465.5q0 -158 -101 -245t-281.5 -104.5t-567.5 -21.5l-189 -1q-300 -2 -402.5 12.5t-196 119.5t-93.5 238h446q53 0 99 70q14 84 14 213q0 293 -15 485t-53 408zM578 358
q156 -13 368 -13q450 0 450 37q0 96 -104 168t-226 72q-106 0 -228 -66t-260 -198zM214 990zM144 1760z" />
    <glyph glyph-name="uniFEC3" unicode="&#x637;" horiz-adv-x="1782" arabic-form="initial" 
d="M529 1765q33 -294 33 -940q0 -125 -16 -233q177 194 336 300.5t271 106.5q192 0 340 -171.5t148 -465.5q0 -158 -101 -245t-281.5 -104.5t-567.5 -21.5l-189 -1q-300 -2 -402.5 12.5t-196 119.5t-93.5 238h446q53 0 99 70q14 84 14 213q0 293 -15 485t-53 408zM578 358
q156 -13 368 -13q450 0 450 37q0 96 -104 168t-226 72q-106 0 -228 -66t-260 -198zM214 990zM144 1760z" />
    <glyph glyph-name="uniFEC4" unicode="&#x637;" horiz-adv-x="1782" arabic-form="medial" 
d="M529 1765q33 -294 33 -940q0 -125 -16 -233q177 194 336 300.5t271 106.5q192 0 340 -171.5t148 -465.5q0 -158 -101 -245t-281.5 -104.5t-567.5 -21.5l-189 -1q-300 -2 -402.5 12.5t-196 119.5t-93.5 238h446q53 0 99 70q14 84 14 213q0 293 -15 485t-53 408zM578 358
q156 -13 368 -13q450 0 450 37q0 96 -104 168t-226 72q-106 0 -228 -66t-260 -198zM214 990zM144 1760z" />
    <glyph glyph-name="uniFEC5" unicode="&#x638;" horiz-adv-x="1782" arabic-form="isolated" 
d="M529 1765q33 -294 33 -940q0 -125 -16 -233q177 194 336 300.5t271 106.5q192 0 340 -171.5t148 -465.5q0 -158 -101 -245t-281.5 -104.5t-567.5 -21.5l-189 -1q-300 -2 -402.5 12.5t-196 119.5t-93.5 238h446q53 0 99 70q14 84 14 213q0 293 -15 485t-53 408zM578 358
q156 -13 368 -13q450 0 450 37q0 96 -104 168t-226 72q-106 0 -228 -66t-260 -198zM214 990zM144 1760zM869 1207l-170 144l150 172l170 -144z" />
    <glyph glyph-name="uniFEC6" unicode="&#x638;" horiz-adv-x="1782" arabic-form="final" 
d="M529 1765q33 -294 33 -940q0 -125 -16 -233q177 194 336 300.5t271 106.5q192 0 340 -171.5t148 -465.5q0 -158 -101 -245t-281.5 -104.5t-567.5 -21.5l-189 -1q-300 -2 -402.5 12.5t-196 119.5t-93.5 238h446q53 0 99 70q14 84 14 213q0 293 -15 485t-53 408zM578 358
q156 -13 368 -13q450 0 450 37q0 96 -104 168t-226 72q-106 0 -228 -66t-260 -198zM214 990zM144 1760zM869 1207l-170 144l150 172l170 -144z" />
    <glyph glyph-name="uniFEC7" unicode="&#x638;" horiz-adv-x="1782" arabic-form="initial" 
d="M529 1765q33 -294 33 -940q0 -125 -16 -233q177 194 336 300.5t271 106.5q192 0 340 -171.5t148 -465.5q0 -158 -101 -245t-281.5 -104.5t-567.5 -21.5l-189 -1q-300 -2 -402.5 12.5t-196 119.5t-93.5 238h446q53 0 99 70q14 84 14 213q0 293 -15 485t-53 408zM578 358
q156 -13 368 -13q450 0 450 37q0 96 -104 168t-226 72q-106 0 -228 -66t-260 -198zM214 990zM144 1760zM869 1207l-170 144l150 172l170 -144z" />
    <glyph glyph-name="uniFEC8" unicode="&#x638;" horiz-adv-x="1782" arabic-form="medial" 
d="M529 1765q33 -294 33 -940q0 -125 -16 -233q177 194 336 300.5t271 106.5q192 0 340 -171.5t148 -465.5q0 -158 -101 -245t-281.5 -104.5t-567.5 -21.5l-189 -1q-300 -2 -402.5 12.5t-196 119.5t-93.5 238h446q53 0 99 70q14 84 14 213q0 293 -15 485t-53 408zM578 358
q156 -13 368 -13q450 0 450 37q0 96 -104 168t-226 72q-106 0 -228 -66t-260 -198zM214 990zM144 1760zM869 1207l-170 144l150 172l170 -144z" />
    <glyph glyph-name="uniFEC9" unicode="&#x639;" horiz-adv-x="1400" arabic-form="isolated" 
d="M1133 412q-368 -116 -552 -278t-184 -372q0 -251 168.5 -394t456.5 -143q211 0 336 36t314 133l-55 -245q-299 -233 -694 -233q-365 0 -579 184.5t-214 514.5q0 147 68.5 302t206.5 320q-136 100 -204 195.5t-68 186.5q0 167 142 353.5t394 186.5q53 0 129.5 -11.5
t125.5 -29.5l40 -166q-90 20 -164 20q-142 0 -254 -62t-195 -186q27 -73 123 -146t195 -108q211 156 499 272zM144 990z" />
    <glyph glyph-name="uniFECA" unicode="&#x639;" horiz-adv-x="1583" arabic-form="final" 
d="M1444 1q-137 0 -236 27.5t-191 140.5q-55 67 -157 147q-239 -116 -345 -241t-106 -282q0 -251 185.5 -394.5t481.5 -143.5q338 0 676 164l-55 -263q-193 -130 -346 -176.5t-349 -46.5q-390 0 -630 215.5t-240 577.5q0 213 151.5 396.5t428.5 314.5q-182 146 -253 146
q-79 0 -121 -14q11 101 37 298q346 123 539 123q190 0 367 -60.5t177 -162.5q0 -28 -19 -97.5t-30.5 -100t-31.5 -48.5t-131 -60l-120 -45q40 -34 93 -44.5t143 -10.5h345v-360h-263zM791 694q103 -66 178 -136l123 44q36 12 53.5 30t17.5 41q0 28 -49.5 42t-148.5 14
q-55 0 -174 -35zM144 990z" />
    <glyph glyph-name="uniFECB" unicode="&#x639;" horiz-adv-x="1526" arabic-form="initial" 
d="M1219 812q-131 58 -270 58q-208 0 -425 -256q33 -108 260 -203q324 23 601 111l-91 -337q-537 -186 -916 -186h-255q-100 0 -206.5 125.5t-106.5 236.5l174 1q268 0 373 11q-86 113 -86 192q0 157 183.5 353.5t396.5 196.5q159 0 312 -90zM144 990z" />
    <glyph glyph-name="uniFECC" unicode="&#x639;" horiz-adv-x="1535" arabic-form="medial" 
d="M1315 0q-80 0 -162 45.5t-237 251.5q-248 -184 -399 -240.5t-321 -56.5h-58q-72 0 -155.5 64t-128 147t-44.5 150h337q237 0 334.5 12t245.5 74q-158 137 -256 137q-55 0 -121 -18q12 112 37 300q334 135 543 135q210 0 375.5 -60t165.5 -158q0 -64 -15.5 -126.5
t-31.5 -83.5t-58 -44.5t-216 -108.5q70 -59 188 -59h330v-361h-353zM793 690q125 -54 193 -118q98 40 151 65.5t53 50.5q0 28 -46 39t-143 11q-75 0 -208 -48zM144 990z" />
    <glyph glyph-name="uniFECD" unicode="&#x63a;" horiz-adv-x="1400" arabic-form="isolated" 
d="M1133 412q-368 -116 -552 -278t-184 -372q0 -251 168.5 -394t456.5 -143q211 0 336 36t314 133l-55 -245q-299 -233 -694 -233q-365 0 -579 184.5t-214 514.5q0 147 68.5 302t206.5 320q-136 100 -204 195.5t-68 186.5q0 167 142 353.5t394 186.5q53 0 129.5 -11.5
t125.5 -29.5l40 -166q-90 20 -164 20q-142 0 -254 -62t-195 -186q27 -73 123 -146t195 -108q211 156 499 272zM144 990zM554 1397l-170 144l150 172l170 -144z" />
    <glyph glyph-name="uniFECE" unicode="&#x63a;" horiz-adv-x="1583" arabic-form="final" 
d="M1444 1q-137 0 -236 27.5t-191 140.5q-55 67 -157 147q-239 -116 -345 -241t-106 -282q0 -251 185.5 -394.5t481.5 -143.5q338 0 676 164l-55 -263q-193 -130 -346 -176.5t-349 -46.5q-390 0 -630 215.5t-240 577.5q0 213 151.5 396.5t428.5 314.5q-182 146 -253 146
q-79 0 -121 -14q11 101 37 298q346 123 539 123q190 0 367 -60.5t177 -162.5q0 -28 -19 -97.5t-30.5 -100t-31.5 -48.5t-131 -60l-120 -45q40 -34 93 -44.5t143 -10.5h345v-360h-263zM791 694q103 -66 178 -136l123 44q36 12 53.5 30t17.5 41q0 28 -49.5 42t-148.5 14
q-55 0 -174 -35zM144 990zM918 1230l-170 144l150 172l170 -144z" />
    <glyph glyph-name="uniFECF" unicode="&#x63a;" horiz-adv-x="1526" arabic-form="initial" 
d="M1219 812q-131 58 -270 58q-208 0 -425 -256q33 -108 260 -203q324 23 601 111l-91 -337q-537 -186 -916 -186h-255q-100 0 -206.5 125.5t-106.5 236.5l174 1q268 0 373 11q-86 113 -86 192q0 157 183.5 353.5t396.5 196.5q159 0 312 -90zM144 990zM755 1323l-170 144
l150 172l170 -144z" />
    <glyph glyph-name="uniFED0" unicode="&#x63a;" horiz-adv-x="1535" arabic-form="medial" 
d="M1315 0q-80 0 -162 45.5t-237 251.5q-248 -184 -399 -240.5t-321 -56.5h-58q-72 0 -155.5 64t-128 147t-44.5 150h337q237 0 334.5 12t245.5 74q-158 137 -256 137q-55 0 -121 -18q12 112 37 300q334 135 543 135q210 0 375.5 -60t165.5 -158q0 -64 -15.5 -126.5
t-31.5 -83.5t-58 -44.5t-216 -108.5q70 -59 188 -59h330v-361h-353zM793 690q125 -54 193 -118q98 40 151 65.5t53 50.5q0 28 -46 39t-143 11q-75 0 -208 -48zM144 990zM891 1277l-170 144l150 172l170 -144z" />
    <glyph glyph-name="uniFED1" unicode="&#x641;" horiz-adv-x="2290" arabic-form="isolated" 
d="M206 773l180 80q-54 -139 -54 -249q0 -92 73 -162t237 -88.5t712 -18.5q196 0 259 7q-323 123 -323 304q0 173 117.5 308t279.5 135q207 0 340 -194.5t133 -444.5q0 -126 -54.5 -219.5t-144.5 -149.5t-191 -75t-361 -19h-283q-460 0 -652 40t-268 137.5t-76 248.5
q0 160 76 360zM1886 349q6 63 6 106q0 140 -59.5 265.5t-170.5 125.5q-66 0 -98.5 -42t-32.5 -126q0 -174 355 -329zM944 990zM1644 1297l-170 144l150 172l170 -144z" />
    <glyph glyph-name="uniFED2" unicode="&#x641;" horiz-adv-x="2130" arabic-form="final" 
d="M2099 1q-150 1 -238 23t-209 120q-87 -84 -263.5 -115.5t-615.5 -31.5q-263 0 -385 43t-188 117.5t-66 240.5q0 62 19 167.5t59 223.5q112 45 180 75q-42 -138 -42 -231q0 -96 56 -168.5t150.5 -93t345.5 -20.5l272 1q116 0 210 9q-110 88 -110 233q0 154 188.5 303
t310.5 149q127 0 191 -77.5t64 -231.5q0 -155 -148 -359q60 -17 219 -17h159v-361zM1678 464q68 28 105.5 80t37.5 91q0 44 -40.5 84.5t-83.5 40.5q-49 0 -107.5 -37t-58.5 -80q0 -91 147 -179zM744 990zM1635 1287l-170 144l150 172l170 -144z" />
    <glyph glyph-name="uniFED3" unicode="&#x641;" horiz-adv-x="1256" arabic-form="initial" 
d="M536 361q-154 54 -221.5 126.5t-67.5 170.5q0 175 118 308.5t282 133.5q230 0 348.5 -220t118.5 -416q0 -226 -147 -345t-431 -119h-409q-104 0 -210.5 121.5t-106.5 239.5h726zM827 383q8 29 8 87q0 161 -59 268.5t-166 107.5q-74 0 -115 -49t-41 -129
q0 -71 100.5 -146.5t272.5 -138.5zM144 990zM573 1307l-170 144l150 172l170 -144z" />
    <glyph glyph-name="uniFED4" unicode="&#x641;" horiz-adv-x="1338" arabic-form="medial" 
d="M1285 0q-103 0 -209 24.5t-251 141.5q-59 -65 -190 -115.5t-268 -50.5h-231q-108 0 -217 122.5t-109 237.5l462 1q172 0 280 13q-91 86 -91 221q0 159 175 310t325 151q127 0 191 -79.5t64 -238.5q0 -84 -41.5 -185.5t-111.5 -170.5q66 -22 209 -22h13l171 1v-361h-171z
M860 459q80 39 113 85t33 112q0 69 -32 103.5t-95 34.5q-61 0 -126.5 -52.5t-65.5 -88.5q0 -81 173 -194zM144 990zM871 1267l-170 144l150 172l170 -144z" />
    <glyph glyph-name="uniFED5" unicode="&#x642;" horiz-adv-x="1729" arabic-form="isolated" 
d="M376 551q-52 -191 -52 -358q0 -235 155.5 -377t403.5 -142q257 0 382.5 95t128.5 289q-115 -33 -211 -33q-234 0 -325 92.5t-91 291.5q0 207 120 349.5t303 142.5q194 0 301.5 -202t107.5 -544q0 -408 -198.5 -626.5t-565.5 -218.5q-299 0 -502 192t-203 474
q0 265 67 480zM1371 348q-26 89 -105 167.5t-153 78.5q-67 0 -117 -35t-50 -84q0 -64 70.5 -105t168.5 -41q123 0 186 19zM544 990zM1312 1143l-154 130l-137 -158l-168 144l146 172l154 -123l133 156l174 -142z" />
    <glyph glyph-name="uniFED6" unicode="&#x642;" horiz-adv-x="1679" arabic-form="final" 
d="M1606 361h203v-360h-200q0 -330 -214 -525.5t-564 -195.5q-184 0 -348.5 88.5t-259 242t-94.5 338.5q0 116 9 198t48 251l188 114q-55 -197 -55 -369q0 -217 164 -363.5t391 -146.5q257 0 377 78.5t151 289.5h-43q-197 0 -322 27.5t-198 118.5t-73 271q0 173 131.5 316
t306.5 143q161 0 270.5 -154.5t131.5 -361.5zM1370 361q-29 93 -103.5 164.5t-143.5 71.5q-70 0 -118.5 -41t-48.5 -97q0 -34 22.5 -58.5t71 -32.5t190.5 -8l36 1h94zM574 990zM1208 1143l-154 130l-137 -158l-168 144l146 172l154 -123l133 156l174 -142z" />
    <glyph glyph-name="uniFED7" unicode="&#x642;" horiz-adv-x="1256" arabic-form="initial" 
d="M536 361q-154 54 -221.5 126.5t-67.5 170.5q0 175 118 308.5t282 133.5q230 0 348.5 -220t118.5 -416q0 -226 -147 -345t-431 -119h-409q-104 0 -210.5 121.5t-106.5 239.5h726zM827 383q8 29 8 87q0 161 -59 268.5t-166 107.5q-74 0 -115 -49t-41 -129
q0 -71 100.5 -146.5t272.5 -138.5zM144 990zM708 1312l-154 130l-137 -158l-168 144l146 172l154 -123l133 156l174 -142z" />
    <glyph glyph-name="uniFED8" unicode="&#x642;" horiz-adv-x="1338" arabic-form="medial" 
d="M1285 0q-103 0 -209 24.5t-251 141.5q-59 -65 -190 -115.5t-268 -50.5h-231q-108 0 -217 122.5t-109 237.5l462 1q172 0 280 13q-91 86 -91 221q0 159 175 310t325 151q127 0 191 -79.5t64 -238.5q0 -84 -41.5 -185.5t-111.5 -170.5q66 -22 209 -22h13l171 1v-361h-171z
M860 459q80 39 113 85t33 112q0 69 -32 103.5t-95 34.5q-61 0 -126.5 -52.5t-65.5 -88.5q0 -81 173 -194zM144 990zM986 1337l-154 130l-137 -158l-168 144l146 172l154 -123l133 156l174 -142z" />
    <glyph glyph-name="uniFED9" unicode="&#x643;" horiz-adv-x="2019" arabic-form="isolated" 
d="M1852 1781q35 -647 37 -1184v-266q0 -101 -41 -172t-109 -112t-219.5 -52.5t-445.5 -11.5q-286 0 -507 19t-329 133.5t-108 323.5q0 123 54 289l175 69q-37 -81 -37 -202q0 -81 28 -136t96.5 -91t202 -47.5t443.5 -11.5q320 0 422 13t129 40t27 102q0 536 -66 1117z
M1182 1155l-89 -8q-63 -6 -94 -26.5t-31 -54.5q0 -16 35 -25.5t106 -12.5q97 -5 146 -26.5t49 -60.5q0 -151 -75.5 -226t-225.5 -75q-135 0 -306 52l49 101q118 -27 211 -27q92 0 148 19.5t56 54.5q0 20 -58 24q-141 11 -196.5 22t-94.5 48t-39 98q0 118 140 188.5t282 70.5
q23 0 45 -2zM544 990zM1544 1760z" />
    <glyph glyph-name="uniFEDA" unicode="&#x643;" horiz-adv-x="2019" arabic-form="final" 
d="M1852 1781q35 -647 37 -1184v-266q0 -101 -41 -172t-109 -112t-219.5 -52.5t-445.5 -11.5q-286 0 -507 19t-329 133.5t-108 323.5q0 123 54 289l175 69q-37 -81 -37 -202q0 -81 28 -136t96.5 -91t202 -47.5t443.5 -11.5q320 0 422 13t129 40t27 102q0 536 -66 1117z
M1182 1155l-89 -8q-63 -6 -94 -26.5t-31 -54.5q0 -16 35 -25.5t106 -12.5q97 -5 146 -26.5t49 -60.5q0 -151 -75.5 -226t-225.5 -75q-135 0 -306 52l49 101q118 -27 211 -27q92 0 148 19.5t56 54.5q0 20 -58 24q-141 11 -196.5 22t-94.5 48t-39 98q0 118 140 188.5t282 70.5
q23 0 45 -2zM544 990zM1544 1760z" />
    <glyph glyph-name="uniFEDB" unicode="&#x643;" horiz-adv-x="1230" arabic-form="initial" 
d="M774 361q104 0 104 26q0 39 -105 118t-235 155q-257 145 -339.5 221t-82.5 155q0 51 12.5 102.5t41.5 112t79 105t172 103t306 122t430 132.5l-115 -313q-234 -44 -448.5 -127t-214.5 -131q0 -34 117 -102q135 -74 294.5 -221.5t236 -294.5t76.5 -296q0 -98 -75.5 -163
t-181.5 -65h-746q-101 0 -195.5 121.5t-94.5 239.5h964zM744 1760z" />
    <glyph glyph-name="uniFEDC" unicode="&#x643;" horiz-adv-x="1230" arabic-form="medial" 
d="M774 361q104 0 104 26q0 39 -105 118t-235 155q-257 145 -339.5 221t-82.5 155q0 51 12.5 102.5t41.5 112t79 105t172 103t306 122t430 132.5l-115 -313q-234 -44 -448.5 -127t-214.5 -131q0 -34 117 -102q135 -74 294.5 -221.5t236 -294.5t76.5 -296q0 -98 -75.5 -163
t-181.5 -65h-746q-101 0 -195.5 121.5t-94.5 239.5h964zM744 1760z" />
    <glyph glyph-name="uniFEDD" unicode="&#x644;" horiz-adv-x="1576" arabic-form="isolated" 
d="M395 511q-36 -90 -53.5 -157t-17.5 -156q0 -158 125.5 -246t349.5 -88q174 0 300 96.5t126 180.5q0 307 -100 1354q42 34 298 261l23 -1551v-10q0 -182 -91 -346t-267 -261t-386 -97q-317 0 -454.5 126t-137.5 407q0 198 75 384zM744 1760z" />
    <glyph glyph-name="uniFEDE" unicode="&#x644;" horiz-adv-x="1576" arabic-form="final" 
d="M395 511q-36 -90 -53.5 -157t-17.5 -156q0 -158 125.5 -246t349.5 -88q174 0 300 96.5t126 180.5q0 307 -100 1354q42 34 298 261l23 -1551v-10q0 -182 -91 -346t-267 -261t-386 -97q-317 0 -454.5 126t-137.5 407q0 198 75 384zM744 1760z" />
    <glyph glyph-name="uniFEDF" unicode="&#x644;" horiz-adv-x="910" arabic-form="initial" 
d="M758 1749q20 -470 23 -1006l1 -408q0 -158 -110.5 -246.5t-296.5 -88.5h-248q-102 0 -210 122t-108 234v5h538q121 0 164 24.5t43 153.5q0 228 -44 680l-28 277zM144 1760z" />
    <glyph glyph-name="uniFEE0" unicode="&#x644;" horiz-adv-x="910" arabic-form="medial" 
d="M758 1749q20 -470 23 -1006l1 -408q0 -158 -110.5 -246.5t-296.5 -88.5h-248q-102 0 -210 122t-108 234v5h538q121 0 164 24.5t43 153.5q0 228 -44 680l-28 277zM144 1760z" />
    <glyph glyph-name="uniFEE1" unicode="&#x645;" horiz-adv-x="1122" arabic-form="isolated" 
d="M229 -1210q-6 568 -53 909q-46 259 -46 379q0 136 108 193q-59 120 -59 269q0 152 83 244.5t222 92.5q134 0 247.5 -90t186 -243.5t72.5 -281.5q0 -137 -52.5 -209.5t-156.5 -72.5q-66 0 -164 21.5t-164 21.5q-32 0 -59.5 -22t-27.5 -52q0 -85 25 -218q42 -220 57.5 -357
t18.5 -302zM432 325q24 4 51 4q53 0 149 -26q96 -27 116 -27q41 0 41 35q0 64 -82.5 153t-170.5 89q-63 0 -94 -33.5t-31 -99.5q0 -51 21 -95zM344 990z" />
    <glyph glyph-name="uniFEE2" unicode="&#x645;" horiz-adv-x="1122" arabic-form="final" 
d="M229 -1210q-6 568 -53 909q-46 259 -46 379q0 136 108 193q-59 120 -59 269q0 152 83 244.5t222 92.5q134 0 247.5 -90t186 -243.5t72.5 -281.5q0 -137 -52.5 -209.5t-156.5 -72.5q-66 0 -164 21.5t-164 21.5q-32 0 -59.5 -22t-27.5 -52q0 -85 25 -218q42 -220 57.5 -357
t18.5 -302zM432 325q24 4 51 4q53 0 149 -26q96 -27 116 -27q41 0 41 35q0 64 -82.5 153t-170.5 89q-63 0 -94 -33.5t-31 -99.5q0 -51 21 -95zM344 990z" />
    <glyph glyph-name="uniFEE3" unicode="&#x645;" horiz-adv-x="1289" arabic-form="initial" 
d="M-190 361h308q150 0 204 188q55 190 160.5 282t235.5 92q185 0 308 -190.5t123 -430.5q0 -142 -73.5 -222.5t-176.5 -80.5q-238 0 -496 222q-31 -57 -102 -153q-70 -69 -171 -69q-112 0 -215 114.5t-105 247.5zM712 602q-41 0 -107 -38t-66 -71q0 -56 142.5 -131
t229.5 -75q77 0 77 31q0 118 -96.5 201t-179.5 83zM144 990z" />
    <glyph glyph-name="uniFEE4" unicode="&#x645;" horiz-adv-x="1289" arabic-form="medial" 
d="M-190 361h308q150 0 204 188q55 190 160.5 282t235.5 92q185 0 308 -190.5t123 -430.5q0 -142 -73.5 -222.5t-176.5 -80.5q-238 0 -496 222q-31 -57 -102 -153q-70 -69 -171 -69q-112 0 -215 114.5t-105 247.5zM712 602q-41 0 -107 -38t-66 -71q0 -56 142.5 -131
t229.5 -75q77 0 77 31q0 118 -96.5 201t-179.5 83zM144 990z" />
    <glyph glyph-name="uniFEE5" unicode="&#x646;" horiz-adv-x="1648" arabic-form="isolated" 
d="M1401 628q117 -223 117 -516q0 -358 -207 -574t-560 -216q-311 0 -466 163.5t-155 489.5q0 150 79 315l213 93q-78 -163 -78 -339q0 -173 114 -259.5t343 -86.5q237 0 356 75.5t119 225.5q0 192 -118 359zM818 962l-170 144l150 172l170 -144z" />
    <glyph glyph-name="uniFEE6" unicode="&#x646;" horiz-adv-x="1648" arabic-form="final" 
d="M1401 628q117 -223 117 -516q0 -358 -207 -574t-560 -216q-311 0 -466 163.5t-155 489.5q0 150 79 315l213 93q-78 -163 -78 -339q0 -173 114 -259.5t343 -86.5q237 0 356 75.5t119 225.5q0 192 -118 359zM818 962l-170 144l150 172l170 -144z" />
    <glyph glyph-name="uniFEE7" unicode="&#x646;" horiz-adv-x="1000" arabic-form="initial" 
d="M741 949q128 -258 128 -566q0 -183 -103 -282.5t-367 -99.5h-273q-111 0 -213.5 117.5t-102.5 242.5h316q396 0 447 10q26 5 40 16t17 28v22q0 25 -23 78t-84 123zM144 990zM543 1177l-170 144l150 172l170 -144z" />
    <glyph glyph-name="uniFEE8" unicode="&#x646;" horiz-adv-x="995" arabic-form="medial" 
d="M1019 0q-76 0 -139 55t-121 155q-46 -105 -114.5 -157.5t-159.5 -52.5h-355q-68 0 -149 66t-126 149t-45 145h632q79 0 118.5 14.5t39.5 44.5q0 113 -101 265l245 258q4 -11 60 -296q44 -225 61.5 -255.5t247.5 -30.5v-360h-94zM144 990zM558 1177l-170 144l150 172
l170 -144z" />
    <glyph glyph-name="uniFEE9" unicode="&#x647;" horiz-adv-x="1149" arabic-form="isolated" 
d="M407 1102q76 -91 271 -200q341 -183 341 -417q0 -173 -143.5 -334t-317.5 -161q-166 0 -297 98.5t-131 252.5q0 235 168 373q-36 16 -104 107zM799 339q-10 35 -32 68.5t-58.5 67.5t-67 52t-116.5 53q-79 32 -113 57q-36 -91 -36 -121q0 -106 76 -172.5t193 -66.5
q73 0 102 9.5t52 52.5zM944 990z" />
    <glyph glyph-name="uniFEEA" unicode="&#x647;" horiz-adv-x="1142" arabic-form="final" 
d="M1088 0q-150 0 -232 72t-124 242q-138 -157 -211 -157q-97 0 -242 79t-145 175q0 63 48 148t126 170.5t99 97.5t57 27q99 35 138.5 53t84.5 46l-4 55q-3 30 -8 69l206 208q0 -128 10 -332l17 -306q7 -103 31 -167.5t62 -91.5t101 -27h170v-361h-184zM715 513l-16 215
q-31 -19 -211 -91q-116 -46 -116 -79q0 -31 73.5 -46.5t221.5 -15.5q27 0 48 17zM944 990z" />
    <glyph glyph-name="uniFEEB" unicode="&#x647;" horiz-adv-x="1383" arabic-form="initial" 
d="M128 0q-71 0 -146.5 58.5t-123.5 146t-48 156.5h514q-5 25 -5 67q0 95 33 170.5t126 155.5q-55 20 -87 29l168 300q313 -74 498.5 -301t185.5 -519q0 -116 -80 -215.5t-123 -99.5q-84 0 -418 147q-64 -50 -135 -72.5t-126 -22.5h-233zM638 669q-118 -99 -118 -161
q0 -71 117 -132q44 14 93.5 71.5t49.5 100.5q0 24 -53.5 66.5t-88.5 54.5zM904 499q-15 -108 -85 -208q166 -88 236 -88q27 0 27 30q0 123 -178 266zM1034 990z" />
    <glyph glyph-name="uniFEEC" unicode="&#x647;" horiz-adv-x="1400" arabic-form="medial" 
d="M1364 0q-2 0 -114.5 -3t-164.5 -12q116 -149 116 -313q0 -141 -75 -222.5t-213 -81.5q-176 0 -278.5 154t-106.5 385l-182 -44l55 159q-112 -23 -303 -23q-99 0 -193.5 119t-94.5 242h412q194 0 306 41q47 248 188.5 424.5t321.5 176.5q84 0 135.5 -78.5t51.5 -176.5
q0 -125 -79 -248.5t-222 -219.5q179 82 378 82h216v-361h-154zM1073 733q0 22 -12.5 44.5t-28.5 22.5q-95 0 -189 -110.5t-144 -262.5q187 43 280.5 119.5t93.5 186.5zM1020 -450q-2 144 -95.5 254.5t-233.5 133.5q30 -174 112 -271t217 -117zM544 990z" />
    <glyph glyph-name="uniFEED" unicode="&#x648;" horiz-adv-x="1180" arabic-form="isolated" 
d="M190 -935l-390 176q527 116 764 298.5t258 472.5q-68 -17 -166 -17q-245 0 -367 102.5t-122 308.5q0 215 103.5 347t290.5 132q225 0 360 -208t135 -507q0 -504 -235.5 -804.5t-630.5 -300.5zM784 317q-46 132 -117.5 198.5t-167.5 66.5q-47 0 -89.5 -48t-42.5 -103
q0 -62 70.5 -92.5t236.5 -30.5q60 0 110 9zM944 990z" />
    <glyph glyph-name="uniFEEE" unicode="&#x648;" horiz-adv-x="1100" arabic-form="final" 
d="M1022 360h209v-360h-200q-10 -400 -255 -678.5t-606 -278.5l-390 176q259 60 418.5 112.5t291 139t208 217.5t101.5 312q-157 0 -266 11t-203 61.5t-143.5 139t-49.5 212.5q0 209 110.5 346.5t293.5 137.5q185 0 314 -154.5t167 -393.5zM799 360q-45 130 -135 194.5
t-185 64.5q-47 0 -86.5 -38.5t-39.5 -85.5q0 -69 77.5 -102t368.5 -33zM944 990z" />
    <glyph glyph-name="uniFEEF" unicode="&#x649;" horiz-adv-x="1854" arabic-form="isolated" 
d="M1590 679q-26 45 -59 74.5t-70 42.5t-101 13q-136 0 -235.5 -44t-99.5 -116q0 -84 198 -124q148 -26 196 -39t100 -39t83.5 -72.5t31.5 -109.5q0 -273 -291 -485.5t-603 -212.5q-282 0 -446 159t-164 439q0 82 20 179.5t109 291.5l198 76q-89 -205 -89 -364
q0 -217 94.5 -317t304.5 -100q243 0 421.5 54t178.5 154q0 33 -107 57q-204 31 -284 70.5t-111.5 99t-31.5 137.5q0 244 171 441.5t408 197.5q143 0 226.5 -84t85.5 -223zM944 990z" />
    <glyph glyph-name="uniFEF0" unicode="&#x649;" horiz-adv-x="1633" arabic-form="final" 
d="M1474 1q-185 0 -277.5 -12.5t-92.5 -38.5q0 -15 86 -39q130 -33 206 -59.5t113.5 -68t37.5 -91.5q0 -211 -278 -380.5t-593 -169.5q-247 0 -401 167t-154 425q0 221 122 467l236 103q-56 -111 -83 -195t-27 -172q0 -223 107.5 -335t322.5 -112q155 0 299 29t144 76
q0 13 -14.5 22t-67.5 24q-110 31 -230 78.5t-120 158.5q0 64 32 127t111 138t153 129.5t170 71.5t270 17h217v-360h-289z" />
    <glyph glyph-name="uniFEF1" unicode="&#x64a;" horiz-adv-x="1854" arabic-form="isolated" 
d="M1590 679q-26 45 -59 74.5t-70 42.5t-101 13q-136 0 -235.5 -44t-99.5 -116q0 -84 198 -124q148 -26 196 -39t100 -39t83.5 -72.5t31.5 -109.5q0 -273 -291 -485.5t-603 -212.5q-282 0 -446 159t-164 439q0 82 20 179.5t109 291.5l198 76q-89 -205 -89 -364
q0 -217 94.5 -317t304.5 -100q243 0 421.5 54t178.5 154q0 33 -107 57q-204 31 -284 70.5t-111.5 99t-31.5 137.5q0 244 171 441.5t408 197.5q143 0 226.5 -84t85.5 -223zM944 990zM1012 -857l-154 130l-137 -158l-168 144l146 172l154 -123l133 156l174 -142z" />
    <glyph glyph-name="uniFEF2" unicode="&#x64a;" horiz-adv-x="1633" arabic-form="final" 
d="M1474 1q-185 0 -277.5 -12.5t-92.5 -38.5q0 -15 86 -39q130 -33 206 -59.5t113.5 -68t37.5 -91.5q0 -211 -278 -380.5t-593 -169.5q-247 0 -401 167t-154 425q0 221 122 467l236 103q-56 -111 -83 -195t-27 -172q0 -223 107.5 -335t322.5 -112q155 0 299 29t144 76
q0 13 -14.5 22t-67.5 24q-110 31 -230 78.5t-120 158.5q0 64 32 127t111 138t153 129.5t170 71.5t270 17h217v-360h-289zM1239 -1197l-154 130l-137 -158l-168 144l146 172l154 -123l133 156l174 -142z" />
    <glyph glyph-name="uniFEF3" unicode="&#x64a;" horiz-adv-x="1000" arabic-form="initial" 
d="M741 949q128 -258 128 -566q0 -183 -103 -282.5t-367 -99.5h-273q-111 0 -213.5 117.5t-102.5 242.5h316q396 0 447 10q26 5 40 16t17 28v22q0 25 -23 78t-84 123zM144 990zM565 -507l-154 130l-137 -158l-168 144l146 172l154 -123l133 156l174 -142z" />
    <glyph glyph-name="uniFEF4" unicode="&#x64a;" horiz-adv-x="995" arabic-form="medial" 
d="M1019 0q-76 0 -139 55t-121 155q-46 -105 -114.5 -157.5t-159.5 -52.5h-355q-68 0 -149 66t-126 149t-45 145h632q79 0 118.5 14.5t39.5 44.5q0 113 -101 265l245 258q4 -11 60 -296q44 -225 61.5 -255.5t247.5 -30.5v-360h-94zM144 990zM786 -507l-154 130l-137 -158
l-168 144l146 172l154 -123l133 156l174 -142z" />
    <glyph glyph-name=".notdef" horiz-adv-x="1024" 
d="M51 0v1536h922v-1536h-922zM179 128h666v1280h-666v-1280z" />
    <glyph glyph-name=".null" horiz-adv-x="0" 
 />
    <glyph glyph-name="nonmarkingreturn" horiz-adv-x="496" 
 />
    <glyph glyph-name="space" unicode=" " horiz-adv-x="496" 
 />
    <glyph glyph-name="exclam" unicode="!" horiz-adv-x="662" 
d="M506 1491l-31 -973h-285l-30 973h346zM330 383q86 0 143 -56t57 -143t-58 -143.5t-142 -56.5q-85 0 -142 56.5t-57 143.5t56 143t143 56z" />
    <glyph glyph-name="quotedbl" unicode="&#x22;" horiz-adv-x="987" 
d="M883 1583l-39 -559h-244l-39 559h322zM428 1583l-39 -559h-244l-41 559h324z" />
    <glyph glyph-name="numbersign" unicode="#" horiz-adv-x="1401" 
d="M1319 899h-246l-43 -311h236v-187h-262l-56 -401h-215l55 401h-270l-57 -401h-215l55 401h-221v187h248l43 311h-238v184h264l56 408h217l-58 -408h271l57 408h215l-55 -408h219v-184zM858 899h-272l-43 -311h272z" />
    <glyph glyph-name="dollar" unicode="$" horiz-adv-x="1053" 
d="M651 51v-203h-254v183q-173 4 -313 39v202q189 -47 324 -47q124 0 181.5 42.5t57.5 129.5q0 58 -24 97t-71 71.5t-177 96.5q-162 79 -225.5 175t-63.5 234q0 144 80 240t231 131v211h254v-193q138 -3 256 -28v-199q-153 33 -266 33q-114 0 -165.5 -36.5t-51.5 -113.5
q0 -74 47.5 -119.5t190.5 -109.5q186 -86 254.5 -183t68.5 -237q0 -343 -334 -416z" />
    <glyph glyph-name="percent" unicode="%" horiz-adv-x="1849" 
d="M428 614q-170 0 -258 97.5t-88 357.5q0 232 88 333t260 101q168 0 254 -97.5t86 -336.5q0 -263 -87.5 -359t-254.5 -96zM426 1370q-59 0 -83 -57.5t-24 -243.5q0 -194 23 -257.5t84 -63.5t83.5 63t22.5 258t-25 248t-81 53zM1450 1491l-838 -1491h-213l838 1491h213z
M1423 -12q-171 0 -258.5 98t-87.5 356q0 228 88 331.5t262 103.5q170 0 255 -99.5t85 -335.5q0 -263 -88.5 -358.5t-255.5 -95.5zM1425 743q-57 0 -81.5 -55t-24.5 -246t22 -256t84 -65q59 0 82 57.5t23 263.5q0 200 -24.5 250.5t-80.5 50.5z" />
    <glyph glyph-name="ampersand" unicode="&#x26;" horiz-adv-x="1434" 
d="M956 104q-157 -120 -389 -120q-235 0 -361 103.5t-126 297.5q0 148 74 253.5t241 195.5q-82 107 -116.5 186.5t-34.5 157.5q0 164 107 251t308 87q190 0 294 -81t104 -227q0 -105 -67.5 -198t-229.5 -201l266 -346q70 119 113 311l241 -59q-60 -266 -213 -439l215 -276
h-344zM635 973q80 54 119 110t39 127q0 53 -33 87t-90 34q-131 0 -131 -137q0 -56 22.5 -105t73.5 -116zM522 670q-114 -104 -114 -246q0 -113 65.5 -177.5t165.5 -64.5q117 0 203 70z" />
    <glyph glyph-name="quotesingle" unicode="'" horiz-adv-x="532" 
d="M428 1583l-39 -559h-244l-41 559h324z" />
    <glyph glyph-name="parenleft" unicode="(" horiz-adv-x="733" 
d="M674 -340q-223 0 -343.5 97t-174.5 302.5t-54 571.5q0 527 123 747.5t449 220.5v-196q-148 0 -192 -158t-44 -614q0 -455 44 -614.5t192 -159.5v-197z" />
    <glyph glyph-name="parenright" unicode=")" horiz-adv-x="733" 
d="M59 1599q326 0 449 -220.5t123 -747.5q0 -365 -54 -571t-174.5 -303t-343.5 -97v197q149 0 192.5 161.5t43.5 612.5q0 457 -44 614.5t-192 157.5v196z" />
    <glyph glyph-name="asterisk" unicode="*" horiz-adv-x="1032" 
d="M981 897l-102 -176l-279 180l18 -330h-204l18 330l-278 -180l-103 176l295 152l-295 151l103 176l278 -180l-18 332h204l-18 -332l279 180l102 -176l-295 -151z" />
    <glyph glyph-name="plus" unicode="+" horiz-adv-x="1204" 
d="M1083 598h-350v-352h-262v352h-352v262h352v350h262v-350h350v-262z" />
    <glyph glyph-name="comma" unicode="," horiz-adv-x="596" 
d="M518 367q-85 -323 -250 -643h-227q108 333 156 643h321z" />
    <glyph glyph-name="hyphen" unicode="-" horiz-adv-x="733" 
d="M643 498h-553v272h553v-272z" />
    <glyph glyph-name="hyphen" unicode="&#x2010;" horiz-adv-x="733" 
d="M643 498h-553v272h553v-272z" />
    <glyph glyph-name="period" unicode="." horiz-adv-x="596" 
d="M297 383q87 0 144 -56t57 -143t-58 -143.5t-143 -56.5t-142 56.5t-57 143.5t56 143t143 56z" />
    <glyph glyph-name="slash" unicode="/" horiz-adv-x="809" 
d="M784 1583l-512 -1917h-247l512 1917h247z" />
    <glyph glyph-name="zero" unicode="0" horiz-adv-x="1204" 
d="M602 -16q-145 0 -243.5 50.5t-158 148.5t-82 238.5t-22.5 342.5q0 403 129 573t385 170q158 0 267.5 -66t170 -220t60.5 -457q0 -193 -21.5 -336t-81.5 -242.5t-158.5 -150.5t-244.5 -51zM602 1319q-62 0 -103.5 -51t-55 -169t-13.5 -335q0 -377 40 -484.5t132 -107.5
q91 0 130.5 107t39.5 485q0 364 -42 459.5t-128 95.5z" />
    <glyph glyph-name="one" unicode="1" horiz-adv-x="1204" 
d="M1094 0h-942v176h315v1073l-315 -67v176l466 145h179v-1327h297v-176z" />
    <glyph glyph-name="two" unicode="2" horiz-adv-x="1204" 
d="M1057 0h-946v131q0 161 80 312.5t307 340.5q120 101 164.5 166.5t44.5 147.5q0 213 -230 213q-129 0 -315 -68v203q205 61 399 61q238 0 360.5 -100.5t122.5 -296.5q0 -117 -51 -219.5t-245 -265.5q-129 -108 -188 -169.5t-92.5 -125t-39.5 -131.5h629v-199z" />
    <glyph glyph-name="three" unicode="3" horiz-adv-x="1204" 
d="M172 1260v198q192 49 358 49q484 0 484 -370q0 -262 -271 -346q141 -26 218 -118t77 -231q0 -231 -135 -344.5t-418 -113.5q-183 0 -358 47v198q209 -49 311 -49q132 0 197 61t65 195q0 145 -90 201.5t-352 56.5v189q245 0 334.5 50t89.5 183q0 195 -219 195
q-101 0 -291 -51z" />
    <glyph glyph-name="four" unicode="4" horiz-adv-x="1204" 
d="M1120 315h-153v-315h-330v315h-584v189l600 993h314v-985h153v-197zM637 512v602l-354 -602h354z" />
    <glyph glyph-name="five" unicode="5" horiz-adv-x="1204" 
d="M500 956q20 5 90 5q224 0 343.5 -122.5t119.5 -349.5q0 -258 -135.5 -381.5t-417.5 -123.5q-187 0 -350 41v200q178 -45 290 -45q144 0 210.5 72t66.5 227q0 279 -311 279q-88 0 -209 -10v743h800v-197h-497v-338z" />
    <glyph glyph-name="six" unicode="6" horiz-adv-x="1204" 
d="M981 1290q-105 21 -201 21q-293 0 -334 -398q94 84 269 84q196 0 297.5 -123.5t101.5 -355.5q0 -251 -131.5 -392.5t-378.5 -141.5q-248 0 -373 164.5t-125 545.5q0 378 165 595.5t477 217.5q116 0 233 -16v-201zM616 805q-85 0 -129.5 -69.5t-44.5 -192.5
q0 -213 41 -291t123 -78q86 0 129 67.5t43 270.5q0 157 -40 225t-122 68z" />
    <glyph glyph-name="seven" unicode="7" horiz-adv-x="1204" 
d="M1061 1329q-381 -639 -395 -1329h-351q22 665 398 1288h-596v203h944v-162z" />
    <glyph glyph-name="eight" unicode="8" horiz-adv-x="1204" 
d="M866 778q125 -37 190.5 -133.5t65.5 -238.5q0 -200 -138 -311t-386 -111q-243 0 -380.5 111.5t-137.5 310.5q0 139 65.5 235.5t190.5 136.5q-225 91 -225 344q0 182 133.5 283.5t363.5 101.5q226 0 356 -101.5t130 -283.5q0 -256 -228 -344zM600 1319q-168 0 -168 -227
q0 -106 43.5 -167t124.5 -61q82 0 127 60.5t45 167.5q0 227 -172 227zM600 680q-91 0 -138.5 -63.5t-47.5 -182.5q0 -126 47 -194t139 -68q188 0 188 262q0 113 -50 179.5t-138 66.5z" />
    <glyph glyph-name="nine" unicode="9" horiz-adv-x="1204" 
d="M217 205q96 -25 215 -25q155 0 231.5 91.5t92.5 303.5q-96 -81 -262 -81q-195 0 -298.5 124.5t-103.5 356.5q0 251 129 391.5t373 140.5q253 0 379.5 -168t126.5 -557q0 -385 -160 -591.5t-471 -206.5q-118 0 -252 22v199zM596 1317q-83 0 -126.5 -63.5t-43.5 -274.5
q0 -155 40 -224t122 -69q84 0 129 70t45 194q0 210 -42 288.5t-124 78.5z" />
    <glyph glyph-name="colon" unicode=":" horiz-adv-x="678" 
d="M338 1106q87 0 144 -56t57 -143t-57 -143.5t-144 -56.5q-86 0 -142.5 56.5t-56.5 143.5t56 143t143 56zM338 383q87 0 144 -56t57 -143t-58 -143.5t-143 -56.5t-142 56.5t-57 143.5t56 143t143 56z" />
    <glyph glyph-name="semicolon" unicode=";" horiz-adv-x="678" 
d="M338 1106q87 0 144 -56t57 -143t-57 -143.5t-144 -56.5q-86 0 -142.5 56.5t-56.5 143.5t56 143t143 56zM522 367q-85 -323 -250 -643h-227q108 333 156 643h321z" />
    <glyph glyph-name="less" unicode="&#x3c;" horiz-adv-x="1204" 
d="M1085 207l-964 395v254l964 393v-262l-718 -258l718 -258v-264z" />
    <glyph glyph-name="equal" unicode="=" horiz-adv-x="1204" 
d="M1085 844h-964v260h964v-260zM1085 352h-964v262h964v-262z" />
    <glyph glyph-name="greater" unicode="&#x3e;" horiz-adv-x="1204" 
d="M1085 602l-964 -395v264l717 258l-717 258v262l964 -393v-254z" />
    <glyph glyph-name="question" unicode="?" horiz-adv-x="944" 
d="M59 1466q174 41 318 41q235 0 360 -91.5t125 -270.5q0 -69 -22 -125t-58 -102.5t-123 -129.5q-86 -81 -114.5 -125.5t-28.5 -101.5v-43h-313v57q0 80 33 151t143 173q82 76 111.5 123t29.5 106q0 87 -52.5 134t-152.5 47q-104 0 -256 -39v196zM360 383q87 0 144 -56
t57 -143t-58 -143.5t-143 -56.5t-141.5 56.5t-56.5 143.5q0 86 56 142.5t142 56.5z" />
    <glyph glyph-name="at" unicode="@" horiz-adv-x="1837" 
d="M1319 1130q-70 -401 -70 -595q0 -77 10.5 -118.5t31.5 -58t67 -16.5q78 0 128 96.5t50 263.5q0 304 -147.5 469.5t-419.5 165.5q-287 0 -466 -174.5t-179 -484.5q0 -692 663 -692q84 0 200.5 21t207.5 54v-172q-86 -32 -207 -53.5t-211 -21.5q-397 0 -630.5 221.5
t-233.5 632.5q0 393 241 616t611 223q368 0 568 -208.5t200 -585.5q0 -250 -113.5 -387.5t-306.5 -137.5q-88 0 -153 49.5t-91 141.5q-55 -107 -120 -149t-154 -42q-121 0 -203 99t-82 272q0 267 144.5 419t387.5 152h277zM1059 973h-62q-104 0 -176.5 -108.5t-72.5 -295.5
q0 -115 24.5 -170t91.5 -55q54 0 91.5 64t66.5 272z" />
    <glyph glyph-name="A" unicode="A" horiz-adv-x="1253" 
d="M1233 0h-359l-73 309h-406l-76 -309h-305l418 1491h410zM760 506l-160 700l-164 -700h324z" />
    <glyph glyph-name="B" unicode="B" horiz-adv-x="1247" 
d="M143 0v1491h523q158 0 257 -29t161.5 -111.5t62.5 -220.5q0 -254 -260 -344q145 -32 218 -120t73 -246q0 -208 -130 -314t-382 -106h-523zM575 868q141 0 187.5 56.5t46.5 171.5q0 100 -41.5 151t-163.5 51h-123v-430h94zM584 193q103 0 151.5 24t72 77t23.5 142
q0 102 -32.5 154t-83.5 71t-135 19h-99v-487h103z" />
    <glyph glyph-name="C" unicode="C" horiz-adv-x="1006" 
d="M950 16q-134 -32 -256 -32q-297 0 -448.5 175.5t-151.5 602.5q0 745 606 745q122 0 250 -32v-199q-133 35 -211 35q-149 0 -222 -126t-73 -415q0 -329 74 -459.5t227 -130.5q93 0 205 31v-195z" />
    <glyph glyph-name="D" unicode="D" horiz-adv-x="1309" 
d="M565 1491q219 0 351 -61.5t215 -218t83 -439.5q0 -190 -36 -331t-111 -237.5t-195.5 -150t-332.5 -53.5h-396v1491h422zM571 199q159 0 227 122t68 443q0 176 -23.5 281t-65.5 158.5t-92.5 73t-127.5 19.5h-76v-1097h90z" />
    <glyph glyph-name="E" unicode="E" horiz-adv-x="1010" 
d="M958 0h-815v1491h807v-197h-469v-389h375v-196h-375v-512h477v-197z" />
    <glyph glyph-name="F" unicode="F" horiz-adv-x="991" 
d="M950 1294h-469v-434h365v-196h-365v-664h-338v1491h807v-197z" />
    <glyph glyph-name="G" unicode="G" horiz-adv-x="1249" 
d="M907 131q-44 -67 -124.5 -107t-174.5 -40q-256 0 -385 178.5t-129 599.5q0 364 165.5 554.5t490.5 190.5q173 0 317 -39v-194q-138 37 -287 37q-336 0 -336 -545q0 -364 56 -476t164 -112q73 0 113 55.5t40 151.5v190h-129v197h457v-772h-197z" />
    <glyph glyph-name="H" unicode="H" horiz-adv-x="1333" 
d="M1188 0h-336v713h-371v-713h-338v1491h338v-586h371v586h336v-1491z" />
    <glyph glyph-name="I" unicode="I" horiz-adv-x="727" 
d="M655 0h-583v197h123v1097h-123v197h583v-197h-123v-1097h123v-197z" />
    <glyph glyph-name="J" unicode="J" horiz-adv-x="723" 
d="M655 1294h-125v-1245q0 -185 -96 -281t-284 -96q-102 0 -218 21v196q82 -18 134 -18q69 0 99 35.5t30 128.5v1259h-123v197h583v-197z" />
    <glyph glyph-name="K" unicode="K" horiz-adv-x="1262" 
d="M1249 0h-387l-381 754v-754h-338v1491h338v-688l414 688h334l-424 -662z" />
    <glyph glyph-name="L" unicode="L" horiz-adv-x="985" 
d="M944 0h-801v1491h338v-1294h463v-197z" />
    <glyph glyph-name="M" unicode="M" horiz-adv-x="1595" 
d="M1452 0h-334v989l-258 -504h-123l-258 504v-989h-336v1491h295l361 -705l360 705h293v-1491z" />
    <glyph glyph-name="N" unicode="N" horiz-adv-x="1403" 
d="M1260 0h-275l-512 981v-981h-330v1491h293l494 -944v944h330v-1491z" />
    <glyph glyph-name="O" unicode="O" horiz-adv-x="1341" 
d="M672 -16q-287 0 -432.5 191t-145.5 591q0 741 578 741q575 0 575 -741q0 -402 -144 -592t-431 -190zM672 1311q-113 0 -170.5 -109t-57.5 -436q0 -320 56.5 -453t171.5 -133q111 0 168 118t57 468q0 315 -57 430t-168 115z" />
    <glyph glyph-name="P" unicode="P" horiz-adv-x="1188" 
d="M592 1491q162 0 275 -32.5t184 -138t71 -296.5q0 -508 -524 -508h-117v-516h-338v1491h449zM539 709q96 0 143.5 25t73.5 90.5t26 193.5q0 124 -25.5 181t-68.5 78t-127 21h-80v-589h58z" />
    <glyph glyph-name="Q" unicode="Q" horiz-adv-x="1341" 
d="M934 -334q-186 0 -283.5 74t-142.5 262q-204 51 -309 236t-105 528q0 741 578 741q575 0 575 -741q0 -677 -424 -766q21 -89 64 -123.5t147 -34.5v-176h-100zM672 1311q-113 0 -170.5 -110.5t-57.5 -434.5q0 -315 56 -450.5t172 -135.5q111 0 168 118t57 468
q0 315 -57 430t-168 115z" />
    <glyph glyph-name="R" unicode="R" horiz-adv-x="1253" 
d="M1231 0h-383l-262 621h-105v-621h-338v1491h510q139 0 219.5 -18.5t142.5 -62t101 -124.5t39 -215q0 -296 -248 -397zM596 811q119 0 169 58t50 198q0 84 -24 136.5t-65.5 73.5t-113.5 21h-131v-487h115z" />
    <glyph glyph-name="S" unicode="S" horiz-adv-x="1038" 
d="M903 1278q-152 33 -268 33q-101 0 -158 -45.5t-57 -126.5q0 -67 41 -119.5t196 -132.5q180 -95 251 -198t71 -245q0 -227 -142 -343.5t-413 -116.5q-178 0 -344 41v202q189 -47 321 -47q116 0 179 51t63 146q0 59 -23 99t-70.5 76t-178.5 110q-160 89 -224.5 190
t-64.5 240q0 197 135.5 306t372.5 109q157 0 313 -30v-199z" />
    <glyph glyph-name="T" unicode="T" horiz-adv-x="1130" 
d="M1090 1288h-357v-1288h-336v1288h-356v203h1049v-203z" />
    <glyph glyph-name="U" unicode="U" horiz-adv-x="1325" 
d="M1186 461q0 -236 -130.5 -356.5t-387.5 -120.5q-272 0 -400.5 117.5t-128.5 365.5v1024h338v-1047q0 -142 44.5 -204t142.5 -62t141 60t43 206v1047h338v-1030z" />
    <glyph glyph-name="V" unicode="V" horiz-adv-x="1212" 
d="M1198 1491l-405 -1491h-387l-386 1491h351l264 -1161l266 1161h297z" />
    <glyph glyph-name="W" unicode="W" horiz-adv-x="1991" 
d="M1966 1491l-360 -1491h-381l-226 1057l-254 -1057h-387l-329 1491h352l209 -1145l262 1145h350l244 -1145l227 1145h293z" />
    <glyph glyph-name="X" unicode="X" horiz-adv-x="1227" 
d="M1212 0h-383l-256 512l-251 -512h-306l416 762l-395 729h383l223 -447l219 447h305l-381 -698z" />
    <glyph glyph-name="Y" unicode="Y" horiz-adv-x="1128" 
d="M1114 1491l-389 -977v-514h-336v514l-373 977h351l221 -678l235 678h291z" />
    <glyph glyph-name="Z" unicode="Z" horiz-adv-x="1036" 
d="M979 1337l-543 -1140h535v-197h-924v154l543 1140h-510v197h899v-154z" />
    <glyph glyph-name="bracketleft" unicode="[" horiz-adv-x="743" 
d="M684 -334h-541v1917h541v-180h-211v-1557h211v-180z" />
    <glyph glyph-name="backslash" unicode="\" horiz-adv-x="809" 
d="M784 -334h-247l-512 1917h247z" />
    <glyph glyph-name="bracketright" unicode="]" horiz-adv-x="743" 
d="M600 -334h-541v180h211v1557h-211v180h541v-1917z" />
    <glyph glyph-name="asciicircum" unicode="^" horiz-adv-x="1204" 
d="M1094 717h-277l-215 524l-215 -524h-276l346 774h291z" />
    <glyph glyph-name="underscore" unicode="_" horiz-adv-x="778" 
d="M776 -334h-772v246h772v-246z" />
    <glyph glyph-name="grave" unicode="`" horiz-adv-x="698" 
d="M543 1278h-224l-264 340h283z" />
    <glyph glyph-name="a" unicode="a" horiz-adv-x="1169" 
d="M840 0l-45 168q-68 -94 -152.5 -139t-206.5 -45q-173 0 -268.5 91.5t-95.5 256.5q0 200 139 290.5t498 92.5v73q0 81 -19 122t-65 67.5t-138 26.5q-119 0 -309 -58v193q221 53 402 53q226 0 342 -99t116 -292v-801h-198zM655 551q-149 0 -203.5 -59.5t-54.5 -153.5
q0 -166 135 -166q86 0 131.5 56t45.5 163v160h-54z" />
    <glyph glyph-name="b" unicode="b" horiz-adv-x="1253" 
d="M336 0h-199v1583h330v-502q48 49 124 80t144 31q216 0 324 -144.5t108 -463.5q0 -283 -117 -441.5t-345 -158.5q-212 0 -322 174zM645 172q94 0 139 95t45 311q0 228 -43.5 327t-134.5 99q-97 0 -141.5 -83t-44.5 -343q0 -256 46.5 -331t133.5 -75z" />
    <glyph glyph-name="c" unicode="c" horiz-adv-x="924" 
d="M877 14q-129 -30 -269 -30q-262 0 -391 152.5t-129 463.5q0 290 140 441t413 151q122 0 225 -25v-188q-92 25 -194 25q-123 0 -183.5 -96.5t-60.5 -309.5q0 -231 60.5 -328.5t185.5 -97.5q117 0 203 23v-181z" />
    <glyph glyph-name="d" unicode="d" horiz-adv-x="1255" 
d="M872 158q-118 -174 -333 -174q-451 0 -451 610q0 277 117.5 437.5t343.5 160.5q149 0 239 -78v469h330v-1583h-198zM610 1004q-93 0 -138.5 -95t-45.5 -323q0 -414 188 -414q73 0 114 42.5t52 126.5t11 265q0 243 -46.5 320.5t-134.5 77.5z" />
    <glyph glyph-name="e" unicode="e" horiz-adv-x="1159" 
d="M1024 37q-172 -53 -371 -53q-565 0 -565 606q0 269 140 435.5t384 166.5q229 0 346 -145.5t117 -528.5h-645q0 -346 285 -346q125 0 309 51v-186zM750 682q0 192 -38.5 260t-111.5 68q-83 0 -125 -73.5t-47 -254.5h322z" />
    <glyph glyph-name="f" unicode="f" horiz-adv-x="717" 
d="M782 1389q-85 24 -143 24q-62 0 -90 -21t-38.5 -63t-10.5 -153h188v-189h-188v-987h-330v987h-131v189h131q0 244 88.5 333.5t288.5 89.5q116 0 235 -24v-186z" />
    <glyph glyph-name="g" unicode="g" horiz-adv-x="1243" 
d="M913 1176h199v-1086q0 -213 -129.5 -321.5t-370.5 -108.5q-193 0 -440 53v187q210 -52 352 -52q118 0 171 36t70 98.5t17 189.5q-87 -119 -280 -119q-204 0 -307 143.5t-103 421.5q0 261 120.5 417.5t340.5 156.5q208 0 311 -172zM616 1004q-90 0 -138 -75.5t-48 -295.5
q0 -215 45.5 -303t132.5 -88t132.5 70t45.5 317q0 211 -41.5 293t-128.5 82z" />
    <glyph glyph-name="h" unicode="h" horiz-adv-x="1262" 
d="M1130 0h-329v788q0 119 -35 167.5t-107 48.5q-94 0 -143 -77.5t-49 -219.5v-707h-330v1583h330v-502q114 111 283 111q186 0 283 -99t97 -288v-805z" />
    <glyph glyph-name="i" unicode="i" horiz-adv-x="639" 
d="M332 1298q-81 0 -130.5 40.5t-49.5 111.5t48.5 111.5t131.5 40.5q78 0 129 -41.5t51 -110.5q0 -71 -49.5 -111.5t-130.5 -40.5zM498 0h-332v987h-125v189h457v-1176z" />
    <glyph glyph-name="j" unicode="j" horiz-adv-x="639" 
d="M332 1298q-81 0 -130.5 40.5t-49.5 111.5t48.5 111.5t131.5 40.5q78 0 129 -41.5t51 -110.5q0 -71 -49.5 -111.5t-130.5 -40.5zM498 23q0 -176 -96.5 -269.5t-278.5 -93.5q-111 0 -213 21v190q85 -18 135 -18q66 0 93.5 38.5t27.5 118.5v977h-125v189h457v-1153z" />
    <glyph glyph-name="k" unicode="k" horiz-adv-x="1182" 
d="M1182 0h-375l-340 627v-627h-330v1583h330v-936l348 529h322l-349 -490z" />
    <glyph glyph-name="l" unicode="l" horiz-adv-x="602" 
d="M467 0h-332v1583h332v-1583z" />
    <glyph glyph-name="m" unicode="m" horiz-adv-x="1894" 
d="M385 999q131 193 356 193q232 0 318 -154q124 154 332 154q372 0 372 -385v-807h-329v793q0 123 -34 167t-102 44q-90 0 -136 -77.5t-46 -219.5v-707h-332v793q0 118 -34 164.5t-103 46.5q-89 0 -134.5 -76.5t-45.5 -220.5v-707h-330v1176h199z" />
    <glyph glyph-name="n" unicode="n" horiz-adv-x="1262" 
d="M385 1001q129 191 365 191q187 0 283.5 -99.5t96.5 -285.5v-807h-329v780q0 125 -35 174.5t-107 49.5q-95 0 -143.5 -77t-48.5 -220v-707h-330v1176h199z" />
    <glyph glyph-name="o" unicode="o" horiz-adv-x="1251" 
d="M625 -16q-265 0 -401 158.5t-136 463.5q0 272 144 429t397 157q258 0 396 -156.5t138 -437.5q0 -294 -139 -454t-399 -160zM625 1004q-97 0 -147 -85t-50 -307q0 -254 51 -347t146 -93q96 0 147 87.5t51 352.5q0 392 -198 392z" />
    <glyph glyph-name="p" unicode="p" horiz-adv-x="1251" 
d="M385 1004q79 103 164 145.5t199 42.5q209 0 312 -142.5t103 -439.5t-140.5 -458.5t-410.5 -161.5q-79 0 -145 12v-336h-330v1510h199zM467 195q43 -17 121 -17q118 0 177.5 94.5t59.5 341.5q0 201 -43 295.5t-131 94.5q-90 0 -137 -72.5t-47 -290.5v-446z" />
    <glyph glyph-name="q" unicode="q" horiz-adv-x="1255" 
d="M920 1176h198v-1510h-330v408q-85 -90 -249 -90q-451 0 -451 608q0 284 118 442t345 158q211 0 321 -174zM610 1004q-94 0 -139 -95t-45 -311q0 -426 190 -426q70 0 110 41t52.5 125.5t12.5 259.5q0 253 -46 329.5t-135 76.5z" />
    <glyph glyph-name="r" unicode="r" horiz-adv-x="829" 
d="M389 981q52 105 136.5 155t217.5 50q32 0 48 -2v-250q-26 4 -91 4q-135 0 -184 -54.5t-49 -185.5v-698h-330v1176h199z" />
    <glyph glyph-name="s" unicode="s" horiz-adv-x="946" 
d="M836 961q-140 45 -236 45q-174 0 -174 -127q0 -43 28.5 -76.5t147.5 -93.5q176 -90 226.5 -175t50.5 -196q0 -175 -119 -264.5t-344 -89.5q-156 0 -344 43v196q174 -53 278 -53q105 0 151 36t46 109q0 38 -16.5 66.5t-47.5 51t-116 69.5q-104 56 -158 100t-83.5 105.5
t-29.5 148.5q0 161 120.5 248.5t315.5 87.5q172 0 304 -41v-190z" />
    <glyph glyph-name="t" unicode="t" horiz-adv-x="805" 
d="M780 25q-155 -41 -301 -41q-158 0 -232.5 69.5t-74.5 210.5v723h-133v189h158l88 294h219v-294h258v-189h-258v-674q0 -87 25 -114t83 -27q78 0 168 27v-174z" />
    <glyph glyph-name="u" unicode="u" horiz-adv-x="1262" 
d="M879 176q-132 -192 -365 -192q-187 0 -285 99t-98 286v807h332v-781q0 -127 35 -175t106 -48q191 0 191 297v707h331v-1176h-200z" />
    <glyph glyph-name="v" unicode="v" horiz-adv-x="1098" 
d="M1081 1176l-352 -1176h-373l-336 1176h342l209 -879l222 879h288z" />
    <glyph glyph-name="w" unicode="w" horiz-adv-x="1823" 
d="M1804 1176l-327 -1176h-363l-203 825l-211 -825h-364l-316 1176h340l191 -885l219 885h340l207 -885l203 885h284z" />
    <glyph glyph-name="x" unicode="x" horiz-adv-x="1128" 
d="M1116 0h-360l-219 383l-220 -383h-305l394 598l-363 578h360l187 -338l190 338h305l-360 -551z" />
    <glyph glyph-name="y" unicode="y" horiz-adv-x="1098" 
d="M1081 1176l-340 -1178q-50 -175 -150 -256.5t-263 -81.5q-109 0 -222 25v186q94 -23 181 -23q84 0 128 39t85 160h-168l-314 1129h344l209 -861l222 861h288z" />
    <glyph glyph-name="z" unicode="z" horiz-adv-x="1001" 
d="M950 0h-901v178l502 801h-471v197h854v-177l-502 -802h518v-197z" />
    <glyph glyph-name="braceleft" unicode="{" horiz-adv-x="793" 
d="M733 -334h-164q-159 0 -251.5 87t-92.5 233v376q0 157 -162 173v180q162 14 162 172v377q0 150 91.5 234.5t252.5 84.5h164v-180h-63q-68 0 -100.5 -33.5t-32.5 -112.5v-397q0 -189 -162 -235q162 -48 162 -236v-397q0 -78 32 -112t101 -34h63v-180z" />
    <glyph glyph-name="bar" unicode="|" horiz-adv-x="809" 
d="M524 -334h-239v1917h239v-1917z" />
    <glyph glyph-name="braceright" unicode="}" horiz-adv-x="793" 
d="M729 535q-162 -16 -162 -173v-376q0 -146 -94 -233t-252 -87h-162v180h64q69 0 100 35t31 111v397q0 188 164 236q-164 46 -164 235v397q0 77 -31.5 111.5t-99.5 34.5h-64v180h162q161 0 253.5 -84.5t92.5 -234.5v-377q0 -157 162 -172v-180z" />
    <glyph glyph-name="asciitilde" unicode="~" horiz-adv-x="1204" 
d="M1083 948l52 -258q-138 -207 -297 -207q-47 0 -99 22t-155 95q-83 59 -128.5 80.5t-88.5 21.5q-58 0 -117 -38t-133 -162l-47 256q129 217 305 217q62 0 118.5 -29.5t137.5 -89.5q62 -48 112.5 -75t98.5 -27q60 0 124.5 48.5t116.5 145.5z" />
    <glyph glyph-name="uni00A0" unicode="&#xa0;" horiz-adv-x="496" 
 />
    <glyph glyph-name="exclamdown" unicode="&#xa1;" horiz-adv-x="662" 
d="M332 793q-87 0 -144 55.5t-57 142.5t57.5 144t143.5 57q85 0 141.5 -57t56.5 -144t-56 -142.5t-142 -55.5zM156 -315l30 972h285l31 -972h-346z" />
    <glyph glyph-name="cent" unicode="&#xa2;" horiz-adv-x="928" 
d="M879 59q-87 -20 -179 -26v-185h-251v199q-359 86 -359 553q0 206 92 341t267 181v205h251v-182q76 -2 168 -25v-184q-92 25 -194 25q-244 0 -244 -363q0 -202 60 -291.5t186 -89.5q117 0 203 23v-181z" />
    <glyph glyph-name="sterling" unicode="&#xa3;" horiz-adv-x="1077" 
d="M1028 0h-971v180q88 14 126 83.5t38 209.5v199h-158v196h158v142q0 251 123.5 374t380.5 123q111 0 238 -28v-195q-116 27 -175 27q-135 0 -188 -73.5t-53 -272.5v-97h323v-196h-323v-158q0 -214 -139 -315h620v-199z" />
    <glyph glyph-name="currency" unicode="&#xa4;" horiz-adv-x="1204" 
d="M1055 397l-121 -123l-123 123q-93 -61 -209 -61q-113 0 -207 61l-123 -123l-122 123l122 123q-63 98 -63 209t63 207l-122 123l120 123l123 -123q98 63 209 63t207 -63l123 125l123 -123l-123 -125q63 -96 63 -207t-63 -209zM602 918q-78 0 -133 -55t-55 -134
q0 -78 55 -133t133 -55q79 0 134 55t55 133q0 79 -55 134t-134 55z" />
    <glyph glyph-name="yen" unicode="&#xa5;" horiz-adv-x="1155" 
d="M1128 1491l-286 -721h219v-174h-289l-33 -82v-55h322v-174h-322v-285h-336v285h-317v174h317v55l-32 82h-285v174h219l-274 721h348l221 -688l236 688h292z" />
    <glyph glyph-name="brokenbar" unicode="&#xa6;" horiz-adv-x="809" 
d="M524 793h-239v790h239v-790zM524 -334h-239v791h239v-791z" />
    <glyph glyph-name="section" unicode="&#xa7;" horiz-adv-x="1124" 
d="M977 1470v-192q-143 43 -295 43q-209 0 -209 -121q0 -43 19.5 -70t56 -47t153.5 -69q199 -82 260.5 -164.5t61.5 -198.5q0 -181 -176 -284q151 -83 151 -252q0 -176 -128 -262t-394 -86q-168 0 -395 47v198q220 -55 360 -55t194 31t54 100q0 63 -48.5 102.5t-213.5 110.5
q-198 87 -255.5 163.5t-57.5 176.5q0 184 207 277q-99 52 -140 114.5t-41 149.5q0 154 129 239.5t355 85.5q201 0 352 -37zM518 823q-56 -24 -87.5 -66.5t-31.5 -90.5q0 -63 48 -101t194 -92q98 56 98 154q0 64 -50 107.5t-171 88.5z" />
    <glyph glyph-name="dieresis" unicode="&#xa8;" horiz-adv-x="698" 
d="M557 1300q-59 0 -101 42.5t-42 101.5q0 60 41.5 101.5t101.5 41.5q59 0 101 -42.5t42 -100.5t-42.5 -101t-100.5 -43zM139 1300q-59 0 -102 43t-43 101t42.5 100.5t102.5 42.5t101 -42t41 -101t-41.5 -101.5t-100.5 -42.5z" />
    <glyph glyph-name="copyright" unicode="&#xa9;" horiz-adv-x="1782" 
d="M891 -94q-224 0 -409 102.5t-288.5 287t-103.5 411.5q0 224 103 408t288 288t410 104q223 0 408 -103t289 -287.5t104 -409.5t-104 -410t-289 -288t-408 -103zM891 1366q-283 0 -466 -188.5t-183 -470.5q0 -285 184.5 -472.5t464.5 -187.5q278 0 463.5 187t185.5 473
q0 283 -184 471t-465 188zM1145 227q-93 -22 -193 -22q-220 0 -329 123t-109 389q0 489 444 489q80 0 187 -24v-150q-86 27 -164 27q-114 0 -166.5 -78t-52.5 -258q0 -205 54.5 -289t170.5 -84q74 0 158 25v-148z" />
    <glyph glyph-name="ordfeminine" unicode="&#xaa;" horiz-adv-x="872" 
d="M758 711h-152l-24 96q-93 -109 -236 -109q-125 0 -195.5 63t-70.5 175q0 126 94 192t356 66v61q0 59 -32 85t-109 26q-94 0 -242 -41v145q148 37 293 37q318 0 318 -274v-522zM465 1075q-166 0 -166 -137q0 -104 96 -104q62 0 98.5 40t36.5 107v94h-65zM770 455h-676v155
h676v-155z" />
    <glyph glyph-name="guillemotleft" unicode="&#xab;" horiz-adv-x="1094" 
d="M1030 152h-242l-253 395v106l253 398h242l-270 -451zM580 152h-242l-254 395v106l254 398h242l-271 -451z" />
    <glyph glyph-name="logicalnot" unicode="&#xac;" horiz-adv-x="1204" 
d="M1085 393h-262v381h-702v262h964v-643z" />
    <glyph glyph-name="uni00AD" unicode="&#xad;" horiz-adv-x="733" 
d="M643 498h-553v272h553v-272z" />
    <glyph glyph-name="registered" unicode="&#xae;" horiz-adv-x="1782" 
d="M891 -94q-224 0 -409 102.5t-288.5 287t-103.5 411.5q0 224 103 408t288 288t410 104q223 0 408 -103t289 -287.5t104 -409.5t-104 -410t-289 -288t-408 -103zM891 1366q-283 0 -466 -188.5t-183 -470.5q0 -285 184.5 -472.5t464.5 -187.5q278 0 463.5 187t185.5 473
q0 283 -184 471t-465 188zM1305 219h-261l-180 397h-82v-397h-229v975h365q331 0 331 -276q0 -198 -164 -267zM877 750q73 0 107 39.5t34 128.5q0 71 -30 106t-97 35h-109v-309h95z" />
    <glyph glyph-name="uni00AF" unicode="&#xaf;" horiz-adv-x="762" 
d="M768 1790v-168h-772v168h772z" />
    <glyph glyph-name="degree" unicode="&#xb0;" horiz-adv-x="893" 
d="M440 817q-147 0 -244.5 98.5t-97.5 251.5q0 152 96 246t248 94q153 0 251 -94.5t98 -247.5q0 -152 -100 -250t-251 -98zM444 1350q-77 0 -129.5 -52.5t-52.5 -134.5q0 -80 52.5 -133t129.5 -53q78 0 130.5 52.5t52.5 133.5q0 82 -52.5 134.5t-130.5 52.5z" />
    <glyph glyph-name="plusminus" unicode="&#xb1;" horiz-adv-x="1204" 
d="M1085 791h-352v-353h-262v353h-352v260h352v352h262v-352h352v-260zM1085 84h-964v260h964v-260z" />
    <glyph glyph-name="twosuperior" unicode="&#xb2;" horiz-adv-x="852" 
d="M737 625h-643v84q0 92 48 176.5t204 197.5q83 59 112 95t29 77q0 111 -143 111q-93 0 -217 -41v139q138 37 274 37q328 0 328 -235q0 -72 -35 -135t-159 -152q-116 -83 -159 -129t-50 -90h411v-135z" />
    <glyph glyph-name="threesuperior" unicode="&#xb3;" horiz-adv-x="852" 
d="M133 1335v138q141 28 246 28q330 0 330 -219q0 -140 -158 -197q85 -21 128.5 -74t43.5 -126q0 -138 -94.5 -204.5t-288.5 -66.5q-114 0 -236 29v137q146 -28 213 -28q85 0 126.5 32t41.5 103q0 76 -52.5 103.5t-244.5 27.5v131q185 0 234 25.5t49 93.5q0 53 -33 75.5
t-102 22.5q-74 0 -203 -31z" />
    <glyph glyph-name="acute" unicode="&#xb4;" horiz-adv-x="698" 
d="M641 1618l-266 -340h-221l204 340h283z" />
    <glyph glyph-name="uni00B5" unicode="&#xb5;" horiz-adv-x="1268" 
d="M885 174q-129 -186 -287 -186q-76 0 -131 28v-350h-330v1510h330v-807q0 -103 35.5 -148t107.5 -45q94 0 142.5 76.5t48.5 220.5v703h329v-1176h-198z" />
    <glyph glyph-name="paragraph" unicode="&#xb6;" horiz-adv-x="1243" 
d="M1192 1294h-131v-1628h-203v1628h-174v-1628h-203v1077q-426 0 -426 369q0 192 108 285.5t333 93.5h696v-197z" />
    <glyph glyph-name="uni00B7" unicode="&#xb7;" horiz-adv-x="612" 
d="M307 526q-84 0 -144.5 59.5t-60.5 143.5t60.5 143.5t144.5 59.5q85 0 144 -59t59 -144t-59 -144t-144 -59z" />
    <glyph glyph-name="cedilla" unicode="&#xb8;" horiz-adv-x="698" 
d="M369 -27q73 0 116 -38t43 -99q0 -184 -358 -184v125q89 1 126.5 16.5t37.5 54.5q0 62 -101 62l7 117h129v-54z" />
    <glyph glyph-name="onesuperior" unicode="&#xb9;" horiz-adv-x="852" 
d="M764 625h-641v125h207v579l-207 -39v125l315 84h129v-749h197v-125z" />
    <glyph glyph-name="ordmasculine" unicode="&#xba;" horiz-adv-x="944" 
d="M473 698q-188 0 -283.5 107.5t-95.5 310.5q0 181 98 286t281 105q184 0 279.5 -105t95.5 -290q0 -204 -94.5 -309t-280.5 -105zM473 1376q-137 0 -137 -256q0 -154 34 -221.5t103 -67.5q71 0 104 62.5t33 226.5q0 256 -137 256zM840 455h-736v155h736v-155z" />
    <glyph glyph-name="guillemotright" unicode="&#xbb;" horiz-adv-x="1094" 
d="M1010 547l-256 -395h-240l270 448l-270 451h240l256 -398v-106zM559 547l-254 -395h-242l271 448l-271 451h242l254 -398v-106z" />
    <glyph glyph-name="onequarter" unicode="&#xbc;" horiz-adv-x="1849" 
d="M750 625h-627v125h207v579l-207 -39v125l315 84h129v-749h197v-101l473 842h213l-838 -1491h-213zM1774 193h-101v-195h-235v195h-391v118l403 557h223v-544h101v-131zM1438 324v299l-209 -299h209z" />
    <glyph glyph-name="onehalf" unicode="&#xbd;" horiz-adv-x="1849" 
d="M750 625h-627v125h207v579l-207 -39v125l315 84h129v-749h197v-101l473 842h213l-838 -1491h-213zM1733 -2h-643v86q0 90 49.5 176.5t203.5 198.5q83 59 111.5 93t28.5 77q0 112 -142 112q-88 0 -219 -43v140q155 39 275 39q160 0 244.5 -61t84.5 -177q0 -71 -35 -133.5
t-161 -151.5q-111 -79 -155.5 -127.5t-51.5 -91.5h410v-137z" />
    <glyph glyph-name="threequarters" unicode="&#xbe;" horiz-adv-x="1849" 
d="M133 1335v138q141 28 246 28q330 0 330 -219q0 -140 -158 -197q85 -21 128.5 -74t43.5 -126q0 -138 -94.5 -204.5t-288.5 -66.5q-114 0 -236 29v137q146 -28 213 -28q85 0 126.5 32t41.5 103q0 76 -52.5 103.5t-244.5 27.5v131q185 0 234 25.5t49 93.5q0 53 -33 75.5
t-102 22.5q-74 0 -203 -31zM1450 1491l-838 -1491h-213l838 1491h213zM1774 193h-101v-195h-235v195h-391v118l403 557h223v-544h101v-131zM1438 324v299l-209 -299h209z" />
    <glyph glyph-name="questiondown" unicode="&#xbf;" horiz-adv-x="944" 
d="M584 793q-87 0 -144 55.5t-57 142.5t57.5 144t143.5 57q85 0 141.5 -57t56.5 -144t-56 -142.5t-142 -55.5zM885 -291q-179 -41 -318 -41q-236 0 -360.5 92t-124.5 271q0 66 21.5 123.5t60.5 106.5t121 126q92 86 117.5 130t25.5 97v43h313v-57q0 -83 -34.5 -154
t-141.5 -170q-87 -78 -114 -127t-27 -102q0 -87 53 -133.5t152 -46.5q112 0 256 39v-197z" />
    <glyph glyph-name="Acircumflex" unicode="&#xc2;" horiz-adv-x="1253" 
d="M1233 0h-359l-73 309h-406l-76 -309h-305l418 1491h410zM760 506l-160 700l-164 -700h324zM986 1559h-197l-158 186l-157 -186h-197l215 334h278z" />
    <glyph glyph-name="Adieresis" unicode="&#xc4;" horiz-adv-x="1253" 
d="M1233 0h-359l-73 309h-406l-76 -309h-305l418 1491h410zM760 506l-160 700l-164 -700h324zM842 1568q-59 0 -101 42.5t-42 101.5q0 60 41.5 101.5t101.5 41.5q59 0 101 -42.5t42 -100.5t-42.5 -101t-100.5 -43zM424 1568q-59 0 -102 43t-43 101t42.5 100.5t102.5 42.5
t101 -42t41 -101t-41.5 -101.5t-100.5 -42.5z" />
    <glyph glyph-name="Aring" unicode="&#xc5;" horiz-adv-x="1253" 
d="M1233 0h-359l-73 309h-406l-76 -309h-305l418 1491h410zM760 506l-160 700l-164 -700h324zM631 1504q-92 0 -155.5 62t-63.5 157q0 94 61 155.5t158 61.5t157 -62t60 -155q0 -96 -60 -157.5t-157 -61.5zM631 1831q-48 0 -77 -30t-29 -78q0 -50 28.5 -80.5t77.5 -30.5
q48 0 76.5 31t28.5 80q0 47 -28.5 77.5t-76.5 30.5z" />
    <glyph glyph-name="AE" unicode="&#xc6;" horiz-adv-x="1636" 
d="M1583 0h-792v328h-345l-114 -328h-324l576 1491h991v-197h-449v-389h361v-196h-361v-512h457v-197zM791 520v772l-277 -772h277z" />
    <glyph glyph-name="Ccedilla" unicode="&#xc7;" horiz-adv-x="1006" 
d="M950 16q-134 -32 -256 -32q-50 0 -69 2v-13q73 0 117 -38t44 -99q0 -184 -358 -184v125q88 1 126 16.5t38 54.5q0 62 -100 62l4 98q-196 49 -299 223.5t-103 530.5q0 745 606 745q122 0 250 -32v-199q-133 35 -211 35q-149 0 -222 -126t-73 -415q0 -329 74 -459.5
t227 -130.5q93 0 205 31v-195z" />
    <glyph glyph-name="Ecircumflex" unicode="&#xca;" horiz-adv-x="1010" 
d="M958 0h-815v1491h807v-197h-469v-389h375v-196h-375v-512h477v-197zM891 1559h-197l-158 186l-157 -186h-197l215 334h278z" />
    <glyph glyph-name="Edieresis" unicode="&#xcb;" horiz-adv-x="1010" 
d="M958 0h-815v1491h807v-197h-469v-389h375v-196h-375v-512h477v-197zM741 1568q-59 0 -101 42.5t-42 101.5q0 60 41.5 101.5t101.5 41.5q59 0 101 -42.5t42 -100.5t-42.5 -101t-100.5 -43zM323 1568q-59 0 -102 43t-43 101t42.5 100.5t102.5 42.5t101 -42t41 -101
t-41.5 -101.5t-100.5 -42.5z" />
    <glyph glyph-name="Icircumflex" unicode="&#xce;" horiz-adv-x="727" 
d="M655 0h-583v197h123v1097h-123v197h583v-197h-123v-1097h123v-197zM719 1559h-197l-158 186l-157 -186h-197l215 334h278z" />
    <glyph glyph-name="Idieresis" unicode="&#xcf;" horiz-adv-x="727" 
d="M655 0h-583v197h123v1097h-123v197h583v-197h-123v-1097h123v-197zM573 1568q-59 0 -101 42.5t-42 101.5q0 60 41.5 101.5t101.5 41.5q59 0 101 -42.5t42 -100.5t-42.5 -101t-100.5 -43zM155 1568q-59 0 -102 43t-43 101t42.5 100.5t102.5 42.5t101 -42t41 -101
t-41.5 -101.5t-100.5 -42.5z" />
    <glyph glyph-name="Eth" unicode="&#xd0;" horiz-adv-x="1354" 
d="M610 1491q213 0 345 -58.5t218.5 -215t86.5 -445.5q0 -181 -33 -318.5t-105 -237t-194.5 -158t-343.5 -58.5h-396v682h-131v197h131v612h422zM616 199q159 0 227 122t68 443q0 176 -23.5 281t-65.5 158.5t-92.5 73t-127.5 19.5h-76v-417h219v-197h-219v-483h90z" />
    <glyph glyph-name="Ntilde" unicode="&#xd1;" horiz-adv-x="1403" 
d="M1260 0h-275l-512 981v-981h-330v1491h293l494 -944v944h330v-1491zM918 1849h137v-55q0 -104 -55.5 -170t-151.5 -66q-60 0 -97 15.5t-108 65.5q-46 33 -82 33q-78 0 -78 -93v-21h-137v66q0 111 57.5 171t159.5 60q46 0 79 -13t79 -46q49 -35 73.5 -45t49.5 -10
q74 0 74 84v24z" />
    <glyph glyph-name="Ocircumflex" unicode="&#xd4;" horiz-adv-x="1341" 
d="M672 -16q-287 0 -432.5 191t-145.5 591q0 741 578 741q575 0 575 -741q0 -402 -144 -592t-431 -190zM672 1311q-113 0 -170.5 -109t-57.5 -436q0 -320 56.5 -453t171.5 -133q111 0 168 118t57 468q0 315 -57 430t-168 115zM1024 1559h-197l-158 186l-157 -186h-197
l215 334h278z" />
    <glyph glyph-name="Odieresis" unicode="&#xd6;" horiz-adv-x="1341" 
d="M672 -16q-287 0 -432.5 191t-145.5 591q0 741 578 741q575 0 575 -741q0 -402 -144 -592t-431 -190zM672 1311q-113 0 -170.5 -109t-57.5 -436q0 -320 56.5 -453t171.5 -133q111 0 168 118t57 468q0 315 -57 430t-168 115zM881 1568q-59 0 -101 42.5t-42 101.5
q0 60 41.5 101.5t101.5 41.5q59 0 101 -42.5t42 -100.5t-42.5 -101t-100.5 -43zM463 1568q-59 0 -102 43t-43 101t42.5 100.5t102.5 42.5t101 -42t41 -101t-41.5 -101.5t-100.5 -42.5z" />
    <glyph glyph-name="multiply" unicode="&#xd7;" horiz-adv-x="1204" 
d="M1059 457l-187 -185l-270 273l-272 -273l-185 185l273 272l-273 272l185 185l272 -273l270 273l187 -185l-273 -272z" />
    <glyph glyph-name="Oslash" unicode="&#xd8;" horiz-adv-x="1341" 
d="M1270 1583l-162 -266q139 -182 139 -551q0 -402 -144 -592t-431 -190q-196 0 -322 88l-98 -164h-180l166 272q-144 194 -144 586q0 741 578 741q194 0 321 -86l99 162h178zM844 1180q-50 131 -172 131q-113 0 -170.5 -109t-57.5 -436q0 -144 15 -229zM502 317
q52 -137 170 -137q111 0 168 118t57 468q0 117 -12 192z" />
    <glyph glyph-name="Ucircumflex" unicode="&#xdb;" horiz-adv-x="1325" 
d="M1186 461q0 -236 -130.5 -356.5t-387.5 -120.5q-272 0 -400.5 117.5t-128.5 365.5v1024h338v-1047q0 -142 44.5 -204t142.5 -62t141 60t43 206v1047h338v-1030zM1018 1559h-197l-158 186l-157 -186h-197l215 334h278z" />
    <glyph glyph-name="Udieresis" unicode="&#xdc;" horiz-adv-x="1325" 
d="M1186 461q0 -236 -130.5 -356.5t-387.5 -120.5q-272 0 -400.5 117.5t-128.5 365.5v1024h338v-1047q0 -142 44.5 -204t142.5 -62t141 60t43 206v1047h338v-1030zM872 1568q-59 0 -101 42.5t-42 101.5q0 60 41.5 101.5t101.5 41.5q59 0 101 -42.5t42 -100.5t-42.5 -101
t-100.5 -43zM454 1568q-59 0 -102 43t-43 101t42.5 100.5t102.5 42.5t101 -42t41 -101t-41.5 -101.5t-100.5 -42.5z" />
    <glyph glyph-name="Yacute" unicode="&#xdd;" horiz-adv-x="1128" 
d="M1114 1491l-389 -977v-514h-336v514l-373 977h351l221 -678l235 678h291zM920 1899l-266 -340h-221l204 340h283z" />
    <glyph glyph-name="Thorn" unicode="&#xde;" horiz-adv-x="1188" 
d="M635 1296q251 0 369 -113.5t118 -353.5q0 -507 -524 -507h-117v-322h-338v1491h338v-195h154zM565 514q116 0 166.5 69t50.5 240q0 155 -45.5 218t-152.5 63h-103v-590h84z" />
    <glyph glyph-name="germandbls" unicode="&#xdf;" horiz-adv-x="1427" 
d="M592 27v194q171 -51 268 -51q98 0 140 36t42 113q0 58 -36 101t-138 92q-152 76 -199.5 145t-47.5 160q0 56 23.5 108t113.5 142q63 63 81.5 107t18.5 90q0 66 -44.5 105.5t-125.5 39.5q-221 0 -221 -266v-1143h-330v1096q0 501 557 501q461 0 461 -313q0 -60 -23 -118
t-102 -140q-60 -62 -73 -91.5t-13 -57.5q0 -49 34.5 -81.5t149.5 -93.5q88 -47 137 -89t78 -108t29 -161q0 -176 -115 -268t-335 -92q-147 0 -330 43z" />
    <glyph glyph-name="acircumflex" unicode="&#xe2;" horiz-adv-x="1169" 
d="M840 0l-45 168q-68 -94 -152.5 -139t-206.5 -45q-173 0 -268.5 91.5t-95.5 256.5q0 200 139 290.5t498 92.5v73q0 81 -19 122t-65 67.5t-138 26.5q-119 0 -309 -58v193q221 53 402 53q226 0 342 -99t116 -292v-801h-198zM655 551q-149 0 -203.5 -59.5t-54.5 -153.5
q0 -166 135 -166q86 0 131.5 56t45.5 163v160h-54zM941 1278h-197l-158 186l-157 -186h-197l215 334h278z" />
    <glyph glyph-name="adieresis" unicode="&#xe4;" horiz-adv-x="1169" 
d="M840 0l-45 168q-68 -94 -152.5 -139t-206.5 -45q-173 0 -268.5 91.5t-95.5 256.5q0 200 139 290.5t498 92.5v73q0 81 -19 122t-65 67.5t-138 26.5q-119 0 -309 -58v193q221 53 402 53q226 0 342 -99t116 -292v-801h-198zM655 551q-149 0 -203.5 -59.5t-54.5 -153.5
q0 -166 135 -166q86 0 131.5 56t45.5 163v160h-54zM795 1300q-59 0 -101 42.5t-42 101.5q0 60 41.5 101.5t101.5 41.5q59 0 101 -42.5t42 -100.5t-42.5 -101t-100.5 -43zM377 1300q-59 0 -102 43t-43 101t42.5 100.5t102.5 42.5t101 -42t41 -101t-41.5 -101.5t-100.5 -42.5z
" />
    <glyph glyph-name="aring" unicode="&#xe5;" horiz-adv-x="1169" 
d="M840 0l-45 168q-68 -94 -152.5 -139t-206.5 -45q-173 0 -268.5 91.5t-95.5 256.5q0 200 139 290.5t498 92.5v73q0 81 -19 122t-65 67.5t-138 26.5q-119 0 -309 -58v193q221 53 402 53q226 0 342 -99t116 -292v-801h-198zM655 551q-149 0 -203.5 -59.5t-54.5 -153.5
q0 -166 135 -166q86 0 131.5 56t45.5 163v160h-54zM586 1260q-92 0 -155.5 62t-63.5 157q0 94 61 155.5t158 61.5t157 -62t60 -155q0 -96 -60 -157.5t-157 -61.5zM586 1587q-48 0 -77 -30t-29 -78q0 -50 28.5 -80.5t77.5 -30.5q48 0 76.5 31t28.5 80q0 47 -28.5 77.5
t-76.5 30.5z" />
    <glyph glyph-name="ae" unicode="&#xe6;" horiz-adv-x="1767" 
d="M709 788q0 81 -19 122t-65 67.5t-138 26.5q-119 0 -309 -58v193q221 53 402 53q218 0 335 -123q121 123 306 123q131 0 220 -44t143.5 -128.5t76.5 -205.5t22 -296h-645q0 -346 285 -346q122 0 309 51v-186q-172 -53 -370 -53q-314 0 -447 196q-67 -100 -158 -148
t-221 -48q-173 0 -268.5 91.5t-95.5 256.5q0 200 139 290.5t498 92.5v73zM1358 682q0 195 -38.5 261.5t-111.5 66.5q-83 0 -125 -73.5t-47 -254.5h322zM655 551q-149 0 -203.5 -59.5t-54.5 -153.5q0 -166 135 -166q86 0 131.5 56t45.5 163v160h-54z" />
    <glyph glyph-name="ccedilla" unicode="&#xe7;" horiz-adv-x="924" 
d="M877 14q-129 -30 -269 -30q-21 0 -28 2v-13q73 0 116 -38t43 -99q0 -184 -358 -184v125q89 1 126.5 16.5t37.5 54.5q0 62 -101 62l2 90q-358 85 -358 600q0 290 140 441t413 151q122 0 225 -25v-188q-92 25 -194 25q-123 0 -183.5 -96.5t-60.5 -309.5q0 -231 60.5 -328.5
t185.5 -97.5q117 0 203 23v-181z" />
    <glyph glyph-name="ecircumflex" unicode="&#xea;" horiz-adv-x="1159" 
d="M1024 37q-172 -53 -371 -53q-565 0 -565 606q0 269 140 435.5t384 166.5q229 0 346 -145.5t117 -528.5h-645q0 -346 285 -346q125 0 309 51v-186zM750 682q0 192 -38.5 260t-111.5 68q-83 0 -125 -73.5t-47 -254.5h322zM934 1278h-197l-158 186l-157 -186h-197l215 334
h278z" />
    <glyph glyph-name="edieresis" unicode="&#xeb;" horiz-adv-x="1159" 
d="M1024 37q-172 -53 -371 -53q-565 0 -565 606q0 269 140 435.5t384 166.5q229 0 346 -145.5t117 -528.5h-645q0 -346 285 -346q125 0 309 51v-186zM750 682q0 192 -38.5 260t-111.5 68q-83 0 -125 -73.5t-47 -254.5h322zM790 1300q-59 0 -101 42.5t-42 101.5
q0 60 41.5 101.5t101.5 41.5q59 0 101 -42.5t42 -100.5t-42.5 -101t-100.5 -43zM372 1300q-59 0 -102 43t-43 101t42.5 100.5t102.5 42.5t101 -42t41 -101t-41.5 -101.5t-100.5 -42.5z" />
    <glyph glyph-name="icircumflex" unicode="&#xee;" horiz-adv-x="639" 
d="M498 0h-332v987h-125v189h457v-1176zM675 1278h-197l-158 186l-157 -186h-197l215 334h278z" />
    <glyph glyph-name="idieresis" unicode="&#xef;" horiz-adv-x="639" 
d="M498 0h-332v987h-125v189h457v-1176zM529 1300q-59 0 -101 42.5t-42 101.5q0 60 41.5 101.5t101.5 41.5q59 0 101 -42.5t42 -100.5t-42.5 -101t-100.5 -43zM111 1300q-59 0 -102 43t-43 101t42.5 100.5t102.5 42.5t101 -42t41 -101t-41.5 -101.5t-100.5 -42.5z" />
    <glyph glyph-name="eth" unicode="&#xf0;" horiz-adv-x="1249" 
d="M784 1409q377 -312 377 -817q0 -292 -140 -450t-396 -158q-259 0 -398 153t-139 434q0 260 135.5 411t366.5 151q99 0 166 -46q-54 103 -164 203l-178 -112l-78 116l141 88q-79 60 -135 82l109 144q109 -46 213 -111l170 109l79 -117zM625 944q-97 0 -147 -83t-50 -283
q0 -218 49.5 -312t147.5 -94q100 0 149 88t49 318q0 366 -198 366z" />
    <glyph glyph-name="ntilde" unicode="&#xf1;" horiz-adv-x="1262" 
d="M385 1001q129 191 365 191q187 0 283.5 -99.5t96.5 -285.5v-807h-329v780q0 125 -35 174.5t-107 49.5q-95 0 -143.5 -77t-48.5 -220v-707h-330v1176h199zM848 1589h137v-55q0 -104 -55.5 -170t-151.5 -66q-60 0 -97 15.5t-108 65.5q-46 33 -82 33q-78 0 -78 -93v-21h-137
v66q0 111 57.5 171t159.5 60q46 0 79 -13t79 -46q49 -35 73.5 -45t49.5 -10q74 0 74 84v24z" />
    <glyph glyph-name="ocircumflex" unicode="&#xf4;" horiz-adv-x="1251" 
d="M625 -16q-265 0 -401 158.5t-136 463.5q0 272 144 429t397 157q258 0 396 -156.5t138 -437.5q0 -294 -139 -454t-399 -160zM625 1004q-97 0 -147 -85t-50 -307q0 -254 51 -347t146 -93q96 0 147 87.5t51 352.5q0 392 -198 392zM981 1278h-197l-158 186l-157 -186h-197
l215 334h278z" />
    <glyph glyph-name="odieresis" unicode="&#xf6;" horiz-adv-x="1251" 
d="M625 -16q-265 0 -401 158.5t-136 463.5q0 272 144 429t397 157q258 0 396 -156.5t138 -437.5q0 -294 -139 -454t-399 -160zM625 1004q-97 0 -147 -85t-50 -307q0 -254 51 -347t146 -93q96 0 147 87.5t51 352.5q0 392 -198 392zM836 1300q-59 0 -101 42.5t-42 101.5
q0 60 41.5 101.5t101.5 41.5q59 0 101 -42.5t42 -100.5t-42.5 -101t-100.5 -43zM418 1300q-59 0 -102 43t-43 101t42.5 100.5t102.5 42.5t101 -42t41 -101t-41.5 -101.5t-100.5 -42.5z" />
    <glyph glyph-name="divide" unicode="&#xf7;" horiz-adv-x="1204" 
d="M600 952q-67 0 -114.5 48.5t-47.5 115.5t47 115.5t115 48.5q67 0 115.5 -48.5t48.5 -115.5t-48.5 -115.5t-115.5 -48.5zM1085 598h-964v260h964v-260zM602 178q-67 0 -115.5 47.5t-48.5 114.5t48.5 114.5t115.5 47.5t114.5 -47.5t47.5 -114.5t-47.5 -114.5t-114.5 -47.5z
" />
    <glyph glyph-name="oslash" unicode="&#xf8;" horiz-adv-x="1251" 
d="M1180 1276l-160 -236q143 -158 143 -442q0 -294 -139 -454t-399 -160q-167 0 -281 63l-96 -139h-176l155 231q-139 160 -139 467q0 272 144 429t397 157q162 0 274 -62l101 146h176zM764 926q-51 78 -139 78q-99 0 -150 -90.5t-51 -309.5q0 -98 10 -166zM483 252
q52 -80 142 -80q100 0 151 92t51 348q0 58 -10 133z" />
    <glyph glyph-name="ucircumflex" unicode="&#xfb;" horiz-adv-x="1262" 
d="M879 176q-132 -192 -365 -192q-187 0 -285 99t-98 286v807h332v-781q0 -127 35 -175t106 -48q191 0 191 297v707h331v-1176h-200zM986 1278h-197l-158 186l-157 -186h-197l215 334h278z" />
    <glyph glyph-name="udieresis" unicode="&#xfc;" horiz-adv-x="1262" 
d="M879 176q-132 -192 -365 -192q-187 0 -285 99t-98 286v807h332v-781q0 -127 35 -175t106 -48q191 0 191 297v707h331v-1176h-200zM842 1300q-59 0 -101 42.5t-42 101.5q0 60 41.5 101.5t101.5 41.5q59 0 101 -42.5t42 -100.5t-42.5 -101t-100.5 -43zM424 1300
q-59 0 -102 43t-43 101t42.5 100.5t102.5 42.5t101 -42t41 -101t-41.5 -101.5t-100.5 -42.5z" />
    <glyph glyph-name="yacute" unicode="&#xfd;" horiz-adv-x="1098" 
d="M1081 1176l-340 -1178q-50 -175 -150 -256.5t-263 -81.5q-109 0 -222 25v186q94 -23 181 -23q84 0 128 39t85 160h-168l-314 1129h344l209 -861l222 861h288zM868 1618l-266 -340h-221l204 340h283z" />
    <glyph glyph-name="thorn" unicode="&#xfe;" horiz-adv-x="1251" 
d="M467 1090q58 55 124 78.5t163 23.5q409 0 409 -576q0 -304 -141.5 -465t-407.5 -161q-80 0 -147 12v-336h-330v1917h330v-493zM467 195q43 -17 115 -17q127 0 185 98t58 338q0 205 -44 297.5t-130 92.5q-88 0 -136 -71t-48 -302v-436z" />
    <glyph glyph-name="ydieresis" unicode="&#xff;" horiz-adv-x="1098" 
d="M1081 1176l-340 -1178q-50 -175 -150 -256.5t-263 -81.5q-109 0 -222 25v186q94 -23 181 -23q84 0 128 39t85 160h-168l-314 1129h344l209 -861l222 861h288zM760 1300q-59 0 -101 42.5t-42 101.5q0 60 41.5 101.5t101.5 41.5q59 0 101 -42.5t42 -100.5t-42.5 -101
t-100.5 -43zM342 1300q-59 0 -102 43t-43 101t42.5 100.5t102.5 42.5t101 -42t41 -101t-41.5 -101.5t-100.5 -42.5z" />
    <glyph glyph-name="Amacron" unicode="&#x100;" horiz-adv-x="1253" 
d="M1233 0h-359l-73 309h-406l-76 -309h-305l418 1491h410zM760 506l-160 700l-164 -700h324zM936 1612h-612v186h612v-186z" />
    <glyph glyph-name="amacron" unicode="&#x101;" horiz-adv-x="1169" 
d="M840 0l-45 168q-68 -94 -152.5 -139t-206.5 -45q-173 0 -268.5 91.5t-95.5 256.5q0 200 139 290.5t498 92.5v73q0 81 -19 122t-65 67.5t-138 26.5q-119 0 -309 -58v193q221 53 402 53q226 0 342 -99t116 -292v-801h-198zM655 551q-149 0 -203.5 -59.5t-54.5 -153.5
q0 -166 135 -166q86 0 131.5 56t45.5 163v160h-54zM891 1346h-612v186h612v-186z" />
    <glyph glyph-name="Abreve" unicode="&#x102;" horiz-adv-x="1253" 
d="M1233 0h-359l-73 309h-406l-76 -309h-305l418 1491h410zM760 506l-160 700l-164 -700h324zM983 1887q-74 -328 -346 -328q-274 0 -346 328h166q15 -70 63 -110t117 -40q70 0 118.5 41t61.5 109h166z" />
    <glyph glyph-name="abreve" unicode="&#x103;" horiz-adv-x="1169" 
d="M840 0l-45 168q-68 -94 -152.5 -139t-206.5 -45q-173 0 -268.5 91.5t-95.5 256.5q0 200 139 290.5t498 92.5v73q0 81 -19 122t-65 67.5t-138 26.5q-119 0 -309 -58v193q221 53 402 53q226 0 342 -99t116 -292v-801h-198zM655 551q-149 0 -203.5 -59.5t-54.5 -153.5
q0 -166 135 -166q86 0 131.5 56t45.5 163v160h-54zM932 1606q-74 -328 -346 -328q-274 0 -346 328h166q15 -70 63 -110t117 -40q70 0 118.5 41t61.5 109h166z" />
    <glyph glyph-name="Aogonek" unicode="&#x104;" horiz-adv-x="1253" 
d="M1290 -334q-52 -10 -143 -10q-99 0 -157 43.5t-58 122.5q0 109 98 178h-156l-73 309h-406l-76 -309h-305l418 1491h410l391 -1491q-38 -19 -60 -55.5t-22 -69.5q0 -80 76 -80q24 0 63 8v-137zM760 506l-160 700l-164 -700h324z" />
    <glyph glyph-name="aogonek" unicode="&#x105;" horiz-adv-x="1169" 
d="M1098 -334q-52 -10 -144 -10q-98 0 -156.5 43.5t-58.5 122.5q0 108 101 178l-45 168q-68 -94 -152.5 -139t-206.5 -45q-173 0 -268.5 91.5t-95.5 256.5q0 200 139 290.5t498 92.5v73q0 81 -19 122t-65 67.5t-138 26.5q-119 0 -309 -58v193q221 53 402 53q226 0 342 -99
t116 -292v-801q-80 -50 -80 -125q0 -80 76 -80q24 0 64 8v-137zM655 551q-149 0 -203.5 -59.5t-54.5 -153.5q0 -166 135 -166q86 0 131.5 56t45.5 163v160h-54z" />
    <glyph glyph-name="Cacute" unicode="&#x106;" horiz-adv-x="1006" 
d="M950 16q-134 -32 -256 -32q-297 0 -448.5 175.5t-151.5 602.5q0 745 606 745q122 0 250 -32v-199q-133 35 -211 35q-149 0 -222 -126t-73 -415q0 -329 74 -459.5t227 -130.5q93 0 205 31v-195zM928 1898l-266 -340h-221l204 340h283z" />
    <glyph glyph-name="cacute" unicode="&#x107;" horiz-adv-x="924" 
d="M877 14q-129 -30 -269 -30q-262 0 -391 152.5t-129 463.5q0 290 140 441t413 151q122 0 225 -25v-188q-92 25 -194 25q-123 0 -183.5 -96.5t-60.5 -309.5q0 -231 60.5 -328.5t185.5 -97.5q117 0 203 23v-181zM866 1618l-266 -340h-221l204 340h283z" />
    <glyph glyph-name="Ccircumflex" unicode="&#x108;" horiz-adv-x="1006" 
d="M950 16q-134 -32 -256 -32q-297 0 -448.5 175.5t-151.5 602.5q0 745 606 745q122 0 250 -32v-199q-133 35 -211 35q-149 0 -222 -126t-73 -415q0 -329 74 -459.5t227 -130.5q93 0 205 31v-195zM942 1558h-197l-158 186l-157 -186h-197l215 334h278z" />
    <glyph glyph-name="ccircumflex" unicode="&#x109;" horiz-adv-x="924" 
d="M877 14q-129 -30 -269 -30q-262 0 -391 152.5t-129 463.5q0 290 140 441t413 151q122 0 225 -25v-188q-92 25 -194 25q-123 0 -183.5 -96.5t-60.5 -309.5q0 -231 60.5 -328.5t185.5 -97.5q117 0 203 23v-181zM862 1278h-197l-158 186l-157 -186h-197l215 334h278z" />
    <glyph glyph-name="Cdotaccent" unicode="&#x10a;" horiz-adv-x="1006" 
d="M950 16q-134 -32 -256 -32q-297 0 -448.5 175.5t-151.5 602.5q0 745 606 745q122 0 250 -32v-199q-133 35 -211 35q-149 0 -222 -126t-73 -415q0 -329 74 -459.5t227 -130.5q93 0 205 31v-195zM588 1564q-81 0 -130.5 40.5t-49.5 111.5q0 70 48.5 111t131.5 41
q79 0 129.5 -42t50.5 -110q0 -71 -49.5 -111.5t-130.5 -40.5z" />
    <glyph glyph-name="cdotaccent" unicode="&#x10b;" horiz-adv-x="924" 
d="M877 14q-129 -30 -269 -30q-262 0 -391 152.5t-129 463.5q0 290 140 441t413 151q122 0 225 -25v-188q-92 25 -194 25q-123 0 -183.5 -96.5t-60.5 -309.5q0 -231 60.5 -328.5t185.5 -97.5q117 0 203 23v-181zM557 1298q-81 0 -130.5 40.5t-49.5 111.5q0 70 48.5 111
t131.5 41q79 0 129.5 -42t50.5 -110q0 -71 -49.5 -111.5t-130.5 -40.5z" />
    <glyph glyph-name="Ccaron" unicode="&#x10c;" horiz-adv-x="1006" 
d="M950 16q-134 -32 -256 -32q-297 0 -448.5 175.5t-151.5 602.5q0 745 606 745q122 0 250 -32v-199q-133 35 -211 35q-149 0 -222 -126t-73 -415q0 -329 74 -459.5t227 -130.5q93 0 205 31v-195zM961 1893l-216 -334h-278l-215 334h197l157 -187l158 187h197z" />
    <glyph glyph-name="ccaron" unicode="&#x10d;" horiz-adv-x="924" 
d="M877 14q-129 -30 -269 -30q-262 0 -391 152.5t-129 463.5q0 290 140 441t413 151q122 0 225 -25v-188q-92 25 -194 25q-123 0 -183.5 -96.5t-60.5 -309.5q0 -231 60.5 -328.5t185.5 -97.5q117 0 203 23v-181zM898 1612l-216 -334h-278l-215 334h197l157 -187l158 187h197
z" />
    <glyph glyph-name="Dcaron" unicode="&#x10e;" horiz-adv-x="1309" 
d="M565 1491q219 0 351 -61.5t215 -218t83 -439.5q0 -190 -36 -331t-111 -237.5t-195.5 -150t-332.5 -53.5h-396v1491h422zM571 199q159 0 227 122t68 443q0 176 -23.5 281t-65.5 158.5t-92.5 73t-127.5 19.5h-76v-1097h90zM1010 1893l-216 -334h-278l-215 334h197l157 -187
l158 187h197z" />
    <glyph glyph-name="dcaron" unicode="&#x10f;" horiz-adv-x="1567" 
d="M872 158q-118 -174 -333 -174q-451 0 -451 610q0 277 117.5 437.5t343.5 160.5q149 0 239 -78v469h330v-1583h-198zM610 1004q-93 0 -138.5 -95t-45.5 -323q0 -414 188 -414q73 0 114 42.5t52 126.5t11 265q0 243 -46.5 320.5t-134.5 77.5zM1589 1583q-57 -204 -192 -434
h-187q92 265 107 434h272z" />
    <glyph glyph-name="Dcroat" unicode="&#x110;" horiz-adv-x="1354" 
d="M610 1491q213 0 345 -58.5t218.5 -215t86.5 -445.5q0 -181 -33 -318.5t-105 -237t-194.5 -158t-343.5 -58.5h-396v682h-131v197h131v612h422zM616 199q159 0 227 122t68 443q0 176 -23.5 281t-65.5 158.5t-92.5 73t-127.5 19.5h-76v-417h219v-197h-219v-483h90z" />
    <glyph glyph-name="dcroat" unicode="&#x111;" horiz-adv-x="1255" 
d="M872 158q-118 -174 -333 -174q-451 0 -451 610q0 277 117.5 437.5t343.5 160.5q149 0 239 -78v184h-251v183h251v102h330v-102h129v-183h-129v-1298h-198zM610 1004q-93 0 -138.5 -95t-45.5 -323q0 -414 188 -414q73 0 114 42.5t52 126.5t11 265q0 243 -46.5 320.5
t-134.5 77.5z" />
    <glyph glyph-name="Emacron" unicode="&#x112;" horiz-adv-x="1010" 
d="M958 0h-815v1491h807v-197h-469v-389h375v-196h-375v-512h477v-197zM841 1612h-612v186h612v-186z" />
    <glyph glyph-name="emacron" unicode="&#x113;" horiz-adv-x="1159" 
d="M1024 37q-172 -53 -371 -53q-565 0 -565 606q0 269 140 435.5t384 166.5q229 0 346 -145.5t117 -528.5h-645q0 -346 285 -346q125 0 309 51v-186zM750 682q0 192 -38.5 260t-111.5 68q-83 0 -125 -73.5t-47 -254.5h322zM886 1346h-612v186h612v-186z" />
    <glyph glyph-name="Ebreve" unicode="&#x114;" horiz-adv-x="1010" 
d="M958 0h-815v1491h807v-197h-469v-389h375v-196h-375v-512h477v-197zM884 1886q-74 -328 -346 -328q-274 0 -346 328h166q15 -70 63 -110t117 -40q70 0 118.5 41t61.5 109h166z" />
    <glyph glyph-name="ebreve" unicode="&#x115;" horiz-adv-x="1159" 
d="M1024 37q-172 -53 -371 -53q-565 0 -565 606q0 269 140 435.5t384 166.5q229 0 346 -145.5t117 -528.5h-645q0 -346 285 -346q125 0 309 51v-186zM750 682q0 192 -38.5 260t-111.5 68q-83 0 -125 -73.5t-47 -254.5h322zM925 1606q-74 -328 -346 -328q-274 0 -346 328h166
q15 -70 63 -110t117 -40q70 0 118.5 41t61.5 109h166z" />
    <glyph glyph-name="Edotaccent" unicode="&#x116;" horiz-adv-x="1010" 
d="M958 0h-815v1491h807v-197h-469v-389h375v-196h-375v-512h477v-197zM536 1564q-81 0 -130.5 40.5t-49.5 111.5q0 70 48.5 111t131.5 41q79 0 129.5 -42t50.5 -110q0 -71 -49.5 -111.5t-130.5 -40.5z" />
    <glyph glyph-name="edotaccent" unicode="&#x117;" horiz-adv-x="1159" 
d="M1024 37q-172 -53 -371 -53q-565 0 -565 606q0 269 140 435.5t384 166.5q229 0 346 -145.5t117 -528.5h-645q0 -346 285 -346q125 0 309 51v-186zM750 682q0 192 -38.5 260t-111.5 68q-83 0 -125 -73.5t-47 -254.5h322zM600 1298q-81 0 -130.5 40.5t-49.5 111.5
q0 70 48.5 111t131.5 41q79 0 129.5 -42t50.5 -110q0 -71 -49.5 -111.5t-130.5 -40.5z" />
    <glyph glyph-name="Eogonek" unicode="&#x118;" horiz-adv-x="1010" 
d="M993 -334q-52 -10 -143 -10q-99 0 -157 43.5t-58 122.5q0 109 98 178h-590v1491h807v-197h-469v-389h375v-196h-375v-512h477v-197h-24q-80 -50 -80 -125q0 -80 76 -80q24 0 63 8v-137z" />
    <glyph glyph-name="eogonek" unicode="&#x119;" horiz-adv-x="1159" 
d="M1024 37q-40 -26 -71 -75.5t-31 -86.5q0 -80 75 -80q24 0 64 8v-137q-52 -10 -143 -10q-99 0 -157.5 43.5t-58.5 122.5q0 101 86 168q-65 -6 -135 -6q-565 0 -565 606q0 269 140 435.5t384 166.5q229 0 346 -145.5t117 -528.5h-645q0 -346 285 -346q125 0 309 51v-186z
M750 682q0 192 -38.5 260t-111.5 68q-83 0 -125 -73.5t-47 -254.5h322z" />
    <glyph glyph-name="Ecaron" unicode="&#x11a;" horiz-adv-x="1010" 
d="M958 0h-815v1491h807v-197h-469v-389h375v-196h-375v-512h477v-197zM891 1893l-216 -334h-278l-215 334h197l157 -187l158 187h197z" />
    <glyph glyph-name="ecaron" unicode="&#x11b;" horiz-adv-x="1159" 
d="M1024 37q-172 -53 -371 -53q-565 0 -565 606q0 269 140 435.5t384 166.5q229 0 346 -145.5t117 -528.5h-645q0 -346 285 -346q125 0 309 51v-186zM750 682q0 192 -38.5 260t-111.5 68q-83 0 -125 -73.5t-47 -254.5h322zM949 1612l-216 -334h-278l-215 334h197l157 -187
l158 187h197z" />
    <glyph glyph-name="Gcircumflex" unicode="&#x11c;" horiz-adv-x="1249" 
d="M907 131q-44 -67 -124.5 -107t-174.5 -40q-256 0 -385 178.5t-129 599.5q0 364 165.5 554.5t490.5 190.5q173 0 317 -39v-194q-138 37 -287 37q-336 0 -336 -545q0 -364 56 -476t164 -112q73 0 113 55.5t40 151.5v190h-129v197h457v-772h-197zM1041 1558h-197l-158 186
l-157 -186h-197l215 334h278z" />
    <glyph glyph-name="gcircumflex" unicode="&#x11d;" horiz-adv-x="1243" 
d="M913 1176h199v-1086q0 -213 -129.5 -321.5t-370.5 -108.5q-193 0 -440 53v187q210 -52 352 -52q118 0 171 36t70 98.5t17 189.5q-87 -119 -280 -119q-204 0 -307 143.5t-103 421.5q0 261 120.5 417.5t340.5 156.5q208 0 311 -172zM616 1004q-90 0 -138 -75.5t-48 -295.5
q0 -215 45.5 -303t132.5 -88t132.5 70t45.5 317q0 211 -41.5 293t-128.5 82zM967 1278h-197l-158 186l-157 -186h-197l215 334h278z" />
    <glyph glyph-name="Gbreve" unicode="&#x11e;" horiz-adv-x="1249" 
d="M907 131q-44 -67 -124.5 -107t-174.5 -40q-256 0 -385 178.5t-129 599.5q0 364 165.5 554.5t490.5 190.5q173 0 317 -39v-194q-138 37 -287 37q-336 0 -336 -545q0 -364 56 -476t164 -112q73 0 113 55.5t40 151.5v190h-129v197h457v-772h-197zM1007 1887
q-74 -328 -346 -328q-274 0 -346 328h166q15 -70 63 -110t117 -40q70 0 118.5 41t61.5 109h166z" />
    <glyph glyph-name="gbreve" unicode="&#x11f;" horiz-adv-x="1243" 
d="M913 1176h199v-1086q0 -213 -129.5 -321.5t-370.5 -108.5q-193 0 -440 53v187q210 -52 352 -52q118 0 171 36t70 98.5t17 189.5q-87 -119 -280 -119q-204 0 -307 143.5t-103 421.5q0 261 120.5 417.5t340.5 156.5q208 0 311 -172zM616 1004q-90 0 -138 -75.5t-48 -295.5
q0 -215 45.5 -303t132.5 -88t132.5 70t45.5 317q0 211 -41.5 293t-128.5 82zM968 1606q-74 -328 -346 -328q-274 0 -346 328h166q15 -70 63 -110t117 -40q70 0 118.5 41t61.5 109h166z" />
    <glyph glyph-name="Gdotaccent" unicode="&#x120;" horiz-adv-x="1249" 
d="M907 131q-44 -67 -124.5 -107t-174.5 -40q-256 0 -385 178.5t-129 599.5q0 364 165.5 554.5t490.5 190.5q173 0 317 -39v-194q-138 37 -287 37q-336 0 -336 -545q0 -364 56 -476t164 -112q73 0 113 55.5t40 151.5v190h-129v197h457v-772h-197zM657 1564
q-81 0 -130.5 40.5t-49.5 111.5q0 70 48.5 111t131.5 41q79 0 129.5 -42t50.5 -110q0 -71 -49.5 -111.5t-130.5 -40.5z" />
    <glyph glyph-name="gdotaccent" unicode="&#x121;" horiz-adv-x="1243" 
d="M913 1176h199v-1086q0 -213 -129.5 -321.5t-370.5 -108.5q-193 0 -440 53v187q210 -52 352 -52q118 0 171 36t70 98.5t17 189.5q-87 -119 -280 -119q-204 0 -307 143.5t-103 421.5q0 261 120.5 417.5t340.5 156.5q208 0 311 -172zM616 1004q-90 0 -138 -75.5t-48 -295.5
q0 -215 45.5 -303t132.5 -88t132.5 70t45.5 317q0 211 -41.5 293t-128.5 82zM622 1298q-81 0 -130.5 40.5t-49.5 111.5q0 70 48.5 111t131.5 41q79 0 129.5 -42t50.5 -110q0 -71 -49.5 -111.5t-130.5 -40.5z" />
    <glyph glyph-name="Gcommaaccent" unicode="&#x122;" horiz-adv-x="1249" 
d="M907 131q-44 -67 -124.5 -107t-174.5 -40q-256 0 -385 178.5t-129 599.5q0 364 165.5 554.5t490.5 190.5q173 0 317 -39v-194q-138 37 -287 37q-336 0 -336 -545q0 -364 56 -476t164 -112q73 0 113 55.5t40 151.5v190h-129v197h457v-772h-197zM346 -274q174 90 283 249
l198 -114q-50 -76 -154 -143t-222 -101z" />
    <glyph glyph-name="gcommaaccent" unicode="&#x123;" horiz-adv-x="1243" 
d="M913 1176h199v-1086q0 -213 -129.5 -321.5t-370.5 -108.5q-193 0 -440 53v187q210 -52 352 -52q118 0 171 36t70 98.5t17 189.5q-87 -119 -280 -119q-204 0 -307 143.5t-103 421.5q0 261 120.5 417.5t340.5 156.5q208 0 311 -172zM616 1004q-90 0 -138 -75.5t-48 -295.5
q0 -215 45.5 -303t132.5 -88t132.5 70t45.5 317q0 211 -41.5 293t-128.5 82zM846 1608q-133 -160 -180 -332l-226 41q22 88 97 187t174 171z" />
    <glyph glyph-name="Hcircumflex" unicode="&#x124;" horiz-adv-x="1333" 
d="M1188 0h-336v713h-371v-713h-338v1491h338v-586h371v586h336v-1491zM1020 1558h-197l-158 186l-157 -186h-197l215 334h278z" />
    <glyph glyph-name="hcircumflex" unicode="&#x125;" horiz-adv-x="1262" 
d="M1130 0h-329v788q0 119 -35 167.5t-107 48.5q-94 0 -143 -77.5t-49 -219.5v-707h-330v1583h330v-502q114 111 283 111q186 0 283 -99t97 -288v-805zM985 1644h-197l-158 186l-157 -186h-197l215 334h278z" />
    <glyph glyph-name="Hbar" unicode="&#x126;" horiz-adv-x="1333" 
d="M1188 0h-336v530h-371v-530h-338v1491h338v-391h371v391h336v-1491zM852 723v184h-371v-184h371z" />
    <glyph glyph-name="hbar" unicode="&#x127;" horiz-adv-x="1262" 
d="M467 1298v-217q114 111 283 111q186 0 283 -99t97 -288v-805h-329v788q0 119 -35 167.5t-107 48.5q-94 0 -143 -77.5t-49 -219.5v-707h-330v1298h-127v183h127v102h330v-102h409v-183h-409z" />
    <glyph glyph-name="Imacron" unicode="&#x12a;" horiz-adv-x="727" 
d="M655 0h-583v197h123v1097h-123v197h583v-197h-123v-1097h123v-197zM669 1612h-612v186h612v-186z" />
    <glyph glyph-name="imacron" unicode="&#x12b;" horiz-adv-x="639" 
d="M498 0h-332v987h-125v189h457v-1176zM625 1346h-612v186h612v-186z" />
    <glyph glyph-name="Ibreve" unicode="&#x12c;" horiz-adv-x="727" 
d="M655 0h-583v197h123v1097h-123v197h583v-197h-123v-1097h123v-197zM710 1886q-74 -328 -346 -328q-274 0 -346 328h166q15 -70 63 -110t117 -40q70 0 118.5 41t61.5 109h166z" />
    <glyph glyph-name="ibreve" unicode="&#x12d;" horiz-adv-x="639" 
d="M498 0h-332v987h-125v189h457v-1176zM666 1606q-74 -328 -346 -328q-274 0 -346 328h166q15 -70 63 -110t117 -40q70 0 118.5 41t61.5 109h166z" />
    <glyph glyph-name="Iogonek" unicode="&#x12e;" horiz-adv-x="727" 
d="M655 197v-197q-80 -50 -80 -125q0 -80 76 -80q24 0 64 8v-137q-52 -10 -144 -10q-98 0 -156.5 43.5t-58.5 122.5q0 110 99 178h-383v197h123v1097h-123v197h583v-197h-123v-1097h123z" />
    <glyph glyph-name="iogonek" unicode="&#x12f;" horiz-adv-x="639" 
d="M332 1298q-81 0 -130.5 40.5t-49.5 111.5t48.5 111.5t131.5 40.5q78 0 129 -41.5t51 -110.5q0 -71 -49.5 -111.5t-130.5 -40.5zM166 0v987h-125v189h457v-1176q-80 -49 -80 -125q0 -80 76 -80q24 0 63 8v-137q-52 -10 -143 -10q-99 0 -157 43.5t-58 122.5q0 110 98 178
h-131z" />
    <glyph glyph-name="Idotaccent" unicode="&#x130;" horiz-adv-x="727" 
d="M655 0h-583v197h123v1097h-123v197h583v-197h-123v-1097h123v-197zM364 1564q-81 0 -130.5 40.5t-49.5 111.5q0 70 48.5 111t131.5 41q79 0 129.5 -42t50.5 -110q0 -71 -49.5 -111.5t-130.5 -40.5z" />
    <glyph glyph-name="dotlessi" unicode="&#x131;" horiz-adv-x="639" 
d="M498 0h-332v987h-125v189h457v-1176z" />
    <glyph glyph-name="IJ" unicode="&#x132;" horiz-adv-x="1450" 
d="M655 0h-583v197h123v1097h-123v197h583v-197h-123v-1097h123v-197zM1382 1294h-125v-1245q0 -185 -96 -281t-284 -96q-102 0 -218 21v196q82 -18 134 -18q69 0 99 35.5t30 128.5v1259h-123v197h583v-197z" />
    <glyph glyph-name="ij" unicode="&#x133;" horiz-adv-x="1278" 
d="M332 1298q-81 0 -130.5 40.5t-49.5 111.5t48.5 111.5t131.5 40.5q78 0 129 -41.5t51 -110.5q0 -71 -49.5 -111.5t-130.5 -40.5zM971 1298q-81 0 -130.5 40.5t-49.5 111.5t48.5 111.5t131.5 40.5q78 0 129 -41.5t51 -110.5q0 -71 -49.5 -111.5t-130.5 -40.5zM498 0h-332
v987h-125v189h457v-1176zM1137 23q0 -176 -96.5 -269.5t-278.5 -93.5q-111 0 -213 21v190q85 -18 135 -18q66 0 93.5 38.5t27.5 118.5v977h-125v189h457v-1153z" />
    <glyph glyph-name="Jcircumflex" unicode="&#x134;" horiz-adv-x="723" 
d="M655 1294h-125v-1245q0 -185 -96 -281t-284 -96q-102 0 -218 21v196q82 -18 134 -18q69 0 99 35.5t30 128.5v1259h-123v197h583v-197zM717 1558h-197l-158 186l-157 -186h-197l215 334h278z" />
    <glyph glyph-name="jcircumflex" unicode="&#x135;" horiz-adv-x="639" 
d="M674 1278h-197l-158 186l-157 -186h-197l215 334h278zM498 23q0 -176 -96.5 -269.5t-278.5 -93.5q-111 0 -213 21v190q85 -18 135 -18q66 0 93.5 38.5t27.5 118.5v977h-125v189h457v-1153z" />
    <glyph glyph-name="Kcommaaccent" unicode="&#x136;" horiz-adv-x="1262" 
d="M1249 0h-387l-381 754v-754h-338v1491h338v-688l414 688h334l-424 -662zM349 -274q174 90 283 249l198 -114q-50 -76 -154 -143t-222 -101z" />
    <glyph glyph-name="kcommaaccent" unicode="&#x137;" horiz-adv-x="1182" 
d="M1182 0h-375l-340 627v-627h-330v1583h330v-936l348 529h322l-349 -490zM328 -274q174 90 283 249l198 -114q-50 -76 -154 -143t-222 -101z" />
    <glyph glyph-name="kgreenlandic" unicode="&#x138;" horiz-adv-x="1182" 
d="M788 686l394 -686h-375l-340 627v-627h-330v1176h330v-529l348 529h321z" />
    <glyph glyph-name="Lacute" unicode="&#x139;" horiz-adv-x="985" 
d="M944 0h-801v1491h338v-1294h463v-197zM741 1899l-266 -340h-221l204 340h283z" />
    <glyph glyph-name="lacute" unicode="&#x13a;" horiz-adv-x="602" 
d="M467 0h-332v1583h332v-1583zM625 1999l-266 -340h-221l204 340h283z" />
    <glyph glyph-name="Lcommaaccent" unicode="&#x13b;" horiz-adv-x="985" 
d="M944 0h-801v1491h338v-1294h463v-197zM279 -274q174 90 283 249l198 -114q-50 -76 -154 -143t-222 -101z" />
    <glyph glyph-name="lcommaaccent" unicode="&#x13c;" horiz-adv-x="602" 
d="M467 0h-332v1583h332v-1583zM44 -274q174 90 283 249l198 -114q-50 -76 -154 -143t-222 -101z" />
    <glyph glyph-name="Lcaron" unicode="&#x13d;" horiz-adv-x="985" 
d="M944 0h-801v1491h338v-1294h463v-197zM946 1583q-57 -204 -192 -434h-187q91 264 107 434h272z" />
    <glyph glyph-name="lcaron" unicode="&#x13e;" horiz-adv-x="913" 
d="M467 0h-332v1583h332v-1583zM938 1583q-58 -210 -193 -434h-186q91 264 107 434h272z" />
    <glyph glyph-name="Ldot" unicode="&#x13f;" horiz-adv-x="985" 
d="M143 0v1491h338v-1294h463v-197h-801zM575 819q0 68 46.5 115t113.5 47q65 0 113.5 -48t48.5 -114q0 -67 -47 -114.5t-115 -47.5q-67 0 -113.5 47.5t-46.5 114.5z" />
    <glyph glyph-name="ldot" unicode="&#x140;" horiz-adv-x="882" 
d="M135 0v1583h332v-1583h-332zM547 819q0 68 46 115t113 47q66 0 114 -48t48 -114q0 -67 -47 -114.5t-115 -47.5q-67 0 -113 47.5t-46 114.5z" />
    <glyph glyph-name="Lslash" unicode="&#x141;" horiz-adv-x="1016" 
d="M975 0h-799v590l-147 -92v192l147 88v713h336v-533l229 140v-193l-229 -135v-573h463v-197z" />
    <glyph glyph-name="lslash" unicode="&#x142;" horiz-adv-x="649" 
d="M627 868l-138 -82v-786h-329v614l-137 -86v189l137 84v782h329v-610l138 86v-191z" />
    <glyph glyph-name="Nacute" unicode="&#x143;" horiz-adv-x="1403" 
d="M1260 0h-275l-512 981v-981h-330v1491h293l494 -944v944h330v-1491zM1022 1899l-266 -340h-221l204 340h283z" />
    <glyph glyph-name="nacute" unicode="&#x144;" horiz-adv-x="1262" 
d="M385 1001q129 191 365 191q187 0 283.5 -99.5t96.5 -285.5v-807h-329v780q0 125 -35 174.5t-107 49.5q-95 0 -143.5 -77t-48.5 -220v-707h-330v1176h199zM950 1618l-266 -340h-221l204 340h283z" />
    <glyph glyph-name="Ncommaaccent" unicode="&#x145;" horiz-adv-x="1403" 
d="M1260 0h-275l-512 981v-981h-330v1491h293l494 -944v944h330v-1491zM411 -274q174 90 283 249l198 -114q-50 -76 -154 -143t-222 -101z" />
    <glyph glyph-name="ncommaaccent" unicode="&#x146;" horiz-adv-x="1262" 
d="M385 1001q129 191 365 191q187 0 283.5 -99.5t96.5 -285.5v-807h-329v780q0 125 -35 174.5t-107 49.5q-95 0 -143.5 -77t-48.5 -220v-707h-330v1176h199zM333 -274q174 90 283 249l198 -114q-50 -76 -154 -143t-222 -101z" />
    <glyph glyph-name="Ncaron" unicode="&#x147;" horiz-adv-x="1403" 
d="M1260 0h-275l-512 981v-981h-330v1491h293l494 -944v944h330v-1491zM1057 1893l-216 -334h-278l-215 334h197l157 -187l158 187h197z" />
    <glyph glyph-name="ncaron" unicode="&#x148;" horiz-adv-x="1262" 
d="M385 1001q129 191 365 191q187 0 283.5 -99.5t96.5 -285.5v-807h-329v780q0 125 -35 174.5t-107 49.5q-95 0 -143.5 -77t-48.5 -220v-707h-330v1176h199zM986 1612l-216 -334h-278l-215 334h197l157 -187l158 187h197z" />
    </font>
</defs>
</svg>
